<svg id="Camada_1" data-name="Camada 1" xmlns="http://www.w3.org/2000/svg" viewBox="0 0 50 50"><title>icon</title><path d="M49.3,19.45A25,25,0,0,0,29.25.38C28.34.22,27.42.12,26.51,0H23.39c-.93.12-1.86.23-2.79.38A25,25,0,0,0,.48,20.08c-.2,1.09-.32,2.2-.48,3.31v3.12c.16,1.09.27,2.19.48,3.27A25,25,0,1,0,49.3,19.45Zm-24.38,29A23.49,23.49,0,1,1,48.44,25,23.49,23.49,0,0,1,24.92,48.44Z"/><path d="M25,2.91A22,22,0,1,0,47,25,22,22,0,0,0,25,2.91Zm-.05,42.62A20.58,20.58,0,1,1,45.53,25,20.61,20.61,0,0,1,24.93,45.53Z"/><path d="M32.17,33.66a1.71,1.71,0,0,0-1.53-1.48A7.9,7.9,0,0,0,25,33.5c-.62-.31-1.16-.63-1.74-.87a8.84,8.84,0,0,0-3.65-.47,1.83,1.83,0,0,0-1.95,1.91,12.69,12.69,0,0,0,.18,2.61,5.06,5.06,0,0,0,4,4.38,13.5,13.5,0,0,0,6.13,0,4.83,4.83,0,0,0,3.31-2.37A8.18,8.18,0,0,0,32.17,33.66Zm-7.41,6.23c-.22,0-.45,0-.68,0a6.45,6.45,0,0,1-2.86-.63,3.86,3.86,0,0,1-2-3.06,11.15,11.15,0,0,1-.09-2.08.66.66,0,0,1,.39-.49,7.57,7.57,0,0,1,3.4.41,3.86,3.86,0,0,1,2.38,3.35,11.87,11.87,0,0,1,.1,1.79C25.43,39.8,25.36,39.86,24.76,39.89Zm5.47-2.28a3.75,3.75,0,0,1-3.35,2.16,9.14,9.14,0,0,0-1-5.09,4.93,4.93,0,0,1,2.75-1c.53-.06,1.07,0,1.61,0a.44.44,0,0,1,.5.47A7.31,7.31,0,0,1,30.23,37.61Z"/><path d="M25.25,13.36a2.55,2.55,0,0,0-2.54,2.49c0,1,0,2,0,3a2.54,2.54,0,0,0,5.07,0c0-.5,0-1,0-1.51s0-1,0-1.51A2.53,2.53,0,0,0,25.25,13.36Zm1.07,4c0,.48,0,1,0,1.46a1.07,1.07,0,0,1-2.14,0c0-1,0-1.95,0-2.92a1.07,1.07,0,0,1,1.09-1.08,1.09,1.09,0,0,1,1.05,1.12Z"/><path d="M21.62,17.39c0-.52,0-1,0-1.56a2.55,2.55,0,0,0-2.57-2.47,2.52,2.52,0,0,0-2.5,2.52c0,1,0,2,0,3a2.52,2.52,0,0,0,2.33,2.45,2.5,2.5,0,0,0,2.67-2.06,17,17,0,0,0,.1-1.89Zm-1.46,0c0,.46,0,.91,0,1.37a1.11,1.11,0,0,1-1.11,1.16,1.07,1.07,0,0,1-1-1.17c0-.91,0-1.82,0-2.72a1.09,1.09,0,0,1,1-1.17A1.1,1.1,0,0,1,20.16,16C20.17,16.44,20.16,16.9,20.16,17.35Z"/><path d="M12.41,28.78c0,.42-.11.79-.55.92a.81.81,0,0,1-1-.43,25.7,25.7,0,0,0-1.77-2.38v1.76c0,.79-.23,1.15-.73,1.15s-.73-.36-.73-1.15v-4c0-.42,0-.8.52-.93s.72.13,1,.47c.56.83,1.13,1.65,1.78,2.59,0-.84,0-1.53,0-2.22s.28-.9.73-.9.72.34.72.87C12.39,25.92,12.39,27.35,12.41,28.78Z"/><path d="M32.49,28.52c-.3-.36-.61-.71-1-1.11l.27-.19A1.92,1.92,0,0,0,31,23.66a10.14,10.14,0,0,0-1.46,0c-.54,0-.79.28-.79.84q0,2.26,0,4.53a.73.73,0,0,0,.71.81.75.75,0,0,0,.74-.8c0-.25,0-.5,0-.88.47.53.83.95,1.2,1.35a.73.73,0,1,0,1.1-.95Zm-1.32-2.71a8,8,0,0,1-.94.37V25a5.58,5.58,0,0,1,.94.37C31.24,25.39,31.25,25.77,31.17,25.81Z"/><path d="M18.35,28.73l-1.7-4.5a.82.82,0,0,0-.8-.6.81.81,0,0,0-.81.59c-.21.56-.42,1.12-.64,1.68l-1.08,2.86a.69.69,0,0,0,.32.95.61.61,0,0,0,.92-.25c.2-.57.58-.55,1-.52a5.14,5.14,0,0,0,.68,0c.38,0,.66,0,.81.46a.6.6,0,0,0,.8.37.74.74,0,0,0,.55-.76Zm-3-1.28.46-1.22c.18.46.31.82.46,1.22Z"/><path d="M27.67,27.92A2.37,2.37,0,0,1,23,27.77c0-.56,0-1.13,0-1.7s0-1.1,0-1.66a.72.72,0,0,1,.69-.78.73.73,0,0,1,.76.77c0,1,0,2,0,3a.86.86,0,0,0,.85.92.87.87,0,0,0,.95-.92c0-.91,0-1.82,0-2.72a2.12,2.12,0,0,1,0-.44.67.67,0,0,1,.74-.62.64.64,0,0,1,.68.68C27.71,25.52,27.74,26.72,27.67,27.92Z"/><path d="M38.42,28.73l-1.69-4.5a.82.82,0,0,0-.8-.6.84.84,0,0,0-.83.63c-.21.54-.41,1.09-.62,1.63-.36,1-.73,1.91-1.09,2.86a.71.71,0,0,0,.32,1,.61.61,0,0,0,.92-.25c.2-.56.58-.55,1-.52a5.14,5.14,0,0,0,.68,0c.38,0,.66,0,.81.46a.6.6,0,0,0,.8.37A.72.72,0,0,0,38.5,29C38.48,29,38.46,28.84,38.42,28.73Zm-3-1.26c.14-.4.28-.76.45-1.24.18.46.31.82.48,1.24Z"/><path d="M15.56,14.28q0,3.07,0,6.13a.74.74,0,0,1-.74.8.72.72,0,0,1-.71-.81c0-1.62,0-3.25,0-4.87,0-.17,0-.35,0-.56-.3,0-.51,0-.72-.05a.65.65,0,0,1-.62-.64.62.62,0,0,1,.54-.74,8.05,8.05,0,0,1,1.7,0C15.4,13.57,15.56,13.91,15.56,14.28Z"/><path d="M22.14,24.4a.65.65,0,0,1-.64.66,5.76,5.76,0,0,1-.64,0v1.26c0,.88,0,1.76,0,2.63a.74.74,0,0,1-.73.81.73.73,0,0,1-.72-.8c0-1.28,0-2.57,0-3.9a5.57,5.57,0,0,1-.63,0,.66.66,0,0,1-.65-.67.62.62,0,0,1,.56-.73c1,0,1.95,0,2.92,0A.62.62,0,0,1,22.14,24.4Z"/><path d="M36.5,14.33c0,.1-.07.24-.12.37Q35.2,17.52,34,20.35a.79.79,0,0,1-.8.58.71.71,0,0,1-.61-1c.82-2,1.66-4,2.5-6a.66.66,0,0,1,.84-.41A.73.73,0,0,1,36.5,14.33Z"/><path d="M31.22,13.26a1.93,1.93,0,0,0-1.84,2,1.84,1.84,0,1,0,3.66,0A1.93,1.93,0,0,0,31.22,13.26Zm0,2.54c-.12-.18-.34-.37-.34-.55s.24-.35.37-.52l.47.58Z"/><path d="M37.8,17.33a1.89,1.89,0,0,0-1.86,2,1.93,1.93,0,0,0,1.77,2.05,2,2,0,0,0,.09-4Zm-.07,2.54c-.11-.19-.3-.38-.3-.58s.21-.32.33-.49l.52.56Z"/><path d="M42.24,29.05a.73.73,0,0,1-.74.75c-.53,0-1.07,0-1.6,0a.7.7,0,0,1-.75-.73c0-1.58,0-3.15,0-4.72a.7.7,0,0,1,.7-.72.72.72,0,0,1,.74.79c0,1.1,0,2.2,0,3.3v.63c.33,0,.61,0,.88,0A.7.7,0,0,1,42.24,29.05Z"/></svg>