<svg version="1.1" id="Camada_1" xmlns="http://www.w3.org/2000/svg" xmlns:xlink="http://www.w3.org/1999/xlink" x="0px" y="0px"
	 viewBox="0 0 50 50" style="enable-background:new 0 0 50 50;" xml:space="preserve">
<style type="text/css">
	.st0{fill:#FFFFFF;}
</style>
<g>
	<path d="M-95.6-61.8c-3.7-4.8-8.6-7.9-14.6-9.2c-1.1-0.2-2.2-0.3-3.3-0.5c-0.2,0-0.3-0.1-0.5-0.1h-2.9c-1,0.1-1.9,0.2-2.8,0.4
		c-5.7,1-10.4,3.7-14.3,7.9c-3.6,4-5.7,8.8-6.3,14.1c0,0.4-0.1,0.7-0.1,1.1v2.9c0.1,0.9,0.2,1.9,0.4,2.8c1.4,7.5,5.4,13.2,11.8,17.2
		c3.3,2.1,7,3.2,10.9,3.4c0.1,0,0.3,0,0.4,0.1h2.9c1-0.1,1.9-0.2,2.8-0.4c5.8-1,10.6-3.8,14.5-8.2c3.5-4,5.5-8.7,6.1-13.9
		C-89.9-50.6-91.6-56.5-95.6-61.8z M-115.4-24.3c-12.3,0-22.2-10-22.2-22.3c0-12.3,10-22.3,22.3-22.3c12.3,0,22.2,10,22.2,22.3
		C-93.1-34.2-103.1-24.2-115.4-24.3z"/>
	<path d="M-102.3-39.8c-2.8,4.1-6.6,6.4-11.4,7c-6.2,0.7-11.8-2.6-14.6-7c0.8-0.5,1.5-1,2.2-1.4c5.5,8.1,16.7,7.4,21.6,0
		C-103.9-40.8-103.1-40.3-102.3-39.8z"/>
	<path d="M-120.8-52.1c0,1.5-1.2,2.7-2.7,2.7c-1.5,0-2.7-1.2-2.7-2.7s1.2-2.7,2.7-2.7C-122.1-54.9-120.8-53.6-120.8-52.1z"/>
	<path d="M-104.2-52.2c0,1.5-1.2,2.7-2.7,2.7c-1.5,0-2.7-1.2-2.7-2.7c0-1.5,1.2-2.7,2.7-2.7C-105.4-54.9-104.2-53.6-104.2-52.2z"/>
</g>
<g>
	<path d="M-177.7,9.3c-0.9-4.2-3.6-6.9-7.8-7.7c-4.8-1-8.4,1-11,5.1c-14.5-3.9-27.8,9.3-23.9,23.9c-4.1,2.6-6.1,6.3-5.1,11.1
		c0.9,4.2,3.6,6.9,7.8,7.8c4.8,1,8.5-1,11.1-5c7.2,1.6,13.6,0.1,18.8-5.1c5.2-5.2,6.7-11.7,5.1-18.8
		C-178.6,17.8-176.7,14.2-177.7,9.3z M-215.4,14c5-6,12.6-7.4,18.2-5.8c-0.1,0.5-0.3,1-0.4,1.4c-6-1.3-11.3,0-15.6,4.3
		c-4.3,4.3-5.6,9.6-4.4,15.6c-0.2,0-0.5,0.1-0.7,0.2c-0.2,0.1-0.5,0.1-0.7,0.2C-220.2,26-219.7,19.2-215.4,14z M-215.6,48.1
		c-4.8,0-8.6-3.8-8.6-8.5c0-4.8,3.8-8.6,8.6-8.6c4.7,0,8.5,3.8,8.5,8.6C-207,44.2-210.9,48.1-215.6,48.1z M-208.5,32.4
		c-2-2-4.5-3-7.5-3c-0.2-1-0.3-2-0.5-3.1h3.1v-1.6h-3c0.2-3.5,1.5-6.5,3.8-9.1c0.6,0.7,1.2,1.3,1.8,1.9c0.4-0.4,0.8-0.8,1.2-1.2
		c-0.6-0.6-1.2-1.2-1.8-1.8c1.3-1.9,6.4-4,9.1-3.8v3h1.6v-3.1c1.1,0.2,2.1,0.3,3.1,0.5c-0.1,5.6,4.4,10.5,10.4,10.5
		c0.1,0.5,0.2,1,0.3,1.5s0.1,1,0.2,1.6h-3.1v1.5h3c-0.2,3.5-1.5,6.5-3.8,9.1c-0.6-0.6-1.2-1.2-1.8-1.8c-0.4,0.4-0.7,0.8-1,1.2
		c0.5,0.5,1.1,1.1,1.8,1.8c-2.7,2.3-5.7,3.6-9.2,3.8v-3h-1.6v3.1c-1.1-0.2-2.1-0.3-3.1-0.5C-205.5,36.9-206.4,34.4-208.5,32.4z
		 M-188.5,37.7c-5.1,5.5-12.5,6.6-17.6,5.1c0.1-0.5,0.3-1,0.4-1.4c6,1.3,11.3,0,15.6-4.3c4.3-4.3,5.6-9.6,4.3-15.6
		c0.5-0.1,0.9-0.3,1.4-0.4C-182.9,25.4-183.5,32.4-188.5,37.7z M-187.6,20c-4.7,0-8.6-3.9-8.6-8.5c0-4.8,3.9-8.6,8.7-8.6
		c4.7,0,8.5,3.9,8.5,8.6C-179,16.2-182.9,20.1-187.6,20z"/>
	<path d="M-195.6,30.3c-0.5,0.4-0.8,0.7-1.2,1.1c0,0-0.1-0.1-0.2-0.2c-1.6-1.7-3.3-3.3-4.9-5c-0.2-0.2-0.4-0.5-0.4-0.8
		c0-2.7,0-5.5,0-8.2c0-0.1,0-0.1,0-0.2h1.5v0.5c0,2.4,0,4.9,0,7.3c0,0.2,0.1,0.5,0.3,0.7c1.5,1.5,3,3,4.5,4.6
		C-195.9,30.1-195.7,30.2-195.6,30.3z"/>
	<path d="M-184.8,12.2h3.5v1.5c-0.1,0-0.3,0-0.4,0h-4.8c-0.4,0-0.8-0.1-1-0.5c-0.2-0.4,0.1-0.7,0.4-1c1-1,2-2,3.2-3.1h-3.5V7.6h1.8
		c1.1,0,2.3,0,3.4,0c0.4,0,0.7,0.1,0.9,0.5c0.2,0.4,0,0.7-0.3,1c-0.9,0.9-1.9,1.9-2.8,2.8C-184.6,11.9-184.7,12-184.8,12.2z"/>
	<path d="M-189.2,13.8v1.6c-1.3,0-2.7,0-4,0c-0.2,0-0.5-0.3-0.6-0.5c-0.1-0.2,0-0.6,0.2-0.8c0.4-0.5,0.9-0.9,1.3-1.4
		c0.1-0.1,0.2-0.2,0.4-0.4h-1.9v-1.6c1.3,0,2.7,0,4,0c0.2,0,0.5,0.3,0.6,0.5c0.1,0.3,0,0.6-0.2,0.8c-0.4,0.5-0.9,0.9-1.3,1.4
		c-0.1,0.1-0.2,0.2-0.4,0.4H-189.2z"/>
	<path d="M-209.5,41.4c-0.2-0.4-0.6-0.4-1-0.3c-1.9,0.1-3.7-1.1-4.3-2.9c-0.4-1.2-0.3-2.4,0.4-3.6c0.4-0.7,0-1.3-0.8-1.3
		c-0.1,0-0.3,0-0.4,0c-3.2,0.3-5.7,3-5.7,6.2c0,2.9,1.9,5.4,4.7,6.1c2.8,0.7,5.6-0.6,6.9-3.1C-209.4,42.1-209.3,41.8-209.5,41.4z
		 M-216.3,44c-2.1-0.6-3.4-2.6-3.2-4.8c0.1-1.9,1.6-3.8,3.2-4c-0.9,3.9,1.5,6.9,4.7,7.5C-212.4,43.9-214.6,44.5-216.3,44z"/>
</g>
<g>
	<path d="M-180.9-64.1c1.4,0.4,2.8-0.5,3.2-1.9c0.4-1.4-0.5-2.8-1.9-3.2c-1.4-0.4-2.8,0.5-3.2,1.9c-0.2,0.9,0,1.7,0.5,2.4
		c-0.7,0.7-1.4,1.5-2.1,2.2c-0.7,0.7-1.4,1.4-2.1,2.1c-2.4-2.4-6.1-2.5-8.6,0c-1.5-1.5-3-2.9-4.5-4.3c0.8-1.7,0.6-3-0.5-3.8
		c-1-0.8-2.3-0.7-3.3,0.1c-1.1,0.9-1.2,2.1-0.3,3.8c-0.7,0.7-1.4,1.4-2.1,2.1c-0.7,0.7-1.4,1.4-2.1,2.1c-2.5-2.5-6.2-2.5-8.6-0.1
		c-1.4-1.4-2.8-2.9-4.3-4.3c0,0,0.1-0.1,0.1-0.1c0.8-1.2,0.6-2.5-0.3-3.4c-0.9-0.9-2.3-1-3.3-0.3c-1,0.7-1.4,2.1-0.9,3.2
		c0.5,1.2,1.8,1.8,3.1,1.5c0.2,0,0.4,0,0.6,0.2c1.4,1.3,2.7,2.7,4.1,4c0.1,0.1,0.1,0.2,0.2,0.2c-1.2,2.1-1.2,4.1,0,6.2
		c-0.1,0.1-0.2,0.3-0.4,0.4c-1.2,1.2-2.5,2.5-3.7,3.7c-0.3,0.3-0.5,0.4-1,0.3c-1.4-0.3-2.8,0.6-3.1,2.1c-0.3,1.3,0.6,2.7,1.9,3.1
		c1.4,0.4,2.8-0.5,3.2-1.9c0.2-0.9,0-1.7-0.5-2.4c1.4-1.5,2.8-2.9,4.2-4.3c2.4,2.4,6.1,2.6,8.7,0.1c1.4,1.4,2.8,2.9,4.3,4.3
		c0,0.1-0.1,0.2-0.2,0.4c-0.5,0.9-0.4,1.8,0.2,2.7c0.6,0.8,1.4,1.3,2.4,1.1c0.7-0.2,1.1,0.1,1.6,0.6c0.2,0.2,0.5,0.5,0.7,0.7
		c1,1,2.1,2.1,3.1,3.1c-1.2,2.1-1.2,4.2,0,6.2c-1.5,1.5-2.9,2.9-4.3,4.3c-0.1,0.1-0.4,0.1-0.6,0.1c-1.4-0.3-2.8,0.5-3.2,2
		c-0.3,1.4,0.5,2.8,1.9,3.2c1.4,0.4,2.9-0.5,3.2-1.9c0.2-0.9,0-1.7-0.5-2.3c1.4-1.5,2.8-2.9,4.2-4.3c2.3,2.3,6,2.5,8.6,0
		c1.4,1.4,2.8,2.8,4.3,4.3c-0.6,0.9-0.7,1.6-0.5,2.5c0.4,1.4,1.9,2.2,3.3,1.8c1.4-0.4,2.2-1.8,1.8-3.2c-0.3-1.4-1.8-2.3-3.2-1.9
		c-0.3,0.1-0.4,0.1-0.6-0.2c-1.3-1.3-2.7-2.7-4-4c-0.2-0.2-0.2-0.3-0.1-0.6c1-1.8,1-3.7,0-5.5c-0.2-0.3-0.1-0.4,0.1-0.7
		c1.3-1.2,2.5-2.5,3.7-3.7c0.3-0.3,0.6-0.6,1.2-0.4c0.2,0.1,0.5,0,0.7,0c1.5-0.2,2.5-1.6,2.3-3.1c-0.3-1.4-1.7-2.4-3.1-2.1
		c-0.1,0-0.4,0-0.4,0c-1.4-1.5-2.8-2.9-4.2-4.4c1.1-1.9,1.1-4-0.1-6c1.4-1.4,2.8-2.8,4.2-4.3C-181.3-64.2-181.2-64.2-180.9-64.1z
		 M-222.9-65.3c-0.8,0-1.4-0.7-1.4-1.5c0-0.8,0.7-1.5,1.5-1.4c0.8,0,1.5,0.7,1.4,1.5C-221.5-65.9-222.1-65.3-222.9-65.3z M-223-45.1
		c-0.8,0-1.4-0.7-1.4-1.5c0-0.8,0.7-1.4,1.5-1.4c0.8,0,1.4,0.7,1.4,1.5C-221.5-45.7-222.2-45.1-223-45.1z M-201.6-25
		c-0.8,0-1.5-0.6-1.5-1.4c0-0.8,0.7-1.5,1.5-1.5c0.8,0,1.5,0.6,1.5,1.4C-200.2-25.7-200.8-25-201.6-25z M-180.5-27.9
		c0.8,0,1.5,0.6,1.5,1.4c0,0.8-0.6,1.5-1.4,1.5c-0.8,0-1.5-0.6-1.5-1.4C-182-27.2-181.3-27.9-180.5-27.9z M-180.5-48.1
		c0.8,0,1.5,0.6,1.5,1.4c0,0.8-0.6,1.5-1.4,1.5c-0.8,0-1.5-0.6-1.5-1.4C-182-47.4-181.3-48.1-180.5-48.1z M-190.9-61.3
		c2.6,0,4.7,2.1,4.7,4.7c0,2.6-2.1,4.7-4.7,4.8c-2.6,0-4.8-2.1-4.8-4.7C-195.6-59.2-193.5-61.3-190.9-61.3z M-201.8-68.2
		c0.8,0,1.5,0.6,1.5,1.5c0,0.8-0.6,1.5-1.5,1.5s-1.5-0.6-1.5-1.4C-203.2-67.5-202.6-68.2-201.8-68.2z M-212.4-51.9
		c-2.6,0-4.7-2.1-4.7-4.7c0-2.6,2.1-4.7,4.7-4.7c2.6,0,4.7,2.1,4.8,4.7C-207.6-54.1-209.7-51.9-212.4-51.9z M-201.6-45.2
		c-0.8,0-1.5-0.7-1.5-1.5c0-0.8,0.6-1.5,1.5-1.5c0.8,0,1.5,0.6,1.5,1.4C-200.2-45.9-200.8-45.2-201.6-45.2z M-200.2-49.2
		c-0.1,0.1-0.3,0.1-0.5,0.1c-0.6,0-1.2,0-1.8-0.1c-0.2,0-0.4,0-0.5-0.1c-1.4-1.3-2.7-2.7-4-4c-0.1-0.1-0.2-0.4-0.1-0.5
		c1-2,1-4-0.1-6c1.5-1.5,2.9-2.9,4.4-4.4c0.1-0.1,0.3-0.1,0.5-0.1c0.5,0,1.1-0.1,1.7-0.1c0.2,0,0.4,0,0.5,0c1.5,1.5,2.9,3,4.4,4.4
		c0,0,0,0.1,0.1,0.1c-0.7,1.1-1,2.4-0.8,3.7c0.1,0.7,0.4,1.5,0.7,2.2c0.1,0.3,0.1,0.4-0.1,0.6C-197.5-51.9-198.8-50.5-200.2-49.2z
		 M-191.1-31.8c-2.6,0-4.7-2.2-4.7-4.8c0-2.6,2.2-4.7,4.8-4.7c2.6,0,4.7,2.2,4.6,4.7C-186.4-33.9-188.5-31.8-191.1-31.8z
		 M-182.5-48.4c-0.8,1.1-0.9,2.3,0,3.5c-1.4,1.4-2.8,2.8-4.3,4.3c-1.2-1.2-2.6-1.8-4.3-1.8c-1.7,0-3.1,0.6-4.3,1.8
		c-1.4-1.4-2.8-2.9-4.3-4.3c0.7-1.2,0.8-1.8,0.1-3.1c1.5-1.5,2.9-2.9,4.3-4.4c2.7,2.6,6.4,2.2,8.7-0.1
		C-185.1-51.2-183.8-49.8-182.5-48.4z M-180.2-68.2c0.8,0,1.5,0.7,1.5,1.4c0,0.8-0.7,1.5-1.5,1.5c-0.8,0-1.5-0.7-1.5-1.5
		C-181.7-67.5-181.1-68.2-180.2-68.2z"/>
	<path d="M-212.1-60c-0.1,0.1-0.2,0.3-0.4,0.4c-1,0.5-1.7,1.2-2.2,2.2c-0.2,0.4-0.5,0.5-0.8,0.3c-0.4-0.2-0.4-0.5-0.2-0.9
		c0.6-1.2,1.5-2.1,2.7-2.7C-212.5-60.8-212.1-60.6-212.1-60z"/>
	<path d="M-215.2-55.9c0,0.6-0.3,0.9-0.7,0.9c-0.3,0-0.6-0.3-0.5-0.7c0-0.6,0.3-1,0.7-0.9C-215.3-56.6-215.1-56.3-215.2-55.9z"/>
	<path d="M-190.7-39.8c-0.1,0.1-0.2,0.3-0.4,0.4c-1,0.4-1.8,1.1-2.4,2.1c-0.2,0.3-0.5,0.4-0.8,0.3c-0.3-0.2-0.4-0.5-0.2-0.8
		c0.7-1.2,1.6-2.1,2.9-2.6C-191.1-40.7-190.7-40.4-190.7-39.8z"/>
	<path d="M-194-35.9c0,0.6-0.3,1-0.7,0.9c-0.4,0-0.5-0.3-0.5-0.7c0-0.6,0.3-1,0.7-0.9C-194.1-36.6-194-36.3-194-35.9z"/>
	<path d="M-190.6-60c-0.1,0.1-0.2,0.3-0.4,0.4c-1,0.5-1.7,1.3-2.2,2.3c-0.2,0.3-0.4,0.5-0.8,0.3c-0.4-0.2-0.4-0.5-0.3-0.9
		c0.6-1.2,1.5-2.2,2.7-2.8C-191.1-60.9-190.7-60.6-190.6-60z"/>
	<path d="M-193.7-55.8c0,0.6-0.2,0.8-0.6,0.8s-0.6-0.3-0.6-0.8c0-0.5,0.2-0.8,0.6-0.8C-193.9-56.6-193.7-56.3-193.7-55.8z"/>
</g>
<g>
	<path d="M-109.1,25.9c-0.1-0.2-0.1-0.5-0.1-0.7c0.1-1.6,0.1-3.3-0.5-4.8c-1.1-2.9-3.4-4.5-6.3-5.4c-0.2-0.1-0.4-0.1-0.5-0.2
		c-1.1-1-2.4-1.4-3.8-1.1c-1.1,0.2-2-0.2-2.7-1c-1.1-1.2-2.3-2.3-3.4-3.4c-0.4-0.4-0.9-0.4-1.2,0c-0.3,0.4-0.1,0.7,0.2,1
		c1.1,1.1,2.3,2.2,3.3,3.4c1.2,1.2,2.5,1.7,4.2,1.5c1.7-0.2,3.2,0.9,3.5,2.6c0.3,1.7-0.7,3.3-2.4,3.7c-0.6,0.1-0.9,0.4-1,1
		c-0.3,1.4-1.5,2.3-2.9,2.4c-1.4,0.1-2.8-0.7-3.2-2.1c-0.2-0.6-0.2-1.3-0.1-1.9c0.1-1.4-0.3-2.6-1.2-3.5c-4-4-7.9-7.9-11.9-11.8
		c-0.6-0.6-1-0.5-1.5,0.2v0.3c0.2,0.2,0.3,0.5,0.5,0.6c3.8,3.8,7.6,7.6,11.5,11.4c0.9,0.9,1.3,1.8,1.1,3.1c-0.3,2.1,0.9,4,2.8,4.8
		c0.7,0.3,1.5,0.3,2.3,0.5c0,0,0,0,0,0.1c-0.5,2.1,0.1,3.8,1.8,5.1c0.8,0.6,1.2,1.4,1.1,2.4c0,5.2,0,10.3,0,15.5
		c0,0.5,0.1,0.8,0.5,1h0.5c0.4-0.2,0.5-0.6,0.5-1c0-3.8,0-7.6,0-11.5v-0.5c0.9,0.2,1.5,0.9,1.7,1.8c0,0.3,0,0.5,0,0.8
		c0,3.1,0,6.2,0,9.3c0,0.5,0.1,0.8,0.4,1.1h0.6c0.4-0.3,0.4-0.7,0.4-1.1c0-3.2,0-6.3,0-9.5c0-1.6-0.6-2.8-2-3.5
		c-0.8-0.5-1.2-1.2-1.2-2.1c0-0.9,0-1.8-0.6-2.6c-0.4-0.5-0.8-1-1.3-1.4c-1-0.9-1.5-1.9-1.2-3.2c0.3-1.3,1.1-2.2,2.5-2.5
		c0.9-0.2,1.7-0.1,2.4,0.5c0.4,0.3,0.8,0.3,1.2,0c1.5-1,3.4-0.6,4.4,0.8c1,1.4,0.7,3.3-0.7,4.4c-1.3,1-1.9,2.2-1.9,3.8
		c0,5.1,0,10.2,0,15.3c0,0.4,0.1,0.8,0.5,1h0.5c0.4-0.3,0.5-0.6,0.5-1.1c0-5.1,0-10.2,0-15.3c0-1.1,0.4-2,1.3-2.7
		C-108.8,30.1-108.3,27.9-109.1,25.9z M-112.3,23.2c-1.1-0.3-2.1-0.2-3.1,0.3c-0.1,0.1-0.4,0.1-0.5,0.1c-0.8-0.4-1.7-0.6-2.8-0.5
		c0.2-0.2,0.3-0.3,0.4-0.4c2.7-1.2,3.6-2.8,3.1-5.6v-0.2c3.1,1.2,4.7,4,4.5,7C-111.2,23.6-111.7,23.3-112.3,23.2z"/>
	<path d="M-121.8,50.5h-0.5c-0.2-0.2-0.5-0.5-0.6-0.7c-1.7-3.3-2.9-6.8-3.3-10.5c-0.3-3-0.4-6-0.3-9c0-1.2,0-1.2-1.1-1.6
		c-2.7-1-5.1-2.6-7.2-4.6c-0.4-0.3-0.4-0.8-0.1-1.1c0.3-0.3,0.7-0.3,1.2,0.1c1.9,1.8,4,3.2,6.5,4.2c0.5,0.2,1,0.3,1.5,0.5
		c0.6,0.2,0.7,0.4,0.7,1c0,2.8,0,5.7,0.1,8.5c0.1,4.2,1.4,8.2,3.4,11.9C-121.2,49.8-121.3,50-121.8,50.5z"/>
	<path d="M-136.3,21.5c-0.3,0.2-0.8,0.2-1-0.2c-0.5-0.7-1.1-1.3-1.5-2.1c-0.7-1-1.3-2.1-1.9-3.1v-0.5c0.5-0.7,1-0.6,1.5,0.1
		c0.9,1.4,1.9,2.8,2.8,4.3c0.1,0.1,0.2,0.3,0.3,0.4C-135.9,20.8-135.9,21.2-136.3,21.5z"/>
	<path d="M-106.3,49.7c0,0.3-0.3,0.5-0.5,0.8h-0.5c-0.4-0.3-0.5-0.6-0.5-1c0-0.9,0-1.9,0-2.8c0-0.7,0.6-1,1.1-0.7
		c0.2,0.1,0.4,0.4,0.4,0.6C-106.3,47.6-106.3,48.6-106.3,49.7z"/>
	<path d="M-106,26.1c0,2.4-0.1,4.8-0.2,7.2h-0.1v9.4c0,0.8-0.2,1.1-0.7,1.1c-0.5,0-0.7-0.4-0.8-1.1c-0.1-4.8,0.1-9.7,0.3-14.5
		c0.1-2.4,0-4.7-0.3-7.1c-0.4-2.7-1.6-4.9-3.2-7c-2.4-3.1-5.3-5.8-8.3-8.2c-1.6-1.3-3.3-2.5-5-3.8c-0.4-0.3-0.6-0.7-0.4-1
		c0.2-0.4,0.7-0.5,1.2-0.2c1.3,1,2.7,1.9,4,2.9c3.4,2.7,6.6,5.6,9.3,9c1.7,2.1,3.1,4.4,3.7,7.1C-106.1,21.9-105.9,24-106,26.1z"/>
	<path d="M-94.7,22.7c-0.9-0.4-1.8-0.9-2.6-1.4c-1.5-0.8-1.3-0.9-2.5,0.4c-0.2,0.2-0.4,0.3-0.7,0.2c-1-0.4-2-0.7-3-1.1
		c-0.4-0.1-0.7-0.1-1,0.2c-0.2,0.4-0.1,0.7,0.1,1c1.4,1.7,2.9,3.5,4.3,5.2c0.5,0.5,0.9,0.5,1.3,0c0.2-0.2,0.4-0.5,0.6-0.7
		c0.9,0.8,1.8,1.6,2.6,2.4c0.3,0.2,0.5,0.4,0.9,0.3c0.4-0.2,0.5-0.5,0.5-0.9c0-1.5,0-3.1,0-4.6C-94,23.2-94.2,22.9-94.7,22.7z
		 M-96.3,26.1c-0.4-0.4-0.8-0.8-1.2-1.1c-0.5-0.4-0.9-0.4-1.3,0.1c-0.2,0.2-0.3,0.4-0.5,0.6c-0.1-0.1-0.1-0.1-0.2-0.2
		c-0.6-0.8-1.3-1.6-1.9-2.4c0.4,0.1,0.7,0.2,1.1,0.4c0.4,0.2,0.8,0.1,1.1-0.3c0.3-0.3,0.5-0.6,0.8-0.9c0.9,0.5,1.8,0.9,2.7,1.4
		c0.1,0,0.2,0.2,0.2,0.3c0,0.9,0,1.8,0,2.8C-95.8,26.6-96.1,26.3-96.3,26.1z"/>
	<path d="M-91.2,15.3c-1.1-1.1-2.2-2.2-3.3-3.3c-0.3-0.3-0.7-0.4-1.1-0.3c-1,0.3-1.9,0.6-2.9,0.9c-1.4,0.5-1.6,0.3-1.4,2
		c0,0.3-0.1,0.5-0.4,0.6c-1,0.4-1.9,0.9-2.8,1.3c-0.4,0.2-0.6,0.4-0.5,0.8c0.1,0.4,0.4,0.6,0.8,0.6c2.3,0.2,4.5,0.5,6.8,0.7
		c0.5,0,0.9-0.3,0.9-0.8c0-0.4-0.1-0.7-0.1-1.1c0.2,0,0.3,0,0.5,0c1,0,2.1-0.1,3.1-0.1c0.4,0,0.7-0.1,0.8-0.5
		C-90.7,15.8-90.9,15.5-91.2,15.3z M-95.8,15.4c-0.8,0-1.1,0.3-1,1.2c0,0.2,0,0.4,0,0.7c-1.1-0.1-2.2-0.2-3.2-0.3c0,0,0-0.1,0-0.1
		c0.3-0.1,0.6-0.3,0.9-0.4c0.6-0.2,0.8-0.6,0.7-1.2c-0.1-1,0-1,0.9-1.3c0.6-0.2,1.2-0.4,1.8-0.6c0.1,0,0.3-0.1,0.4,0
		c0.7,0.6,1.3,1.3,2,2C-94.2,15.3-95,15.3-95.8,15.4z"/>
	<path d="M-97.8,5.8c-0.2-0.3-0.5-0.4-0.8-0.4c-1.6,0-3.2,0-4.7,0c-0.5,0-0.8,0.2-1,0.6c-0.4,0.9-0.9,1.8-1.4,2.7
		c-0.8,1.5-0.9,1.3,0.4,2.5c0.3,0.2,0.3,0.4,0.2,0.7c-0.4,1-0.7,2-1.1,3c-0.1,0.4-0.1,0.7,0.2,0.9c0.3,0.2,0.6,0.2,0.9-0.1
		c1.8-1.5,3.6-2.9,5.3-4.4c0.5-0.4,0.4-0.8,0-1.2c-0.3-0.2-0.5-0.4-0.8-0.7c0.8-0.9,1.6-1.8,2.5-2.7C-97.7,6.5-97.6,6.2-97.8,5.8z
		 M-101.8,8.7c-0.7,0.8-0.7,1,0.1,1.6c0.1,0.1,0.3,0.2,0.4,0.4c-0.4,0.4-0.9,0.7-1.3,1.1c-0.4,0.4-0.8,0.7-1.3,1c0,0,0,0-0.1-0.1
		c0.1-0.4,0.3-0.7,0.4-1.1c0.2-0.4,0.1-0.8-0.3-1.1c-0.3-0.2-0.5-0.5-0.9-0.8c0.5-0.9,1-1.8,1.5-2.8c0-0.1,0.2-0.1,0.3-0.1
		c0.9,0,1.8,0,2.7,0C-100.7,7.5-101.2,8.1-101.8,8.7z"/>
	<path d="M-129,7.5c-0.1,0.2-0.4,0.3-0.6,0.5c-0.3-0.2-0.5-0.3-0.6-0.4c-1.9-1.9-3.8-3.8-5.7-5.7c-0.4-0.4-0.4-0.8-0.1-1.1
		c0.3-0.3,0.8-0.3,1.2,0.1c1.9,1.9,3.8,3.8,5.7,5.7C-128.9,6.8-128.8,7.2-129,7.5z"/>
</g>
<g>
	<path d="M-36.7,74.2c-0.1-0.2-0.2-0.4-0.2-0.7c0-1.4,0-2.8,0-4.2c0-1.5-0.8-2.5-2.1-3.1c-0.2-0.1-0.3-0.2-0.4-0.4
		c-0.6-1.4-1.6-2.1-3.1-2.1c-2,0-4,0-5.9,0c-3.2,0-5.6,2.4-5.6,5.6c0,1.4,0,2.8,0,4.1c0,0.2-0.1,0.5-0.2,0.7
		c-1.2,1.6-0.4,3.9,1.6,4.3c0.5,0.1,1,0.1,1.5,0.1c0.1,0,0.3,0,0.4,0.1c0.5,0.6,1,1.2,1.5,1.8c-0.4,0.1-0.9,0.3-1.4,0.4
		c-2,0.6-3.4,2.4-3.4,4.4c0,3.5,0,7,0,10.5c0,1,0.7,1.9,1.7,2.1c0.4,0.1,0.9,0.1,1.4,0.1c0,0,0,0.1,0,0.2c0,3,0,6.1,0,9.1
		c0,0.3-0.1,0.4-0.3,0.5c-1.2,0.7-1.9,1.8-2,3.2c-0.1,0.7,0.3,1,1,1c4.6,0,9.1,0,13.7,0c0.7,0,1-0.3,0.9-1c-0.1-1.4-0.8-2.5-2-3.2
		c-0.3-0.2-0.4-0.3-0.4-0.7c0-2.9,0-5.8,0-8.8V98c0.1,0,0.2,0,0.2,0c1.7,0.3,2.9-0.7,2.9-2.4c0-3.3,0-6.7,0-10c0-2.2-1.4-4-3.5-4.7
		c-0.4-0.1-0.9-0.3-1.3-0.4c0.3-0.3,0.7-0.7,0.9-1c0.4-0.8,1-1,1.9-0.9c1.1,0.1,1.9-0.5,2.4-1.5C-35.9,76.1-36.1,75.1-36.7,74.2z
		 M-53.1,76.5c-0.3-0.4-0.3-0.8,0-1.2c0.3-0.5,0.8-0.7,1.3-0.6c0.1,0.8,0.1,1.5,0.2,2.3C-52.2,77.1-52.7,77.1-53.1,76.5z
		 M-51.5,96.5c-0.5,0.2-1-0.2-1-0.8c0-2.3,0-4.6,0-7h1.5c0,0.1,0,0.2,0,0.3c0,2.2,0,4.4,0,6.6C-51,96-51.1,96.4-51.5,96.5z
		 M-46.3,110.6h-5.2c0.1-0.7,0.9-1.5,1.6-1.5c1.2,0,2.4,0,3.7,0V110.6z M-46.3,98.1v9.3h-3.1V95.8h7.7v11.6h-3.1v-9.3H-46.3z
		 M-39.5,110.6h-5.2V109c1.2,0,2.5,0,3.7,0C-40.3,109.1-39.6,109.9-39.5,110.6z M-38.5,95.8c0,0.5-0.3,0.8-0.8,0.8
		c-0.4,0-0.8-0.3-0.8-0.8c0-2.3,0-4.6,0-7h1.5C-38.5,91.1-38.5,93.5-38.5,95.8z M-38.5,87.2c-0.4,0-0.7,0-1.1,0c-2,0-2,0-2,2
		c0,1.5,0,3,0,4.5v0.5h-7.8v-6c0-0.8-0.3-1-1-1c-0.7,0-1.4,0-2,0c-0.4-3,0.4-4.6,4-5.2c0.6,1.3,1.5,2.1,2.9,2.1c1.4,0,2.4-0.8,3-2.1
		C-39.7,82.5-38.2,83.6-38.5,87.2z M-46.9,81.7h2.7c-0.3,0.5-0.8,0.8-1.4,0.8C-46.1,82.5-46.6,82.2-46.9,81.7z M-41,76.6
		c-0.5,2.3-2.7,3.8-5,3.6c-2.4-0.3-4.2-2.2-4.2-4.6c0-0.5,0-1,0-1.6c0.7,0,1.3,0,1.9,0c2.4,0.1,4.4-0.6,6-2.5
		c0.5,0.7,0.9,1.3,1.4,1.9c0,0.1,0.1,0.1,0.1,0.2C-40.9,74.5-40.8,75.6-41,76.6z M-41.8,69.5c-0.3-0.4-0.9-0.3-1.3,0.2
		c-0.2,0.3-0.4,0.7-0.7,1c-1,1.1-2.2,1.7-3.6,1.7c-1.1,0-2.2,0-3.3,0c-0.7,0-0.8,0.1-1.1,0.8h-0.7c0-0.3,0-0.6,0-0.9
		c0-1.2-0.1-2.5,0.1-3.7c0.3-1.8,1.9-3.2,3.7-3.2c2.1,0,4.2,0,6.2,0c0.9,0,1.5,0.6,1.6,1.5c0.1,0.6,0.3,0.8,0.9,0.9
		c0.8,0.1,1.4,0.6,1.5,1.4c0,1.3,0,2.7,0,4.1h-0.6C-40,71.9-40.9,70.7-41.8,69.5z M-37.9,76.5c-0.4,0.6-0.9,0.6-1.5,0.5
		c0.1-0.8,0.1-1.5,0.2-2.3c0.6-0.1,1,0,1.3,0.5C-37.6,75.7-37.6,76.1-37.9,76.5z"/>
	<path d="M-26.6,98.9c-0.8,0.2-1.6,0.5-2.3,0.7c-1,0.3-2,0.6-3,0.9c-0.5,0.1-0.8,0-1-0.4c-0.3-0.5-0.7-1-1-1.5
		c-1.1,0.9-2.2,1.7-3.2,2.6c-0.3-0.4-0.6-0.8-1-1.2c1.3-1.1,2.6-2.1,3.9-3.1c0.4-0.3,0.8-0.2,1.1,0.2c0.3,0.5,0.7,1,1,1.5
		c0.2,0.3,0.4,0.4,0.7,0.3c1.5-0.4,2.9-0.8,4.5-1.3C-26.9,97.9-26.7,98.3-26.6,98.9z"/>
	<path d="M-54.9,90c-0.5,0.2-0.9,0.4-1.4,0.6c-0.4-1-0.8-2-1.2-3c-0.5,0.3-0.9,0.6-1.4,0.9c-0.6,0.4-0.9,0.3-1.3-0.2
		c-1-1.2-2-2.5-3-3.8c0.4-0.3,0.8-0.7,1.2-1c0.9,1.1,1.8,2.2,2.7,3.3c0.5-0.4,1.1-0.7,1.6-1.1c0.6-0.4,1.1-0.3,1.4,0.4
		C-55.9,87.5-55.4,88.7-54.9,90z"/>
	<path d="M-29.4,105.4c-0.4,0.3-0.7,0.7-1.2,1.1c-0.3-0.3-0.6-0.7-0.9-1c-0.5-0.5-0.9-0.9-1.4-1.4c-0.2-0.2-0.3-0.2-0.6,0
		c-0.5,0.3-0.9,0.7-1.4,0.9c-0.3,0.1-0.6,0.2-0.9,0.1c-1-0.5-2-1-3.1-1.5c0.2-0.5,0.4-0.9,0.7-1.4c0.8,0.4,1.6,0.8,2.3,1.2
		c0.3,0.1,0.5,0.1,0.7,0c0.5-0.4,1-0.7,1.6-1.1c0.3-0.2,0.7-0.3,1,0C-31.5,103.2-30.4,104.3-29.4,105.4z"/>
	<path d="M-55.7,91.9v1.6c-0.8,0-1.6,0-2.3,0c-0.2,0-0.5,0.1-0.6,0.3c-0.6,0.8-1.2,1.6-1.8,2.4c-0.4,0.5-0.7,0.6-1.2,0.3
		c-1-0.5-1.9-1-3-1.5c0.2-0.5,0.4-0.9,0.7-1.4c0.9,0.4,1.7,0.8,2.5,1.3c0.6-0.8,1.2-1.6,1.8-2.4c0.3-0.4,0.6-0.5,1.1-0.5
		C-57.6,91.9-56.6,91.9-55.7,91.9z"/>
</g>
<g>
	<path d="M-176.8,85.5c-0.5-5.3-2.5-10-6.1-13.9c-4.7-5.3-10.6-8.1-17.7-8.5c-4.9-0.2-9.5,0.9-13.8,3.5c-6.5,4-10.5,9.7-11.8,17.2
		c-0.2,0.9-0.3,1.9-0.4,2.8v2.9c0.1,1,0.2,1.9,0.4,2.8c1.4,7.5,5.4,13.2,11.8,17.2c3.3,2,7,3.2,10.9,3.4c0.1,0,0.3,0,0.4,0.1h2.9
		c0.8-0.1,1.7-0.2,2.5-0.3c5.2-0.9,9.8-3.1,13.5-6.8C-178.5,100.2-176.1,93.4-176.8,85.5z M-201.6,110.2c-12.3,0-22.2-10-22.2-22.3
		c0-12.3,10-22.2,22.3-22.2c12.3,0,22.2,10,22.2,22.3C-179.4,100.3-189.4,110.3-201.6,110.2z"/>
	<path d="M-189.4,97.7c-0.7,0.5-1.4,1.1-2.1,1.6c-2.6-3.2-6-4.9-10.1-4.9c-4.1,0-7.5,1.7-10.2,4.9c-0.7-0.5-1.4-1.1-2.1-1.6
		C-207.9,90-195.8,89.4-189.4,97.7z"/>
	<path d="M-207.2,82.4c0,1.5-1.2,2.7-2.7,2.7c-1.5,0-2.7-1.2-2.7-2.7c0-1.5,1.2-2.7,2.7-2.7C-208.4,79.7-207.2,80.9-207.2,82.4z"/>
	<path d="M-190.5,82.4c0,1.5-1.2,2.7-2.7,2.7c-1.5,0-2.7-1.2-2.7-2.7c0-1.5,1.2-2.7,2.7-2.7C-191.7,79.7-190.5,80.9-190.5,82.4z"/>
</g>
<g>
	<path d="M-21.2-52.1c-2.1-9.7-10.2-17.4-20-19.1c-0.9-0.2-1.8-0.3-2.7-0.4h-3.1c-0.9,0.1-1.9,0.2-2.8,0.4
		c-10,1.6-18.3,9.8-20.1,19.7c-0.2,1.1-0.3,2.2-0.5,3.3v3.1c0.2,1.1,0.3,2.2,0.5,3.3c3.1,16.1,21,24.9,35.7,17.5
		C-24-29.5-18.7-40.9-21.2-52.1z M-45.5-23.1c-13,0-23.5-10.6-23.5-23.5c0-13,10.6-23.5,23.5-23.5c13,0,23.5,10.6,23.5,23.5
		C-22-33.6-32.6-23.1-45.5-23.1z"/>
	<path d="M-45.5-68.6c-12.2,0-22.1,9.8-22.1,22c0,12.2,9.8,22,22,22c12.2,0,22.1-9.8,22.1-22C-23.5-58.8-33.3-68.6-45.5-68.6z
		 M-45.5-26c-11.4,0-20.6-9.3-20.6-20.6c0-11.4,9.3-20.6,20.6-20.6c11.4,0,20.6,9.3,20.6,20.6C-24.9-35.2-34.2-26-45.5-26z"/>
	<path d="M-38.3-37.9c-0.1-0.8-0.8-1.4-1.5-1.5c-2-0.1-4,0-5.6,1.3c-0.6-0.3-1.2-0.6-1.7-0.9c-1.2-0.5-2.4-0.5-3.7-0.5
		c-1.2,0-1.9,0.7-2,1.9c0,0.9,0,1.8,0.2,2.6c0.4,2.3,1.7,3.8,4,4.4c2,0.5,4.1,0.5,6.1,0c1.4-0.3,2.6-1.1,3.3-2.4
		C-38.3-34.4-38.1-36.1-38.3-37.9z M-45.7-31.7c-0.2,0-0.5,0-0.7,0c-1,0-2-0.2-2.9-0.6c-1.3-0.7-1.8-1.8-2-3.1
		c-0.1-0.7-0.1-1.4-0.1-2.1c0-0.2,0.2-0.5,0.4-0.5c1.2-0.1,2.3,0,3.4,0.4c1.5,0.6,2.2,1.8,2.4,3.3C-45-33.6-45-33-45-32.4
		C-45-31.8-45.1-31.7-45.7-31.7z M-40.2-33.9c-0.6,1.3-1.9,2.1-3.4,2.2c0.1-1.8-0.1-3.5-1-5.1c0.8-0.7,1.8-0.9,2.8-1
		c0.5-0.1,1.1,0,1.6,0c0.3,0,0.5,0.2,0.5,0.5C-39.6-36.3-39.7-35.1-40.2-33.9z"/>
	<path d="M-45.2-58.2c-1.4,0-2.5,1.1-2.5,2.5c0,1,0,2,0,3c0,1.4,1.2,2.5,2.6,2.5c1.4,0,2.5-1.1,2.5-2.5c0-0.5,0-1,0-1.5
		c0-0.5,0-1,0-1.5C-42.7-57.1-43.8-58.2-45.2-58.2z M-44.1-54.2c0,0.5,0,1,0,1.5c0,0.6-0.5,1-1,1.1c-0.6,0-1.1-0.4-1.1-1.1
		c0-1,0-2,0-2.9c0-0.6,0.5-1.1,1.1-1.1c0.6,0,1,0.5,1,1.1V-54.2z"/>
	<path d="M-48.8-54.2c0-0.5,0-1,0-1.6c-0.1-1.4-1.2-2.5-2.6-2.5c-1.4,0-2.5,1.1-2.5,2.5c0,1,0,2,0,3c0,1.3,1.1,2.3,2.3,2.4
		c1.3,0.1,2.5-0.8,2.7-2.1C-48.8-52.9-48.8-53.5-48.8-54.2L-48.8-54.2z M-50.3-54.2c0,0.5,0,0.9,0,1.4c0,0.7-0.5,1.2-1.1,1.2
		c-0.6,0-1-0.5-1-1.2c0-0.9,0-1.8,0-2.7c0-0.7,0.4-1.2,1-1.2c0.6,0,1.1,0.5,1.1,1.2C-50.3-55.1-50.3-54.7-50.3-54.2z"/>
	<path d="M-58-42.8c0,0.4-0.1,0.8-0.6,0.9c-0.4,0.1-0.7-0.1-1-0.4c-0.5-0.8-1.1-1.6-1.8-2.4v1.8c0,0.8-0.2,1.2-0.7,1.2
		s-0.7-0.4-0.7-1.2v-4c0-0.4,0-0.8,0.5-0.9c0.5-0.1,0.7,0.1,1,0.5c0.6,0.8,1.1,1.7,1.8,2.6c0-0.8,0-1.5,0-2.2c0-0.6,0.3-0.9,0.7-0.9
		c0.4,0,0.7,0.3,0.7,0.9C-58.1-45.6-58.1-44.2-58-42.8z"/>
	<path d="M-38-43c-0.3-0.4-0.6-0.7-1-1.1c0.1-0.1,0.2-0.1,0.3-0.2c0.7-0.5,1.1-1.3,0.9-2c-0.2-0.8-0.8-1.5-1.7-1.6
		c-0.5-0.1-1,0-1.5,0c-0.5,0-0.8,0.3-0.8,0.8c0,1.5,0,3,0,4.5c0,0.5,0.3,0.8,0.7,0.8c0.4,0,0.7-0.3,0.7-0.8c0-0.3,0-0.5,0-0.9
		c0.5,0.5,0.8,1,1.2,1.3c0.4,0.4,0.8,0.4,1.1,0.1C-37.6-42.2-37.6-42.6-38-43z M-39.3-45.7c-0.3,0.1-0.6,0.2-0.9,0.4v-1.2
		c0.4,0.1,0.7,0.2,0.9,0.4C-39.2-46.2-39.2-45.8-39.3-45.7z"/>
	<path d="M-52.1-42.8c-0.6-1.5-1.1-3-1.7-4.5c-0.1-0.4-0.4-0.6-0.8-0.6c-0.4,0-0.7,0.2-0.8,0.6c-0.2,0.6-0.4,1.1-0.6,1.7
		c-0.4,1-0.7,1.9-1.1,2.9c-0.2,0.4-0.1,0.7,0.3,0.9c0.4,0.2,0.8,0.1,0.9-0.3c0.2-0.6,0.6-0.5,1-0.5c0.2,0,0.5,0,0.7,0
		c0.4,0,0.7,0,0.8,0.5c0.1,0.3,0.4,0.5,0.8,0.4c0.4-0.1,0.5-0.4,0.5-0.8C-52-42.6-52.1-42.7-52.1-42.8z M-55.1-44.1
		c0.2-0.4,0.3-0.7,0.5-1.2c0.2,0.5,0.3,0.8,0.5,1.2H-55.1z"/>
	<path d="M-42.8-43.6c-0.1,1.1-1.3,1.9-2.4,1.9c-1.2,0-2.2-1-2.3-2c0-0.6,0-1.1,0-1.7c0-0.5,0-1.1,0-1.7c0-0.5,0.3-0.8,0.7-0.8
		c0.4,0,0.8,0.3,0.8,0.8c0,1,0,2,0,3c0,0.5,0.3,0.9,0.8,0.9c0.6,0,1-0.3,1-0.9c0-0.9,0-1.8,0-2.7c0-0.2,0-0.3,0-0.4
		c0.1-0.4,0.3-0.6,0.7-0.6c0.4,0,0.7,0.3,0.7,0.7C-42.7-46-42.7-44.8-42.8-43.6z"/>
	<path d="M-32-42.8c-0.6-1.5-1.1-3-1.7-4.5c-0.1-0.4-0.4-0.6-0.8-0.6c-0.4,0-0.7,0.2-0.8,0.6c-0.2,0.5-0.4,1.1-0.6,1.6
		c-0.4,1-0.7,1.9-1.1,2.9c-0.2,0.4-0.1,0.8,0.3,1c0.4,0.2,0.8,0.1,0.9-0.3c0.2-0.6,0.6-0.5,1-0.5c0.2,0,0.4,0,0.7,0
		c0.4,0,0.7,0,0.8,0.5c0.1,0.3,0.4,0.5,0.8,0.4c0.3-0.1,0.5-0.3,0.5-0.8C-32-42.6-32-42.7-32-42.8z M-35-44.1
		c0.1-0.4,0.3-0.8,0.5-1.2c0.2,0.5,0.3,0.8,0.5,1.2H-35z"/>
	<path d="M-54.9-57.3c0,2.1,0,4.1,0,6.1c0,0.5-0.3,0.8-0.7,0.8c-0.4,0-0.7-0.3-0.7-0.8c0-1.6,0-3.3,0-4.9c0-0.2,0-0.3,0-0.6
		c-0.3,0-0.5,0-0.7,0c-0.4,0-0.6-0.3-0.6-0.6c0-0.4,0.2-0.7,0.5-0.7c0.6-0.1,1.1-0.1,1.7,0C-55.1-58-54.9-57.6-54.9-57.3z"/>
	<path d="M-48.3-47.2c0,0.4-0.3,0.6-0.6,0.7c-0.2,0-0.4,0-0.6,0v1.3c0,0.9,0,1.8,0,2.6c0,0.5-0.3,0.8-0.7,0.8
		c-0.4,0-0.7-0.3-0.7-0.8c0-1.3,0-2.6,0-3.9c-0.3,0-0.4,0-0.6,0c-0.4,0-0.6-0.3-0.7-0.7c0-0.4,0.2-0.7,0.6-0.7c1,0,2,0,2.9,0
		C-48.5-47.9-48.3-47.5-48.3-47.2z"/>
	<path d="M-34-57.2c0,0.1-0.1,0.2-0.1,0.4c-0.8,1.9-1.6,3.8-2.4,5.6c-0.2,0.4-0.4,0.6-0.8,0.6c-0.5,0-0.8-0.5-0.6-1
		c0.8-2,1.7-4,2.5-6c0.2-0.4,0.5-0.5,0.8-0.4C-34.2-57.9-34-57.6-34-57.2z"/>
	<path d="M-39.2-58.3c-1,0-1.8,0.9-1.8,2c0,1.1,0.8,2,1.8,2c1,0,1.8-0.9,1.8-2C-37.4-57.4-38.2-58.3-39.2-58.3z M-39.2-55.8
		c-0.1-0.2-0.3-0.4-0.3-0.5c0-0.2,0.2-0.4,0.4-0.5c0.1,0.2,0.3,0.3,0.5,0.6C-39-56-39.1-55.9-39.2-55.8z"/>
	<path d="M-32.7-54.2c-1,0-1.8,0.8-1.9,2c0,1.1,0.8,2,1.8,2c1,0,1.9-0.9,1.9-2C-30.9-53.3-31.6-54.2-32.7-54.2z M-32.7-51.7
		c-0.1-0.2-0.3-0.4-0.3-0.6c0-0.2,0.2-0.3,0.3-0.5c0.2,0.2,0.3,0.3,0.5,0.6C-32.4-52-32.6-51.8-32.7-51.7z"/>
	<path d="M-28.2-42.5c0,0.4-0.3,0.7-0.7,0.8c-0.5,0-1.1,0-1.6,0c-0.5,0-0.8-0.3-0.8-0.7c0-1.6,0-3.2,0-4.7c0-0.4,0.3-0.7,0.7-0.7
		c0.4,0,0.7,0.3,0.7,0.8c0,1.1,0,2.2,0,3.3v0.6c0.3,0,0.6,0,0.9,0C-28.5-43.2-28.2-42.9-28.2-42.5z"/>
</g>
<g>
	<path d="M-20.7,22.6c-0.8-6.7-3.8-12.3-9.1-16.5c-0.6-0.5-1.2-0.9-1.8-1.3c-0.3-0.2-0.7-0.4-1-0.6c-0.3-0.2-0.6-0.4-0.9-0.5
		c0,0,0,0,0,0c-0.2-0.1-0.4-0.2-0.6-0.3c-0.2-0.1-0.4-0.2-0.6-0.3c0,0,0,0,0,0c-0.2-0.1-0.5-0.2-0.7-0.3c-0.6-0.3-1.2-0.5-1.8-0.7
		c-0.2-0.1-0.4-0.2-0.6-0.2c-0.4-0.1-0.8-0.3-1.1-0.4c-0.1,0-0.2-0.1-0.3-0.1c-0.1,0-0.2-0.1-0.3-0.1c0,0,0,0-0.1,0
		c-0.2,0-0.4-0.1-0.6-0.1c-0.3-0.1-0.5-0.1-0.8-0.1c0,0,0,0,0,0c-0.1,0-0.2,0-0.3-0.1c-0.2,0-0.4-0.1-0.6-0.1c-0.1,0-0.2,0-0.4,0
		c-0.2,0-0.4-0.1-0.7-0.1c-0.3,0-0.5,0-0.8,0c-0.3,0-0.6,0-0.9,0h-0.9c-0.4,0-0.8,0-1.2,0c0,0-0.1,0-0.1,0c-0.2,0-0.5,0-0.7,0
		c-0.1,0-0.3,0-0.4,0c-0.4,0-0.7,0.1-1.1,0.2c-0.1,0-0.3,0-0.4,0.1c-0.1,0-0.1,0-0.2,0C-49.8,0.9-50,1-50.3,1c0,0,0,0-0.1,0
		c-0.3,0.1-0.5,0.1-0.8,0.2c-0.1,0-0.2,0-0.2,0.1c0,0-0.1,0-0.1,0c-0.4,0.1-0.7,0.2-1.1,0.3C-53,1.7-53.4,1.9-53.8,2
		c-0.4,0.1-0.8,0.3-1.3,0.5c-8.3,3.4-13.3,9.8-15,18.6c-0.2,0.9-0.3,1.9-0.4,2.8v3.1c0.1,1,0.2,1.9,0.4,2.8c1.6,9.7,9.6,18,19.3,20
		c1.1,0.2,2.3,0.3,3.4,0.5c0.1,0,0.2,0,0.3,0.1h3.1c0.1,0,0.3-0.1,0.4-0.1c2.1-0.2,4.1-0.6,6.1-1.2C-26.3,45.2-19.4,34.4-20.7,22.6z
		 M-45.5,48.5c-12.7,0-23-10.4-23-23.1c0-12.6,10.4-22.9,23-22.9c12.7,0,23,10.4,23,23S-32.9,48.5-45.5,48.5z"/>
	<path d="M-45.5,4.8c-11.4,0-20.7,9.3-20.6,20.7c0,11.4,9.3,20.7,20.7,20.6c11.4,0,20.6-9.3,20.6-20.6C-24.8,14.1-34.1,4.8-45.5,4.8
		z M-58.9,12.4c7.4-7.6,19-7.2,25.8-0.9c-3.8,3.8-7.6,7.6-11.4,11.4c0-0.2,0-0.4,0-0.6c-0.1-1.4,0-2.8-0.3-4.2c-0.8-3.6-4.2-6-8-5.8
		c-3.5,0.2-6.5,3.1-6.9,6.6c0,0.4-0.1,0.8-0.1,1.2c0,3.2,0,6.4,0,9.5c0,2.4,0.4,4.5,2.1,6.3l-1.8,1.8
		C-65.5,31.5-66.3,20.1-58.9,12.4z M-47.1,33.5c-1.3,2.6-4.4,3.8-7.1,2.8c-0.1-0.1-0.3-0.1-0.4-0.2c2.7-2.7,5.4-5.4,8.1-8
		C-46.6,29.8-46.1,31.7-47.1,33.5z M-57.5,18.7c0.5-2.8,3.3-4.6,6.1-4.3c2.8,0.3,4.9,2.6,5,5.4c0,1.6,0,3.1,0,4.7h-11.2
		c0,0-0.1-0.1-0.1-0.1C-57.7,22.5-57.9,20.5-57.5,18.7z M-48,26.5c-2.7,2.7-5.5,5.5-8.3,8.3c-0.9-0.9-1.4-2.1-1.5-3.4
		c-0.1-1.6,0-3.2,0-4.9H-48z M-32.2,38.6c-7.4,7.5-18.9,7.2-25.8,0.8c0.6-0.6,1.3-1.3,1.9-1.9c1.7,1,3.7,1.3,5.7,0.8
		c2-0.5,3.6-1.7,4.7-3.5c2.5,4.2,7.7,4.7,10.9,2.2c3.2-2.5,3.8-7,1.3-10.2c-2.5-3.3-7.6-4-11-0.6c0,0-0.1,0-0.1-0.1
		c0.1-0.2,0.2-0.4,0.3-0.6c3-3,6-6,9-9c1.2-1.2,2.4-2.4,3.6-3.6C-25.5,19.5-24.7,31-32.2,38.6z M-44.5,31.3c0-2.9,2.4-5.3,5.3-5.3
		c2.9,0,5.3,2.4,5.3,5.3c0,3-2.4,5.4-5.4,5.3C-42.1,36.6-44.5,34.2-44.5,31.3z"/>
</g>
<g>
	<path d="M-91.1,84.4v1.6c-0.1,0.3-0.2,0.7-0.2,1c-0.3,1.3-1,2.4-2,3.3c-5.2,5.1-10.3,10.3-15.5,15.5c-1.6,1.6-3.2,3.2-4.8,4.8
		c-1.2,1.2-2.6,2-4.3,2.3c0,0-0.1,0-0.1,0.1h-1.7c-0.3-0.1-0.7-0.1-1-0.2c-1.2-0.3-2.2-0.9-3.1-1.8c-1.6-1.6-3.1-3.1-4.7-4.7
		c-0.5-0.5-0.5-1-0.1-1.5c0.4-0.4,1-0.4,1.5,0.1c1.5,1.5,2.9,2.9,4.4,4.4c2.3,2.3,5.3,2.3,7.5,0c6.8-6.8,13.6-13.6,20.4-20.4
		c2.2-2.2,2.3-5.2,0-7.5c-5-4.9-9.9-9.9-14.8-14.8c-2.2-2.2-5.2-2.2-7.5,0c-6.8,6.8-13.7,13.6-20.5,20.4c-2.2,2.2-2.2,5.2,0,7.4
		c1.3,1.3,2.7,2.7,4,4c0.2,0.2,0.4,0.6,0.4,0.9c0,0.3-0.2,0.7-0.5,0.8c-0.2,0.1-0.6,0-1,0c-0.1,0-0.1-0.1-0.2-0.1
		c-1.6-1.6-3.3-3.2-4.8-4.9c-0.9-0.9-1.3-2.1-1.5-3.3c0-0.1-0.1-0.2-0.1-0.3V90c0.1-0.3,0.1-0.7,0.2-1c0.4-1.3,1-2.4,2-3.3
		c4.1-4.1,8.3-8.2,12.4-12.4c2.7-2.7,5.4-5.3,8-8c2.9-3,7.5-3,10.4,0c4.9,5,9.8,9.9,14.8,14.8c1.2,1.2,1.9,2.5,2.1,4.1
		C-91.2,84.3-91.2,84.3-91.1,84.4z"/>
	<path d="M-106.9,74.3c-0.2,0.3-0.3,0.6-0.5,0.8c-1.7,1.7-3.4,3.5-5.2,5.2c-5.4,5.4-10.8,10.8-16.3,16.3c-0.2,0.2-0.5,0.4-0.8,0.5
		c-0.4,0.1-0.7-0.1-0.9-0.5c-0.2-0.4-0.2-0.7,0.1-1.1c0.1-0.1,0.2-0.2,0.3-0.3c7.1-7.1,14.3-14.3,21.5-21.4c0.3-0.3,0.7-0.6,1.2-0.5
		C-107.3,73.4-107,73.8-106.9,74.3z"/>
	<path d="M-120.5,74.6c-1.7,0-3.1,1.4-3.1,3.1c0,1.7,1.4,3,3.1,3c1.7,0,3-1.4,3-3.1C-117.4,75.9-118.8,74.6-120.5,74.6z
		 M-120.5,78.7c-0.6,0-1.1-0.5-1.1-1.1c0-0.6,0.5-1.1,1.1-1.1c0.6,0,1.1,0.5,1.1,1.2C-119.4,78.3-119.9,78.8-120.5,78.7z"/>
	<path d="M-114.4,68.6c-1.7,0-3.1,1.3-3,3.1c0,1.7,1.4,3.1,3.1,3.1c1.7,0,3.1-1.4,3.1-3.1C-111.4,69.9-112.7,68.6-114.4,68.6z
		 M-114.4,72.7c-0.6,0-1.1-0.5-1.1-1.1c0-0.6,0.5-1.1,1.1-1.1c0.6,0,1.1,0.5,1.2,1.1S-113.8,72.7-114.4,72.7z"/>
	<path d="M-105.6,89.4c-1.7,0-3.1,1.4-3.1,3c0,1.7,1.4,3.1,3.1,3.1c1.7,0,3.1-1.4,3.1-3.1S-103.9,89.4-105.6,89.4z M-105.6,93.6
		c-0.6,0-1.1-0.5-1.1-1.1c0-0.6,0.5-1.1,1.1-1.1s1.1,0.5,1.1,1.1C-104.5,93.1-105,93.6-105.6,93.6z"/>
	<path d="M-117.6,101.4c-1.7,0-3.1,1.4-3.1,3.1c0,1.7,1.4,3.1,3.1,3.1c1.7,0,3.1-1.4,3.1-3.1C-114.6,102.8-116,101.4-117.6,101.4z
		 M-117.6,105.6c-0.6,0-1.1-0.5-1.1-1.1c0-0.6,0.5-1.2,1.1-1.2c0.6,0,1.1,0.5,1.1,1.1C-116.5,105.1-117,105.6-117.6,105.6z"/>
	<path d="M-132.5,86.6c-1.7,0-3,1.3-3,3.1s1.4,3.1,3,3.1c1.7,0,3.1-1.4,3.1-3C-129.4,88-130.8,86.6-132.5,86.6z M-132.5,90.8
		c-0.6,0-1.1-0.5-1.1-1.1c0-0.6,0.5-1.1,1.1-1.1c0.6,0,1.1,0.5,1.1,1.1C-131.4,90.3-131.9,90.8-132.5,90.8z"/>
	<path d="M-126.5,80.6c-1.7,0-3.1,1.3-3.1,3s1.3,3.1,3,3.1c1.7,0,3.1-1.3,3.1-3C-123.4,82-124.8,80.6-126.5,80.6z M-126.5,84.8
		c-0.6,0-1.1-0.5-1.1-1.1c0-0.6,0.5-1.1,1.1-1.2c0.6,0,1.2,0.5,1.2,1.1C-125.4,84.3-125.8,84.7-126.5,84.8z"/>
	<path d="M-117.4,89.7c-1.7,0-3.1,1.4-3.1,3.1c0,1.7,1.4,3.1,3,3.1c1.7,0,3.1-1.4,3.1-3C-114.3,91.1-115.7,89.7-117.4,89.7z
		 M-117.4,93.8c-0.6,0-1.1-0.5-1.1-1.1c0-0.6,0.5-1.1,1.1-1.1c0.6,0,1.1,0.5,1.1,1.1C-116.3,93.4-116.8,93.8-117.4,93.8z"/>
	<path d="M-105.4,77.6c-1.7,0-3.1,1.4-3.1,3.1c0,1.7,1.4,3.1,3.1,3c1.7,0,3.1-1.4,3-3.1C-102.3,79-103.6,77.6-105.4,77.6z
		 M-105.3,81.8c-0.6,0-1.1-0.5-1.1-1.2c0-0.6,0.5-1.1,1.1-1.1c0.6,0,1.1,0.5,1.1,1.1C-104.2,81.3-104.7,81.8-105.3,81.8z"/>
	<path d="M-111.6,95.4c-1.6,0-3.1,1.3-3.1,3c0,1.7,1.3,3.1,3,3.1c1.7,0,3.1-1.3,3.2-3C-108.5,96.9-109.9,95.4-111.6,95.4z
		 M-111.6,99.6c-0.6,0-1.1-0.5-1.1-1.1s0.5-1.1,1.1-1.1c0.6,0,1.2,0.5,1.1,1.1C-110.5,99.1-111,99.6-111.6,99.6z"/>
	<path d="M-123.4,95.7c-1.7,0-3.1,1.3-3.1,3c0,1.7,1.3,3.1,3,3.1c1.7,0,3.1-1.4,3.1-3.1C-120.3,97.1-121.7,95.7-123.4,95.7z
		 M-123.4,99.9c-0.6,0-1.1-0.5-1.1-1.1c0-0.6,0.5-1.1,1.1-1.1s1.1,0.5,1.1,1.1C-122.3,99.4-122.8,99.9-123.4,99.9z"/>
	<path d="M-99.6,83.4c-1.7,0-3.1,1.4-3.1,3.1c0,1.7,1.4,3.1,3.1,3.1c1.7,0,3.1-1.4,3.1-3.1C-96.5,84.8-97.9,83.4-99.6,83.4z
		 M-99.6,87.6c-0.6,0-1.1-0.5-1.1-1.1c0-0.6,0.5-1.1,1.1-1.1s1.1,0.5,1.1,1.1C-98.4,87.1-99,87.6-99.6,87.6z"/>
	<path d="M-111.4,83.7c-1.7,0-3.1,1.3-3.1,3.1c0,1.7,1.4,3,3.1,3c1.7,0,3-1.3,3-3.1C-108.3,85-109.6,83.7-111.4,83.7z M-111.3,87.8
		c-0.6,0-1.1-0.5-1.1-1.1c0-0.6,0.5-1.1,1.1-1.1c0.6,0,1.1,0.5,1.1,1.1C-110.2,87.3-110.7,87.8-111.3,87.8z"/>
	<path d="M-129.9,102.4c0,0.5-0.5,1-1,0.9c-0.5,0-1-0.5-1-1c0-0.5,0.5-1,1-1C-130.3,101.4-129.9,101.9-129.9,102.4z"/>
</g>
<g>
	<path d="M46.3-24.6C46.1-26,45-27,43.6-27c-0.3,0-0.6,0-0.8,0c-0.1-0.8-0.1-1.5-0.2-2.2c-1-4.4-5.8-6.4-9.6-4
		c-0.1,0.1-0.3,0.2-0.3,0.2c-0.4-0.2-0.8-0.4-1.1-0.6c-0.1-0.1-0.1-0.5-0.1-0.7v-21c0-3-1.3-5.3-3.9-6.8c-0.6-0.4-0.6-0.5-0.4-1.2
		c0.1,0,0.2,0,0.3,0c1.2,0,1.6-0.4,1.6-1.6v-5c0-1.1-0.4-1.5-1.5-1.5h-20c-0.9,0-1.4,0.4-1.4,1.2c0,1.9,0,3.8,0,5.7
		c0,0.7,0.5,1.2,1.3,1.2c0.2,0,0.4,0,0.7,0c-0.1,0.4,0.2,0.8-0.3,1.1c-2.8,1.6-4.1,4-4.1,7.2c0,4.2,0,8.4,0,12.6
		c0,0.2,0,0.4,0.1,0.6c0.1,0.4,0.4,0.5,0.7,0.5c0.4,0,0.6-0.2,0.7-0.6c0-0.1,0-0.3,0-0.4c0-1.8,0-3.5,0-5.3v-0.5h8.3
		c0,0.1,0,0.2,0,0.3c0,0.8,0.2,1,1,1h1.1c0,0.5,0,0.9,0,1.3c0,0.6,0.3,0.8,0.8,0.8c0.8,0,1.7,0,2.5,0c0.6,0,0.8-0.3,0.8-0.9
		c0-0.4,0-0.8,0-1.2c0.3,0,0.5,0,0.8,0c0.9,0.1,1.3,0,1.3-1.2c0,0,0-0.1,0.1-0.1h8.2v14.2c-1.3-0.2-2.5,0-3.7,0.5
		c-0.1-0.1-0.1-0.1-0.1-0.2c-0.8-1.3-1.9-2.3-3.2-3.1c-0.2-0.1-0.3-0.4-0.3-0.5c-0.2-2.9-2.4-5.4-5.3-5.8c-0.5-0.1-1,0.1-1.3,0.5
		c-0.3,0.4-0.4,0.9-0.1,1.4c0.1,0.3,0.3,0.5,0.4,0.7c0.3,0.7,0.5,1.5,0.4,2.3c-2.9,0.3-5.4,1.5-7.2,3.8c-0.5,0.7-1.1,0.9-1.9,0.9
		c-0.8-0.1-1.7,0-2.6,0v-0.6c0-1.4,0-2.8,0-4.2c0-0.5-0.3-0.9-0.7-0.9c-0.5,0-0.8,0.3-0.8,0.9c0,4.8,0,9.5,0,14.3
		c0,1.3,0.8,2.3,2,2.6c0.1,0,0.1,0.1,0.2,0.1h23.8c1-0.2,2-0.5,2.9-1.1c0.1,0,0.2,0,0.3,0c0.9,0.6,1.9,0.9,2.9,1.1h8.4
		c0.1,0,0.2-0.1,0.3-0.1C45.7-22.1,46.5-23.4,46.3-24.6z M25.4-70h2v2.4h-2V-70z M21.9-70h2.1v2.4h-2.1V-70z M18.3-70h2.1v2.4h-2.1
		V-70z M14.7-70h2v2.4h-2V-70z M11.1-70h2.1v2.4h-2.1V-70z M7.5-70h2.1v2.4H7.5V-70z M7.6-64.9V-66h19.9v1.2H7.6z M20.2-48.5
		c-0.4,0-0.8,0-1.1,0c-0.7,0-0.9,0.3-0.9,0.9c0,0.3,0,0.7,0,1c0,0,0,0.1,0,0.1h-1.2c0-0.4,0-0.8,0-1.2c0-0.6-0.3-0.9-0.9-0.9
		c-0.4,0-0.8,0-1.2,0v-1.2c0.4,0,0.8,0,1.2,0c0.6,0,0.8-0.3,0.9-0.8c0-0.4,0-0.8,0-1.2h1.2c0,0.4,0,0.8,0,1.2c0,0.6,0.3,0.8,0.8,0.8
		c0.4,0,0.8,0,1.2,0V-48.5z M21.7-49.9c-0.2-1.3-0.2-1.3-1.6-1.3h-0.5v-1.2c0-0.6-0.3-0.9-0.9-0.9c-0.8,0-1.6,0-2.4,0
		c-0.6,0-0.8,0.3-0.8,0.9c0,0.4,0,0.7,0,1.1c0,0,0,0.1-0.1,0.1h-1c-0.8,0-1,0.2-1,1c0,0.1,0,0.2,0,0.3H5.1v-4.8c0.2,0,0.4,0,0.6,0
		c4.5,0,8.9,0,13.4,0c0.2,0,0.4,0,0.6,0c0.4-0.1,0.5-0.3,0.5-0.7s-0.2-0.6-0.6-0.7c-0.2,0-0.4,0-0.6,0h-14c0-0.3,0.1-0.5,0.1-0.7
		c0.4-1.8,1.5-3.2,3.1-4.1c0.8-0.4,1.2-0.9,1.1-1.8c0-0.2,0-0.4,0-0.5h16.1c0,0.3,0,0.5,0,0.8c0,0.7,0.3,1.1,0.9,1.5
		c1.9,1,3,2.5,3.4,4.6c0,0.1,0,0.1,0,0.3h-6.5c-0.2,0-0.3,0-0.5,0c-0.4,0.1-0.6,0.3-0.6,0.7c0,0.4,0.2,0.6,0.5,0.7
		c0.2,0,0.4,0,0.6,0c2,0,3.9,0,5.9,0h0.6v4.8H21.7z M16.4-36.9c-0.5,1.2-1.4,2.1-2.5,2.7c-0.2,0.1-0.5,0.2-0.7,0.3
		c-0.5,0.2-0.8,0.6-0.8,1.1c0,0.5,0.2,0.9,0.6,1.2c1.3,0.7,2.6,1,4,0.9c0.5-0.1,0.8-0.4,0.7-0.9c-0.1-0.4-0.4-0.6-0.9-0.6
		c-0.9,0.1-1.8-0.1-2.7-0.5c3.6-1.4,5.2-5.6,3.3-9.1c0.9,0.2,1.6,0.6,2.2,1.2c2,1.9,2.1,5,0.2,7c-0.1,0.1-0.3,0.3-0.4,0.5
		c-0.1,0.3-0.1,0.6,0.2,0.9c0.3,0.2,0.7,0.2,0.9-0.1c0.8-0.7,1.3-1.6,1.7-2.6c0-0.1,0.1-0.3,0.2-0.4c1,0.7,1.9,1.5,2.5,2.6
		c-1.1,0.9-1.8,2-2.2,3.3c-0.2,0.7-0.2,0.7-1,0.7h-13C8.9-33,12.6-36.6,16.4-36.9z M5.1-32.3h3c-0.1,0.2-0.2,0.4-0.2,0.6
		c-0.2,0.8-0.4,1.5-0.5,2.3c0,0.3-0.1,0.4-0.4,0.4c-0.6,0-1.2,0-1.8,0V-32.3z M24.3-23H6.6c-1.1,0-1.5-0.5-1.5-1.5
		c0-0.9,0-1.8,0-2.7c0,0,0-0.1,0.1-0.2h0.5c5.4,0,10.8,0,16.3,0c0.4,0,0.6,0.1,0.7,0.6c0.2,1.3,0.8,2.4,1.7,3.4
		c0.1,0.1,0.3,0.3,0.4,0.4c0,0,0,0,0,0.1C24.6-23,24.4-23,24.3-23z M33.6-24.1c0,0,0,0.1,0,0.1c-0.1,0-0.1,0.1-0.2,0.1
		c-0.4-0.5-0.9-1-1.3-1.6c-0.4-0.5-0.7-0.7-1.1-0.4c-0.4,0.2-0.4,0.7-0.1,1.2c0.2,0.3,0.4,0.6,0.6,0.9c-1.2,1.1-4,1.3-5.9-0.5
		c-1.9-1.8-2.1-4.7-0.4-6.7c1.6-1.9,4.5-2.3,6.3-1c-0.6,0.8-1.1,1.7-1.3,2.7c0,0.2-0.1,0.4-0.1,0.6c0,0.4,0.2,0.7,0.6,0.8
		c0.4,0.1,0.7-0.1,0.8-0.5c0.1-0.3,0.1-0.6,0.2-1c0.7-2.4,3.1-3.8,5.6-3.3c2.4,0.4,4.1,2.7,3.9,5.1c0,0.4-0.1,0.6-0.6,0.6
		c-1.4,0-2.7,0-4.1,0C34.7-27,33.7-25.9,33.6-24.1z M43.3-23h-6.9c-0.7,0-1.2-0.4-1.3-0.9c-0.1-0.5,0.1-1.2,0.6-1.4
		c0.3-0.1,0.6-0.2,0.9-0.2c1.1,0,2.2,0,3.4,0h3.4c0.9,0,1.5,0.5,1.5,1.3C44.8-23.5,44.2-23,43.3-23z"/>
	<path class="st0" d="M29.6-21.6c1-0.2,2-0.5,2.9-1.1c0.1,0,0.2,0,0.3,0c0.9,0.6,1.9,0.9,2.9,1.1C33.7-21.6,31.7-21.6,29.6-21.6z"/>
	<path d="M12.4-46.2c0,0.4-0.3,0.7-0.9,0.7c-1.4,0-2.7,0-4.1,0c-0.5,0-0.9-0.3-0.9-0.7c0-0.4,0.3-0.7,0.9-0.7c0.7,0,1.3,0,2,0
		c0.7,0,1.4,0,2,0C12-46.9,12.4-46.6,12.4-46.2z"/>
	<path d="M28.4-46.2c0,0.4-0.3,0.7-0.8,0.8c-1.4,0-2.8,0-4.1,0c-0.5,0-0.8-0.3-0.8-0.8c0-0.4,0.3-0.7,0.8-0.7c0.7,0,1.4,0,2.1,0
		c0.7,0,1.3,0,2,0C28.1-46.9,28.4-46.7,28.4-46.2z"/>
	<path d="M12.4-43.3c0,0.4-0.3,0.7-0.9,0.7c-1.4,0-2.7,0-4.1,0c-0.5,0-0.9-0.3-0.9-0.7c0-0.5,0.3-0.7,0.9-0.7c0.7,0,1.3,0,2,0
		c0.7,0,1.4,0,2,0C12-44,12.4-43.7,12.4-43.3z"/>
	<path d="M28.4-43.3c0,0.4-0.3,0.7-0.8,0.7c-1.4,0-2.8,0-4.1,0c-0.5,0-0.8-0.3-0.8-0.7c0-0.4,0.3-0.7,0.8-0.7c0.7,0,1.4,0,2,0
		s1.4,0,2,0C28.1-44,28.4-43.7,28.4-43.3z"/>
</g>
<g>
	<path d="M124.4,43.9c-2.4,1.4-4.9,2.6-7.5,3.4c-7.5,2.3-14.8,1.9-22-0.9c-2-0.8-4-1.8-6.1-2.5c-1.6-0.6-3.4-0.9-5.1-1.4
		c-1.2-0.3-2.4-0.8-3.4-1.5c-1.2-0.9-2-2.2-2.3-3.7c0-0.1-0.1-0.1-0.1-0.2v-1.7c0.1-0.4,0.1-0.8,0.3-1.2c0.7-2,1.3-4,2.1-5.9
		c3.7-9,8.9-17.2,14.5-25.1C96,1.5,97.7,0.4,99.7,0c1.8-0.4,3.6-0.5,5.4-0.8c0.9-0.1,1.8-0.3,2.7-0.4h1.4c0.5,0.2,1.1,0.3,1.6,0.6
		c1.4,0.7,2.3,1.8,2.6,3.4c0.3,1.3,0.5,2.6,0.7,3.9c0.4,3.2-2.3,5.6-5.4,4.9c-1.5-0.3-3-0.7-4.5-1c-0.1,0-0.3,0-0.5-0.1
		c-0.3,1.2-0.6,2.3-0.9,3.4c-0.6,2.5-1.3,5-2,7.5c-0.2,0.7-0.7,1.1-1.3,1.1c-0.6,0-1.1-0.5-1.2-1c0-0.3,0-0.6,0.1-0.9
		c1-3.9,2-7.7,3-11.6c0-0.1,0-0.3,0.1-0.4c0.2-0.8,0.9-1.2,1.7-1c2.1,0.5,4.1,1,6.2,1.5c1.3,0.3,2.4-0.8,2.2-2.1
		c-0.2-1.2-0.4-2.4-0.6-3.6c-0.2-1.3-1.4-2.1-2.7-2c-1.4,0.2-2.7,0.3-4.1,0.5c-1.1,0.1-2.2,0.3-3.3,0.4c-1.7,0.3-3.2,1.1-4.1,2.6
		c-5,7.1-9.6,14.4-13.1,22.3c-1.1,2.5-2,5.1-2.9,7.7c-0.2,0.6-0.2,1.3-0.1,1.9c0.1,1.3,1,2.2,2.2,2.7c1.2,0.5,2.5,0.8,3.7,1.1
		c2.2,0.5,4.3,1.3,6.4,2.2c3.4,1.6,7,2.8,10.8,3.2c4.8,0.6,9.5,0.1,14.1-1.7c1.8-0.7,3.6-1.7,5.4-2.6c0.5-0.2,0.9-0.4,1.4-0.1
		C125.4,42.1,125.3,43.3,124.4,43.9z"/>
	<path d="M127.8,23.5c0,0.7-0.5,1.3-1.4,1.3c-2.6,0.1-4.9,1-7,2.6c-0.2,0.2-0.4,0.3-0.6,0.5c-0.6,0.6-1.3,0.6-1.9,0.1
		c-1.9-1.6-4-2.7-6.4-3.2c-3.5-0.8-6.5,0.1-9.2,2.4c-1.8,1.5-3.2,3.4-4.5,5.5c-0.4,0.6-0.9,0.9-1.5,0.7c-0.8-0.2-1.2-1-0.8-1.7
		c2.3-3.9,5.1-7.4,9.5-9c3.5-1.3,6.9-0.8,10.2,0.7c1.2,0.6,2.3,1.3,3.6,2c1.9-1.5,4-2.5,6.4-2.9c0.7-0.1,1.4-0.2,2-0.2
		C127.2,22.2,127.8,22.7,127.8,23.5z"/>
	<path d="M120.9,37.2c-0.1,0.3-0.3,0.6-0.5,0.9c-1.9,2-4.2,3.2-6.9,3.7c-0.9,0.2-1.8,0.2-2.7,0.3c-1.7-0.1-3.4-0.4-5-0.9
		c-1.1-0.4-1.6-1-1.3-1.8c0.3-0.8,1-1,2-0.6c1.7,0.5,3.4,0.8,5.2,0.7c2.7-0.2,5-1.3,6.9-3.2c0.5-0.5,1-0.6,1.5-0.3
		C120.7,36.2,121,36.7,120.9,37.2z"/>
</g>
<g>
	<path d="M46.2,95.9c-0.1-0.1-0.1-0.2-0.2-0.3c-1.8-2.7-3.7-5.5-5.5-8.2c-0.3-0.5-0.7-0.7-1.3-0.7c-9.5,0-19.1,0-28.6,0
		c-0.6,0-1,0.2-1.3,0.7c-1.4,2.2-2.9,4.3-4.3,6.4c-0.4,0.7-0.9,1.3-1.3,2c-0.2,0.3-0.3,0.7-0.1,1.1c0.2,0.4,0.5,0.5,1,0.5
		c0.8,0,1.6,0,2.3,0h2.4v12.4c0,1,0.3,1.3,1.3,1.3h28.7c0.9,0,1.3-0.3,1.3-1.3V97.4h0.6c1.4,0,2.8,0,4.2,0
		C46.2,97.4,46.6,96.6,46.2,95.9z M6.6,95.4c-0.1,0-0.1,0-0.2,0c0.1-0.1,0.1-0.3,0.2-0.3c1.4-2,2.7-4.1,4.1-6.1
		c0.1-0.2,0.3-0.3,0.6-0.3c3.8,0,7.6,0,11.4,0c0.1,0,0.2,0,0.3,0c-1.3,1.6-2.5,3.2-3.7,4.7c-0.5,0.6-0.9,1.2-1.4,1.8
		c-0.1,0.1-0.3,0.3-0.5,0.3C13.8,95.4,10.2,95.4,6.6,95.4z M23.9,90.5v13.7H11.3v-6.8h0.5c1.9,0,3.9,0,5.8,0c0.7,0,1.1-0.2,1.5-0.8
		C20.7,94.6,22.3,92.6,23.9,90.5z M23.9,109.1H11.3v-2.9h12.6V109.1z M38.6,109.1H26v-2.9h12.6V109.1z M38.6,104.2H25.9V90.9
		c0.2,0.2,0.3,0.4,0.3,0.5c1.2,1.7,2.3,3.5,3.5,5.2c0.4,0.5,0.8,0.8,1.4,0.8c2.3,0,4.5,0,6.8,0h0.5V104.2z M43.1,95.4
		c-3.8,0-7.5,0-11.3,0c-0.3,0-0.5-0.1-0.7-0.4c-1.4-2.1-2.8-4.3-4.3-6.4c0.1,0,0.2-0.1,0.3-0.1c3.8,0,7.7,0,11.5,0
		c0.2,0,0.4,0.1,0.5,0.2c1.5,2.2,2.9,4.3,4.4,6.6H43.1z"/>
	<path d="M32.4,66.9c-1-0.8-2-0.9-3.2-0.6c-0.1-0.2-0.2-0.4-0.3-0.6c-0.9-1.4-2.8-2-4.3-1.3c-1.5,0.7-2.4,2.5-1.8,4.1
		c0.6,1.9,1.4,3.8,2.1,5.7c0.2,0.5,0.7,0.8,1.2,0.6c1.9-0.7,3.9-1.4,5.8-2.2C34.1,71.7,34.4,68.5,32.4,66.9z M30.8,71
		c-1.5,0.6-3,1.1-4.5,1.7c-0.6-1.6-1.2-3.1-1.7-4.7c-0.3-0.7,0.2-1.5,0.9-1.7c0.7-0.3,1.5,0,1.9,0.7c0.2,0.3,0.3,0.6,0.4,1
		c0.3,0.6,0.7,0.8,1.3,0.6c0.3-0.1,0.5-0.2,0.8-0.3c0.8-0.3,1.6,0.1,1.9,0.9C32,69.9,31.6,70.7,30.8,71z"/>
	<path d="M20.8,71.7c-1.4-0.6-3.4,0.1-3.8,2.2c-0.2,0-0.4,0.1-0.6,0.1c-1.3,0.3-2.3,1.6-2.1,3c0.1,1.4,1.3,2.5,2.6,2.6
		c1.4,0.1,2.9,0.1,4.3,0.2c0.8,0,1.1-0.3,1.2-1.1c0.1-1.5,0.2-2.9,0.2-4.4C22.6,73.2,21.8,72.2,20.8,71.7z M20.4,77.8
		c-1.2-0.1-2.3-0.1-3.5-0.2c-0.5,0-0.8-0.5-0.8-0.9c0-0.5,0.4-0.8,0.9-0.8c0.3,0,0.5,0,0.8,0c0.6,0,0.9-0.4,1-0.9
		c0-0.3,0-0.5,0.1-0.8c0.1-0.5,0.5-0.8,0.9-0.7c0.4,0,0.8,0.4,0.8,0.8C20.6,75.5,20.5,76.6,20.4,77.8z"/>
	<path d="M30,79.8c-0.2-0.1-0.4-0.2-0.5-0.4c-0.5-1.1-1.6-1.8-2.7-1.5c-1.2,0.3-2,1.2-2,2.5c0,0.5,0,1,0,1.5H25c0,0.6,0,1.2,0,1.8
		c0,0.6,0.4,1,0.9,1c1.3,0,2.5-0.1,3.7-0.2c1.2-0.1,2-1.1,2-2.2C31.8,81.2,31.1,80.2,30,79.8z M29.4,82.6c-0.8,0.1-1.6,0.1-2.4,0.1
		c0-0.8-0.1-1.6-0.1-2.4c0-0.2,0.3-0.4,0.4-0.4c0.2,0,0.4,0.2,0.5,0.4c0.2,0.4,0.1,0.9,0.4,1.2c0.3,0.3,0.8,0.2,1.2,0.3
		c0.2,0.1,0.4,0.3,0.5,0.5C29.8,82.3,29.5,82.6,29.4,82.6z"/>
	<path d="M36.6,65.2c0,0.5-0.4,1-1,1s-1-0.4-1-1c0-0.5,0.4-1,1-1C36.2,64.2,36.6,64.6,36.6,65.2z"/>
	<path d="M18.1,68.1c0,0.5-0.5,1-1,1c-0.5,0-0.9-0.5-0.9-1c0-0.5,0.5-1,1-1C17.7,67.1,18.1,67.6,18.1,68.1z"/>
	<path d="M35.7,76c0,0.5-0.5,0.9-1,0.9c-0.5,0-1-0.5-1-1c0-0.5,0.5-0.9,1-0.9C35.2,75,35.7,75.4,35.7,76z"/>
	<path d="M21,82.8c0,0.5-0.5,1-1,1c-0.5,0-0.9-0.5-0.9-1c0-0.5,0.5-1,1-1C20.6,81.8,21,82.2,21,82.8z"/>
</g>
<g>
	<path d="M39.9,31.4c0.1-0.4,0.2-0.6,0.5-0.8c1.7-1.3,2.7-2.9,2.8-5c0.1-3.6,0-7.3,0-10.9c0-0.5-0.1-1-0.2-1.5
		c-0.5,0.1-1,0.2-1.3,0.2V22h-1.4c0-0.2,0-0.4,0-0.6c-0.2-1.4-0.2-2.8-0.6-4.1c-0.9-3.9-2.9-7-6.3-9.2c-2.9-1.8-6.1-2.4-9.5-2.2
		c-0.3,0-0.6,0-0.8-0.2c-1.3-1-1.3-3,0-4c0.2-0.1,0.4-0.2,0.7-0.2c1.4,0,2.8,0,4.1,0c4.5,0.1,8.2,1.9,11,5.5c0.6,0.7,1,1.5,1.5,2.3
		c0.4-0.2,0.8-0.4,1.2-0.6c-0.1-0.2-0.1-0.3-0.2-0.5c-3-5.1-7.5-7.9-13.4-8.1c-0.8,0-1.6-0.1-2.3-0.1h-1.8c-0.9,0.1-1.8,0.1-2.6,0.2
		c-3.2,0.3-6.1,1.3-8.6,3.3c0,0-0.1,0.1-0.2,0.1C11.6,2.4,11,1.2,10.3,0h-0.1c-0.1,0.1-0.1,0.3-0.2,0.4C9.5,1.5,8.8,2.6,8.2,3.8
		C8.1,4,7.9,4.2,7.7,4.3C6.4,5,5.2,5.7,3.9,6.4C5.3,7.2,6.7,8,8.1,8.8c0,0.1,0,0.1,0,0.2c-1.1,2.1-1.4,4.4-1.4,6.8
		c-0.1,3.1,0,6.2,0,9.4c0,2.3,1,4.2,2.9,5.6c0.2,0.1,0.3,0.4,0.4,0.6c0.8,5.4,3.3,9.8,7.5,13.3c0.1,0.1,0.3,0.4,0.3,0.6
		c0,1.4,0,2.8,0,4.2v0.5h1.5v-4c0.2,0.1,0.3,0.2,0.4,0.3c1.6,1,3.3,1.7,5.1,2.1c0.2,0,0.5,0,0.7,0c1.8-0.5,3.5-1.2,5-2.1
		c0.1-0.1,0.3-0.2,0.5-0.3v4h1.4c0-1.6,0-3.1,0-4.7c0-0.2,0-0.4,0.1-0.5c0.8-0.7,1.6-1.4,2.4-2.2c0.6,1.1,1.2,2.2,1.8,3.3
		c0.1-0.2,0.2-0.3,0.3-0.5c0.6-1.1,1.1-2.2,1.8-3.2c0.1-0.3,0.4-0.5,0.7-0.7c1-0.6,2.1-1.2,3.2-1.8c0.2-0.1,0.3-0.2,0.5-0.3
		c-0.2-0.1-0.4-0.2-0.6-0.3c-1.1-0.6-2.2-1.2-3.3-1.8c-0.5-0.3-0.6-0.7-0.5-1.2C39.1,34.5,39.5,33,39.9,31.4z M40.3,23.5h1.4
		c0.1,1.9,0.1,3.7-1.4,5.3V23.5z M6.9,6.4c0.6-0.3,1-0.6,1.5-0.8c0.5-0.2,0.8-0.5,1-1c0.2-0.5,0.5-1,0.8-1.5c0.3,0.6,0.6,1.2,1,1.7
		c0.2,0.2,0.4,0.5,0.6,0.6c0.5,0.3,1.1,0.6,1.8,1c-0.5,0.3-1,0.6-1.5,0.8c-0.5,0.2-0.8,0.6-1.1,1.1c-0.2,0.5-0.5,0.9-0.8,1.5
		C9.9,9.1,9.7,8.6,9.3,8C9.2,7.8,8.9,7.5,8.7,7.4C8.1,7,7.6,6.7,6.9,6.4z M9.5,28.8C8,27.3,8,25.4,8.1,23.5h1.4V28.8z M9.5,21.6
		c0,0.1,0,0.2,0,0.4H8.1c0-0.1,0-0.2,0-0.3c0-2.1,0-4.3,0-6.4c0-1.5,0.3-2.9,0.8-4.3c0-0.1,0.1-0.2,0.2-0.4c0.4,0.8,0.8,1.4,1.2,2.2
		c0.3-0.5,0.5-0.9,0.7-1.3c0.5-0.9,0.9-2,1.6-2.7c0.7-0.7,1.8-1.1,2.7-1.6c0.4-0.2,0.9-0.5,1.4-0.8c-1.1-0.6-2.1-1.2-3.2-1.8
		c2.3-1.8,4.8-2.8,7.7-3c-0.8,2.2-0.8,2.8,0.3,4.7c-0.5,0.1-0.9,0.2-1.4,0.3c-4.6,1.3-7.6,4.4-9.3,8.8C10,17.4,9.6,19.5,9.5,21.6z
		 M40,39.5c-0.5,0.3-1,0.6-1.4,0.8c-0.5,0.3-0.9,0.6-1.2,1.2c-0.2,0.5-0.5,0.9-0.8,1.4c-0.7-1.5-1.6-2.8-3.3-3.2
		c0-0.1,0-0.1,0.1-0.2c0.6-0.3,1.1-0.6,1.7-0.9c0.3-0.2,0.5-0.4,0.6-0.6c0.3-0.5,0.6-1.1,1-1.8c0.3,0.5,0.6,1,0.8,1.5
		c0.2,0.5,0.6,0.8,1.1,1.1C39,38.9,39.4,39.2,40,39.5z M37.7,34.5c0,0.1-0.1,0.2-0.1,0.3c-0.3-0.6-0.6-1.1-1-1.8
		c-0.5,1-1.1,1.8-1.5,2.8c-0.4,1-1.1,1.7-2.1,2.1c-0.9,0.4-1.8,1-2.8,1.5c1.2,0.7,2.3,1.3,3.6,2c-0.8,0.8-1.6,1.5-2.5,2.2
		c-1.7,1.4-3.7,2.4-5.8,3.1c-0.4,0.1-0.8,0.1-1.2,0c-4-1.2-7.3-3.3-9.7-6.8c-1.7-2.5-2.7-5.3-3.2-8.3c-0.5-3-0.6-5.9-0.4-8.9
		c0-0.2,0.1-0.5,0.3-0.7c0.4-0.5,0.9-0.9,1.3-1.4c1.4-1.6,3.2-2.3,5.2-2.4c1.7-0.1,3.2-0.5,4.6-1.5c0.2-0.1,0.3-0.3,0.5-0.4
		c-0.3-0.4-0.6-0.7-1-1.1c-1,0.9-2.2,1.4-3.5,1.5c-0.6,0.1-1.2,0.1-1.8,0.2c-1.9,0.2-3.4,1.1-4.7,2.3c-0.2,0.2-0.4,0.5-0.7,0.7
		c0.3-2.7,1.1-5.2,2.6-7.5c1.5-2.2,3.6-3.6,6.1-4.3c3.5-1.1,6.9-1,10.3,0.1c3.9,1.3,6.3,4,7.6,7.9c0.1,0.4,0.2,0.8,0.3,1.2
		c-3.3-4-7.4-6.4-12.5-7.1V8.9h-1.5c0.1,1.9,0,3.8-1.3,5.4c0.4,0.3,0.8,0.6,1.2,0.9c0.3-0.6,0.7-1.1,0.9-1.7
		c0.2-0.6,0.4-1.1,0.6-1.8c1.2,0.1,2.4,0.4,3.5,0.8c4.3,1.6,7.4,4.4,9.4,8.5c0.1,0.2,0.2,0.5,0.2,0.7c0,2.3,0,4.6,0,6.9
		C38.6,30.6,38.4,32.6,37.7,34.5z"/>
	<path d="M4.4,11.8v1.5H3v1.4H1.5v-1.4c-0.5,0-1-0.1-1.5-0.1v-1.4c0.5,0,1-0.1,1.5-0.1v-1.4H3v1.4H4.4z"/>
	<polygon points="46.8,33.7 46.8,35.2 45.4,35.2 45.4,36.6 43.9,36.6 43.9,35.2 42.5,35.2 42.5,33.7 43.9,33.7 43.9,32.3 45.4,32.3 
		45.4,33.7 	"/>
	<rect x="24.1" y="3.1" width="1.4" height="1.4"/>
	<rect x="48.4" y="29.3" width="1.4" height="1.4"/>
	<rect x="48.4" y="38.1" width="1.4" height="1.4"/>
	<path d="M42.7,11.6c-0.5,0.1-0.9,0.3-1.4,0.4c-0.2-0.4-0.3-0.8-0.5-1.3c0.4-0.2,0.9-0.3,1.4-0.5C42.3,10.6,42.5,11.1,42.7,11.6z"/>
	<path d="M22.7,20.6V22h-5.4c-1.3,0-2.5,0.4-3.6,1.4c-0.3-0.4-0.7-0.7-1-1.1c1.1-1,2.4-1.7,3.9-1.7C18.6,20.5,20.6,20.6,22.7,20.6z"
		/>
	<path d="M37.1,22.4c-0.3,0.3-0.6,0.7-1,1c-1.2-1.1-2.7-1.4-4.3-1.4c-1.5,0-3,0-4.6,0v-1.4c0.2,0,0.3,0,0.5,0h4.9
		c1.5,0,2.9,0.4,4.1,1.3c0.1,0.1,0.2,0.2,0.3,0.3C37,22.2,37,22.3,37.1,22.4z"/>
	<path d="M29.7,37.2c-1.9,2-7,2.3-9.5,0c0.3-0.4,0.5-0.7,0.8-1.1c2.7,1.6,5.3,1.5,8,0C29.2,36.4,29.4,36.8,29.7,37.2z"/>
	<path d="M22.4,26.5c-0.3,1.5-2,2.7-3.8,2.8c-2.2,0.1-3.8-1.3-4.2-2.7c0.4-0.2,0.8-0.4,1.3-0.5c1.2,2.4,4.5,2.2,5.5-0.1
		C21.5,26.2,21.9,26.4,22.4,26.5z"/>
	<path d="M35.4,26.7c-0.2,1.3-1.9,2.5-3.7,2.7c-1.9,0.1-3.7-1-4.3-2.7c0.5-0.2,0.9-0.4,1.3-0.5c1.1,2.1,4.1,2.5,5.5,0
		C34.6,26.3,35,26.5,35.4,26.7z"/>
	<rect x="15.4" y="13.3" width="1.4" height="1.4"/>
	<rect x="18.3" y="13.3" width="1.4" height="1.4"/>
</g>
</svg>
