<svg version="1.1" id="Camada_1" xmlns="http://www.w3.org/2000/svg" xmlns:xlink="http://www.w3.org/1999/xlink" x="0px" y="0px"
	 viewBox="0 0 50 50" style="enable-background:new 0 0 50 50;" xml:space="preserve">
<style type="text/css">
	.st0{fill:#FFFFFF;}
</style>
<g>
	<path d="M-95.6-124.3c-3.7-4.8-8.6-7.9-14.6-9.2c-1.1-0.2-2.2-0.3-3.3-0.5c-0.2,0-0.3-0.1-0.5-0.1h-2.9c-1,0.1-1.9,0.2-2.8,0.4
		c-5.7,1-10.4,3.7-14.3,7.9c-3.6,4-5.7,8.8-6.3,14.1c0,0.4-0.1,0.7-0.1,1.1v2.9c0.1,0.9,0.2,1.9,0.4,2.8c1.4,7.5,5.4,13.2,11.8,17.2
		c3.3,2.1,7,3.2,10.9,3.4c0.1,0,0.3,0,0.4,0.1h2.9c1-0.1,1.9-0.2,2.8-0.4c5.8-1,10.6-3.8,14.5-8.2c3.5-4,5.5-8.7,6.1-13.9
		C-89.9-113.2-91.6-119.1-95.6-124.3z M-115.4-86.8c-12.3,0-22.2-10-22.2-22.3c0-12.3,10-22.3,22.3-22.3c12.3,0,22.2,10,22.2,22.3
		C-93.1-96.8-103.1-86.8-115.4-86.8z"/>
	<path d="M-102.3-102.4c-2.8,4.1-6.6,6.4-11.4,7c-6.2,0.7-11.8-2.6-14.6-7c0.8-0.5,1.5-1,2.2-1.4c5.5,8.1,16.7,7.4,21.6,0
		C-103.9-103.4-103.1-102.9-102.3-102.4z"/>
	<path d="M-120.8-114.7c0,1.5-1.2,2.7-2.7,2.7c-1.5,0-2.7-1.2-2.7-2.7s1.2-2.7,2.7-2.7C-122.1-117.4-120.8-116.2-120.8-114.7z"/>
	<path d="M-104.2-114.7c0,1.5-1.2,2.7-2.7,2.7c-1.5,0-2.7-1.2-2.7-2.7c0-1.5,1.2-2.7,2.7-2.7C-105.4-117.4-104.2-116.2-104.2-114.7z
		"/>
</g>
<g>
	<path d="M-177.7-53.3c-0.9-4.2-3.6-6.9-7.8-7.7c-4.8-1-8.4,1-11,5.1c-14.5-3.9-27.8,9.3-23.9,23.9c-4.1,2.6-6.1,6.3-5.1,11.1
		c0.9,4.2,3.6,6.9,7.8,7.8c4.8,1,8.5-1,11.1-5c7.2,1.6,13.6,0.1,18.8-5.1c5.2-5.2,6.7-11.7,5.1-18.8
		C-178.6-44.8-176.7-48.4-177.7-53.3z M-215.4-48.6c5-6,12.6-7.4,18.2-5.8c-0.1,0.5-0.3,1-0.4,1.4c-6-1.3-11.3,0-15.6,4.3
		c-4.3,4.3-5.6,9.6-4.4,15.6c-0.2,0-0.5,0.1-0.7,0.2c-0.2,0.1-0.5,0.1-0.7,0.2C-220.2-36.6-219.7-43.4-215.4-48.6z M-215.6-14.5
		c-4.8,0-8.6-3.8-8.6-8.5c0-4.8,3.8-8.6,8.6-8.6c4.7,0,8.5,3.8,8.5,8.6C-207-18.4-210.9-14.5-215.6-14.5z M-208.5-30.2
		c-2-2-4.5-3-7.5-3c-0.2-1-0.3-2-0.5-3.1h3.1v-1.6h-3c0.2-3.5,1.5-6.5,3.8-9.1c0.6,0.7,1.2,1.3,1.8,1.9c0.4-0.4,0.8-0.8,1.2-1.2
		c-0.6-0.6-1.2-1.2-1.8-1.8c1.3-1.9,6.4-4,9.1-3.8v3h1.6v-3.1c1.1,0.2,2.1,0.3,3.1,0.5c-0.1,5.6,4.4,10.5,10.4,10.5
		c0.1,0.5,0.2,1,0.3,1.5s0.1,1,0.2,1.6h-3.1v1.5h3c-0.2,3.5-1.5,6.5-3.8,9.1c-0.6-0.6-1.2-1.2-1.8-1.8c-0.4,0.4-0.7,0.8-1,1.2
		c0.5,0.5,1.1,1.1,1.8,1.8c-2.7,2.3-5.7,3.6-9.2,3.8v-3h-1.6v3.1c-1.1-0.2-2.1-0.3-3.1-0.5C-205.5-25.7-206.4-28.2-208.5-30.2z
		 M-188.5-24.8c-5.1,5.5-12.5,6.6-17.6,5.1c0.1-0.5,0.3-1,0.4-1.4c6,1.3,11.3,0,15.6-4.3c4.3-4.3,5.6-9.6,4.3-15.6
		c0.5-0.1,0.9-0.3,1.4-0.4C-182.9-37.2-183.5-30.2-188.5-24.8z M-187.6-42.5c-4.7,0-8.6-3.9-8.6-8.5c0-4.8,3.9-8.6,8.7-8.6
		c4.7,0,8.5,3.9,8.5,8.6C-179-46.4-182.9-42.5-187.6-42.5z"/>
	<path d="M-195.6-32.3c-0.5,0.4-0.8,0.7-1.2,1.1c0,0-0.1-0.1-0.2-0.2c-1.6-1.7-3.3-3.3-4.9-5c-0.2-0.2-0.4-0.5-0.4-0.8
		c0-2.7,0-5.5,0-8.2c0-0.1,0-0.1,0-0.2h1.5v0.5c0,2.4,0,4.9,0,7.3c0,0.2,0.1,0.5,0.3,0.7c1.5,1.5,3,3,4.5,4.6
		C-195.9-32.5-195.7-32.4-195.6-32.3z"/>
	<path d="M-184.8-50.4h3.5v1.5c-0.1,0-0.3,0-0.4,0h-4.8c-0.4,0-0.8-0.1-1-0.5c-0.2-0.4,0.1-0.7,0.4-1c1-1,2-2,3.2-3.1h-3.5V-55h1.8
		c1.1,0,2.3,0,3.4,0c0.4,0,0.7,0.1,0.9,0.5c0.2,0.4,0,0.7-0.3,1c-0.9,0.9-1.9,1.9-2.8,2.8C-184.6-50.7-184.7-50.5-184.8-50.4z"/>
	<path d="M-189.2-48.8v1.6c-1.3,0-2.7,0-4,0c-0.2,0-0.5-0.3-0.6-0.5c-0.1-0.2,0-0.6,0.2-0.8c0.4-0.5,0.9-0.9,1.3-1.4
		c0.1-0.1,0.2-0.2,0.4-0.4h-1.9v-1.6c1.3,0,2.7,0,4,0c0.2,0,0.5,0.3,0.6,0.5c0.1,0.3,0,0.6-0.2,0.8c-0.4,0.5-0.9,0.9-1.3,1.4
		c-0.1,0.1-0.2,0.2-0.4,0.4H-189.2z"/>
	<path d="M-209.5-21.2c-0.2-0.4-0.6-0.4-1-0.3c-1.9,0.1-3.7-1.1-4.3-2.9c-0.4-1.2-0.3-2.4,0.4-3.6c0.4-0.7,0-1.3-0.8-1.3
		c-0.1,0-0.3,0-0.4,0c-3.2,0.3-5.7,3-5.7,6.2c0,2.9,1.9,5.4,4.7,6.1c2.8,0.7,5.6-0.6,6.9-3.1C-209.4-20.4-209.3-20.8-209.5-21.2z
		 M-216.3-18.6c-2.1-0.6-3.4-2.6-3.2-4.8c0.1-1.9,1.6-3.8,3.2-4c-0.9,3.9,1.5,6.9,4.7,7.5C-212.4-18.7-214.6-18.1-216.3-18.6z"/>
</g>
<g>
	<path d="M-180.9-126.7c1.4,0.4,2.8-0.5,3.2-1.9c0.4-1.4-0.5-2.8-1.9-3.2c-1.4-0.4-2.8,0.5-3.2,1.9c-0.2,0.9,0,1.7,0.5,2.4
		c-0.7,0.7-1.4,1.5-2.1,2.2c-0.7,0.7-1.4,1.4-2.1,2.1c-2.4-2.4-6.1-2.5-8.6,0c-1.5-1.5-3-2.9-4.5-4.3c0.8-1.7,0.6-3-0.5-3.8
		c-1-0.8-2.3-0.7-3.3,0.1c-1.1,0.9-1.2,2.1-0.3,3.8c-0.7,0.7-1.4,1.4-2.1,2.1c-0.7,0.7-1.4,1.4-2.1,2.1c-2.5-2.5-6.2-2.5-8.6-0.1
		c-1.4-1.4-2.8-2.9-4.3-4.3c0,0,0.1-0.1,0.1-0.1c0.8-1.2,0.6-2.5-0.3-3.4c-0.9-0.9-2.3-1-3.3-0.3c-1,0.7-1.4,2.1-0.9,3.2
		c0.5,1.2,1.8,1.8,3.1,1.5c0.2,0,0.4,0,0.6,0.2c1.4,1.3,2.7,2.7,4.1,4c0.1,0.1,0.1,0.2,0.2,0.2c-1.2,2.1-1.2,4.1,0,6.2
		c-0.1,0.1-0.2,0.3-0.4,0.4c-1.2,1.2-2.5,2.5-3.7,3.7c-0.3,0.3-0.5,0.4-1,0.3c-1.4-0.3-2.8,0.6-3.1,2.1c-0.3,1.3,0.6,2.7,1.9,3.1
		c1.4,0.4,2.8-0.5,3.2-1.9c0.2-0.9,0-1.7-0.5-2.4c1.4-1.5,2.8-2.9,4.2-4.3c2.4,2.4,6.1,2.6,8.7,0.1c1.4,1.4,2.8,2.9,4.3,4.3
		c0,0.1-0.1,0.2-0.2,0.4c-0.5,0.9-0.4,1.8,0.2,2.7c0.6,0.8,1.4,1.3,2.4,1.1c0.7-0.2,1.1,0.1,1.6,0.6c0.2,0.2,0.5,0.5,0.7,0.7
		c1,1,2.1,2.1,3.1,3.1c-1.2,2.1-1.2,4.2,0,6.2c-1.5,1.5-2.9,2.9-4.3,4.3c-0.1,0.1-0.4,0.1-0.6,0.1c-1.4-0.3-2.8,0.5-3.2,2
		c-0.3,1.4,0.5,2.8,1.9,3.2c1.4,0.4,2.9-0.5,3.2-1.9c0.2-0.9,0-1.7-0.5-2.3c1.4-1.5,2.8-2.9,4.2-4.3c2.3,2.3,6,2.5,8.6,0
		c1.4,1.4,2.8,2.8,4.3,4.3c-0.6,0.9-0.7,1.6-0.5,2.5c0.4,1.4,1.9,2.2,3.3,1.8c1.4-0.4,2.2-1.8,1.8-3.2c-0.3-1.4-1.8-2.3-3.2-1.9
		c-0.3,0.1-0.4,0.1-0.6-0.2c-1.3-1.3-2.7-2.7-4-4c-0.2-0.2-0.2-0.3-0.1-0.6c1-1.8,1-3.7,0-5.5c-0.2-0.3-0.1-0.4,0.1-0.7
		c1.3-1.2,2.5-2.5,3.7-3.7c0.3-0.3,0.6-0.6,1.2-0.4c0.2,0.1,0.5,0,0.7,0c1.5-0.2,2.5-1.6,2.3-3.1c-0.3-1.4-1.7-2.4-3.1-2.1
		c-0.1,0-0.4,0-0.4,0c-1.4-1.5-2.8-2.9-4.2-4.4c1.1-1.9,1.1-4-0.1-6c1.4-1.4,2.8-2.8,4.2-4.3C-181.3-126.7-181.2-126.8-180.9-126.7z
		 M-222.9-127.9c-0.8,0-1.4-0.7-1.4-1.5c0-0.8,0.7-1.5,1.5-1.4c0.8,0,1.5,0.7,1.4,1.5C-221.5-128.5-222.1-127.9-222.9-127.9z
		 M-223-107.7c-0.8,0-1.4-0.7-1.4-1.5c0-0.8,0.7-1.4,1.5-1.4c0.8,0,1.4,0.7,1.4,1.5C-221.5-108.3-222.2-107.7-223-107.7z
		 M-201.6-87.6c-0.8,0-1.5-0.6-1.5-1.4c0-0.8,0.7-1.5,1.5-1.5c0.8,0,1.5,0.6,1.5,1.4C-200.2-88.3-200.8-87.6-201.6-87.6z
		 M-180.5-90.5c0.8,0,1.5,0.6,1.5,1.4c0,0.8-0.6,1.5-1.4,1.5c-0.8,0-1.5-0.6-1.5-1.4C-182-89.8-181.3-90.5-180.5-90.5z
		 M-180.5-110.7c0.8,0,1.5,0.6,1.5,1.4c0,0.8-0.6,1.5-1.4,1.5c-0.8,0-1.5-0.6-1.5-1.4C-182-110-181.3-110.7-180.5-110.7z
		 M-190.9-123.9c2.6,0,4.7,2.1,4.7,4.7c0,2.6-2.1,4.7-4.7,4.8c-2.6,0-4.8-2.1-4.8-4.7C-195.6-121.8-193.5-123.9-190.9-123.9z
		 M-201.8-130.8c0.8,0,1.5,0.6,1.5,1.5c0,0.8-0.6,1.5-1.5,1.5s-1.5-0.6-1.5-1.4C-203.2-130.1-202.6-130.8-201.8-130.8z
		 M-212.4-114.5c-2.6,0-4.7-2.1-4.7-4.7c0-2.6,2.1-4.7,4.7-4.7c2.6,0,4.7,2.1,4.8,4.7C-207.6-116.6-209.7-114.5-212.4-114.5z
		 M-201.6-107.8c-0.8,0-1.5-0.7-1.5-1.5c0-0.8,0.6-1.5,1.5-1.5c0.8,0,1.5,0.6,1.5,1.4C-200.2-108.4-200.8-107.8-201.6-107.8z
		 M-200.2-111.8c-0.1,0.1-0.3,0.1-0.5,0.1c-0.6,0-1.2,0-1.8-0.1c-0.2,0-0.4,0-0.5-0.1c-1.4-1.3-2.7-2.7-4-4
		c-0.1-0.1-0.2-0.4-0.1-0.5c1-2,1-4-0.1-6c1.5-1.5,2.9-2.9,4.4-4.4c0.1-0.1,0.3-0.1,0.5-0.1c0.5,0,1.1-0.1,1.7-0.1
		c0.2,0,0.4,0,0.5,0c1.5,1.5,2.9,3,4.4,4.4c0,0,0,0.1,0.1,0.1c-0.7,1.1-1,2.4-0.8,3.7c0.1,0.7,0.4,1.5,0.7,2.2
		c0.1,0.3,0.1,0.4-0.1,0.6C-197.5-114.5-198.8-113.1-200.2-111.8z M-191.1-94.4c-2.6,0-4.7-2.2-4.7-4.8c0-2.6,2.2-4.7,4.8-4.7
		c2.6,0,4.7,2.2,4.6,4.7C-186.4-96.5-188.5-94.4-191.1-94.4z M-182.5-111c-0.8,1.1-0.9,2.3,0,3.5c-1.4,1.4-2.8,2.8-4.3,4.3
		c-1.2-1.2-2.6-1.8-4.3-1.8c-1.7,0-3.1,0.6-4.3,1.8c-1.4-1.4-2.8-2.9-4.3-4.3c0.7-1.2,0.8-1.8,0.1-3.1c1.5-1.5,2.9-2.9,4.3-4.4
		c2.7,2.6,6.4,2.2,8.7-0.1C-185.1-113.8-183.8-112.4-182.5-111z M-180.2-130.7c0.8,0,1.5,0.7,1.5,1.4c0,0.8-0.7,1.5-1.5,1.5
		c-0.8,0-1.5-0.7-1.5-1.5C-181.7-130.1-181.1-130.7-180.2-130.7z"/>
	<path d="M-212.1-122.6c-0.1,0.1-0.2,0.3-0.4,0.4c-1,0.5-1.7,1.2-2.2,2.2c-0.2,0.4-0.5,0.5-0.8,0.3c-0.4-0.2-0.4-0.5-0.2-0.9
		c0.6-1.2,1.5-2.1,2.7-2.7C-212.5-123.4-212.1-123.2-212.1-122.6z"/>
	<path d="M-215.2-118.5c0,0.6-0.3,0.9-0.7,0.9c-0.3,0-0.6-0.3-0.5-0.7c0-0.6,0.3-1,0.7-0.9C-215.3-119.1-215.1-118.9-215.2-118.5z"
		/>
	<path d="M-190.7-102.4c-0.1,0.1-0.2,0.3-0.4,0.4c-1,0.4-1.8,1.1-2.4,2.1c-0.2,0.3-0.5,0.4-0.8,0.3c-0.3-0.2-0.4-0.5-0.2-0.8
		c0.7-1.2,1.6-2.1,2.9-2.6C-191.1-103.2-190.7-103-190.7-102.4z"/>
	<path d="M-194-98.5c0,0.6-0.3,1-0.7,0.9c-0.4,0-0.5-0.3-0.5-0.7c0-0.6,0.3-1,0.7-0.9C-194.1-99.2-194-98.9-194-98.5z"/>
	<path d="M-190.6-122.6c-0.1,0.1-0.2,0.3-0.4,0.4c-1,0.5-1.7,1.3-2.2,2.3c-0.2,0.3-0.4,0.5-0.8,0.3c-0.4-0.2-0.4-0.5-0.3-0.9
		c0.6-1.2,1.5-2.2,2.7-2.8C-191.1-123.4-190.7-123.2-190.6-122.6z"/>
	<path d="M-193.7-118.4c0,0.6-0.2,0.8-0.6,0.8s-0.6-0.3-0.6-0.8c0-0.5,0.2-0.8,0.6-0.8C-193.9-119.2-193.7-118.9-193.7-118.4z"/>
</g>
<g>
	<path d="M-109.1-36.7c-0.1-0.2-0.1-0.5-0.1-0.7c0.1-1.6,0.1-3.3-0.5-4.8c-1.1-2.9-3.4-4.5-6.3-5.4c-0.2-0.1-0.4-0.1-0.5-0.2
		c-1.1-1-2.4-1.4-3.8-1.1c-1.1,0.2-2-0.2-2.7-1c-1.1-1.2-2.3-2.3-3.4-3.4c-0.4-0.4-0.9-0.4-1.2,0c-0.3,0.4-0.1,0.7,0.2,1
		c1.1,1.1,2.3,2.2,3.3,3.4c1.2,1.2,2.5,1.7,4.2,1.5c1.7-0.2,3.2,0.9,3.5,2.6c0.3,1.7-0.7,3.3-2.4,3.7c-0.6,0.1-0.9,0.4-1,1
		c-0.3,1.4-1.5,2.3-2.9,2.4c-1.4,0.1-2.8-0.7-3.2-2.1c-0.2-0.6-0.2-1.3-0.1-1.9c0.1-1.4-0.3-2.6-1.2-3.5c-4-4-7.9-7.9-11.9-11.8
		c-0.6-0.6-1-0.5-1.5,0.2v0.3c0.2,0.2,0.3,0.5,0.5,0.6c3.8,3.8,7.6,7.6,11.5,11.4c0.9,0.9,1.3,1.8,1.1,3.1c-0.3,2.1,0.9,4,2.8,4.8
		c0.7,0.3,1.5,0.3,2.3,0.5c0,0,0,0,0,0.1c-0.5,2.1,0.1,3.8,1.8,5.1c0.8,0.6,1.2,1.4,1.1,2.4c0,5.2,0,10.3,0,15.5
		c0,0.5,0.1,0.8,0.5,1h0.5c0.4-0.2,0.5-0.6,0.5-1c0-3.8,0-7.6,0-11.5v-0.5c0.9,0.2,1.5,0.9,1.7,1.8c0,0.3,0,0.5,0,0.8
		c0,3.1,0,6.2,0,9.3c0,0.5,0.1,0.8,0.4,1.1h0.6c0.4-0.3,0.4-0.7,0.4-1.1c0-3.2,0-6.3,0-9.5c0-1.6-0.6-2.8-2-3.5
		c-0.8-0.5-1.2-1.2-1.2-2.1c0-0.9,0-1.8-0.6-2.6c-0.4-0.5-0.8-1-1.3-1.4c-1-0.9-1.5-1.9-1.2-3.2c0.3-1.3,1.1-2.2,2.5-2.5
		c0.9-0.2,1.7-0.1,2.4,0.5c0.4,0.3,0.8,0.3,1.2,0c1.5-1,3.4-0.6,4.4,0.8c1,1.4,0.7,3.3-0.7,4.4c-1.3,1-1.9,2.2-1.9,3.8
		c0,5.1,0,10.2,0,15.3c0,0.4,0.1,0.8,0.5,1h0.5c0.4-0.3,0.5-0.6,0.5-1.1c0-5.1,0-10.2,0-15.3c0-1.1,0.4-2,1.3-2.7
		C-108.8-32.5-108.3-34.7-109.1-36.7z M-112.3-39.4c-1.1-0.3-2.1-0.2-3.1,0.3c-0.1,0.1-0.4,0.1-0.5,0.1c-0.8-0.4-1.7-0.6-2.8-0.5
		c0.2-0.2,0.3-0.3,0.4-0.4c2.7-1.2,3.6-2.8,3.1-5.6v-0.2c3.1,1.2,4.7,4,4.5,7C-111.2-39-111.7-39.3-112.3-39.4z"/>
	<path d="M-121.8-12.1h-0.5c-0.2-0.2-0.5-0.5-0.6-0.7c-1.7-3.3-2.9-6.8-3.3-10.5c-0.3-3-0.4-6-0.3-9c0-1.2,0-1.2-1.1-1.6
		c-2.7-1-5.1-2.6-7.2-4.6c-0.4-0.3-0.4-0.8-0.1-1.1c0.3-0.3,0.7-0.3,1.2,0.1c1.9,1.8,4,3.2,6.5,4.2c0.5,0.2,1,0.3,1.5,0.5
		c0.6,0.2,0.7,0.4,0.7,1c0,2.8,0,5.7,0.1,8.5c0.1,4.2,1.4,8.2,3.4,11.9C-121.2-12.8-121.3-12.6-121.8-12.1z"/>
	<path d="M-136.3-41.1c-0.3,0.2-0.8,0.2-1-0.2c-0.5-0.7-1.1-1.3-1.5-2.1c-0.7-1-1.3-2.1-1.9-3.1v-0.5c0.5-0.7,1-0.6,1.5,0.1
		c0.9,1.4,1.9,2.8,2.8,4.3c0.1,0.1,0.2,0.3,0.3,0.4C-135.9-41.8-135.9-41.4-136.3-41.1z"/>
	<path d="M-106.3-12.9c0,0.3-0.3,0.5-0.5,0.8h-0.5c-0.4-0.3-0.5-0.6-0.5-1c0-0.9,0-1.9,0-2.8c0-0.7,0.6-1,1.1-0.7
		c0.2,0.1,0.4,0.4,0.4,0.6C-106.3-15-106.3-14-106.3-12.9z"/>
	<path d="M-106-36.5c0,2.4-0.1,4.8-0.2,7.2h-0.1v9.4c0,0.8-0.2,1.1-0.7,1.1c-0.5,0-0.7-0.4-0.8-1.1c-0.1-4.8,0.1-9.7,0.3-14.5
		c0.1-2.4,0-4.7-0.3-7.1c-0.4-2.7-1.6-4.9-3.2-7c-2.4-3.1-5.3-5.8-8.3-8.2c-1.6-1.3-3.3-2.5-5-3.8c-0.4-0.3-0.6-0.7-0.4-1
		c0.2-0.4,0.7-0.5,1.2-0.2c1.3,1,2.7,1.9,4,2.9c3.4,2.7,6.6,5.6,9.3,9c1.7,2.1,3.1,4.4,3.7,7.1C-106.1-40.7-105.9-38.6-106-36.5z"/>
	<path d="M-94.7-39.9c-0.9-0.4-1.8-0.9-2.6-1.4c-1.5-0.8-1.3-0.9-2.5,0.4c-0.2,0.2-0.4,0.3-0.7,0.2c-1-0.4-2-0.7-3-1.1
		c-0.4-0.1-0.7-0.1-1,0.2c-0.2,0.4-0.1,0.7,0.1,1c1.4,1.7,2.9,3.5,4.3,5.2c0.5,0.5,0.9,0.5,1.3,0c0.2-0.2,0.4-0.5,0.6-0.7
		c0.9,0.8,1.8,1.6,2.6,2.4c0.3,0.2,0.5,0.4,0.9,0.3c0.4-0.2,0.5-0.5,0.5-0.9c0-1.5,0-3.1,0-4.6C-94-39.4-94.2-39.7-94.7-39.9z
		 M-96.3-36.5c-0.4-0.4-0.8-0.8-1.2-1.1c-0.5-0.4-0.9-0.4-1.3,0.1c-0.2,0.2-0.3,0.4-0.5,0.6c-0.1-0.1-0.1-0.1-0.2-0.2
		c-0.6-0.8-1.3-1.6-1.9-2.4c0.4,0.1,0.7,0.2,1.1,0.4c0.4,0.2,0.8,0.1,1.1-0.3c0.3-0.3,0.5-0.6,0.8-0.9c0.9,0.5,1.8,0.9,2.7,1.4
		c0.1,0,0.2,0.2,0.2,0.3c0,0.9,0,1.8,0,2.8C-95.8-36-96.1-36.2-96.3-36.5z"/>
	<path d="M-91.2-47.3c-1.1-1.1-2.2-2.2-3.3-3.3c-0.3-0.3-0.7-0.4-1.1-0.3c-1,0.3-1.9,0.6-2.9,0.9c-1.4,0.5-1.6,0.3-1.4,2
		c0,0.3-0.1,0.5-0.4,0.6c-1,0.4-1.9,0.9-2.8,1.3c-0.4,0.2-0.6,0.4-0.5,0.8c0.1,0.4,0.4,0.6,0.8,0.6c2.3,0.2,4.5,0.5,6.8,0.7
		c0.5,0,0.9-0.3,0.9-0.8c0-0.4-0.1-0.7-0.1-1.1c0.2,0,0.3,0,0.5,0c1,0,2.1-0.1,3.1-0.1c0.4,0,0.7-0.1,0.8-0.5
		C-90.7-46.8-90.9-47.1-91.2-47.3z M-95.8-47.2c-0.8,0-1.1,0.3-1,1.2c0,0.2,0,0.4,0,0.7c-1.1-0.1-2.2-0.2-3.2-0.3c0,0,0-0.1,0-0.1
		c0.3-0.1,0.6-0.3,0.9-0.4c0.6-0.2,0.8-0.6,0.7-1.2c-0.1-1,0-1,0.9-1.3c0.6-0.2,1.2-0.4,1.8-0.6c0.1,0,0.3-0.1,0.4,0
		c0.7,0.6,1.3,1.3,2,2C-94.2-47.3-95-47.2-95.8-47.2z"/>
	<path d="M-97.8-56.8c-0.2-0.3-0.5-0.4-0.8-0.4c-1.6,0-3.2,0-4.7,0c-0.5,0-0.8,0.2-1,0.6c-0.4,0.9-0.9,1.8-1.4,2.7
		c-0.8,1.5-0.9,1.3,0.4,2.5c0.3,0.2,0.3,0.4,0.2,0.7c-0.4,1-0.7,2-1.1,3c-0.1,0.4-0.1,0.7,0.2,0.9c0.3,0.2,0.6,0.2,0.9-0.1
		c1.8-1.5,3.6-2.9,5.3-4.4c0.5-0.4,0.4-0.8,0-1.2c-0.3-0.2-0.5-0.4-0.8-0.7c0.8-0.9,1.6-1.8,2.5-2.7C-97.7-56.1-97.6-56.4-97.8-56.8
		z M-101.8-53.9c-0.7,0.8-0.7,1,0.1,1.6c0.1,0.1,0.3,0.2,0.4,0.4c-0.4,0.4-0.9,0.7-1.3,1.1c-0.4,0.4-0.8,0.7-1.3,1c0,0,0,0-0.1-0.1
		c0.1-0.4,0.3-0.7,0.4-1.1c0.2-0.4,0.1-0.8-0.3-1.1c-0.3-0.2-0.5-0.5-0.9-0.8c0.5-0.9,1-1.8,1.5-2.8c0-0.1,0.2-0.1,0.3-0.1
		c0.9,0,1.8,0,2.7,0C-100.7-55.1-101.2-54.5-101.8-53.9z"/>
	<path d="M-129-55.1c-0.1,0.2-0.4,0.3-0.6,0.5c-0.3-0.2-0.5-0.3-0.6-0.4c-1.9-1.9-3.8-3.8-5.7-5.7c-0.4-0.4-0.4-0.8-0.1-1.1
		c0.3-0.3,0.8-0.3,1.2,0.1c1.9,1.9,3.8,3.8,5.7,5.7C-128.9-55.7-128.8-55.4-129-55.1z"/>
</g>
<g>
	<path d="M-36.7,11.6c-0.1-0.2-0.2-0.4-0.2-0.7c0-1.4,0-2.8,0-4.2c0-1.5-0.8-2.5-2.1-3.1c-0.2-0.1-0.3-0.2-0.4-0.4
		C-40,1.9-41,1.2-42.5,1.2c-2,0-4,0-5.9,0c-3.2,0-5.6,2.4-5.6,5.6c0,1.4,0,2.8,0,4.1c0,0.2-0.1,0.5-0.2,0.7
		c-1.2,1.6-0.4,3.9,1.6,4.3c0.5,0.1,1,0.1,1.5,0.1c0.1,0,0.3,0,0.4,0.1c0.5,0.6,1,1.2,1.5,1.8c-0.4,0.1-0.9,0.3-1.4,0.4
		c-2,0.6-3.4,2.4-3.4,4.4c0,3.5,0,7,0,10.5c0,1,0.7,1.9,1.7,2.1c0.4,0.1,0.9,0.1,1.4,0.1c0,0,0,0.1,0,0.2c0,3,0,6.1,0,9.1
		c0,0.3-0.1,0.4-0.3,0.5c-1.2,0.7-1.9,1.8-2,3.2c-0.1,0.7,0.3,1,1,1c4.6,0,9.1,0,13.7,0c0.7,0,1-0.3,0.9-1c-0.1-1.4-0.8-2.5-2-3.2
		c-0.3-0.2-0.4-0.3-0.4-0.7c0-2.9,0-5.8,0-8.8v-0.5c0.1,0,0.2,0,0.2,0c1.7,0.3,2.9-0.7,2.9-2.4c0-3.3,0-6.7,0-10
		c0-2.2-1.4-4-3.5-4.7c-0.4-0.1-0.9-0.3-1.3-0.4c0.3-0.3,0.7-0.7,0.9-1c0.4-0.8,1-1,1.9-0.9c1.1,0.1,1.9-0.5,2.4-1.5
		C-35.9,13.5-36.1,12.6-36.7,11.6z M-53.1,14c-0.3-0.4-0.3-0.8,0-1.2c0.3-0.5,0.8-0.7,1.3-0.6c0.1,0.8,0.1,1.5,0.2,2.3
		C-52.2,14.5-52.7,14.5-53.1,14z M-51.5,33.9c-0.5,0.2-1-0.2-1-0.8c0-2.3,0-4.6,0-7h1.5c0,0.1,0,0.2,0,0.3c0,2.2,0,4.4,0,6.6
		C-51,33.5-51.1,33.8-51.5,33.9z M-46.3,48h-5.2c0.1-0.7,0.9-1.5,1.6-1.5c1.2,0,2.4,0,3.7,0V48z M-46.3,35.6v9.3h-3.1V33.2h7.7v11.6
		h-3.1v-9.3H-46.3z M-39.5,48h-5.2v-1.5c1.2,0,2.5,0,3.7,0C-40.3,46.5-39.6,47.3-39.5,48z M-38.5,33.2c0,0.5-0.3,0.8-0.8,0.8
		c-0.4,0-0.8-0.3-0.8-0.8c0-2.3,0-4.6,0-7h1.5C-38.5,28.6-38.5,30.9-38.5,33.2z M-38.5,24.6c-0.4,0-0.7,0-1.1,0c-2,0-2,0-2,2
		c0,1.5,0,3,0,4.5v0.5h-7.8v-6c0-0.8-0.3-1-1-1c-0.7,0-1.4,0-2,0c-0.4-3,0.4-4.6,4-5.2c0.6,1.3,1.5,2.1,2.9,2.1c1.4,0,2.4-0.8,3-2.1
		C-39.7,19.9-38.2,21-38.5,24.6z M-46.9,19.1h2.7c-0.3,0.5-0.8,0.8-1.4,0.8C-46.1,19.9-46.6,19.6-46.9,19.1z M-41,14
		c-0.5,2.3-2.7,3.8-5,3.6c-2.4-0.3-4.2-2.2-4.2-4.6c0-0.5,0-1,0-1.6c0.7,0,1.3,0,1.9,0c2.4,0.1,4.4-0.6,6-2.5
		c0.5,0.7,0.9,1.3,1.4,1.9c0,0.1,0.1,0.1,0.1,0.2C-40.9,12-40.8,13-41,14z M-41.8,6.9c-0.3-0.4-0.9-0.3-1.3,0.2
		c-0.2,0.3-0.4,0.7-0.7,1c-1,1.1-2.2,1.7-3.6,1.7c-1.1,0-2.2,0-3.3,0c-0.7,0-0.8,0.1-1.1,0.8h-0.7c0-0.3,0-0.6,0-0.9
		c0-1.2-0.1-2.5,0.1-3.7c0.3-1.8,1.9-3.2,3.7-3.2c2.1,0,4.2,0,6.2,0c0.9,0,1.5,0.6,1.6,1.5c0.1,0.6,0.3,0.8,0.9,0.9
		c0.8,0.1,1.4,0.6,1.5,1.4c0,1.3,0,2.7,0,4.1h-0.6C-40,9.3-40.9,8.1-41.8,6.9z M-37.9,13.9c-0.4,0.6-0.9,0.6-1.5,0.5
		c0.1-0.8,0.1-1.5,0.2-2.3c0.6-0.1,1,0,1.3,0.5C-37.6,13.1-37.6,13.5-37.9,13.9z"/>
	<path d="M-26.6,36.3c-0.8,0.2-1.6,0.5-2.3,0.7c-1,0.3-2,0.6-3,0.9c-0.5,0.1-0.8,0-1-0.4c-0.3-0.5-0.7-1-1-1.5
		c-1.1,0.9-2.2,1.7-3.2,2.6c-0.3-0.4-0.6-0.8-1-1.2c1.3-1.1,2.6-2.1,3.9-3.1c0.4-0.3,0.8-0.2,1.1,0.2c0.3,0.5,0.7,1,1,1.5
		c0.2,0.3,0.4,0.4,0.7,0.3c1.5-0.4,2.9-0.8,4.5-1.3C-26.9,35.3-26.7,35.8-26.6,36.3z"/>
	<path d="M-54.9,27.4c-0.5,0.2-0.9,0.4-1.4,0.6c-0.4-1-0.8-2-1.2-3c-0.5,0.3-0.9,0.6-1.4,0.9c-0.6,0.4-0.9,0.3-1.3-0.2
		c-1-1.2-2-2.5-3-3.8c0.4-0.3,0.8-0.7,1.2-1c0.9,1.1,1.8,2.2,2.7,3.3c0.5-0.4,1.1-0.7,1.6-1.1c0.6-0.4,1.1-0.3,1.4,0.4
		C-55.9,24.9-55.4,26.2-54.9,27.4z"/>
	<path d="M-29.4,42.8c-0.4,0.3-0.7,0.7-1.2,1.1c-0.3-0.3-0.6-0.7-0.9-1c-0.5-0.5-0.9-0.9-1.4-1.4c-0.2-0.2-0.3-0.2-0.6,0
		c-0.5,0.3-0.9,0.7-1.4,0.9c-0.3,0.1-0.6,0.2-0.9,0.1c-1-0.5-2-1-3.1-1.5c0.2-0.5,0.4-0.9,0.7-1.4c0.8,0.4,1.6,0.8,2.3,1.2
		c0.3,0.1,0.5,0.1,0.7,0c0.5-0.4,1-0.7,1.6-1.1c0.3-0.2,0.7-0.3,1,0C-31.5,40.7-30.4,41.7-29.4,42.8z"/>
	<path d="M-55.7,29.3v1.6c-0.8,0-1.6,0-2.3,0c-0.2,0-0.5,0.1-0.6,0.3c-0.6,0.8-1.2,1.6-1.8,2.4c-0.4,0.5-0.7,0.6-1.2,0.3
		c-1-0.5-1.9-1-3-1.5c0.2-0.5,0.4-0.9,0.7-1.4c0.9,0.4,1.7,0.8,2.5,1.3c0.6-0.8,1.2-1.6,1.8-2.4c0.3-0.4,0.6-0.5,1.1-0.5
		C-57.6,29.3-56.6,29.3-55.7,29.3z"/>
</g>
<g>
	<path d="M-176.8,22.9c-0.5-5.3-2.5-10-6.1-13.9c-4.7-5.3-10.6-8.1-17.7-8.5c-4.9-0.2-9.5,0.9-13.8,3.5c-6.5,4-10.5,9.7-11.8,17.2
		c-0.2,0.9-0.3,1.9-0.4,2.8v2.9c0.1,1,0.2,1.9,0.4,2.8c1.4,7.5,5.4,13.2,11.8,17.2c3.3,2,7,3.2,10.9,3.4c0.1,0,0.3,0,0.4,0.1h2.9
		c0.8-0.1,1.7-0.2,2.5-0.3c5.2-0.9,9.8-3.1,13.5-6.8C-178.5,37.6-176.1,30.8-176.8,22.9z M-201.6,47.6c-12.3,0-22.2-10-22.2-22.3
		c0-12.3,10-22.2,22.3-22.2c12.3,0,22.2,10,22.2,22.3C-179.4,37.7-189.4,47.7-201.6,47.6z"/>
	<path d="M-189.4,35.1c-0.7,0.5-1.4,1.1-2.1,1.6c-2.6-3.2-6-4.9-10.1-4.9c-4.1,0-7.5,1.7-10.2,4.9c-0.7-0.5-1.4-1.1-2.1-1.6
		C-207.9,27.4-195.8,26.8-189.4,35.1z"/>
	<path d="M-207.2,19.8c0,1.5-1.2,2.7-2.7,2.7c-1.5,0-2.7-1.2-2.7-2.7c0-1.5,1.2-2.7,2.7-2.7C-208.4,17.1-207.2,18.3-207.2,19.8z"/>
	<path d="M-190.5,19.8c0,1.5-1.2,2.7-2.7,2.7c-1.5,0-2.7-1.2-2.7-2.7c0-1.5,1.2-2.7,2.7-2.7C-191.7,17.1-190.5,18.4-190.5,19.8z"/>
</g>
<g>
	<path d="M-21.2-114.7c-2.1-9.7-10.2-17.4-20-19.1c-0.9-0.2-1.8-0.3-2.7-0.4h-3.1c-0.9,0.1-1.9,0.2-2.8,0.4
		c-10,1.6-18.3,9.8-20.1,19.7c-0.2,1.1-0.3,2.2-0.5,3.3v3.1c0.2,1.1,0.3,2.2,0.5,3.3c3.1,16.1,21,24.9,35.7,17.5
		C-24-92.1-18.7-103.4-21.2-114.7z M-45.5-85.7c-13,0-23.5-10.6-23.5-23.5c0-13,10.6-23.5,23.5-23.5c13,0,23.5,10.6,23.5,23.5
		C-22-96.2-32.6-85.7-45.5-85.7z"/>
	<path d="M-45.5-131.2c-12.2,0-22.1,9.8-22.1,22c0,12.2,9.8,22,22,22c12.2,0,22.1-9.8,22.1-22C-23.5-121.4-33.3-131.2-45.5-131.2z
		 M-45.5-88.6c-11.4,0-20.6-9.3-20.6-20.6c0-11.4,9.3-20.6,20.6-20.6c11.4,0,20.6,9.3,20.6,20.6C-24.9-97.8-34.2-88.6-45.5-88.6z"/>
	<path d="M-38.3-100.5c-0.1-0.8-0.8-1.4-1.5-1.5c-2-0.1-4,0-5.6,1.3c-0.6-0.3-1.2-0.6-1.7-0.9c-1.2-0.5-2.4-0.5-3.7-0.5
		c-1.2,0-1.9,0.7-2,1.9c0,0.9,0,1.8,0.2,2.6c0.4,2.3,1.7,3.8,4,4.4c2,0.5,4.1,0.5,6.1,0c1.4-0.3,2.6-1.1,3.3-2.4
		C-38.3-97-38.1-98.7-38.3-100.5z M-45.7-94.2c-0.2,0-0.5,0-0.7,0c-1,0-2-0.2-2.9-0.6c-1.3-0.7-1.8-1.8-2-3.1
		c-0.1-0.7-0.1-1.4-0.1-2.1c0-0.2,0.2-0.5,0.4-0.5c1.2-0.1,2.3,0,3.4,0.4c1.5,0.6,2.2,1.8,2.4,3.3c0.1,0.6,0.1,1.2,0.1,1.8
		C-45-94.3-45.1-94.3-45.7-94.2z M-40.2-96.5c-0.6,1.3-1.9,2.1-3.4,2.2c0.1-1.8-0.1-3.5-1-5.1c0.8-0.7,1.8-0.9,2.8-1
		c0.5-0.1,1.1,0,1.6,0c0.3,0,0.5,0.2,0.5,0.5C-39.6-98.8-39.7-97.6-40.2-96.5z"/>
	<path d="M-45.2-120.8c-1.4,0-2.5,1.1-2.5,2.5c0,1,0,2,0,3c0,1.4,1.2,2.5,2.6,2.5c1.4,0,2.5-1.1,2.5-2.5c0-0.5,0-1,0-1.5
		c0-0.5,0-1,0-1.5C-42.7-119.7-43.8-120.8-45.2-120.8z M-44.1-116.8c0,0.5,0,1,0,1.5c0,0.6-0.5,1-1,1.1c-0.6,0-1.1-0.4-1.1-1.1
		c0-1,0-2,0-2.9c0-0.6,0.5-1.1,1.1-1.1c0.6,0,1,0.5,1,1.1V-116.8z"/>
	<path d="M-48.8-116.7c0-0.5,0-1,0-1.6c-0.1-1.4-1.2-2.5-2.6-2.5c-1.4,0-2.5,1.1-2.5,2.5c0,1,0,2,0,3c0,1.3,1.1,2.3,2.3,2.4
		c1.3,0.1,2.5-0.8,2.7-2.1C-48.8-115.5-48.8-116.1-48.8-116.7L-48.8-116.7z M-50.3-116.8c0,0.5,0,0.9,0,1.4c0,0.7-0.5,1.2-1.1,1.2
		c-0.6,0-1-0.5-1-1.2c0-0.9,0-1.8,0-2.7c0-0.7,0.4-1.2,1-1.2c0.6,0,1.1,0.5,1.1,1.2C-50.3-117.7-50.3-117.2-50.3-116.8z"/>
	<path d="M-58-105.4c0,0.4-0.1,0.8-0.6,0.9c-0.4,0.1-0.7-0.1-1-0.4c-0.5-0.8-1.1-1.6-1.8-2.4v1.8c0,0.8-0.2,1.2-0.7,1.2
		s-0.7-0.4-0.7-1.2v-4c0-0.4,0-0.8,0.5-0.9c0.5-0.1,0.7,0.1,1,0.5c0.6,0.8,1.1,1.7,1.8,2.6c0-0.8,0-1.5,0-2.2c0-0.6,0.3-0.9,0.7-0.9
		c0.4,0,0.7,0.3,0.7,0.9C-58.1-108.2-58.1-106.8-58-105.4z"/>
	<path d="M-38-105.6c-0.3-0.4-0.6-0.7-1-1.1c0.1-0.1,0.2-0.1,0.3-0.2c0.7-0.5,1.1-1.3,0.9-2c-0.2-0.8-0.8-1.5-1.7-1.6
		c-0.5-0.1-1,0-1.5,0c-0.5,0-0.8,0.3-0.8,0.8c0,1.5,0,3,0,4.5c0,0.5,0.3,0.8,0.7,0.8c0.4,0,0.7-0.3,0.7-0.8c0-0.3,0-0.5,0-0.9
		c0.5,0.5,0.8,1,1.2,1.3c0.4,0.4,0.8,0.4,1.1,0.1C-37.6-104.8-37.6-105.2-38-105.6z M-39.3-108.3c-0.3,0.1-0.6,0.2-0.9,0.4v-1.2
		c0.4,0.1,0.7,0.2,0.9,0.4C-39.2-108.7-39.2-108.4-39.3-108.3z"/>
	<path d="M-52.1-105.4c-0.6-1.5-1.1-3-1.7-4.5c-0.1-0.4-0.4-0.6-0.8-0.6c-0.4,0-0.7,0.2-0.8,0.6c-0.2,0.6-0.4,1.1-0.6,1.7
		c-0.4,1-0.7,1.9-1.1,2.9c-0.2,0.4-0.1,0.7,0.3,0.9c0.4,0.2,0.8,0.1,0.9-0.3c0.2-0.6,0.6-0.5,1-0.5c0.2,0,0.5,0,0.7,0
		c0.4,0,0.7,0,0.8,0.5c0.1,0.3,0.4,0.5,0.8,0.4c0.4-0.1,0.5-0.4,0.5-0.8C-52-105.2-52.1-105.3-52.1-105.4z M-55.1-106.7
		c0.2-0.4,0.3-0.7,0.5-1.2c0.2,0.5,0.3,0.8,0.5,1.2H-55.1z"/>
	<path d="M-42.8-106.2c-0.1,1.1-1.3,1.9-2.4,1.9c-1.2,0-2.2-1-2.3-2c0-0.6,0-1.1,0-1.7c0-0.5,0-1.1,0-1.7c0-0.5,0.3-0.8,0.7-0.8
		c0.4,0,0.8,0.3,0.8,0.8c0,1,0,2,0,3c0,0.5,0.3,0.9,0.8,0.9c0.6,0,1-0.3,1-0.9c0-0.9,0-1.8,0-2.7c0-0.2,0-0.3,0-0.4
		c0.1-0.4,0.3-0.6,0.7-0.6c0.4,0,0.7,0.3,0.7,0.7C-42.7-108.6-42.7-107.4-42.8-106.2z"/>
	<path d="M-32-105.4c-0.6-1.5-1.1-3-1.7-4.5c-0.1-0.4-0.4-0.6-0.8-0.6c-0.4,0-0.7,0.2-0.8,0.6c-0.2,0.5-0.4,1.1-0.6,1.6
		c-0.4,1-0.7,1.9-1.1,2.9c-0.2,0.4-0.1,0.8,0.3,1c0.4,0.2,0.8,0.1,0.9-0.3c0.2-0.6,0.6-0.5,1-0.5c0.2,0,0.4,0,0.7,0
		c0.4,0,0.7,0,0.8,0.5c0.1,0.3,0.4,0.5,0.8,0.4c0.3-0.1,0.5-0.3,0.5-0.8C-32-105.2-32-105.3-32-105.4z M-35-106.7
		c0.1-0.4,0.3-0.8,0.5-1.2c0.2,0.5,0.3,0.8,0.5,1.2H-35z"/>
	<path d="M-54.9-119.9c0,2.1,0,4.1,0,6.1c0,0.5-0.3,0.8-0.7,0.8c-0.4,0-0.7-0.3-0.7-0.8c0-1.6,0-3.3,0-4.9c0-0.2,0-0.3,0-0.6
		c-0.3,0-0.5,0-0.7,0c-0.4,0-0.6-0.3-0.6-0.6c0-0.4,0.2-0.7,0.5-0.7c0.6-0.1,1.1-0.1,1.7,0C-55.1-120.6-54.9-120.2-54.9-119.9z"/>
	<path d="M-48.3-109.7c0,0.4-0.3,0.6-0.6,0.7c-0.2,0-0.4,0-0.6,0v1.3c0,0.9,0,1.8,0,2.6c0,0.5-0.3,0.8-0.7,0.8
		c-0.4,0-0.7-0.3-0.7-0.8c0-1.3,0-2.6,0-3.9c-0.3,0-0.4,0-0.6,0c-0.4,0-0.6-0.3-0.7-0.7c0-0.4,0.2-0.7,0.6-0.7c1,0,2,0,2.9,0
		C-48.5-110.5-48.3-110.1-48.3-109.7z"/>
	<path d="M-34-119.8c0,0.1-0.1,0.2-0.1,0.4c-0.8,1.9-1.6,3.8-2.4,5.6c-0.2,0.4-0.4,0.6-0.8,0.6c-0.5,0-0.8-0.5-0.6-1
		c0.8-2,1.7-4,2.5-6c0.2-0.4,0.5-0.5,0.8-0.4C-34.2-120.5-34-120.2-34-119.8z"/>
	<path d="M-39.2-120.9c-1,0-1.8,0.9-1.8,2c0,1.1,0.8,2,1.8,2c1,0,1.8-0.9,1.8-2C-37.4-120-38.2-120.9-39.2-120.9z M-39.2-118.3
		c-0.1-0.2-0.3-0.4-0.3-0.5c0-0.2,0.2-0.4,0.4-0.5c0.1,0.2,0.3,0.3,0.5,0.6C-39-118.6-39.1-118.5-39.2-118.3z"/>
	<path d="M-32.7-116.8c-1,0-1.8,0.8-1.9,2c0,1.1,0.8,2,1.8,2c1,0,1.9-0.9,1.9-2C-30.9-115.9-31.6-116.8-32.7-116.8z M-32.7-114.3
		c-0.1-0.2-0.3-0.4-0.3-0.6c0-0.2,0.2-0.3,0.3-0.5c0.2,0.2,0.3,0.3,0.5,0.6C-32.4-114.6-32.6-114.4-32.7-114.3z"/>
	<path d="M-28.2-105.1c0,0.4-0.3,0.7-0.7,0.8c-0.5,0-1.1,0-1.6,0c-0.5,0-0.8-0.3-0.8-0.7c0-1.6,0-3.2,0-4.7c0-0.4,0.3-0.7,0.7-0.7
		c0.4,0,0.7,0.3,0.7,0.8c0,1.1,0,2.2,0,3.3v0.6c0.3,0,0.6,0,0.9,0C-28.5-105.8-28.2-105.5-28.2-105.1z"/>
</g>
<g>
	<path d="M-20.7-40c-0.8-6.7-3.8-12.3-9.1-16.5c-0.6-0.5-1.2-0.9-1.8-1.3c-0.3-0.2-0.7-0.4-1-0.6c-0.3-0.2-0.6-0.4-0.9-0.5
		c0,0,0,0,0,0c-0.2-0.1-0.4-0.2-0.6-0.3c-0.2-0.1-0.4-0.2-0.6-0.3c0,0,0,0,0,0c-0.2-0.1-0.5-0.2-0.7-0.3c-0.6-0.3-1.2-0.5-1.8-0.7
		c-0.2-0.1-0.4-0.2-0.6-0.2c-0.4-0.1-0.8-0.3-1.1-0.4c-0.1,0-0.2-0.1-0.3-0.1c-0.1,0-0.2-0.1-0.3-0.1c0,0,0,0-0.1,0
		c-0.2,0-0.4-0.1-0.6-0.1c-0.3-0.1-0.5-0.1-0.8-0.1c0,0,0,0,0,0c-0.1,0-0.2,0-0.3-0.1c-0.2,0-0.4-0.1-0.6-0.1c-0.1,0-0.2,0-0.4,0
		c-0.2,0-0.4-0.1-0.7-0.1c-0.3,0-0.5,0-0.8,0c-0.3,0-0.6,0-0.9,0h-0.9c-0.4,0-0.8,0-1.2,0c0,0-0.1,0-0.1,0c-0.2,0-0.5,0-0.7,0
		c-0.1,0-0.3,0-0.4,0c-0.4,0-0.7,0.1-1.1,0.2c-0.1,0-0.3,0-0.4,0.1c-0.1,0-0.1,0-0.2,0c-0.2,0-0.4,0.1-0.7,0.1c0,0,0,0-0.1,0
		c-0.3,0.1-0.5,0.1-0.8,0.2c-0.1,0-0.2,0-0.2,0.1c0,0-0.1,0-0.1,0c-0.4,0.1-0.7,0.2-1.1,0.3c-0.4,0.1-0.8,0.3-1.3,0.4
		c-0.4,0.1-0.8,0.3-1.3,0.5c-8.3,3.4-13.3,9.8-15,18.6c-0.2,0.9-0.3,1.9-0.4,2.8v3.1c0.1,1,0.2,1.9,0.4,2.8c1.6,9.7,9.6,18,19.3,20
		c1.1,0.2,2.3,0.3,3.4,0.5c0.1,0,0.2,0,0.3,0.1h3.1c0.1,0,0.3-0.1,0.4-0.1c2.1-0.2,4.1-0.6,6.1-1.2C-26.3-17.3-19.4-28.2-20.7-40z
		 M-45.5-14.1c-12.7,0-23-10.4-23-23.1c0-12.6,10.4-22.9,23-22.9c12.7,0,23,10.4,23,23S-32.9-14.1-45.5-14.1z"/>
	<path d="M-45.5-57.7c-11.4,0-20.7,9.3-20.6,20.7c0,11.4,9.3,20.7,20.7,20.6c11.4,0,20.6-9.3,20.6-20.6
		C-24.8-48.5-34.1-57.7-45.5-57.7z M-58.9-50.2c7.4-7.6,19-7.2,25.8-0.9c-3.8,3.8-7.6,7.6-11.4,11.4c0-0.2,0-0.4,0-0.6
		c-0.1-1.4,0-2.8-0.3-4.2c-0.8-3.6-4.2-6-8-5.8c-3.5,0.2-6.5,3.1-6.9,6.6c0,0.4-0.1,0.8-0.1,1.2c0,3.2,0,6.4,0,9.5
		c0,2.4,0.4,4.5,2.1,6.3l-1.8,1.8C-65.5-31.1-66.3-42.5-58.9-50.2z M-47.1-29.1c-1.3,2.6-4.4,3.8-7.1,2.8c-0.1-0.1-0.3-0.1-0.4-0.2
		c2.7-2.7,5.4-5.4,8.1-8C-46.6-32.7-46.1-30.9-47.1-29.1z M-57.5-43.9c0.5-2.8,3.3-4.6,6.1-4.3c2.8,0.3,4.9,2.6,5,5.4
		c0,1.6,0,3.1,0,4.7h-11.2c0,0-0.1-0.1-0.1-0.1C-57.7-40.1-57.9-42-57.5-43.9z M-48-36.1c-2.7,2.7-5.5,5.5-8.3,8.2
		c-0.9-0.9-1.4-2.1-1.5-3.4c-0.1-1.6,0-3.2,0-4.9H-48z M-32.2-24c-7.4,7.5-18.9,7.2-25.8,0.8c0.6-0.6,1.3-1.3,1.9-1.9
		c1.7,1,3.7,1.3,5.7,0.8c2-0.5,3.6-1.7,4.7-3.5c2.5,4.2,7.7,4.7,10.9,2.2c3.2-2.5,3.8-7,1.3-10.2c-2.5-3.3-7.6-4-11-0.6
		c0,0-0.1,0-0.1-0.1c0.1-0.2,0.2-0.4,0.3-0.6c3-3,6-6,9-9c1.2-1.2,2.4-2.4,3.6-3.6C-25.5-43-24.7-31.6-32.2-24z M-44.5-31.3
		c0-2.9,2.4-5.3,5.3-5.3c2.9,0,5.3,2.4,5.3,5.3c0,3-2.4,5.4-5.4,5.3C-42.1-26-44.5-28.4-44.5-31.3z"/>
</g>
<g>
	<path d="M-91.1,21.8v1.6c-0.1,0.3-0.2,0.7-0.2,1c-0.3,1.3-1,2.4-2,3.3c-5.2,5.1-10.3,10.3-15.5,15.5c-1.6,1.6-3.2,3.2-4.8,4.8
		c-1.2,1.2-2.6,2-4.3,2.3c0,0-0.1,0-0.1,0.1h-1.7c-0.3-0.1-0.7-0.1-1-0.2c-1.2-0.3-2.2-0.9-3.1-1.8c-1.6-1.6-3.1-3.1-4.7-4.7
		c-0.5-0.5-0.5-1-0.1-1.5c0.4-0.4,1-0.4,1.5,0.1c1.5,1.5,2.9,2.9,4.4,4.4c2.3,2.3,5.3,2.3,7.5,0c6.8-6.8,13.6-13.6,20.4-20.4
		c2.2-2.2,2.3-5.2,0-7.5c-5-4.9-9.9-9.9-14.8-14.8c-2.2-2.2-5.2-2.2-7.5,0c-6.8,6.8-13.7,13.6-20.5,20.4c-2.2,2.2-2.2,5.2,0,7.4
		c1.3,1.3,2.7,2.7,4,4c0.2,0.2,0.4,0.6,0.4,0.9c0,0.3-0.2,0.7-0.5,0.8c-0.2,0.1-0.6,0-1,0c-0.1,0-0.1-0.1-0.2-0.1
		c-1.6-1.6-3.3-3.2-4.8-4.9c-0.9-0.9-1.3-2.1-1.5-3.3c0-0.1-0.1-0.2-0.1-0.3v-1.6c0.1-0.3,0.1-0.7,0.2-1c0.4-1.3,1-2.4,2-3.3
		c4.1-4.1,8.3-8.2,12.4-12.4c2.7-2.7,5.4-5.3,8-8c2.9-3,7.5-3,10.4,0c4.9,5,9.8,9.9,14.8,14.8c1.2,1.2,1.9,2.5,2.1,4.1
		C-91.2,21.7-91.2,21.7-91.1,21.8z"/>
	<path d="M-106.9,11.7c-0.2,0.3-0.3,0.6-0.5,0.8c-1.7,1.7-3.4,3.5-5.2,5.2c-5.4,5.4-10.8,10.8-16.3,16.3c-0.2,0.2-0.5,0.4-0.8,0.5
		c-0.4,0.1-0.7-0.1-0.9-0.5c-0.2-0.4-0.2-0.7,0.1-1.1c0.1-0.1,0.2-0.2,0.3-0.3c7.1-7.1,14.3-14.3,21.5-21.4c0.3-0.3,0.7-0.6,1.2-0.5
		C-107.3,10.8-107,11.2-106.9,11.7z"/>
	<path d="M-120.5,12c-1.7,0-3.1,1.4-3.1,3.1c0,1.7,1.4,3,3.1,3c1.7,0,3-1.4,3-3.1C-117.4,13.3-118.8,12-120.5,12z M-120.5,16.2
		c-0.6,0-1.1-0.5-1.1-1.1c0-0.6,0.5-1.1,1.1-1.1c0.6,0,1.1,0.5,1.1,1.2C-119.4,15.7-119.9,16.2-120.5,16.2z"/>
	<path d="M-114.4,6c-1.7,0-3.1,1.3-3,3.1c0,1.7,1.4,3.1,3.1,3.1c1.7,0,3.1-1.4,3.1-3.1C-111.4,7.3-112.7,6-114.4,6z M-114.4,10.2
		c-0.6,0-1.1-0.5-1.1-1.1c0-0.6,0.5-1.1,1.1-1.1c0.6,0,1.1,0.5,1.2,1.1S-113.8,10.2-114.4,10.2z"/>
	<path d="M-105.6,26.8c-1.7,0-3.1,1.4-3.1,3c0,1.7,1.4,3.1,3.1,3.1c1.7,0,3.1-1.4,3.1-3.1S-103.9,26.8-105.6,26.8z M-105.6,31
		c-0.6,0-1.1-0.5-1.1-1.1c0-0.6,0.5-1.1,1.1-1.1s1.1,0.5,1.1,1.1C-104.5,30.5-105,31-105.6,31z"/>
	<path d="M-117.6,38.9c-1.7,0-3.1,1.4-3.1,3.1c0,1.7,1.4,3.1,3.1,3.1c1.7,0,3.1-1.4,3.1-3.1C-114.6,40.3-116,38.9-117.6,38.9z
		 M-117.6,43c-0.6,0-1.1-0.5-1.1-1.1c0-0.6,0.5-1.2,1.1-1.2c0.6,0,1.1,0.5,1.1,1.1C-116.5,42.5-117,43-117.6,43z"/>
	<path d="M-132.5,24c-1.7,0-3,1.3-3,3.1s1.4,3.1,3,3.1c1.7,0,3.1-1.4,3.1-3C-129.4,25.4-130.8,24-132.5,24z M-132.5,28.2
		c-0.6,0-1.1-0.5-1.1-1.1c0-0.6,0.5-1.1,1.1-1.1c0.6,0,1.1,0.5,1.1,1.1C-131.4,27.7-131.9,28.2-132.5,28.2z"/>
	<path d="M-126.5,18c-1.7,0-3.1,1.3-3.1,3s1.3,3.1,3,3.1c1.7,0,3.1-1.3,3.1-3C-123.4,19.4-124.8,18-126.5,18z M-126.5,22.2
		c-0.6,0-1.1-0.5-1.1-1.1c0-0.6,0.5-1.1,1.1-1.2c0.6,0,1.2,0.5,1.2,1.1C-125.4,21.7-125.8,22.2-126.5,22.2z"/>
	<path d="M-117.4,27.1c-1.7,0-3.1,1.4-3.1,3.1c0,1.7,1.4,3.1,3,3.1c1.7,0,3.1-1.4,3.1-3C-114.3,28.5-115.7,27.1-117.4,27.1z
		 M-117.4,31.3c-0.6,0-1.1-0.5-1.1-1.1c0-0.6,0.5-1.1,1.1-1.1c0.6,0,1.1,0.5,1.1,1.1C-116.3,30.8-116.8,31.3-117.4,31.3z"/>
	<path d="M-105.4,15.1c-1.7,0-3.1,1.4-3.1,3.1c0,1.7,1.4,3.1,3.1,3c1.7,0,3.1-1.4,3-3.1C-102.3,16.4-103.6,15.1-105.4,15.1z
		 M-105.3,19.2c-0.6,0-1.1-0.5-1.1-1.2c0-0.6,0.5-1.1,1.1-1.1c0.6,0,1.1,0.5,1.1,1.1C-104.2,18.7-104.7,19.2-105.3,19.2z"/>
	<path d="M-111.6,32.8c-1.6,0-3.1,1.3-3.1,3c0,1.7,1.3,3.1,3,3.1c1.7,0,3.1-1.3,3.2-3C-108.5,34.3-109.9,32.9-111.6,32.8z
		 M-111.6,37c-0.6,0-1.1-0.5-1.1-1.1s0.5-1.1,1.1-1.1c0.6,0,1.2,0.5,1.1,1.1C-110.5,36.6-111,37-111.6,37z"/>
	<path d="M-123.4,33.1c-1.7,0-3.1,1.3-3.1,3c0,1.7,1.3,3.1,3,3.1c1.7,0,3.1-1.4,3.1-3.1C-120.3,34.5-121.7,33.1-123.4,33.1z
		 M-123.4,37.3c-0.6,0-1.1-0.5-1.1-1.1c0-0.6,0.5-1.1,1.1-1.1s1.1,0.5,1.1,1.1C-122.3,36.8-122.8,37.3-123.4,37.3z"/>
	<path d="M-99.6,20.8c-1.7,0-3.1,1.4-3.1,3.1c0,1.7,1.4,3.1,3.1,3.1c1.7,0,3.1-1.4,3.1-3.1C-96.5,22.2-97.9,20.8-99.6,20.8z
		 M-99.6,25c-0.6,0-1.1-0.5-1.1-1.1c0-0.6,0.5-1.1,1.1-1.1s1.1,0.5,1.1,1.1C-98.4,24.5-99,25-99.6,25z"/>
	<path d="M-111.4,21.1c-1.7,0-3.1,1.3-3.1,3.1c0,1.7,1.4,3,3.1,3c1.7,0,3-1.3,3-3.1C-108.3,22.4-109.6,21.1-111.4,21.1z
		 M-111.3,25.3c-0.6,0-1.1-0.5-1.1-1.1c0-0.6,0.5-1.1,1.1-1.1c0.6,0,1.1,0.5,1.1,1.1C-110.2,24.8-110.7,25.2-111.3,25.3z"/>
	<path d="M-129.9,39.9c0,0.5-0.5,1-1,0.9c-0.5,0-1-0.5-1-1c0-0.5,0.5-1,1-1C-130.3,38.9-129.9,39.3-129.9,39.9z"/>
</g>
<g>
	<path d="M46.3-87.2c-0.2-1.4-1.3-2.3-2.7-2.4c-0.3,0-0.6,0-0.8,0c-0.1-0.8-0.1-1.5-0.2-2.2c-1-4.4-5.8-6.4-9.6-4
		c-0.1,0.1-0.3,0.2-0.3,0.2c-0.4-0.2-0.8-0.4-1.1-0.6c-0.1-0.1-0.1-0.5-0.1-0.7v-21c0-3-1.3-5.3-3.9-6.8c-0.6-0.4-0.6-0.5-0.4-1.2
		c0.1,0,0.2,0,0.3,0c1.2,0,1.6-0.4,1.6-1.6v-5c0-1.1-0.4-1.5-1.5-1.5h-20c-0.9,0-1.4,0.4-1.4,1.2c0,1.9,0,3.8,0,5.7
		c0,0.7,0.5,1.2,1.3,1.2c0.2,0,0.4,0,0.7,0c-0.1,0.4,0.2,0.8-0.3,1.1c-2.8,1.6-4.1,4-4.1,7.2c0,4.2,0,8.4,0,12.6
		c0,0.2,0,0.4,0.1,0.6c0.1,0.4,0.4,0.5,0.7,0.5c0.4,0,0.6-0.2,0.7-0.6c0-0.1,0-0.3,0-0.4c0-1.8,0-3.5,0-5.3v-0.5h8.3
		c0,0.1,0,0.2,0,0.3c0,0.8,0.2,1,1,1h1.1c0,0.5,0,0.9,0,1.3c0,0.6,0.3,0.8,0.8,0.8c0.8,0,1.7,0,2.5,0c0.6,0,0.8-0.3,0.8-0.9
		c0-0.4,0-0.8,0-1.2c0.3,0,0.5,0,0.8,0c0.9,0.1,1.3,0,1.3-1.2c0,0,0-0.1,0.1-0.1h8.2v14.2c-1.3-0.2-2.5,0-3.7,0.5
		c-0.1-0.1-0.1-0.1-0.1-0.2c-0.8-1.3-1.9-2.3-3.2-3.1c-0.2-0.1-0.3-0.4-0.3-0.5c-0.2-2.9-2.4-5.4-5.3-5.8c-0.5-0.1-1,0.1-1.3,0.5
		c-0.3,0.4-0.4,0.9-0.1,1.4c0.1,0.3,0.3,0.5,0.4,0.7c0.3,0.7,0.5,1.5,0.4,2.3c-2.9,0.3-5.4,1.5-7.2,3.8c-0.5,0.7-1.1,0.9-1.9,0.9
		c-0.8-0.1-1.7,0-2.6,0V-97c0-1.4,0-2.8,0-4.2c0-0.5-0.3-0.9-0.7-0.9c-0.5,0-0.8,0.3-0.8,0.9c0,4.8,0,9.5,0,14.3
		c0,1.3,0.8,2.3,2,2.6c0.1,0,0.1,0.1,0.2,0.1h23.8c1-0.2,2-0.5,2.9-1.1c0.1,0,0.2,0,0.3,0c0.9,0.6,1.9,0.9,2.9,1.1h8.4
		c0.1,0,0.2-0.1,0.3-0.1C45.7-84.7,46.5-86,46.3-87.2z M25.4-132.6h2v2.4h-2V-132.6z M21.9-132.5h2.1v2.4h-2.1V-132.5z M18.3-132.5
		h2.1v2.4h-2.1V-132.5z M14.7-132.6h2v2.4h-2V-132.6z M11.1-132.6h2.1v2.4h-2.1V-132.6z M7.5-132.6h2.1v2.4H7.5V-132.6z M7.6-127.4
		v-1.2h19.9v1.2H7.6z M20.2-111.1c-0.4,0-0.8,0-1.1,0c-0.7,0-0.9,0.3-0.9,0.9c0,0.3,0,0.7,0,1c0,0,0,0.1,0,0.1h-1.2
		c0-0.4,0-0.8,0-1.2c0-0.6-0.3-0.9-0.9-0.9c-0.4,0-0.8,0-1.2,0v-1.2c0.4,0,0.8,0,1.2,0c0.6,0,0.8-0.3,0.9-0.8c0-0.4,0-0.8,0-1.2h1.2
		c0,0.4,0,0.8,0,1.2c0,0.6,0.3,0.8,0.8,0.8c0.4,0,0.8,0,1.2,0V-111.1z M21.7-112.5c-0.2-1.3-0.2-1.3-1.6-1.3h-0.5v-1.2
		c0-0.6-0.3-0.9-0.9-0.9c-0.8,0-1.6,0-2.4,0c-0.6,0-0.8,0.3-0.8,0.9c0,0.4,0,0.7,0,1.1c0,0,0,0.1-0.1,0.1h-1c-0.8,0-1,0.2-1,1
		c0,0.1,0,0.2,0,0.3H5.1v-4.8c0.2,0,0.4,0,0.6,0c4.5,0,8.9,0,13.4,0c0.2,0,0.4,0,0.6,0c0.4-0.1,0.5-0.3,0.5-0.7s-0.2-0.6-0.6-0.7
		c-0.2,0-0.4,0-0.6,0h-14c0-0.3,0.1-0.5,0.1-0.7c0.4-1.8,1.5-3.2,3.1-4.1c0.8-0.4,1.2-0.9,1.1-1.8c0-0.2,0-0.4,0-0.5h16.1
		c0,0.3,0,0.5,0,0.8c0,0.7,0.3,1.1,0.9,1.5c1.9,1,3,2.5,3.4,4.6c0,0.1,0,0.1,0,0.3h-6.5c-0.2,0-0.3,0-0.5,0
		c-0.4,0.1-0.6,0.3-0.6,0.7c0,0.4,0.2,0.6,0.5,0.7c0.2,0,0.4,0,0.6,0c2,0,3.9,0,5.9,0h0.6v4.8H21.7z M16.4-99.5
		c-0.5,1.2-1.4,2.1-2.5,2.7c-0.2,0.1-0.5,0.2-0.7,0.3c-0.5,0.2-0.8,0.6-0.8,1.1c0,0.5,0.2,0.9,0.6,1.2c1.3,0.7,2.6,1,4,0.9
		c0.5-0.1,0.8-0.4,0.7-0.9c-0.1-0.4-0.4-0.6-0.9-0.6c-0.9,0.1-1.8-0.1-2.7-0.5c3.6-1.4,5.2-5.6,3.3-9.1c0.9,0.2,1.6,0.6,2.2,1.2
		c2,1.9,2.1,5,0.2,7c-0.1,0.1-0.3,0.3-0.4,0.5c-0.1,0.3-0.1,0.6,0.2,0.9c0.3,0.2,0.7,0.2,0.9-0.1c0.8-0.7,1.3-1.6,1.7-2.6
		c0-0.1,0.1-0.3,0.2-0.4c1,0.7,1.9,1.5,2.5,2.6c-1.1,0.9-1.8,2-2.2,3.3c-0.2,0.7-0.2,0.7-1,0.7h-13C8.9-95.6,12.6-99.2,16.4-99.5z
		 M5.1-94.9h3c-0.1,0.2-0.2,0.4-0.2,0.6c-0.2,0.8-0.4,1.5-0.5,2.3c0,0.3-0.1,0.4-0.4,0.4c-0.6,0-1.2,0-1.8,0V-94.9z M24.3-85.6H6.6
		c-1.1,0-1.5-0.5-1.5-1.5c0-0.9,0-1.8,0-2.7c0,0,0-0.1,0.1-0.2h0.5c5.4,0,10.8,0,16.3,0c0.4,0,0.6,0.1,0.7,0.6
		c0.2,1.3,0.8,2.4,1.7,3.4c0.1,0.1,0.3,0.3,0.4,0.4c0,0,0,0,0,0.1C24.6-85.6,24.4-85.6,24.3-85.6z M33.6-86.7c0,0,0,0.1,0,0.1
		c-0.1,0-0.1,0.1-0.2,0.1c-0.4-0.5-0.9-1-1.3-1.6c-0.4-0.5-0.7-0.7-1.1-0.4c-0.4,0.2-0.4,0.7-0.1,1.2c0.2,0.3,0.4,0.6,0.6,0.9
		c-1.2,1.1-4,1.3-5.9-0.5c-1.9-1.8-2.1-4.7-0.4-6.7c1.6-1.9,4.5-2.3,6.3-1c-0.6,0.8-1.1,1.7-1.3,2.7c0,0.2-0.1,0.4-0.1,0.6
		c0,0.4,0.2,0.7,0.6,0.8c0.4,0.1,0.7-0.1,0.8-0.5c0.1-0.3,0.1-0.6,0.2-1c0.7-2.4,3.1-3.8,5.6-3.3c2.4,0.4,4.1,2.7,3.9,5.1
		c0,0.4-0.1,0.6-0.6,0.6c-1.4,0-2.7,0-4.1,0C34.7-89.6,33.7-88.5,33.6-86.7z M43.3-85.6h-6.9c-0.7,0-1.2-0.4-1.3-0.9
		c-0.1-0.5,0.1-1.2,0.6-1.4c0.3-0.1,0.6-0.2,0.9-0.2c1.1,0,2.2,0,3.4,0h3.4c0.9,0,1.5,0.5,1.5,1.3C44.8-86.1,44.2-85.6,43.3-85.6z"
		/>
	<path class="st0" d="M29.6-84.1c1-0.2,2-0.5,2.9-1.1c0.1,0,0.2,0,0.3,0c0.9,0.6,1.9,0.9,2.9,1.1C33.7-84.1,31.7-84.1,29.6-84.1z"/>
	<path d="M12.4-108.8c0,0.4-0.3,0.7-0.9,0.7c-1.4,0-2.7,0-4.1,0c-0.5,0-0.9-0.3-0.9-0.7c0-0.4,0.3-0.7,0.9-0.7c0.7,0,1.3,0,2,0
		c0.7,0,1.4,0,2,0C12-109.5,12.4-109.2,12.4-108.8z"/>
	<path d="M28.4-108.8c0,0.4-0.3,0.7-0.8,0.8c-1.4,0-2.8,0-4.1,0c-0.5,0-0.8-0.3-0.8-0.8c0-0.4,0.3-0.7,0.8-0.7c0.7,0,1.4,0,2.1,0
		c0.7,0,1.3,0,2,0C28.1-109.5,28.4-109.2,28.4-108.8z"/>
	<path d="M12.4-105.9c0,0.4-0.3,0.7-0.9,0.7c-1.4,0-2.7,0-4.1,0c-0.5,0-0.9-0.3-0.9-0.7c0-0.5,0.3-0.7,0.9-0.7c0.7,0,1.3,0,2,0
		c0.7,0,1.4,0,2,0C12-106.6,12.4-106.3,12.4-105.9z"/>
	<path d="M28.4-105.9c0,0.4-0.3,0.7-0.8,0.7c-1.4,0-2.8,0-4.1,0c-0.5,0-0.8-0.3-0.8-0.7c0-0.4,0.3-0.7,0.8-0.7c0.7,0,1.4,0,2,0
		s1.4,0,2,0C28.1-106.6,28.4-106.3,28.4-105.9z"/>
</g>
<g>
	<path d="M124.4-18.7c-2.4,1.4-4.9,2.6-7.5,3.4c-7.5,2.3-14.8,1.9-22-0.9c-2-0.8-4-1.8-6.1-2.5c-1.6-0.6-3.4-0.9-5.1-1.4
		c-1.2-0.3-2.4-0.8-3.4-1.5c-1.2-0.9-2-2.2-2.3-3.7c0-0.1-0.1-0.1-0.1-0.2v-1.7c0.1-0.4,0.1-0.8,0.3-1.2c0.7-2,1.3-4,2.1-5.9
		c3.7-9,8.9-17.2,14.5-25.1c1.2-1.7,2.9-2.8,4.9-3.2c1.8-0.4,3.6-0.5,5.4-0.8c0.9-0.1,1.8-0.3,2.7-0.4h1.4c0.5,0.2,1.1,0.3,1.6,0.6
		c1.4,0.7,2.3,1.8,2.6,3.4c0.3,1.3,0.5,2.6,0.7,3.9c0.4,3.2-2.3,5.6-5.4,4.9c-1.5-0.3-3-0.7-4.5-1c-0.1,0-0.3,0-0.5-0.1
		c-0.3,1.2-0.6,2.3-0.9,3.4c-0.6,2.5-1.3,5-2,7.5c-0.2,0.7-0.7,1.1-1.3,1.1c-0.6,0-1.1-0.5-1.2-1c0-0.3,0-0.6,0.1-0.9
		c1-3.9,2-7.7,3-11.6c0-0.1,0-0.3,0.1-0.4c0.2-0.8,0.9-1.2,1.7-1c2.1,0.5,4.1,1,6.2,1.5c1.3,0.3,2.4-0.8,2.2-2.1
		c-0.2-1.2-0.4-2.4-0.6-3.6c-0.2-1.3-1.4-2.1-2.7-2c-1.4,0.2-2.7,0.3-4.1,0.5c-1.1,0.1-2.2,0.3-3.3,0.4c-1.7,0.3-3.2,1.1-4.1,2.6
		c-5,7.1-9.6,14.4-13.1,22.3c-1.1,2.5-2,5.1-2.9,7.7c-0.2,0.6-0.2,1.3-0.1,1.9c0.1,1.3,1,2.2,2.2,2.7c1.2,0.5,2.5,0.8,3.7,1.1
		c2.2,0.5,4.3,1.3,6.4,2.2c3.4,1.6,7,2.8,10.8,3.2c4.8,0.6,9.5,0.1,14.1-1.7c1.8-0.7,3.6-1.7,5.4-2.6c0.5-0.2,0.9-0.4,1.4-0.1
		C125.4-20.5,125.3-19.3,124.4-18.7z"/>
	<path d="M127.8-39.1c0,0.7-0.5,1.3-1.4,1.3c-2.6,0.1-4.9,1-7,2.6c-0.2,0.2-0.4,0.3-0.6,0.5c-0.6,0.6-1.3,0.6-1.9,0.1
		c-1.9-1.6-4-2.7-6.4-3.2c-3.5-0.8-6.5,0.1-9.2,2.4c-1.8,1.5-3.2,3.4-4.5,5.5c-0.4,0.6-0.9,0.9-1.5,0.7c-0.8-0.2-1.2-1-0.8-1.7
		c2.3-3.9,5.1-7.4,9.5-9c3.5-1.3,6.9-0.8,10.2,0.7c1.2,0.6,2.3,1.3,3.6,2c1.9-1.5,4-2.5,6.4-2.9c0.7-0.1,1.4-0.2,2-0.2
		C127.2-40.3,127.8-39.8,127.8-39.1z"/>
	<path d="M120.9-25.4c-0.1,0.3-0.3,0.6-0.5,0.9c-1.9,2-4.2,3.2-6.9,3.7c-0.9,0.2-1.8,0.2-2.7,0.3c-1.7-0.1-3.4-0.4-5-0.9
		c-1.1-0.4-1.6-1-1.3-1.8c0.3-0.8,1-1,2-0.6c1.7,0.5,3.4,0.8,5.2,0.7c2.7-0.2,5-1.3,6.9-3.2c0.5-0.5,1-0.6,1.5-0.3
		C120.7-26.4,121-25.9,120.9-25.4z"/>
</g>
<g>
	<path d="M46.2,33.3c-0.1-0.1-0.1-0.2-0.2-0.3c-1.8-2.7-3.7-5.5-5.5-8.2c-0.3-0.5-0.7-0.7-1.3-0.7c-9.5,0-19.1,0-28.6,0
		c-0.6,0-1,0.2-1.3,0.7c-1.4,2.2-2.9,4.3-4.3,6.4c-0.4,0.7-0.9,1.3-1.3,2c-0.2,0.3-0.3,0.7-0.1,1.1c0.2,0.4,0.5,0.5,1,0.5
		c0.8,0,1.6,0,2.3,0h2.4v12.4c0,1,0.3,1.3,1.3,1.3h28.7c0.9,0,1.3-0.3,1.3-1.3V34.8h0.6c1.4,0,2.8,0,4.2,0
		C46.2,34.8,46.6,34,46.2,33.3z M6.6,32.8c-0.1,0-0.1,0-0.2,0c0.1-0.1,0.1-0.3,0.2-0.3c1.4-2,2.7-4.1,4.1-6.1
		c0.1-0.2,0.3-0.3,0.6-0.3c3.8,0,7.6,0,11.4,0c0.1,0,0.2,0,0.3,0c-1.3,1.6-2.5,3.2-3.7,4.7c-0.5,0.6-0.9,1.2-1.4,1.8
		c-0.1,0.1-0.3,0.3-0.5,0.3C13.8,32.8,10.2,32.8,6.6,32.8z M23.9,27.9v13.7H11.3v-6.8h0.5c1.9,0,3.9,0,5.8,0c0.7,0,1.1-0.2,1.5-0.8
		C20.7,32,22.3,30,23.9,27.9z M23.9,46.5H11.3v-2.9h12.6V46.5z M38.6,46.5H26v-2.9h12.6V46.5z M38.6,41.6H25.9V28.3
		c0.2,0.2,0.3,0.4,0.3,0.5c1.2,1.7,2.3,3.5,3.5,5.2c0.4,0.5,0.8,0.8,1.4,0.8c2.3,0,4.5,0,6.8,0h0.5V41.6z M43.1,32.8
		c-3.8,0-7.5,0-11.3,0c-0.3,0-0.5-0.1-0.7-0.4c-1.4-2.1-2.8-4.3-4.3-6.4c0.1,0,0.2-0.1,0.3-0.1c3.8,0,7.7,0,11.5,0
		c0.2,0,0.4,0.1,0.5,0.2c1.5,2.2,2.9,4.3,4.4,6.6H43.1z"/>
	<path d="M32.4,4.4c-1-0.8-2-0.9-3.2-0.6c-0.1-0.2-0.2-0.4-0.3-0.6c-0.9-1.4-2.8-2-4.3-1.3C23,2.7,22.1,4.4,22.7,6
		c0.6,1.9,1.4,3.8,2.1,5.7c0.2,0.5,0.7,0.8,1.2,0.6c1.9-0.7,3.9-1.4,5.8-2.2C34.1,9.1,34.4,5.9,32.4,4.4z M30.8,8.4
		c-1.5,0.6-3,1.1-4.5,1.7c-0.6-1.6-1.2-3.1-1.7-4.7c-0.3-0.7,0.2-1.5,0.9-1.7c0.7-0.3,1.5,0,1.9,0.7c0.2,0.3,0.3,0.6,0.4,1
		C27.9,6,28.3,6.2,29,5.9c0.3-0.1,0.5-0.2,0.8-0.3c0.8-0.3,1.6,0.1,1.9,0.9C32,7.3,31.6,8.1,30.8,8.4z"/>
	<path d="M20.8,9.1c-1.4-0.6-3.4,0.1-3.8,2.2c-0.2,0-0.4,0.1-0.6,0.1c-1.3,0.3-2.3,1.6-2.1,3c0.1,1.4,1.3,2.5,2.6,2.6
		c1.4,0.1,2.9,0.1,4.3,0.2c0.8,0,1.1-0.3,1.2-1.1c0.1-1.5,0.2-2.9,0.2-4.4C22.6,10.6,21.8,9.6,20.8,9.1z M20.4,15.2
		c-1.2-0.1-2.3-0.1-3.5-0.2c-0.5,0-0.8-0.5-0.8-0.9c0-0.5,0.4-0.8,0.9-0.8c0.3,0,0.5,0,0.8,0c0.6,0,0.9-0.4,1-0.9
		c0-0.3,0-0.5,0.1-0.8c0.1-0.5,0.5-0.8,0.9-0.7c0.4,0,0.8,0.4,0.8,0.8C20.6,12.9,20.5,14,20.4,15.2z"/>
	<path d="M30,17.2c-0.2-0.1-0.4-0.2-0.5-0.4c-0.5-1.1-1.6-1.7-2.7-1.5c-1.2,0.3-2,1.2-2,2.5c0,0.5,0,1,0,1.5H25c0,0.6,0,1.2,0,1.8
		c0,0.6,0.4,1,0.9,1c1.3,0,2.5-0.1,3.7-0.2c1.2-0.1,2-1.1,2-2.2C31.8,18.6,31.1,17.6,30,17.2z M29.4,20c-0.8,0.1-1.6,0.1-2.4,0.1
		c0-0.8-0.1-1.6-0.1-2.4c0-0.2,0.3-0.4,0.4-0.4c0.2,0,0.4,0.2,0.5,0.4c0.2,0.4,0.1,0.9,0.4,1.2c0.3,0.3,0.8,0.2,1.2,0.3
		c0.2,0.1,0.4,0.3,0.5,0.5C29.8,19.7,29.5,20,29.4,20z"/>
	<path d="M36.6,2.6c0,0.5-0.4,1-1,1s-1-0.4-1-1c0-0.5,0.4-1,1-1C36.2,1.6,36.6,2.1,36.6,2.6z"/>
	<path d="M18.1,5.6c0,0.5-0.5,1-1,1c-0.5,0-0.9-0.5-0.9-1c0-0.5,0.5-1,1-1C17.7,4.6,18.1,5,18.1,5.6z"/>
	<path d="M35.7,13.4c0,0.5-0.5,0.9-1,0.9c-0.5,0-1-0.5-1-1c0-0.5,0.5-0.9,1-0.9C35.2,12.4,35.7,12.9,35.7,13.4z"/>
	<path d="M21,20.2c0,0.5-0.5,1-1,1c-0.5,0-0.9-0.5-0.9-1c0-0.5,0.5-1,1-1C20.6,19.2,21,19.6,21,20.2z"/>
</g>
<g>
	<path d="M39.9-31.2c0.1-0.4,0.2-0.6,0.5-0.8c1.7-1.2,2.7-2.9,2.8-5c0.1-3.6,0-7.3,0-10.9c0-0.5-0.1-1-0.2-1.5
		c-0.5,0.1-1,0.2-1.3,0.2v8.7h-1.4c0-0.2,0-0.4,0-0.6c-0.2-1.4-0.2-2.8-0.6-4.1c-0.9-3.9-2.9-7-6.3-9.2c-2.9-1.8-6.1-2.4-9.5-2.2
		c-0.3,0-0.6,0-0.8-0.2c-1.3-1-1.3-3,0-4c0.2-0.1,0.4-0.2,0.7-0.2c1.4,0,2.8,0,4.1,0c4.5,0.1,8.2,1.9,11,5.5c0.6,0.7,1,1.5,1.5,2.3
		c0.4-0.2,0.8-0.4,1.2-0.6c-0.1-0.2-0.1-0.3-0.2-0.5c-3-5.1-7.5-7.9-13.4-8.1c-0.8,0-1.6-0.1-2.3-0.1h-1.8c-0.9,0.1-1.8,0.1-2.6,0.2
		c-3.2,0.3-6.1,1.3-8.6,3.3c0,0-0.1,0.1-0.2,0.1c-0.7-1.2-1.3-2.4-1.9-3.7h-0.1c-0.1,0.1-0.1,0.3-0.2,0.4c-0.6,1.1-1.2,2.3-1.8,3.4
		c-0.1,0.2-0.3,0.4-0.6,0.6c-1.2,0.7-2.5,1.4-3.8,2.1c1.5,0.8,2.8,1.6,4.2,2.4c0,0.1,0,0.1,0,0.2c-1.1,2.1-1.4,4.4-1.4,6.8
		c-0.1,3.1,0,6.2,0,9.4c0,2.3,1,4.2,2.9,5.6c0.2,0.1,0.3,0.4,0.4,0.6c0.8,5.4,3.3,9.8,7.5,13.3c0.1,0.1,0.3,0.4,0.3,0.6
		c0,1.4,0,2.8,0,4.2v0.5h1.5v-4c0.2,0.1,0.3,0.2,0.4,0.3c1.6,1,3.3,1.7,5.1,2.1c0.2,0,0.5,0,0.7,0c1.8-0.5,3.5-1.2,5-2.1
		c0.1-0.1,0.3-0.2,0.5-0.3v4h1.4c0-1.6,0-3.1,0-4.7c0-0.2,0-0.4,0.1-0.5c0.8-0.7,1.6-1.4,2.4-2.2c0.6,1.1,1.2,2.2,1.8,3.3
		c0.1-0.2,0.2-0.3,0.3-0.5c0.6-1.1,1.1-2.2,1.8-3.2c0.1-0.3,0.4-0.5,0.7-0.7c1-0.6,2.1-1.2,3.2-1.8c0.2-0.1,0.3-0.2,0.5-0.3
		c-0.2-0.1-0.4-0.2-0.6-0.3c-1.1-0.6-2.2-1.2-3.3-1.8c-0.5-0.3-0.6-0.7-0.5-1.2C39.1-28,39.5-29.6,39.9-31.2z M40.3-39h1.4
		c0.1,1.9,0.1,3.7-1.4,5.3V-39z M6.9-56.2c0.6-0.3,1-0.6,1.5-0.8c0.5-0.2,0.8-0.5,1-1c0.2-0.5,0.5-1,0.8-1.5c0.3,0.6,0.6,1.2,1,1.7
		c0.2,0.2,0.4,0.5,0.6,0.6c0.5,0.3,1.1,0.6,1.8,1c-0.5,0.3-1,0.6-1.5,0.8c-0.5,0.2-0.8,0.6-1.1,1.1c-0.2,0.5-0.5,0.9-0.8,1.5
		c-0.3-0.6-0.6-1.2-1-1.7c-0.2-0.3-0.4-0.5-0.7-0.7C8.1-55.6,7.6-55.8,6.9-56.2z M9.5-33.7C8-35.3,8-37.1,8.1-39h1.4V-33.7z M9.5-41
		c0,0.1,0,0.2,0,0.4H8.1c0-0.1,0-0.2,0-0.3c0-2.1,0-4.3,0-6.4c0-1.5,0.3-2.9,0.8-4.3c0-0.1,0.1-0.2,0.2-0.4c0.4,0.8,0.8,1.4,1.2,2.2
		c0.3-0.5,0.5-0.9,0.7-1.3c0.5-0.9,0.9-2,1.6-2.7c0.7-0.7,1.8-1.1,2.7-1.6c0.4-0.2,0.9-0.5,1.4-0.8c-1.1-0.6-2.1-1.2-3.2-1.8
		c2.3-1.8,4.8-2.8,7.7-3c-0.8,2.2-0.8,2.8,0.3,4.7c-0.5,0.1-0.9,0.2-1.4,0.3c-4.6,1.3-7.6,4.4-9.3,8.8C10-45.2,9.6-43.1,9.5-41z
		 M40-23.1c-0.5,0.3-1,0.6-1.4,0.8c-0.5,0.3-0.9,0.6-1.2,1.2c-0.2,0.5-0.5,0.9-0.8,1.4c-0.7-1.5-1.6-2.8-3.3-3.2
		c0-0.1,0-0.1,0.1-0.2c0.6-0.3,1.1-0.6,1.7-0.9c0.3-0.2,0.5-0.4,0.6-0.6c0.3-0.5,0.6-1.1,1-1.8c0.3,0.5,0.6,1,0.8,1.5
		c0.2,0.5,0.6,0.8,1.1,1.1C39-23.7,39.4-23.4,40-23.1z M37.7-28.1c0,0.1-0.1,0.2-0.1,0.3c-0.3-0.6-0.6-1.1-1-1.8
		c-0.5,1-1.1,1.8-1.5,2.8c-0.4,1-1.1,1.7-2.1,2.1c-0.9,0.4-1.8,1-2.8,1.5c1.2,0.7,2.3,1.3,3.6,2c-0.8,0.8-1.6,1.5-2.5,2.2
		c-1.7,1.4-3.7,2.4-5.8,3.1c-0.4,0.1-0.8,0.1-1.2,0c-4-1.2-7.3-3.3-9.7-6.8C12.9-25.2,12-28,11.4-31c-0.5-3-0.6-5.9-0.4-8.9
		c0-0.2,0.1-0.5,0.3-0.7c0.4-0.5,0.9-0.9,1.3-1.4c1.4-1.6,3.2-2.3,5.2-2.4c1.7-0.1,3.2-0.5,4.6-1.5c0.2-0.1,0.3-0.3,0.5-0.4
		c-0.3-0.4-0.6-0.7-1-1.1c-1,0.9-2.2,1.4-3.5,1.5c-0.6,0.1-1.2,0.1-1.8,0.2c-1.9,0.2-3.4,1.1-4.7,2.3c-0.2,0.2-0.4,0.5-0.7,0.7
		c0.3-2.7,1.1-5.2,2.6-7.5c1.5-2.2,3.6-3.6,6.1-4.3c3.5-1.1,6.9-1,10.3,0.1c3.9,1.3,6.3,4,7.6,7.9c0.1,0.4,0.2,0.8,0.3,1.2
		c-3.3-4-7.4-6.4-12.5-7.1v-1.4h-1.5c0.1,1.9,0,3.8-1.3,5.4c0.4,0.3,0.8,0.6,1.2,0.9c0.3-0.6,0.7-1.1,0.9-1.7
		c0.2-0.6,0.4-1.1,0.6-1.8c1.2,0.1,2.4,0.4,3.5,0.8c4.3,1.6,7.4,4.4,9.4,8.5c0.1,0.2,0.2,0.5,0.2,0.7c0,2.3,0,4.6,0,6.9
		C38.6-32,38.4-30,37.7-28.1z"/>
	<path d="M4.4-50.7v1.5H3v1.4H1.5v-1.4c-0.5,0-1-0.1-1.5-0.1v-1.4c0.5,0,1-0.1,1.5-0.1v-1.4H3v1.4H4.4z"/>
	<polygon points="46.8,-28.9 46.8,-27.4 45.4,-27.4 45.4,-26 43.9,-26 43.9,-27.4 42.5,-27.4 42.5,-28.9 43.9,-28.9 43.9,-30.3 
		45.4,-30.3 45.4,-28.9 	"/>
	<rect x="24.1" y="-59.5" width="1.4" height="1.4"/>
	<rect x="48.4" y="-33.2" width="1.4" height="1.4"/>
	<rect x="48.4" y="-24.5" width="1.4" height="1.4"/>
	<path d="M42.7-51c-0.5,0.1-0.9,0.3-1.4,0.4c-0.2-0.4-0.3-0.8-0.5-1.3c0.4-0.2,0.9-0.3,1.4-0.5C42.3-52,42.5-51.5,42.7-51z"/>
	<path d="M22.7-42v1.4h-5.4c-1.3,0-2.5,0.4-3.6,1.4c-0.3-0.4-0.7-0.7-1-1.1c1.1-1,2.4-1.7,3.9-1.7C18.6-42,20.6-42,22.7-42z"/>
	<path d="M37.1-40.2c-0.3,0.3-0.6,0.7-1,1c-1.2-1.1-2.7-1.4-4.3-1.4c-1.5,0-3,0-4.6,0V-42c0.2,0,0.3,0,0.5,0h4.9
		c1.5,0,2.9,0.4,4.1,1.3c0.1,0.1,0.2,0.2,0.3,0.3C37-40.4,37-40.3,37.1-40.2z"/>
	<path d="M29.7-25.4c-1.9,2-7,2.3-9.5,0c0.3-0.4,0.5-0.7,0.8-1.1c2.7,1.6,5.3,1.5,8,0C29.2-26.1,29.4-25.8,29.7-25.4z"/>
	<path d="M22.4-36c-0.3,1.5-2,2.7-3.8,2.8c-2.2,0.1-3.8-1.3-4.2-2.7c0.4-0.2,0.8-0.4,1.3-0.5c1.2,2.4,4.5,2.2,5.5-0.1
		C21.5-36.4,21.9-36.2,22.4-36z"/>
	<path d="M35.4-35.9c-0.2,1.3-1.9,2.5-3.7,2.7c-1.9,0.1-3.7-1-4.3-2.7c0.5-0.2,0.9-0.4,1.3-0.5c1.1,2.1,4.1,2.5,5.5,0
		C34.6-36.3,35-36.1,35.4-35.9z"/>
	<rect x="15.4" y="-49.3" width="1.4" height="1.4"/>
	<rect x="18.3" y="-49.3" width="1.4" height="1.4"/>
</g>
</svg>
