<svg id="Camada_1" data-name="Camada 1" xmlns="http://www.w3.org/2000/svg" viewBox="0 0 50 50"><title>icon</title><path d="M31.6,25.41a1.52,1.52,0,0,1-.11-.7,10.73,10.73,0,0,0-.54-4.8,8.85,8.85,0,0,0-6.29-5.38,1.46,1.46,0,0,1-.52-.24,4.57,4.57,0,0,0-3.84-1.13,2.92,2.92,0,0,1-2.72-1C16.46,11,15.3,9.89,14.14,8.75c-.42-.43-.92-.43-1.21,0a.72.72,0,0,0,.17,1c1.11,1.12,2.25,2.2,3.33,3.35a4.55,4.55,0,0,0,4.21,1.5,3.18,3.18,0,0,1,1.12,6.25,1.15,1.15,0,0,0-1,1,3.18,3.18,0,0,1-6.07.36,4.85,4.85,0,0,1-.15-1.86,4.19,4.19,0,0,0-1.24-3.54L1.46,5c-.6-.6-1-.55-1.46.18v.29a6.51,6.51,0,0,0,.51.64C4.32,9.91,8.12,13.73,12,17.52a3.4,3.4,0,0,1,1.1,3.09,4.44,4.44,0,0,0,2.78,4.76,15.83,15.83,0,0,0,2.28.51.34.34,0,0,1,0,.09,4.56,4.56,0,0,0,1.81,5.11,2.78,2.78,0,0,1,1.15,2.4c0,5.16,0,10.32,0,15.48a1.12,1.12,0,0,0,.48,1H22a1,1,0,0,0,.51-1c0-3.81,0-7.63,0-11.45V37a2.14,2.14,0,0,1,1.65,1.76,5.1,5.1,0,0,1,0,.78c0,3.12,0,6.23,0,9.35A1.24,1.24,0,0,0,24.66,50h.59a1.22,1.22,0,0,0,.44-1.11q0-4.74,0-9.5a3.67,3.67,0,0,0-2-3.51,2.17,2.17,0,0,1-1.16-2.1A4.06,4.06,0,0,0,22,31.22a8.39,8.39,0,0,0-1.32-1.41,3.13,3.13,0,0,1-1.18-3.2,3,3,0,0,1,2.45-2.48,2.93,2.93,0,0,1,2.42.45,1,1,0,0,0,1.24,0,3.19,3.19,0,0,1,3.67,5.22,4.44,4.44,0,0,0-1.88,3.84c0,5.12,0,10.23,0,15.34a1,1,0,0,0,.5,1h.49a1.14,1.14,0,0,0,.48-1.09c0-5.1,0-10.2,0-15.3A3.1,3.1,0,0,1,30.15,31,4.59,4.59,0,0,0,31.6,25.41Zm-3.19-2.68a4.53,4.53,0,0,0-3.13.32.65.65,0,0,1-.48.07,5.12,5.12,0,0,0-2.8-.5c.2-.2.28-.34.4-.39,2.65-1.18,3.56-2.81,3.13-5.63v-.19a7,7,0,0,1,4.52,7A13.64,13.64,0,0,0,28.41,22.73Z"/><path d="M18.91,50h-.49a4.56,4.56,0,0,1-.6-.73,29.29,29.29,0,0,1-3.35-10.46,62.17,62.17,0,0,1-.26-9c0-1.2,0-1.19-1.06-1.6a21.27,21.27,0,0,1-7.21-4.61.74.74,0,0,1-.12-1.08c.31-.34.73-.33,1.15.06a20.36,20.36,0,0,0,6.51,4.19c.5.19,1,.35,1.52.51s.72.37.72,1c0,2.84,0,5.69.06,8.52a27.59,27.59,0,0,0,3.36,11.89C19.48,49.33,19.46,49.51,18.91,50Z"/><path d="M4.47,21a.72.72,0,0,1-1-.17c-.53-.68-1.07-1.35-1.54-2.07-.67-1-1.27-2.06-1.9-3.1V15.2c.54-.7,1-.64,1.49.1.9,1.44,1.86,2.85,2.79,4.27.09.14.21.25.3.39A.72.72,0,0,1,4.47,21Z"/><path d="M34.41,49.24c0,.26-.31.5-.49.76h-.48A1.15,1.15,0,0,1,33,49c0-.94,0-1.88,0-2.82,0-.66.58-1.05,1.07-.73a.92.92,0,0,1,.37.63C34.46,47.1,34.47,48.17,34.41,49.24Z"/><path d="M34.76,25.67c0,2.39-.11,4.77-.18,7.16h-.14v9.4c0,.75-.23,1.1-.71,1.11S33,43,33,42.2c-.08-4.84.1-9.68.31-14.51a40.14,40.14,0,0,0-.35-7.1,14.6,14.6,0,0,0-3.23-7,50,50,0,0,0-8.33-8.24C19.77,4,18.08,2.79,16.43,1.53,16,1.21,15.86.87,16,.5s.71-.54,1.2-.18c1.33,1,2.66,1.92,4,2.94a56.1,56.1,0,0,1,9.33,9,16.92,16.92,0,0,1,3.67,7.11A31.36,31.36,0,0,1,34.76,25.67Z"/><path d="M46,22.21c-.89-.44-1.76-.9-2.64-1.36-1.5-.76-1.32-.87-2.5.44a.51.51,0,0,1-.66.17c-1-.38-2-.72-3-1.08a.74.74,0,0,0-1,.23.75.75,0,0,0,.11,1c1.43,1.74,2.86,3.49,4.3,5.23.45.54.88.52,1.34,0l.61-.74,2.63,2.43a.82.82,0,0,0,.92.26.83.83,0,0,0,.46-.88c0-1.55,0-3.09,0-4.63A1,1,0,0,0,46,22.21Zm-1.64,3.46-1.22-1.12c-.49-.43-.86-.39-1.28.12l-.5.61a1.9,1.9,0,0,1-.2-.18c-.63-.77-1.27-1.55-1.86-2.41.36.13.71.24,1.06.38a.87.87,0,0,0,1.09-.26c.25-.29.52-.57.81-.88.92.48,1.82.94,2.72,1.42a.41.41,0,0,1,.19.29c0,.88,0,1.75,0,2.75Z"/><path d="M49.56,14.82l-3.31-3.31a1,1,0,0,0-1.1-.27l-2.91.94c-1.43.47-1.59.26-1.42,2a.53.53,0,0,1-.39.62c-1,.42-1.88.88-2.82,1.32a.74.74,0,0,0,.23,1.46l6.83.67a.72.72,0,0,0,.86-.8c0-.36-.06-.71-.09-1.1l.49,0,3.12-.14a.77.77,0,0,0,.81-.49A.79.79,0,0,0,49.56,14.82Zm-4.66.1c-.84,0-1.08.31-1,1.17,0,.2,0,.41,0,.66l-3.22-.32,0-.09c.29-.14.56-.31.86-.42a1,1,0,0,0,.74-1.2c-.07-1,0-1,.92-1.32l1.85-.59c.13,0,.33-.05.4,0,.65.62,1.28,1.27,2,2Z"/><path d="M42.94,5.37A.76.76,0,0,0,42.13,5C40.55,5,39,5,37.4,5a.94.94,0,0,0-.95.6c-.45.9-.92,1.79-1.38,2.68-.78,1.5-.86,1.35.43,2.49a.53.53,0,0,1,.16.7c-.38,1-.72,2-1.08,3a.73.73,0,0,0,.23.91.72.72,0,0,0,.94-.07q2.69-2.19,5.34-4.39a.71.71,0,0,0,0-1.2c-.25-.23-.52-.44-.82-.69.84-.92,1.64-1.8,2.45-2.66A.78.78,0,0,0,42.94,5.37ZM39,8.24c-.69.75-.67,1,.12,1.64l.43.38c-.45.37-.86.72-1.29,1.06s-.84.69-1.26,1l-.07-.06c.13-.36.25-.73.39-1.08A.87.87,0,0,0,37,10.13c-.28-.24-.55-.5-.87-.8l1.45-2.78a.38.38,0,0,1,.28-.12h2.74Z"/><path d="M11.74,7c-.12.21-.39.34-.61.52a3.65,3.65,0,0,1-.63-.4Q7.64,4.31,4.78,1.45A.75.75,0,0,1,4.66.33C5,0,5.41,0,5.81.41l5.72,5.71A.73.73,0,0,1,11.74,7Z"/></svg>