<svg id="Camada_1" data-name="Camada 1" xmlns="http://www.w3.org/2000/svg" viewBox="0 0 50 50"><title>icon</title><path d="M45.69,7.41a2.59,2.59,0,0,0,3.17-1.93,2.63,2.63,0,0,0-5.1-1.29,2.74,2.74,0,0,0,.54,2.43L42.16,8.78l-2.11,2.13a6.05,6.05,0,0,0-8.65-.05L26.9,6.51c.8-1.71.6-2.95-.5-3.79a2.65,2.65,0,0,0-3.29,0c-1.1.91-1.21,2.14-.33,3.82L20.65,8.73c-.71.71-1.41,1.42-2.11,2.14a6,6,0,0,0-8.63-.08L5.66,6.48l.1-.15A2.64,2.64,0,1,0,1.2,5.87,2.69,2.69,0,0,0,4.32,7.36a.72.72,0,0,1,.57.18q2.06,2,4.09,4.05c.06.06.11.15.16.21a6,6,0,0,0,0,6.21l-.36.38c-1.24,1.24-2.5,2.47-3.72,3.72a.9.9,0,0,1-1,.3A2.58,2.58,0,0,0,1,24.48a2.63,2.63,0,0,0,5.13,1.18,2.74,2.74,0,0,0-.53-2.43L9.8,18.89a6.06,6.06,0,0,0,8.68.12l4.28,4.33c0,.07-.14.21-.21.35a2.54,2.54,0,0,0,.15,2.68,2.29,2.29,0,0,0,2.37,1.14,1.43,1.43,0,0,1,1.56.58c.21.24.46.46.69.69l3.1,3.12a5.92,5.92,0,0,0,0,6.19c-1.45,1.47-2.86,2.91-4.3,4.32a.73.73,0,0,1-.59.1,2.62,2.62,0,1,0,1.41.87l4.24-4.29a6,6,0,0,0,8.61,0L44,43.4a2.7,2.7,0,0,0-.46,2.46,2.63,2.63,0,1,0,1.87-3.33.56.56,0,0,1-.64-.16c-1.33-1.33-2.66-2.66-4-4a.44.44,0,0,1-.1-.62,5.71,5.71,0,0,0,0-5.51.45.45,0,0,1,.1-.65c1.26-1.23,2.5-2.46,3.73-3.72.34-.34.64-.59,1.16-.38a1.59,1.59,0,0,0,.72,0,2.62,2.62,0,0,0,2.26-3.09,2.65,2.65,0,0,0-3.14-2.09.58.58,0,0,1-.44-.05c-1.4-1.45-2.78-2.91-4.22-4.42a5.83,5.83,0,0,0-.09-6C42.19,10.43,43.59,9,45,7.61A.64.64,0,0,1,45.69,7.41ZM3.6,6.26a1.45,1.45,0,1,1,0-2.9,1.45,1.45,0,1,1,0,2.9Zm0,20.16a1.47,1.47,0,0,1-1.42-1.5,1.49,1.49,0,0,1,1.51-1.41,1.46,1.46,0,0,1-.09,2.91ZM24.9,46.53a1.46,1.46,0,1,1,0-2.91,1.46,1.46,0,1,1,0,2.91ZM46,43.62a1.46,1.46,0,0,1,0,2.91,1.46,1.46,0,0,1-1.49-1.43A1.48,1.48,0,0,1,46,43.62Zm0-20.15A1.42,1.42,0,0,1,47.5,24.9a1.44,1.44,0,0,1-1.43,1.48,1.46,1.46,0,1,1,0-2.91ZM35.68,10.23A4.73,4.73,0,1,1,31,15,4.72,4.72,0,0,1,35.68,10.23ZM24.78,3.36a1.45,1.45,0,1,1-1.46,1.46A1.48,1.48,0,0,1,24.78,3.36ZM14.19,19.62a4.73,4.73,0,1,1,4.74-4.78A4.75,4.75,0,0,1,14.19,19.62ZM24.9,26.38a1.5,1.5,0,0,1-1.48-1.45,1.46,1.46,0,0,1,1.45-1.46,1.43,1.43,0,0,1,1.47,1.43A1.48,1.48,0,0,1,24.9,26.38Zm1.46-4a.82.82,0,0,1-.53.13l-1.76-.06a.89.89,0,0,1-.53-.14q-2-2-4-4a.57.57,0,0,1-.14-.47,6,6,0,0,0-.11-6c1.46-1.48,2.9-2.93,4.36-4.37.09-.09.31-.09.47-.1.55,0,1.11-.06,1.67-.07.16,0,.38,0,.47.05,1.47,1.47,2.92,3,4.38,4.44,0,0,0,.06,0,.12a5.5,5.5,0,0,0-.81,3.71,12.23,12.23,0,0,0,.67,2.16.44.44,0,0,1-.09.58C29.06,19.66,27.72,21,26.36,22.34Zm9.07,17.4A4.75,4.75,0,0,1,30.75,35a4.73,4.73,0,0,1,9.45,0A4.76,4.76,0,0,1,35.43,39.74Zm8.63-16.57a2.65,2.65,0,0,0,0,3.47l-4.27,4.3a6,6,0,0,0-8.57,0L27,26.58a2.66,2.66,0,0,0,.15-3.13l4.31-4.38A6,6,0,0,0,40.08,19ZM46.31,3.4a1.47,1.47,0,1,1-1.47,1.48A1.46,1.46,0,0,1,46.31,3.4Z"/><path d="M14.45,11.57a1.52,1.52,0,0,1-.4.41,4.91,4.91,0,0,0-2.2,2.19c-.18.35-.46.54-.84.33s-.36-.53-.19-.88a5.82,5.82,0,0,1,2.73-2.68C14,10.71,14.46,11,14.45,11.57Z"/><path d="M11.37,15.66c0,.62-.26.92-.66.9a.62.62,0,0,1-.53-.74c0-.62.26-1,.65-.89A.6.6,0,0,1,11.37,15.66Z"/><path d="M35.88,31.73c-.09.09-.22.33-.41.41a5,5,0,0,0-2.38,2.12.58.58,0,1,1-1-.59A5.75,5.75,0,0,1,35,31.09C35.47,30.9,35.88,31.15,35.88,31.73Z"/><path d="M32.56,35.61c0,.62-.29,1-.69.93a.58.58,0,0,1-.53-.69c0-.64.29-1,.69-.93A.58.58,0,0,1,32.56,35.61Z"/><path d="M35.9,11.52c-.08.09-.19.33-.38.42a4.89,4.89,0,0,0-2.19,2.26.56.56,0,0,1-.79.34.57.57,0,0,1-.26-.86A5.72,5.72,0,0,1,35,10.91C35.46,10.69,35.88,10.93,35.9,11.52Z"/><path d="M32.86,15.75c0,.57-.21.83-.6.82s-.59-.28-.57-.79.23-.83.62-.83S32.88,15.23,32.86,15.75Z"/></svg>