<?xml version="1.0" encoding="utf-8"?>
<!-- Generator: Adobe Illustrator 24.0.2, SVG Export Plug-In . SVG Version: 6.00 Build 0)  -->
<svg version="1.1" id="Camada_1" xmlns="http://www.w3.org/2000/svg" xmlns:xlink="http://www.w3.org/1999/xlink" x="0px" y="0px"
	 viewBox="0 0 50 50" style="enable-background:new 0 0 50 50;" xml:space="preserve">
<style type="text/css">
	.st0{fill:#FFFFFF;}
</style>
<g>
	<path d="M-80.7-82.5c-3.7-4.8-8.6-7.9-14.6-9.2c-1.1-0.2-2.2-0.3-3.3-0.5c-0.2,0-0.3-0.1-0.5-0.1h-2.9c-1,0.1-1.9,0.2-2.8,0.4
		c-5.7,1-10.4,3.7-14.3,7.9c-3.6,4-5.7,8.8-6.3,14.1c0,0.4-0.1,0.7-0.1,1.1v2.9c0.1,0.9,0.2,1.9,0.4,2.8c1.4,7.5,5.4,13.2,11.8,17.2
		c3.3,2.1,7,3.2,10.9,3.4c0.1,0,0.3,0,0.4,0.1h2.9c1-0.1,1.9-0.2,2.8-0.4c5.8-1,10.6-3.8,14.5-8.2c3.5-4,5.5-8.7,6.1-13.9
		C-75-71.3-76.7-77.2-80.7-82.5z M-100.5-45c-12.3,0-22.2-10-22.2-22.3c0-12.3,10-22.3,22.3-22.3c12.3,0,22.2,10,22.2,22.3
		C-78.2-54.9-88.2-44.9-100.5-45z"/>
	<path d="M-87.4-60.5c-2.8,4.1-6.6,6.4-11.4,7c-6.2,0.7-11.8-2.6-14.6-7c0.8-0.5,1.5-1,2.2-1.4c5.5,8.1,16.7,7.4,21.6,0
		C-88.9-61.5-88.2-61-87.4-60.5z"/>
	<path d="M-105.9-72.8c0,1.5-1.2,2.7-2.7,2.7c-1.5,0-2.7-1.2-2.7-2.7s1.2-2.7,2.7-2.7C-107.1-75.6-105.9-74.3-105.9-72.8z"/>
	<path d="M-89.2-72.9c0,1.5-1.2,2.7-2.7,2.7c-1.5,0-2.7-1.2-2.7-2.7c0-1.5,1.2-2.7,2.7-2.7C-90.5-75.6-89.2-74.3-89.2-72.9z"/>
</g>
<g>
	<path d="M-187.4,8.9c-0.9-4.2-3.6-6.9-7.8-7.7c-4.8-1-8.4,1-11,5.1c-14.5-3.9-27.8,9.3-23.9,23.9c-4.1,2.6-6.1,6.3-5.1,11.1
		c0.9,4.2,3.6,6.9,7.8,7.8c4.8,1,8.5-1,11.1-5c7.2,1.6,13.6,0.1,18.8-5.1c5.2-5.2,6.7-11.7,5.1-18.8
		C-188.3,17.4-186.3,13.7-187.4,8.9z M-225,13.6c5-6,12.6-7.4,18.2-5.8c-0.1,0.5-0.3,1-0.4,1.4c-6-1.3-11.3,0-15.6,4.3
		c-4.3,4.3-5.6,9.6-4.4,15.6c-0.2,0-0.5,0.1-0.7,0.2c-0.2,0.1-0.5,0.1-0.7,0.2C-229.9,25.5-229.4,18.8-225,13.6z M-225.3,47.7
		c-4.8,0-8.6-3.8-8.6-8.5c0-4.8,3.8-8.6,8.6-8.6c4.7,0,8.5,3.8,8.5,8.6C-216.7,43.8-220.6,47.7-225.3,47.7z M-218.1,31.9
		c-2-2-4.5-3-7.5-3c-0.2-1-0.3-2-0.5-3.1h3.1v-1.6h-3c0.2-3.5,1.5-6.5,3.8-9.1c0.6,0.7,1.2,1.3,1.8,1.9c0.4-0.4,0.8-0.8,1.2-1.2
		c-0.6-0.6-1.2-1.2-1.8-1.8c1.3-1.9,6.4-4,9.1-3.8v3h1.6v-3.1c1.1,0.2,2.1,0.3,3.1,0.5c-0.1,5.6,4.4,10.5,10.4,10.5
		c0.1,0.5,0.2,1,0.3,1.5s0.1,1,0.2,1.6h-3.1v1.5h3c-0.2,3.5-1.5,6.5-3.8,9.1c-0.6-0.6-1.2-1.2-1.8-1.8c-0.4,0.4-0.7,0.8-1,1.2
		c0.5,0.5,1.1,1.1,1.8,1.8c-2.7,2.3-5.7,3.6-9.2,3.8v-3h-1.6v3.1c-1.1-0.2-2.1-0.3-3.1-0.5C-215.2,36.5-216.1,34-218.1,31.9z
		 M-198.1,37.3c-5.1,5.5-12.5,6.6-17.6,5.1c0.1-0.5,0.3-1,0.4-1.4c6,1.3,11.3,0,15.6-4.3c4.3-4.3,5.6-9.6,4.3-15.6
		c0.5-0.1,0.9-0.3,1.4-0.4C-192.6,24.9-193.2,32-198.1,37.3z M-197.2,19.6c-4.7,0-8.6-3.9-8.6-8.5c0-4.8,3.9-8.6,8.7-8.6
		c4.7,0,8.5,3.9,8.5,8.6C-188.7,15.8-192.5,19.6-197.2,19.6z"/>
	<path d="M-205.2,29.9c-0.5,0.4-0.8,0.7-1.2,1.1c0,0-0.1-0.1-0.2-0.2c-1.6-1.7-3.3-3.3-4.9-5c-0.2-0.2-0.4-0.5-0.4-0.8
		c0-2.7,0-5.5,0-8.2c0-0.1,0-0.1,0-0.2h1.5V17c0,2.4,0,4.9,0,7.3c0,0.2,0.1,0.5,0.3,0.7c1.5,1.5,3,3,4.5,4.6
		C-205.5,29.7-205.4,29.8-205.2,29.9z"/>
	<path d="M-194.5,11.8h3.5v1.5c-0.1,0-0.3,0-0.4,0h-4.8c-0.4,0-0.8-0.1-1-0.5c-0.2-0.4,0.1-0.7,0.4-1c1-1,2-2,3.2-3.1h-3.5V7.1h1.8
		c1.1,0,2.3,0,3.4,0c0.4,0,0.7,0.1,0.9,0.5c0.2,0.4,0,0.7-0.3,1c-0.9,0.9-1.9,1.9-2.8,2.8C-194.2,11.5-194.4,11.6-194.5,11.8z"/>
	<path d="M-198.8,13.3v1.6c-1.3,0-2.7,0-4,0c-0.2,0-0.5-0.3-0.6-0.5c-0.1-0.2,0-0.6,0.2-0.8c0.4-0.5,0.9-0.9,1.3-1.4
		c0.1-0.1,0.2-0.2,0.4-0.4h-1.9v-1.6c1.3,0,2.7,0,4,0c0.2,0,0.5,0.3,0.6,0.5c0.1,0.3,0,0.6-0.2,0.8c-0.4,0.5-0.9,0.9-1.3,1.4
		c-0.1,0.1-0.2,0.2-0.4,0.4H-198.8z"/>
	<path d="M-219.2,41c-0.2-0.4-0.6-0.4-1-0.3c-1.9,0.1-3.7-1.1-4.3-2.9c-0.4-1.2-0.3-2.4,0.4-3.6c0.4-0.7,0-1.3-0.8-1.3
		c-0.1,0-0.3,0-0.4,0c-3.2,0.3-5.7,3-5.7,6.2c0,2.9,1.9,5.4,4.7,6.1c2.8,0.7,5.6-0.6,6.9-3.1C-219.1,41.7-218.9,41.4-219.2,41z
		 M-226,43.6c-2.1-0.6-3.4-2.6-3.2-4.8c0.1-1.9,1.6-3.8,3.2-4c-0.9,3.9,1.5,6.9,4.7,7.5C-222.1,43.4-224.2,44.1-226,43.6z"/>
</g>
<g>
	<path d="M-190.5-64.6c1.4,0.4,2.8-0.5,3.2-1.9c0.4-1.4-0.5-2.8-1.9-3.2c-1.4-0.4-2.8,0.5-3.2,1.9c-0.2,0.9,0,1.7,0.5,2.4
		c-0.7,0.7-1.4,1.5-2.1,2.2c-0.7,0.7-1.4,1.4-2.1,2.1c-2.4-2.4-6.1-2.5-8.6,0c-1.5-1.5-3-2.9-4.5-4.3c0.8-1.7,0.6-3-0.5-3.8
		c-1-0.8-2.3-0.7-3.3,0.1c-1.1,0.9-1.2,2.1-0.3,3.8c-0.7,0.7-1.4,1.4-2.1,2.1c-0.7,0.7-1.4,1.4-2.1,2.1c-2.5-2.5-6.2-2.5-8.6-0.1
		c-1.4-1.4-2.8-2.9-4.3-4.3c0,0,0.1-0.1,0.1-0.1c0.8-1.2,0.6-2.5-0.3-3.4c-0.9-0.9-2.3-1-3.3-0.3c-1,0.7-1.4,2.1-0.9,3.2
		c0.5,1.2,1.8,1.8,3.1,1.5c0.2,0,0.4,0,0.6,0.2c1.4,1.3,2.7,2.7,4.1,4c0.1,0.1,0.1,0.2,0.2,0.2c-1.2,2.1-1.2,4.1,0,6.2
		c-0.1,0.1-0.2,0.3-0.4,0.4c-1.2,1.2-2.5,2.5-3.7,3.7c-0.3,0.3-0.5,0.4-1,0.3c-1.4-0.3-2.8,0.6-3.1,2.1c-0.3,1.3,0.6,2.7,1.9,3.1
		c1.4,0.4,2.8-0.5,3.2-1.9c0.2-0.9,0-1.7-0.5-2.4c1.4-1.5,2.8-2.9,4.2-4.3c2.4,2.4,6.1,2.6,8.7,0.1c1.4,1.4,2.8,2.9,4.3,4.3
		c0,0.1-0.1,0.2-0.2,0.4c-0.5,0.9-0.4,1.8,0.2,2.7c0.6,0.8,1.4,1.3,2.4,1.1c0.7-0.2,1.1,0.1,1.6,0.6c0.2,0.2,0.5,0.5,0.7,0.7
		c1,1,2.1,2.1,3.1,3.1c-1.2,2.1-1.2,4.2,0,6.2c-1.5,1.5-2.9,2.9-4.3,4.3c-0.1,0.1-0.4,0.1-0.6,0.1c-1.4-0.3-2.8,0.5-3.2,2
		c-0.3,1.4,0.5,2.8,1.9,3.2c1.4,0.4,2.9-0.5,3.2-1.9c0.2-0.9,0-1.7-0.5-2.3c1.4-1.5,2.8-2.9,4.2-4.3c2.3,2.3,6,2.5,8.6,0
		c1.4,1.4,2.8,2.8,4.3,4.3c-0.6,0.9-0.7,1.6-0.5,2.5c0.4,1.4,1.9,2.2,3.3,1.8c1.4-0.4,2.2-1.8,1.8-3.2c-0.3-1.4-1.8-2.3-3.2-1.9
		c-0.3,0.1-0.4,0.1-0.6-0.2c-1.3-1.3-2.7-2.7-4-4c-0.2-0.2-0.2-0.3-0.1-0.6c1-1.8,1-3.7,0-5.5c-0.2-0.3-0.1-0.4,0.1-0.7
		c1.3-1.2,2.5-2.5,3.7-3.7c0.3-0.3,0.6-0.6,1.2-0.4c0.2,0.1,0.5,0,0.7,0c1.5-0.2,2.5-1.6,2.3-3.1c-0.3-1.4-1.7-2.4-3.1-2.1
		c-0.1,0-0.4,0-0.4,0c-1.4-1.5-2.8-2.9-4.2-4.4c1.1-1.9,1.1-4-0.1-6c1.4-1.4,2.8-2.8,4.2-4.3C-191-64.6-190.8-64.7-190.5-64.6z
		 M-232.6-65.7c-0.8,0-1.4-0.7-1.4-1.5c0-0.8,0.7-1.5,1.5-1.4c0.8,0,1.5,0.7,1.4,1.5C-231.2-66.4-231.8-65.7-232.6-65.7z
		 M-232.6-45.6c-0.8,0-1.4-0.7-1.4-1.5c0-0.8,0.7-1.4,1.5-1.4c0.8,0,1.4,0.7,1.4,1.5C-231.2-46.2-231.8-45.6-232.6-45.6z
		 M-211.3-25.5c-0.8,0-1.5-0.6-1.5-1.4c0-0.8,0.7-1.5,1.5-1.5c0.8,0,1.5,0.6,1.5,1.4C-209.9-26.1-210.5-25.5-211.3-25.5z
		 M-190.2-28.4c0.8,0,1.5,0.6,1.5,1.4c0,0.8-0.6,1.5-1.4,1.5c-0.8,0-1.5-0.6-1.5-1.4C-191.6-27.7-191-28.4-190.2-28.4z M-190.2-48.5
		c0.8,0,1.5,0.6,1.5,1.4c0,0.8-0.6,1.5-1.4,1.5c-0.8,0-1.5-0.6-1.5-1.4C-191.6-47.8-191-48.5-190.2-48.5z M-200.5-61.8
		c2.6,0,4.7,2.1,4.7,4.7c0,2.6-2.1,4.7-4.7,4.8c-2.6,0-4.8-2.1-4.8-4.7C-205.3-59.6-203.1-61.8-200.5-61.8z M-211.4-68.6
		c0.8,0,1.5,0.6,1.5,1.5c0,0.8-0.6,1.5-1.5,1.5s-1.5-0.6-1.5-1.4C-212.9-68-212.2-68.6-211.4-68.6z M-222-52.4
		c-2.6,0-4.7-2.1-4.7-4.7c0-2.6,2.1-4.7,4.7-4.7c2.6,0,4.7,2.1,4.8,4.7C-217.3-54.5-219.4-52.4-222-52.4z M-211.3-45.6
		c-0.8,0-1.5-0.7-1.5-1.5c0-0.8,0.6-1.5,1.5-1.5c0.8,0,1.5,0.6,1.5,1.4C-209.9-46.3-210.5-45.6-211.3-45.6z M-209.9-49.7
		c-0.1,0.1-0.3,0.1-0.5,0.1c-0.6,0-1.2,0-1.8-0.1c-0.2,0-0.4,0-0.5-0.1c-1.4-1.3-2.7-2.7-4-4c-0.1-0.1-0.2-0.4-0.1-0.5
		c1-2,1-4-0.1-6c1.5-1.5,2.9-2.9,4.4-4.4c0.1-0.1,0.3-0.1,0.5-0.1c0.5,0,1.1-0.1,1.7-0.1c0.2,0,0.4,0,0.5,0c1.5,1.5,2.9,3,4.4,4.4
		c0,0,0,0.1,0.1,0.1c-0.7,1.1-1,2.4-0.8,3.7c0.1,0.7,0.4,1.5,0.7,2.2c0.1,0.3,0.1,0.4-0.1,0.6C-207.2-52.3-208.5-51-209.9-49.7z
		 M-200.8-32.3c-2.6,0-4.7-2.2-4.7-4.8c0-2.6,2.2-4.7,4.8-4.7c2.6,0,4.7,2.2,4.6,4.7C-196-34.3-198.2-32.2-200.8-32.3z M-192.2-48.8
		c-0.8,1.1-0.9,2.3,0,3.5c-1.4,1.4-2.8,2.8-4.3,4.3c-1.2-1.2-2.6-1.8-4.3-1.8c-1.7,0-3.1,0.6-4.3,1.8c-1.4-1.4-2.8-2.9-4.3-4.3
		c0.7-1.2,0.8-1.8,0.1-3.1c1.5-1.5,2.9-2.9,4.3-4.4c2.7,2.6,6.4,2.2,8.7-0.1C-194.8-51.6-193.5-50.2-192.2-48.8z M-189.9-68.6
		c0.8,0,1.5,0.7,1.5,1.4c0,0.8-0.7,1.5-1.5,1.5c-0.8,0-1.5-0.7-1.5-1.5C-191.4-67.9-190.7-68.6-189.9-68.6z"/>
	<path d="M-221.8-60.4c-0.1,0.1-0.2,0.3-0.4,0.4c-1,0.5-1.7,1.2-2.2,2.2c-0.2,0.4-0.5,0.5-0.8,0.3c-0.4-0.2-0.4-0.5-0.2-0.9
		c0.6-1.2,1.5-2.1,2.7-2.7C-222.2-61.3-221.8-61-221.8-60.4z"/>
	<path d="M-224.8-56.3c0,0.6-0.3,0.9-0.7,0.9c-0.3,0-0.6-0.3-0.5-0.7c0-0.6,0.3-1,0.7-0.9C-225-57-224.8-56.7-224.8-56.3z"/>
	<path d="M-200.3-40.3c-0.1,0.1-0.2,0.3-0.4,0.4c-1,0.4-1.8,1.1-2.4,2.1c-0.2,0.3-0.5,0.4-0.8,0.3c-0.3-0.2-0.4-0.5-0.2-0.8
		c0.7-1.2,1.6-2.1,2.9-2.6C-200.7-41.1-200.3-40.8-200.3-40.3z"/>
	<path d="M-203.7-36.4c0,0.6-0.3,1-0.7,0.9c-0.4,0-0.5-0.3-0.5-0.7c0-0.6,0.3-1,0.7-0.9C-203.8-37-203.6-36.8-203.7-36.4z"/>
	<path d="M-200.3-60.5c-0.1,0.1-0.2,0.3-0.4,0.4c-1,0.5-1.7,1.3-2.2,2.3c-0.2,0.3-0.4,0.5-0.8,0.3c-0.4-0.2-0.4-0.5-0.3-0.9
		c0.6-1.2,1.5-2.2,2.7-2.8C-200.8-61.3-200.3-61.1-200.3-60.5z"/>
	<path d="M-203.4-56.2c0,0.6-0.2,0.8-0.6,0.8s-0.6-0.3-0.6-0.8c0-0.5,0.2-0.8,0.6-0.8C-203.5-57-203.3-56.8-203.4-56.2z"/>
</g>
<g>
	<path d="M-93.8,16.1c-0.1-0.2-0.1-0.5-0.1-0.7c0.1-1.6,0.1-3.3-0.5-4.8c-1.1-2.9-3.4-4.5-6.3-5.4c-0.2-0.1-0.4-0.1-0.5-0.2
		c-1.1-1-2.4-1.4-3.8-1.1c-1.1,0.2-2-0.2-2.7-1c-1.1-1.2-2.3-2.3-3.4-3.4c-0.4-0.4-0.9-0.4-1.2,0c-0.3,0.4-0.1,0.7,0.2,1
		c1.1,1.1,2.3,2.2,3.3,3.4c1.2,1.2,2.5,1.7,4.2,1.5c1.7-0.2,3.2,0.9,3.5,2.6c0.3,1.7-0.7,3.3-2.4,3.7c-0.6,0.1-0.9,0.4-1,1
		c-0.3,1.4-1.5,2.3-2.9,2.4c-1.4,0.1-2.8-0.7-3.2-2.1c-0.2-0.6-0.2-1.3-0.1-1.9c0.1-1.4-0.3-2.6-1.2-3.5c-4-4-7.9-7.9-11.9-11.8
		c-0.6-0.6-1-0.5-1.5,0.2v0.3c0.2,0.2,0.3,0.5,0.5,0.6c3.8,3.8,7.6,7.6,11.5,11.4c0.9,0.9,1.3,1.8,1.1,3.1c-0.3,2.1,0.9,4,2.8,4.8
		c0.7,0.3,1.5,0.3,2.3,0.5c0,0,0,0,0,0.1c-0.5,2.1,0.1,3.8,1.8,5.1c0.8,0.6,1.2,1.4,1.1,2.4c0,5.2,0,10.3,0,15.5
		c0,0.5,0.1,0.8,0.5,1h0.5c0.4-0.2,0.5-0.6,0.5-1c0-3.8,0-7.6,0-11.5v-0.5c0.9,0.2,1.5,0.9,1.7,1.8c0,0.3,0,0.5,0,0.8
		c0,3.1,0,6.2,0,9.3c0,0.5,0.1,0.8,0.4,1.1h0.6c0.4-0.3,0.4-0.7,0.4-1.1c0-3.2,0-6.3,0-9.5c0-1.6-0.6-2.8-2-3.5
		c-0.8-0.5-1.2-1.2-1.2-2.1c0-0.9,0-1.8-0.6-2.6c-0.4-0.5-0.8-1-1.3-1.4c-1-0.9-1.5-1.9-1.2-3.2c0.3-1.3,1.1-2.2,2.5-2.5
		c0.9-0.2,1.7-0.1,2.4,0.5c0.4,0.3,0.8,0.3,1.2,0c1.5-1,3.4-0.6,4.4,0.8c1,1.4,0.7,3.3-0.7,4.4c-1.3,1-1.9,2.2-1.9,3.8
		c0,5.1,0,10.2,0,15.3c0,0.4,0.1,0.8,0.5,1h0.5c0.4-0.3,0.5-0.6,0.5-1.1c0-5.1,0-10.2,0-15.3c0-1.1,0.4-2,1.3-2.7
		C-93.5,20.4-93,18.1-93.8,16.1z M-97,13.4c-1.1-0.3-2.1-0.2-3.1,0.3c-0.1,0.1-0.4,0.1-0.5,0.1c-0.8-0.4-1.7-0.6-2.8-0.5
		c0.2-0.2,0.3-0.3,0.4-0.4c2.7-1.2,3.6-2.8,3.1-5.6V7.1c3.1,1.2,4.7,4,4.5,7C-95.9,13.9-96.4,13.6-97,13.4z"/>
	<path d="M-106.5,40.7h-0.5c-0.2-0.2-0.5-0.5-0.6-0.7c-1.7-3.3-2.9-6.8-3.3-10.5c-0.3-3-0.4-6-0.3-9c0-1.2,0-1.2-1.1-1.6
		c-2.7-1-5.1-2.6-7.2-4.6c-0.4-0.3-0.4-0.8-0.1-1.1c0.3-0.3,0.7-0.3,1.2,0.1c1.9,1.8,4,3.2,6.5,4.2c0.5,0.2,1,0.3,1.5,0.5
		c0.6,0.2,0.7,0.4,0.7,1c0,2.8,0,5.7,0.1,8.5c0.1,4.2,1.4,8.2,3.4,11.9C-105.9,40-105.9,40.2-106.5,40.7z"/>
	<path d="M-120.9,11.7c-0.3,0.2-0.8,0.2-1-0.2c-0.5-0.7-1.1-1.3-1.5-2.1c-0.7-1-1.3-2.1-1.9-3.1V5.9c0.5-0.7,1-0.6,1.5,0.1
		c0.9,1.4,1.9,2.8,2.8,4.3c0.1,0.1,0.2,0.3,0.3,0.4C-120.5,11.1-120.6,11.5-120.9,11.7z"/>
	<path d="M-91,40c0,0.3-0.3,0.5-0.5,0.8H-92c-0.4-0.3-0.5-0.6-0.5-1c0-0.9,0-1.9,0-2.8c0-0.7,0.6-1,1.1-0.7c0.2,0.1,0.4,0.4,0.4,0.6
		C-90.9,37.8-90.9,38.9-91,40z"/>
	<path d="M-90.6,16.4c0,2.4-0.1,4.8-0.2,7.2H-91v9.4c0,0.8-0.2,1.1-0.7,1.1c-0.5,0-0.7-0.4-0.8-1.1c-0.1-4.8,0.1-9.7,0.3-14.5
		c0.1-2.4,0-4.7-0.3-7.1c-0.4-2.7-1.6-4.9-3.2-7C-98.1,1.2-101-1.5-104-4c-1.6-1.3-3.3-2.5-5-3.8c-0.4-0.3-0.6-0.7-0.4-1
		c0.2-0.4,0.7-0.5,1.2-0.2c1.3,1,2.7,1.9,4,2.9c3.4,2.7,6.6,5.6,9.3,9c1.7,2.1,3.1,4.4,3.7,7.1C-90.8,12.1-90.6,14.3-90.6,16.4z"/>
	<path d="M-79.4,12.9c-0.9-0.4-1.8-0.9-2.6-1.4c-1.5-0.8-1.3-0.9-2.5,0.4c-0.2,0.2-0.4,0.3-0.7,0.2c-1-0.4-2-0.7-3-1.1
		c-0.4-0.1-0.7-0.1-1,0.2c-0.2,0.4-0.1,0.7,0.1,1c1.4,1.7,2.9,3.5,4.3,5.2c0.5,0.5,0.9,0.5,1.3,0c0.2-0.2,0.4-0.5,0.6-0.7
		c0.9,0.8,1.8,1.6,2.6,2.4c0.3,0.2,0.5,0.4,0.9,0.3c0.4-0.2,0.5-0.5,0.5-0.9c0-1.5,0-3.1,0-4.6C-78.7,13.5-78.9,13.1-79.4,12.9z
		 M-81,16.4c-0.4-0.4-0.8-0.8-1.2-1.1c-0.5-0.4-0.9-0.4-1.3,0.1c-0.2,0.2-0.3,0.4-0.5,0.6c-0.1-0.1-0.1-0.1-0.2-0.2
		c-0.6-0.8-1.3-1.6-1.9-2.4c0.4,0.1,0.7,0.2,1.1,0.4c0.4,0.2,0.8,0.1,1.1-0.3c0.3-0.3,0.5-0.6,0.8-0.9c0.9,0.5,1.8,0.9,2.7,1.4
		c0.1,0,0.2,0.2,0.2,0.3c0,0.9,0,1.8,0,2.8C-80.5,16.8-80.8,16.6-81,16.4z"/>
	<path d="M-75.8,5.5c-1.1-1.1-2.2-2.2-3.3-3.3c-0.3-0.3-0.7-0.4-1.1-0.3c-1,0.3-1.9,0.6-2.9,0.9c-1.4,0.5-1.6,0.3-1.4,2
		c0,0.3-0.1,0.5-0.4,0.6c-1,0.4-1.9,0.9-2.8,1.3c-0.4,0.2-0.6,0.4-0.5,0.8c0.1,0.4,0.4,0.6,0.8,0.6c2.3,0.2,4.5,0.5,6.8,0.7
		c0.5,0,0.9-0.3,0.9-0.8c0-0.4-0.1-0.7-0.1-1.1c0.2,0,0.3,0,0.5,0c1,0,2.1-0.1,3.1-0.1c0.4,0,0.7-0.1,0.8-0.5
		C-75.4,6.1-75.6,5.8-75.8,5.5z M-80.5,5.6c-0.8,0-1.1,0.3-1,1.2c0,0.2,0,0.4,0,0.7c-1.1-0.1-2.2-0.2-3.2-0.3c0,0,0-0.1,0-0.1
		c0.3-0.1,0.6-0.3,0.9-0.4c0.6-0.2,0.8-0.6,0.7-1.2c-0.1-1,0-1,0.9-1.3c0.6-0.2,1.2-0.4,1.8-0.6c0.1,0,0.3-0.1,0.4,0
		c0.7,0.6,1.3,1.3,2,2C-78.9,5.6-79.7,5.6-80.5,5.6z"/>
	<path d="M-82.5-3.9c-0.2-0.3-0.5-0.4-0.8-0.4c-1.6,0-3.2,0-4.7,0c-0.5,0-0.8,0.2-1,0.6c-0.4,0.9-0.9,1.8-1.4,2.7
		c-0.8,1.5-0.9,1.3,0.4,2.5c0.3,0.2,0.3,0.4,0.2,0.7c-0.4,1-0.7,2-1.1,3c-0.1,0.4-0.1,0.7,0.2,0.9c0.3,0.2,0.6,0.2,0.9-0.1
		c1.8-1.5,3.6-2.9,5.3-4.4c0.5-0.4,0.4-0.8,0-1.2c-0.3-0.2-0.5-0.4-0.8-0.7c0.8-0.9,1.6-1.8,2.5-2.7C-82.4-3.3-82.3-3.6-82.5-3.9z
		 M-86.4-1c-0.7,0.8-0.7,1,0.1,1.6c0.1,0.1,0.3,0.2,0.4,0.4c-0.4,0.4-0.9,0.7-1.3,1.1c-0.4,0.4-0.8,0.7-1.3,1c0,0,0,0-0.1-0.1
		c0.1-0.4,0.3-0.7,0.4-1.1c0.2-0.4,0.1-0.8-0.3-1.1c-0.3-0.2-0.5-0.5-0.9-0.8c0.5-0.9,1-1.8,1.5-2.8c0-0.1,0.2-0.1,0.3-0.1
		c0.9,0,1.8,0,2.7,0C-85.4-2.2-85.9-1.6-86.4-1z"/>
	<path d="M-113.7-2.2c-0.1,0.2-0.4,0.3-0.6,0.5c-0.3-0.2-0.5-0.3-0.6-0.4c-1.9-1.9-3.8-3.8-5.7-5.7c-0.4-0.4-0.4-0.8-0.1-1.1
		c0.3-0.3,0.8-0.3,1.2,0.1c1.9,1.9,3.8,3.8,5.7,5.7C-113.6-2.9-113.5-2.6-113.7-2.2z"/>
</g>
<g>
	<path d="M-41.7,73.8c-0.1-0.2-0.2-0.4-0.2-0.7c0-1.4,0-2.8,0-4.2c0-1.5-0.8-2.5-2.1-3.1c-0.2-0.1-0.3-0.2-0.4-0.4
		c-0.6-1.4-1.6-2.1-3.1-2.1c-2,0-4,0-5.9,0c-3.2,0-5.6,2.4-5.6,5.6c0,1.4,0,2.8,0,4.1c0,0.2-0.1,0.5-0.2,0.7
		c-1.2,1.6-0.4,3.9,1.6,4.3c0.5,0.1,1,0.1,1.5,0.1c0.1,0,0.3,0,0.4,0.1c0.5,0.6,1,1.2,1.5,1.8c-0.4,0.1-0.9,0.3-1.4,0.4
		c-2,0.6-3.4,2.4-3.4,4.4c0,3.5,0,7,0,10.5c0,1,0.7,1.9,1.7,2.1c0.4,0.1,0.9,0.1,1.4,0.1c0,0,0,0.1,0,0.2c0,3,0,6.1,0,9.1
		c0,0.3-0.1,0.4-0.3,0.5c-1.2,0.7-1.9,1.8-2,3.2c-0.1,0.7,0.3,1,1,1c4.6,0,9.1,0,13.7,0c0.7,0,1-0.3,0.9-1c-0.1-1.4-0.8-2.5-2-3.2
		c-0.3-0.2-0.4-0.3-0.4-0.7c0-2.9,0-5.8,0-8.8v-0.5c0.1,0,0.2,0,0.2,0c1.7,0.3,2.9-0.7,2.9-2.4c0-3.3,0-6.7,0-10
		c0-2.2-1.4-4-3.5-4.7c-0.4-0.1-0.9-0.3-1.3-0.4c0.3-0.3,0.7-0.7,0.9-1c0.4-0.8,1-1,1.9-0.9c1.1,0.1,1.9-0.5,2.4-1.5
		C-40.9,75.7-41,74.7-41.7,73.8z M-58,76.1c-0.3-0.4-0.3-0.8,0-1.2c0.3-0.5,0.8-0.7,1.3-0.6c0.1,0.8,0.1,1.5,0.2,2.3
		C-57.1,76.7-57.6,76.6-58,76.1z M-56.4,96.1c-0.5,0.2-1-0.2-1-0.8c0-2.3,0-4.6,0-7h1.5c0,0.1,0,0.2,0,0.3c0,2.2,0,4.4,0,6.6
		C-55.9,95.6-56,95.9-56.4,96.1z M-51.2,110.1h-5.2c0.1-0.7,0.9-1.5,1.6-1.5c1.2,0,2.4,0,3.7,0V110.1z M-51.2,97.7v9.3h-3.1V95.4
		h7.7V107h-3.1v-9.3H-51.2z M-44.4,110.1h-5.2v-1.5c1.2,0,2.5,0,3.7,0C-45.3,108.6-44.6,109.4-44.4,110.1z M-43.4,95.3
		c0,0.5-0.3,0.8-0.8,0.8c-0.4,0-0.8-0.3-0.8-0.8c0-2.3,0-4.6,0-7h1.5C-43.4,90.7-43.4,93-43.4,95.3z M-43.5,86.7c-0.4,0-0.7,0-1.1,0
		c-2,0-2,0-2,2c0,1.5,0,3,0,4.5v0.5h-7.8v-6c0-0.8-0.3-1-1-1c-0.7,0-1.4,0-2,0c-0.4-3,0.4-4.6,4-5.2c0.6,1.3,1.5,2.1,2.9,2.1
		c1.4,0,2.4-0.8,3-2.1C-44.6,82-43.1,83.1-43.5,86.7z M-51.8,81.2h2.7c-0.3,0.5-0.8,0.8-1.4,0.8C-51.1,82.1-51.5,81.8-51.8,81.2z
		 M-45.9,76.1c-0.5,2.3-2.7,3.8-5,3.6c-2.4-0.3-4.2-2.2-4.2-4.6c0-0.5,0-1,0-1.6c0.7,0,1.3,0,1.9,0c2.4,0.1,4.4-0.6,6-2.5
		c0.5,0.7,0.9,1.3,1.4,1.9c0,0.1,0.1,0.1,0.1,0.2C-45.8,74.1-45.7,75.1-45.9,76.1z M-46.8,69.1c-0.3-0.4-0.9-0.3-1.3,0.2
		c-0.2,0.3-0.4,0.7-0.7,1c-1,1.1-2.2,1.7-3.6,1.7c-1.1,0-2.2,0-3.3,0c-0.7,0-0.8,0.1-1.1,0.8h-0.7c0-0.3,0-0.6,0-0.9
		c0-1.2-0.1-2.5,0.1-3.7c0.3-1.8,1.9-3.2,3.7-3.2c2.1,0,4.2,0,6.2,0c0.9,0,1.5,0.6,1.6,1.5c0.1,0.6,0.3,0.8,0.9,0.9
		c0.8,0.1,1.4,0.6,1.5,1.4c0,1.3,0,2.7,0,4.1H-44C-45,71.5-45.8,70.3-46.8,69.1z M-42.9,76.1c-0.4,0.6-0.9,0.6-1.5,0.5
		c0.1-0.8,0.1-1.5,0.2-2.3c0.6-0.1,1,0,1.3,0.5C-42.6,75.3-42.6,75.7-42.9,76.1z"/>
	<path d="M-31.5,98.4c-0.8,0.2-1.6,0.5-2.3,0.7c-1,0.3-2,0.6-3,0.9c-0.5,0.1-0.8,0-1-0.4c-0.3-0.5-0.7-1-1-1.5
		c-1.1,0.9-2.2,1.7-3.2,2.6c-0.3-0.4-0.6-0.8-1-1.2c1.3-1.1,2.6-2.1,3.9-3.1c0.4-0.3,0.8-0.2,1.1,0.2c0.3,0.5,0.7,1,1,1.5
		c0.2,0.3,0.4,0.4,0.7,0.3c1.5-0.4,2.9-0.8,4.5-1.3C-31.8,97.4-31.7,97.9-31.5,98.4z"/>
	<path d="M-59.9,89.6c-0.5,0.2-0.9,0.4-1.4,0.6c-0.4-1-0.8-2-1.2-3c-0.5,0.3-0.9,0.6-1.4,0.9c-0.6,0.4-0.9,0.3-1.3-0.2
		c-1-1.2-2-2.5-3-3.8c0.4-0.3,0.8-0.7,1.2-1c0.9,1.1,1.8,2.2,2.7,3.3c0.5-0.4,1.1-0.7,1.6-1.1c0.6-0.4,1.1-0.3,1.4,0.4
		C-60.9,87.1-60.4,88.3-59.9,89.6z"/>
	<path d="M-34.3,104.9c-0.4,0.3-0.7,0.7-1.2,1.1c-0.3-0.3-0.6-0.7-0.9-1c-0.5-0.5-0.9-0.9-1.4-1.4c-0.2-0.2-0.3-0.2-0.6,0
		c-0.5,0.3-0.9,0.7-1.4,0.9c-0.3,0.1-0.6,0.2-0.9,0.1c-1-0.5-2-1-3.1-1.5c0.2-0.5,0.4-0.9,0.7-1.4c0.8,0.4,1.6,0.8,2.3,1.2
		c0.3,0.1,0.5,0.1,0.7,0c0.5-0.4,1-0.7,1.6-1.1c0.3-0.2,0.7-0.3,1,0C-36.4,102.8-35.4,103.9-34.3,104.9z"/>
	<path d="M-60.6,91.4V93c-0.8,0-1.6,0-2.3,0c-0.2,0-0.5,0.1-0.6,0.3c-0.6,0.8-1.2,1.6-1.8,2.4c-0.4,0.5-0.7,0.6-1.2,0.3
		c-1-0.5-1.9-1-3-1.5c0.2-0.5,0.4-0.9,0.7-1.4c0.9,0.4,1.7,0.8,2.5,1.3c0.6-0.8,1.2-1.6,1.8-2.4c0.3-0.4,0.6-0.5,1.1-0.5
		C-62.5,91.4-61.6,91.4-60.6,91.4z"/>
</g>
<g>
	<path d="M-186.5,85c-0.5-5.3-2.5-10-6.1-13.9c-4.7-5.3-10.6-8.1-17.7-8.5c-4.9-0.2-9.5,0.9-13.8,3.5c-6.5,4-10.5,9.7-11.8,17.2
		c-0.2,0.9-0.3,1.9-0.4,2.8V89c0.1,1,0.2,1.9,0.4,2.8c1.4,7.5,5.4,13.2,11.8,17.2c3.3,2,7,3.2,10.9,3.4c0.1,0,0.3,0,0.4,0.1h2.9
		c0.8-0.1,1.7-0.2,2.5-0.3c5.2-0.9,9.8-3.1,13.5-6.8C-188.2,99.7-185.7,92.9-186.5,85z M-211.3,109.8c-12.3,0-22.2-10-22.2-22.3
		c0-12.3,10-22.2,22.3-22.2c12.3,0,22.2,10,22.2,22.3C-189,99.8-199,109.8-211.3,109.8z"/>
	<path d="M-199,97.3c-0.7,0.5-1.4,1.1-2.1,1.6c-2.6-3.2-6-4.9-10.1-4.9c-4.1,0-7.5,1.7-10.2,4.9c-0.7-0.5-1.4-1.1-2.1-1.6
		C-217.6,89.6-205.5,89-199,97.3z"/>
	<path d="M-216.9,82c0,1.5-1.2,2.7-2.7,2.7c-1.5,0-2.7-1.2-2.7-2.7c0-1.5,1.2-2.7,2.7-2.7C-218.1,79.3-216.9,80.5-216.9,82z"/>
	<path d="M-200.2,82c0,1.5-1.2,2.7-2.7,2.7c-1.5,0-2.7-1.2-2.7-2.7c0-1.5,1.2-2.7,2.7-2.7C-201.4,79.3-200.2,80.5-200.2,82z"/>
</g>
<g>
	<path d="M49.3-52.5c-2.1-9.7-10.2-17.4-20-19.1c-0.9-0.2-1.8-0.3-2.7-0.4h-3.1c-0.9,0.1-1.9,0.2-2.8,0.4C10.6-70,2.3-61.9,0.5-51.9
		c-0.2,1.1-0.3,2.2-0.5,3.3v3.1c0.2,1.1,0.3,2.2,0.5,3.3c3.1,16.1,21,24.9,35.7,17.5C46.4-29.9,51.8-41.3,49.3-52.5z M24.9-23.6
		c-13,0-23.5-10.6-23.5-23.5c0-13,10.6-23.5,23.5-23.5C38-70.5,48.5-60,48.4-47C48.4-34,37.9-23.5,24.9-23.6z"/>
	<path d="M25-69.1c-12.2,0-22.1,9.8-22.1,22c0,12.2,9.8,22,22,22C37.1-25,47-34.8,47-47C47-59.2,37.2-69.1,25-69.1z M24.9-26.5
		c-11.4,0-20.6-9.3-20.6-20.6c0-11.4,9.3-20.6,20.6-20.6c11.4,0,20.6,9.3,20.6,20.6C45.5-35.7,36.3-26.4,24.9-26.5z"/>
	<path d="M32.2-38.3c-0.1-0.8-0.8-1.4-1.5-1.5c-2-0.1-4,0-5.6,1.3c-0.6-0.3-1.2-0.6-1.7-0.9c-1.2-0.5-2.4-0.5-3.7-0.5
		c-1.2,0-1.9,0.7-2,1.9c0,0.9,0,1.8,0.2,2.6c0.4,2.3,1.7,3.8,4,4.4c2,0.5,4.1,0.5,6.1,0c1.4-0.3,2.6-1.1,3.3-2.4
		C32.2-34.9,32.4-36.6,32.2-38.3z M24.8-32.1c-0.2,0-0.5,0-0.7,0c-1,0-2-0.2-2.9-0.6c-1.3-0.7-1.8-1.8-2-3.1
		c-0.1-0.7-0.1-1.4-0.1-2.1c0-0.2,0.2-0.5,0.4-0.5c1.2-0.1,2.3,0,3.4,0.4c1.5,0.6,2.2,1.8,2.4,3.3c0.1,0.6,0.1,1.2,0.1,1.8
		C25.4-32.2,25.4-32.1,24.8-32.1z M30.2-34.4c-0.6,1.3-1.9,2.1-3.4,2.2c0.1-1.8-0.1-3.5-1-5.1c0.8-0.7,1.8-0.9,2.8-1
		c0.5-0.1,1.1,0,1.6,0c0.3,0,0.5,0.2,0.5,0.5C30.8-36.7,30.8-35.5,30.2-34.4z"/>
	<path d="M25.3-58.6c-1.4,0-2.5,1.1-2.5,2.5c0,1,0,2,0,3c0,1.4,1.2,2.5,2.6,2.5c1.4,0,2.5-1.1,2.5-2.5c0-0.5,0-1,0-1.5
		c0-0.5,0-1,0-1.5C27.8-57.5,26.6-58.6,25.3-58.6z M26.3-54.6c0,0.5,0,1,0,1.5c0,0.6-0.5,1-1,1.1c-0.6,0-1.1-0.4-1.1-1.1
		c0-1,0-2,0-2.9c0-0.6,0.5-1.1,1.1-1.1c0.6,0,1,0.5,1,1.1V-54.6z"/>
	<path d="M21.6-54.6c0-0.5,0-1,0-1.6c-0.1-1.4-1.2-2.5-2.6-2.5c-1.4,0-2.5,1.1-2.5,2.5c0,1,0,2,0,3c0,1.3,1.1,2.3,2.3,2.4
		c1.3,0.1,2.5-0.8,2.7-2.1C21.7-53.3,21.6-54,21.6-54.6L21.6-54.6z M20.2-54.6c0,0.5,0,0.9,0,1.4c0,0.7-0.5,1.2-1.1,1.2
		c-0.6,0-1-0.5-1-1.2c0-0.9,0-1.8,0-2.7c0-0.7,0.4-1.2,1-1.2c0.6,0,1.1,0.5,1.1,1.2C20.2-55.6,20.2-55.1,20.2-54.6z"/>
	<path d="M12.4-43.2c0,0.4-0.1,0.8-0.6,0.9c-0.4,0.1-0.7-0.1-1-0.4c-0.5-0.8-1.1-1.6-1.8-2.4v1.8c0,0.8-0.2,1.2-0.7,1.2
		s-0.7-0.4-0.7-1.2v-4c0-0.4,0-0.8,0.5-0.9c0.5-0.1,0.7,0.1,1,0.5c0.6,0.8,1.1,1.7,1.8,2.6c0-0.8,0-1.5,0-2.2c0-0.6,0.3-0.9,0.7-0.9
		c0.4,0,0.7,0.3,0.7,0.9C12.4-46.1,12.4-44.6,12.4-43.2z"/>
	<path d="M32.5-43.5c-0.3-0.4-0.6-0.7-1-1.1c0.1-0.1,0.2-0.1,0.3-0.2c0.7-0.5,1.1-1.3,0.9-2c-0.2-0.8-0.8-1.5-1.7-1.6
		c-0.5-0.1-1,0-1.5,0c-0.5,0-0.8,0.3-0.8,0.8c0,1.5,0,3,0,4.5c0,0.5,0.3,0.8,0.7,0.8c0.4,0,0.7-0.3,0.7-0.8c0-0.3,0-0.5,0-0.9
		c0.5,0.5,0.8,1,1.2,1.3c0.4,0.4,0.8,0.4,1.1,0.1C32.8-42.7,32.8-43.1,32.5-43.5z M31.2-46.2c-0.3,0.1-0.6,0.2-0.9,0.4V-47
		c0.4,0.1,0.7,0.2,0.9,0.4C31.2-46.6,31.3-46.2,31.2-46.2z"/>
	<path d="M18.4-43.3c-0.6-1.5-1.1-3-1.7-4.5c-0.1-0.4-0.4-0.6-0.8-0.6c-0.4,0-0.7,0.2-0.8,0.6c-0.2,0.6-0.4,1.1-0.6,1.7
		c-0.4,1-0.7,1.9-1.1,2.9c-0.2,0.4-0.1,0.7,0.3,0.9c0.4,0.2,0.8,0.1,0.9-0.3c0.2-0.6,0.6-0.5,1-0.5c0.2,0,0.5,0,0.7,0
		c0.4,0,0.7,0,0.8,0.5c0.1,0.3,0.4,0.5,0.8,0.4c0.4-0.1,0.5-0.4,0.5-0.8C18.4-43.1,18.4-43.2,18.4-43.3z M15.4-44.5
		c0.2-0.4,0.3-0.7,0.5-1.2c0.2,0.5,0.3,0.8,0.5,1.2H15.4z"/>
	<path d="M27.7-44.1c-0.1,1.1-1.3,1.9-2.4,1.9c-1.2,0-2.2-1-2.3-2c0-0.6,0-1.1,0-1.7c0-0.5,0-1.1,0-1.7c0-0.5,0.3-0.8,0.7-0.8
		c0.4,0,0.8,0.3,0.8,0.8c0,1,0,2,0,3c0,0.5,0.3,0.9,0.8,0.9c0.6,0,1-0.3,1-0.9c0-0.9,0-1.8,0-2.7c0-0.2,0-0.3,0-0.4
		c0.1-0.4,0.3-0.6,0.7-0.6c0.4,0,0.7,0.3,0.7,0.7C27.7-46.5,27.7-45.3,27.7-44.1z"/>
	<path d="M38.4-43.3c-0.6-1.5-1.1-3-1.7-4.5c-0.1-0.4-0.4-0.6-0.8-0.6c-0.4,0-0.7,0.2-0.8,0.6c-0.2,0.5-0.4,1.1-0.6,1.6
		c-0.4,1-0.7,1.9-1.1,2.9c-0.2,0.4-0.1,0.8,0.3,1c0.4,0.2,0.8,0.1,0.9-0.3c0.2-0.6,0.6-0.5,1-0.5c0.2,0,0.4,0,0.7,0
		c0.4,0,0.7,0,0.8,0.5c0.1,0.3,0.4,0.5,0.8,0.4c0.3-0.1,0.5-0.3,0.5-0.8C38.5-43,38.5-43.2,38.4-43.3z M35.5-44.5
		c0.1-0.4,0.3-0.8,0.5-1.2c0.2,0.5,0.3,0.8,0.5,1.2H35.5z"/>
	<path d="M15.6-57.7c0,2.1,0,4.1,0,6.1c0,0.5-0.3,0.8-0.7,0.8c-0.4,0-0.7-0.3-0.7-0.8c0-1.6,0-3.3,0-4.9c0-0.2,0-0.3,0-0.6
		c-0.3,0-0.5,0-0.7,0c-0.4,0-0.6-0.3-0.6-0.6c0-0.4,0.2-0.7,0.5-0.7c0.6-0.1,1.1-0.1,1.7,0C15.4-58.4,15.6-58.1,15.6-57.7z"/>
	<path d="M22.1-47.6c0,0.4-0.3,0.6-0.6,0.7c-0.2,0-0.4,0-0.6,0v1.3c0,0.9,0,1.8,0,2.6c0,0.5-0.3,0.8-0.7,0.8c-0.4,0-0.7-0.3-0.7-0.8
		c0-1.3,0-2.6,0-3.9c-0.3,0-0.4,0-0.6,0c-0.4,0-0.6-0.3-0.7-0.7c0-0.4,0.2-0.7,0.6-0.7c1,0,2,0,2.9,0C22-48.3,22.2-48,22.1-47.6z"/>
	<path d="M36.5-57.7c0,0.1-0.1,0.2-0.1,0.4c-0.8,1.9-1.6,3.8-2.4,5.6c-0.2,0.4-0.4,0.6-0.8,0.6c-0.5,0-0.8-0.5-0.6-1
		c0.8-2,1.7-4,2.5-6c0.2-0.4,0.5-0.5,0.8-0.4C36.3-58.3,36.5-58.1,36.5-57.7z"/>
	<path d="M31.2-58.7c-1,0-1.8,0.9-1.8,2c0,1.1,0.8,2,1.8,2c1,0,1.8-0.9,1.8-2C33-57.8,32.2-58.7,31.2-58.7z M31.2-56.2
		c-0.1-0.2-0.3-0.4-0.3-0.5c0-0.2,0.2-0.4,0.4-0.5c0.1,0.2,0.3,0.3,0.5,0.6C31.5-56.5,31.4-56.3,31.2-56.2z"/>
	<path d="M37.8-54.7c-1,0-1.8,0.8-1.9,2c0,1.1,0.8,2,1.8,2c1,0,1.9-0.9,1.9-2C39.6-53.7,38.8-54.6,37.8-54.7z M37.7-52.1
		c-0.1-0.2-0.3-0.4-0.3-0.6c0-0.2,0.2-0.3,0.3-0.5c0.2,0.2,0.3,0.3,0.5,0.6C38-52.4,37.9-52.3,37.7-52.1z"/>
	<path d="M42.2-42.9c0,0.4-0.3,0.7-0.7,0.8c-0.5,0-1.1,0-1.6,0c-0.5,0-0.8-0.3-0.8-0.7c0-1.6,0-3.2,0-4.7c0-0.4,0.3-0.7,0.7-0.7
		c0.4,0,0.7,0.3,0.7,0.8c0,1.1,0,2.2,0,3.3v0.6c0.3,0,0.6,0,0.9,0C42-43.6,42.2-43.4,42.2-42.9z"/>
</g>
<g>
	<path d="M49.7,22.1c-0.8-6.7-3.8-12.3-9.1-16.5c-0.6-0.5-1.2-0.9-1.8-1.3c-0.3-0.2-0.7-0.4-1-0.6c-0.3-0.2-0.6-0.4-0.9-0.5
		c0,0,0,0,0,0c-0.2-0.1-0.4-0.2-0.6-0.3c-0.2-0.1-0.4-0.2-0.6-0.3c0,0,0,0,0,0c-0.2-0.1-0.5-0.2-0.7-0.3c-0.6-0.3-1.2-0.5-1.8-0.7
		c-0.2-0.1-0.4-0.2-0.6-0.2c-0.4-0.1-0.8-0.3-1.1-0.4c-0.1,0-0.2-0.1-0.3-0.1c-0.1,0-0.2-0.1-0.3-0.1c0,0,0,0-0.1,0
		c-0.2,0-0.4-0.1-0.6-0.1c-0.3-0.1-0.5-0.1-0.8-0.1c0,0,0,0,0,0c-0.1,0-0.2,0-0.3-0.1c-0.2,0-0.4-0.1-0.6-0.1c-0.1,0-0.2,0-0.4,0
		c-0.2,0-0.4-0.1-0.7-0.1c-0.3,0-0.5,0-0.8,0c-0.3,0-0.6,0-0.9,0h-0.9c-0.4,0-0.8,0-1.2,0c0,0-0.1,0-0.1,0c-0.2,0-0.5,0-0.7,0
		c-0.1,0-0.3,0-0.4,0c-0.4,0-0.7,0.1-1.1,0.2c-0.1,0-0.3,0-0.4,0.1c-0.1,0-0.1,0-0.2,0c-0.2,0-0.4,0.1-0.7,0.1c0,0,0,0-0.1,0
		c-0.3,0.1-0.5,0.1-0.8,0.2c-0.1,0-0.2,0-0.2,0.1c0,0-0.1,0-0.1,0c-0.4,0.1-0.7,0.2-1.1,0.3c-0.4,0.1-0.8,0.3-1.3,0.4
		c-0.4,0.1-0.8,0.3-1.3,0.5c-8.3,3.4-13.3,9.8-15,18.6c-0.2,0.9-0.3,1.9-0.4,2.8v3.1c0.1,1,0.2,1.9,0.4,2.8c1.6,9.7,9.6,18,19.3,20
		c1.1,0.2,2.3,0.3,3.4,0.5c0.1,0,0.2,0,0.3,0.1h3.1c0.1,0,0.3-0.1,0.4-0.1c2.1-0.2,4.1-0.6,6.1-1.2C44.2,44.8,51.1,33.9,49.7,22.1z
		 M24.9,48.1C12.2,48,1.9,37.7,2,25C2,12.3,12.3,2,25,2.1c12.7,0,23,10.4,23,23S37.6,48.1,24.9,48.1z"/>
	<path d="M24.9,4.4c-11.4,0-20.7,9.3-20.6,20.7c0,11.4,9.3,20.7,20.7,20.6c11.4,0,20.6-9.3,20.6-20.6C45.6,13.7,36.3,4.4,24.9,4.4z
		 M11.6,12c7.4-7.6,19-7.2,25.8-0.9c-3.8,3.8-7.6,7.6-11.4,11.4c0-0.2,0-0.4,0-0.6c-0.1-1.4,0-2.8-0.3-4.2c-0.8-3.6-4.2-6-8-5.8
		c-3.5,0.2-6.5,3.1-6.9,6.6c0,0.4-0.1,0.8-0.1,1.2c0,3.2,0,6.4,0,9.5c0,2.4,0.4,4.5,2.1,6.3l-1.8,1.8C5,31.1,4.1,19.6,11.6,12z
		 M23.4,33.1c-1.3,2.6-4.4,3.8-7.1,2.8c-0.1-0.1-0.3-0.1-0.4-0.2c2.7-2.7,5.4-5.4,8.1-8C23.9,29.4,24.3,31.3,23.4,33.1z M12.9,18.2
		c0.5-2.8,3.3-4.6,6.1-4.3c2.8,0.3,4.9,2.6,5,5.4c0,1.6,0,3.1,0,4.7H12.8c0,0-0.1-0.1-0.1-0.1C12.8,22.1,12.6,20.1,12.9,18.2z
		 M22.4,26.1c-2.7,2.7-5.5,5.5-8.3,8.3c-0.9-0.9-1.4-2.1-1.5-3.4c-0.1-1.6,0-3.2,0-4.9H22.4z M38.3,38.2c-7.4,7.5-18.9,7.2-25.8,0.8
		c0.6-0.6,1.3-1.3,1.9-1.9c1.7,1,3.7,1.3,5.7,0.8c2-0.5,3.6-1.7,4.7-3.5c2.5,4.2,7.7,4.7,10.9,2.2c3.2-2.5,3.8-7,1.3-10.2
		c-2.5-3.3-7.6-4-11-0.6c0,0-0.1,0-0.1-0.1c0.1-0.2,0.2-0.4,0.3-0.6c3-3,6-6,9-9c1.2-1.2,2.4-2.4,3.6-3.6
		C45,19.1,45.8,30.5,38.3,38.2z M26,30.8c0-2.9,2.4-5.3,5.3-5.3c2.9,0,5.3,2.4,5.3,5.3c0,3-2.4,5.4-5.4,5.3
		C28.4,36.2,26,33.8,26,30.8z"/>
</g>
<g>
	<path d="M-100.8,83.9v1.6c-0.1,0.3-0.2,0.7-0.2,1c-0.3,1.3-1,2.4-2,3.3c-5.2,5.1-10.3,10.3-15.5,15.5c-1.6,1.6-3.2,3.2-4.8,4.8
		c-1.2,1.2-2.6,2-4.3,2.3c0,0-0.1,0-0.1,0.1h-1.7c-0.3-0.1-0.7-0.1-1-0.2c-1.2-0.3-2.2-0.9-3.1-1.8c-1.6-1.6-3.1-3.1-4.7-4.7
		c-0.5-0.5-0.5-1-0.1-1.5c0.4-0.4,1-0.4,1.5,0.1c1.5,1.5,2.9,2.9,4.4,4.4c2.3,2.3,5.3,2.3,7.5,0c6.8-6.8,13.6-13.6,20.4-20.4
		c2.2-2.2,2.3-5.2,0-7.5c-5-4.9-9.9-9.9-14.8-14.8c-2.2-2.2-5.2-2.2-7.5,0c-6.8,6.8-13.7,13.6-20.5,20.4c-2.2,2.2-2.2,5.2,0,7.4
		c1.3,1.3,2.7,2.7,4,4c0.2,0.2,0.4,0.6,0.4,0.9c0,0.3-0.2,0.7-0.5,0.8c-0.2,0.1-0.6,0-1,0c-0.1,0-0.1-0.1-0.2-0.1
		c-1.6-1.6-3.3-3.2-4.8-4.9c-0.9-0.9-1.3-2.1-1.5-3.3c0-0.1-0.1-0.2-0.1-0.3v-1.6c0.1-0.3,0.1-0.7,0.2-1c0.4-1.3,1-2.4,2-3.3
		c4.1-4.1,8.3-8.2,12.4-12.4c2.7-2.7,5.4-5.3,8-8c2.9-3,7.5-3,10.4,0c4.9,5,9.8,9.9,14.8,14.8c1.2,1.2,1.9,2.5,2.1,4.1
		C-100.9,83.8-100.8,83.9-100.8,83.9z"/>
	<path d="M-116.6,73.9c-0.2,0.3-0.3,0.6-0.5,0.8c-1.7,1.7-3.4,3.5-5.2,5.2c-5.4,5.4-10.8,10.8-16.3,16.3c-0.2,0.2-0.5,0.4-0.8,0.5
		c-0.4,0.1-0.7-0.1-0.9-0.5c-0.2-0.4-0.2-0.7,0.1-1.1c0.1-0.1,0.2-0.2,0.3-0.3c7.1-7.1,14.3-14.3,21.5-21.4c0.3-0.3,0.7-0.6,1.2-0.5
		C-117,73-116.7,73.3-116.6,73.9z"/>
	<path d="M-130.1,74.1c-1.7,0-3.1,1.4-3.1,3.1c0,1.7,1.4,3,3.1,3c1.7,0,3-1.4,3-3.1C-127.1,75.5-128.4,74.1-130.1,74.1z
		 M-130.2,78.3c-0.6,0-1.1-0.5-1.1-1.1c0-0.6,0.5-1.1,1.1-1.1c0.6,0,1.1,0.5,1.1,1.2C-129,77.8-129.5,78.3-130.2,78.3z"/>
	<path d="M-124.1,68.1c-1.7,0-3.1,1.3-3,3.1c0,1.7,1.4,3.1,3.1,3.1c1.7,0,3.1-1.4,3.1-3.1C-121,69.5-122.4,68.1-124.1,68.1z
		 M-124.1,72.3c-0.6,0-1.1-0.5-1.1-1.1c0-0.6,0.5-1.1,1.1-1.1c0.6,0,1.1,0.5,1.2,1.1S-123.5,72.3-124.1,72.3z"/>
	<path d="M-115.2,89c-1.7,0-3.1,1.4-3.1,3c0,1.7,1.4,3.1,3.1,3.1c1.7,0,3.1-1.4,3.1-3.1S-113.6,89-115.2,89z M-115.3,93.2
		c-0.6,0-1.1-0.5-1.1-1.1c0-0.6,0.5-1.1,1.1-1.1s1.1,0.5,1.1,1.1C-114.2,92.7-114.6,93.2-115.3,93.2z"/>
	<path d="M-127.3,101c-1.7,0-3.1,1.4-3.1,3.1c0,1.7,1.4,3.1,3.1,3.1c1.7,0,3.1-1.4,3.1-3.1C-124.2,102.4-125.6,101-127.3,101z
		 M-127.3,105.2c-0.6,0-1.1-0.5-1.1-1.1c0-0.6,0.5-1.2,1.1-1.2c0.6,0,1.1,0.5,1.1,1.1C-126.2,104.7-126.7,105.2-127.3,105.2z"/>
	<path d="M-142.2,86.2c-1.7,0-3,1.3-3,3.1s1.4,3.1,3,3.1c1.7,0,3.1-1.4,3.1-3C-139.1,87.5-140.5,86.2-142.2,86.2z M-142.2,90.4
		c-0.6,0-1.1-0.5-1.1-1.1c0-0.6,0.5-1.1,1.1-1.1c0.6,0,1.1,0.5,1.1,1.1C-141.1,89.8-141.6,90.4-142.2,90.4z"/>
	<path d="M-136.1,80.1c-1.7,0-3.1,1.3-3.1,3s1.3,3.1,3,3.1c1.7,0,3.1-1.3,3.1-3C-133.1,81.5-134.4,80.1-136.1,80.1z M-136.1,84.3
		c-0.6,0-1.1-0.5-1.1-1.1c0-0.6,0.5-1.1,1.1-1.2c0.6,0,1.2,0.5,1.2,1.1C-135,83.8-135.5,84.3-136.1,84.3z"/>
	<path d="M-127,89.2c-1.7,0-3.1,1.4-3.1,3.1c0,1.7,1.4,3.1,3,3.1c1.7,0,3.1-1.4,3.1-3C-124,90.7-125.4,89.2-127,89.2z M-127.1,93.4
		c-0.6,0-1.1-0.5-1.1-1.1c0-0.6,0.5-1.1,1.1-1.1c0.6,0,1.1,0.5,1.1,1.1C-126,92.9-126.4,93.4-127.1,93.4z"/>
	<path d="M-115,77.2c-1.7,0-3.1,1.4-3.1,3.1c0,1.7,1.4,3.1,3.1,3c1.7,0,3.1-1.4,3-3.1C-111.9,78.5-113.3,77.2-115,77.2z M-115,81.4
		c-0.6,0-1.1-0.5-1.1-1.2c0-0.6,0.5-1.1,1.1-1.1c0.6,0,1.1,0.5,1.1,1.1C-113.9,80.9-114.4,81.4-115,81.4z"/>
	<path d="M-121.3,95c-1.6,0-3.1,1.3-3.1,3c0,1.7,1.3,3.1,3,3.1c1.7,0,3.1-1.3,3.2-3C-118.2,96.4-119.6,95-121.3,95z M-121.3,99.2
		c-0.6,0-1.1-0.5-1.1-1.1s0.5-1.1,1.1-1.1c0.6,0,1.2,0.5,1.1,1.1C-120.2,98.7-120.7,99.2-121.3,99.2z"/>
	<path d="M-133.1,95.2c-1.7,0-3.1,1.3-3.1,3c0,1.7,1.3,3.1,3,3.1c1.7,0,3.1-1.4,3.1-3.1C-130,96.6-131.4,95.3-133.1,95.2z
		 M-133.1,99.4c-0.6,0-1.1-0.5-1.1-1.1c0-0.6,0.5-1.1,1.1-1.1s1.1,0.5,1.1,1.1C-132,99-132.5,99.4-133.1,99.4z"/>
	<path d="M-109.2,83c-1.7,0-3.1,1.4-3.1,3.1c0,1.7,1.4,3.1,3.1,3.1c1.7,0,3.1-1.4,3.1-3.1C-106.2,84.3-107.5,83-109.2,83z
		 M-109.3,87.1c-0.6,0-1.1-0.5-1.1-1.1c0-0.6,0.5-1.1,1.1-1.1s1.1,0.5,1.1,1.1C-108.1,86.7-108.6,87.2-109.3,87.1z"/>
	<path d="M-121,83.2c-1.7,0-3.1,1.3-3.1,3.1c0,1.7,1.4,3,3.1,3c1.7,0,3-1.3,3-3.1C-118,84.5-119.3,83.2-121,83.2z M-121,87.4
		c-0.6,0-1.1-0.5-1.1-1.1c0-0.6,0.5-1.1,1.1-1.1c0.6,0,1.1,0.5,1.1,1.1C-119.9,86.9-120.4,87.4-121,87.4z"/>
	<path d="M-139.6,102c0,0.5-0.5,1-1,0.9c-0.5,0-1-0.5-1-1c0-0.5,0.5-1,1-1C-140,101-139.5,101.4-139.6,102z"/>
</g>
<g>
	<path d="M46.3,109.4c-0.2-1.4-1.3-2.3-2.7-2.4c-0.3,0-0.6,0-0.8,0c-0.1-0.8-0.1-1.5-0.2-2.2c-1-4.4-5.8-6.4-9.6-4
		c-0.1,0.1-0.3,0.2-0.3,0.2c-0.4-0.2-0.8-0.4-1.1-0.6c-0.1-0.1-0.1-0.5-0.1-0.7v-21c0-3-1.3-5.3-3.9-6.8c-0.6-0.4-0.6-0.5-0.4-1.2
		c0.1,0,0.2,0,0.3,0c1.2,0,1.6-0.4,1.6-1.6v-5c0-1.1-0.4-1.5-1.5-1.5h-20c-0.9,0-1.4,0.4-1.4,1.2c0,1.9,0,3.8,0,5.7
		c0,0.7,0.5,1.2,1.3,1.2c0.2,0,0.4,0,0.7,0c-0.1,0.4,0.2,0.8-0.3,1.1c-2.8,1.6-4.1,4-4.1,7.2c0,4.2,0,8.4,0,12.6
		c0,0.2,0,0.4,0.1,0.6c0.1,0.4,0.4,0.5,0.7,0.5c0.4,0,0.6-0.2,0.7-0.6c0-0.1,0-0.3,0-0.4c0-1.8,0-3.5,0-5.3v-0.5h8.3
		c0,0.1,0,0.2,0,0.3c0,0.8,0.2,1,1,1h1.1c0,0.5,0,0.9,0,1.3c0,0.6,0.3,0.8,0.8,0.8c0.8,0,1.7,0,2.5,0c0.6,0,0.8-0.3,0.8-0.9
		c0-0.4,0-0.8,0-1.2c0.3,0,0.5,0,0.8,0c0.9,0.1,1.3,0,1.3-1.2c0,0,0-0.1,0.1-0.1h8.2v14.2c-1.3-0.2-2.5,0-3.7,0.5
		c-0.1-0.1-0.1-0.1-0.1-0.2c-0.8-1.3-1.9-2.3-3.2-3.1c-0.2-0.1-0.3-0.4-0.3-0.5c-0.2-2.9-2.4-5.4-5.3-5.8c-0.5-0.1-1,0.1-1.3,0.5
		c-0.3,0.4-0.4,0.9-0.1,1.4c0.1,0.3,0.3,0.5,0.4,0.7c0.3,0.7,0.5,1.5,0.4,2.3c-2.9,0.3-5.4,1.5-7.2,3.8c-0.5,0.7-1.1,0.9-1.9,0.9
		c-0.8-0.1-1.7,0-2.6,0v-0.6c0-1.4,0-2.8,0-4.2c0-0.5-0.3-0.9-0.7-0.9c-0.5,0-0.8,0.3-0.8,0.9c0,4.8,0,9.5,0,14.3
		c0,1.3,0.8,2.3,2,2.6c0.1,0,0.1,0.1,0.2,0.1h23.8c1-0.2,2-0.5,2.9-1.1c0.1,0,0.2,0,0.3,0c0.9,0.6,1.9,0.9,2.9,1.1h8.4
		c0.1,0,0.2-0.1,0.3-0.1C45.7,111.9,46.5,110.7,46.3,109.4z M25.4,64.1h2v2.4h-2V64.1z M21.9,64.1h2.1v2.4h-2.1V64.1z M18.3,64.1
		h2.1v2.4h-2.1V64.1z M14.7,64.1h2v2.4h-2V64.1z M11.1,64.1h2.1v2.4h-2.1V64.1z M7.5,64.1h2.1v2.4H7.5V64.1z M7.6,69.2V68h19.9v1.2
		H7.6z M20.2,85.5c-0.4,0-0.8,0-1.1,0c-0.7,0-0.9,0.3-0.9,0.9c0,0.3,0,0.7,0,1c0,0,0,0.1,0,0.1h-1.2c0-0.4,0-0.8,0-1.2
		c0-0.6-0.3-0.9-0.9-0.9c-0.4,0-0.8,0-1.2,0v-1.2c0.4,0,0.8,0,1.2,0c0.6,0,0.8-0.3,0.9-0.8c0-0.4,0-0.8,0-1.2h1.2c0,0.4,0,0.8,0,1.2
		c0,0.6,0.3,0.8,0.8,0.8c0.4,0,0.8,0,1.2,0V85.5z M21.7,84.1c-0.2-1.3-0.2-1.3-1.6-1.3h-0.5v-1.2c0-0.6-0.3-0.9-0.9-0.9
		c-0.8,0-1.6,0-2.4,0c-0.6,0-0.8,0.3-0.8,0.9c0,0.4,0,0.7,0,1.1c0,0,0,0.1-0.1,0.1h-1c-0.8,0-1,0.2-1,1c0,0.1,0,0.2,0,0.3H5.1v-4.8
		c0.2,0,0.4,0,0.6,0c4.5,0,8.9,0,13.4,0c0.2,0,0.4,0,0.6,0c0.4-0.1,0.5-0.3,0.5-0.7s-0.2-0.6-0.6-0.7c-0.2,0-0.4,0-0.6,0h-14
		c0-0.3,0.1-0.5,0.1-0.7c0.4-1.8,1.5-3.2,3.1-4.1c0.8-0.4,1.2-0.9,1.1-1.8c0-0.2,0-0.4,0-0.5h16.1c0,0.3,0,0.5,0,0.8
		c0,0.7,0.3,1.1,0.9,1.5c1.9,1,3,2.5,3.4,4.6c0,0.1,0,0.1,0,0.3h-6.5c-0.2,0-0.3,0-0.5,0c-0.4,0.1-0.6,0.3-0.6,0.7
		c0,0.4,0.2,0.6,0.5,0.7c0.2,0,0.4,0,0.6,0c2,0,3.9,0,5.9,0h0.6v4.8H21.7z M16.4,97.2c-0.5,1.2-1.4,2.1-2.5,2.7
		c-0.2,0.1-0.5,0.2-0.7,0.3c-0.5,0.2-0.8,0.6-0.8,1.1c0,0.5,0.2,0.9,0.6,1.2c1.3,0.7,2.6,1,4,0.9c0.5-0.1,0.8-0.4,0.7-0.9
		c-0.1-0.4-0.4-0.6-0.9-0.6c-0.9,0.1-1.8-0.1-2.7-0.5c3.6-1.4,5.2-5.6,3.3-9.1c0.9,0.2,1.6,0.6,2.2,1.2c2,1.9,2.1,5,0.2,7
		c-0.1,0.1-0.3,0.3-0.4,0.5c-0.1,0.3-0.1,0.6,0.2,0.9c0.3,0.2,0.7,0.2,0.9-0.1c0.8-0.7,1.3-1.6,1.7-2.6c0-0.1,0.1-0.3,0.2-0.4
		c1,0.7,1.9,1.5,2.5,2.6c-1.1,0.9-1.8,2-2.2,3.3c-0.2,0.7-0.2,0.7-1,0.7h-13C8.9,101.1,12.6,97.4,16.4,97.2z M5.1,101.8h3
		c-0.1,0.2-0.2,0.4-0.2,0.6c-0.2,0.8-0.4,1.5-0.5,2.3c0,0.3-0.1,0.4-0.4,0.4c-0.6,0-1.2,0-1.8,0V101.8z M24.3,111H6.6
		c-1.1,0-1.5-0.5-1.5-1.5c0-0.9,0-1.8,0-2.7c0,0,0-0.1,0.1-0.2h0.5c5.4,0,10.8,0,16.3,0c0.4,0,0.6,0.1,0.7,0.6
		c0.2,1.3,0.8,2.4,1.7,3.4c0.1,0.1,0.3,0.3,0.4,0.4c0,0,0,0,0,0.1C24.6,111,24.4,111,24.3,111z M33.6,109.9c0,0,0,0.1,0,0.1
		c-0.1,0-0.1,0.1-0.2,0.1c-0.4-0.5-0.9-1-1.3-1.6c-0.4-0.5-0.7-0.7-1.1-0.4c-0.4,0.2-0.4,0.7-0.1,1.2c0.2,0.3,0.4,0.6,0.6,0.9
		c-1.2,1.1-4,1.3-5.9-0.5c-1.9-1.8-2.1-4.7-0.4-6.7c1.6-1.9,4.5-2.3,6.3-1c-0.6,0.8-1.1,1.7-1.3,2.7c0,0.2-0.1,0.4-0.1,0.6
		c0,0.4,0.2,0.7,0.6,0.8c0.4,0.1,0.7-0.1,0.8-0.5c0.1-0.3,0.1-0.6,0.2-1c0.7-2.4,3.1-3.8,5.6-3.3c2.4,0.4,4.1,2.7,3.9,5.1
		c0,0.4-0.1,0.6-0.6,0.6c-1.4,0-2.7,0-4.1,0C34.7,107,33.7,108.1,33.6,109.9z M43.3,111h-6.9c-0.7,0-1.2-0.4-1.3-0.9
		c-0.1-0.5,0.1-1.2,0.6-1.4c0.3-0.1,0.6-0.2,0.9-0.2c1.1,0,2.2,0,3.4,0h3.4c0.9,0,1.5,0.5,1.5,1.3C44.8,110.5,44.2,111,43.3,111z"/>
	<path class="st0" d="M29.6,112.5c1-0.2,2-0.5,2.9-1.1c0.1,0,0.2,0,0.3,0c0.9,0.6,1.9,0.9,2.9,1.1C33.7,112.5,31.7,112.5,29.6,112.5
		z"/>
	<path d="M12.4,87.8c0,0.4-0.3,0.7-0.9,0.7c-1.4,0-2.7,0-4.1,0c-0.5,0-0.9-0.3-0.9-0.7c0-0.4,0.3-0.7,0.9-0.7c0.7,0,1.3,0,2,0
		c0.7,0,1.4,0,2,0C12,87.1,12.4,87.4,12.4,87.8z"/>
	<path d="M28.4,87.8c0,0.4-0.3,0.7-0.8,0.8c-1.4,0-2.8,0-4.1,0c-0.5,0-0.8-0.3-0.8-0.8c0-0.4,0.3-0.7,0.8-0.7c0.7,0,1.4,0,2.1,0
		c0.7,0,1.3,0,2,0C28.1,87.1,28.4,87.4,28.4,87.8z"/>
	<path d="M12.4,90.7c0,0.4-0.3,0.7-0.9,0.7c-1.4,0-2.7,0-4.1,0c-0.5,0-0.9-0.3-0.9-0.7c0-0.5,0.3-0.7,0.9-0.7c0.7,0,1.3,0,2,0
		c0.7,0,1.4,0,2,0C12,90,12.4,90.3,12.4,90.7z"/>
	<path d="M28.4,90.7c0,0.4-0.3,0.7-0.8,0.7c-1.4,0-2.8,0-4.1,0c-0.5,0-0.8-0.3-0.8-0.7c0-0.4,0.3-0.7,0.8-0.7c0.7,0,1.4,0,2,0
		s1.4,0,2,0C28.1,90,28.4,90.3,28.4,90.7z"/>
</g>
</svg>
