<svg id="Camada_1" data-name="Camada 1" xmlns="http://www.w3.org/2000/svg" viewBox="0 0 50 50"><title>icon</title><path d="M45.13,9.8A24.38,24.38,0,0,0,30.56.57C29.48.33,28.38.25,27.29.09L26.81,0H23.89c-.95.13-1.9.22-2.84.39A24.43,24.43,0,0,0,6.79,8.33,24.76,24.76,0,0,0,.52,22.48L.4,23.54v2.92c.13.95.21,1.9.39,2.84A24.64,24.64,0,0,0,12.63,46.48a23.69,23.69,0,0,0,10.88,3.44,2.57,2.57,0,0,1,.38.08h2.92c1-.13,1.9-.22,2.84-.39a24.49,24.49,0,0,0,14.46-8.17,24.14,24.14,0,0,0,6.06-13.93A24.38,24.38,0,0,0,45.13,9.8ZM25.33,47.29A22.29,22.29,0,1,1,47.59,25,22.28,22.28,0,0,1,25.33,47.29Z"/><path d="M38.39,31.74a15.49,15.49,0,0,1-26,0l2.22-1.43a12.88,12.88,0,0,0,21.57,0Z"/><path d="M19.89,19.41a2.69,2.69,0,1,1-2.71-2.69A2.69,2.69,0,0,1,19.89,19.41Z"/><path d="M36.57,19.4a2.67,2.67,0,0,1-2.65,2.72,2.7,2.7,0,1,1,2.65-2.72Z"/></svg>