<?xml version="1.0" encoding="utf-8"?>
<!-- Generator: Adobe Illustrator 24.0.2, SVG Export Plug-In . SVG Version: 6.00 Build 0)  -->
<svg version="1.1" id="Camada_1" xmlns="http://www.w3.org/2000/svg" xmlns:xlink="http://www.w3.org/1999/xlink" x="0px" y="0px"
	 viewBox="0 0 50 50" style="enable-background:new 0 0 50 50;" xml:space="preserve">
<style type="text/css">
	.st0{fill:#FFFFFF;}
</style>
<g>
	<path d="M70.1-144.9c-3.7-4.8-8.6-7.9-14.6-9.2c-1.1-0.2-2.2-0.3-3.3-0.5c-0.2,0-0.3-0.1-0.5-0.1h-2.9c-1,0.1-1.9,0.2-2.8,0.4
		c-5.7,1-10.4,3.7-14.3,7.9c-3.6,4-5.7,8.8-6.3,14.1c0,0.4-0.1,0.7-0.1,1.1v2.9c0.1,0.9,0.2,1.9,0.4,2.8c1.4,7.5,5.4,13.2,11.8,17.2
		c3.3,2.1,7,3.2,10.9,3.4c0.1,0,0.3,0,0.4,0.1h2.9c1-0.1,1.9-0.2,2.8-0.4c5.8-1,10.6-3.8,14.5-8.2c3.5-4,5.5-8.7,6.1-13.9
		C75.8-133.8,74.1-139.7,70.1-144.9z M50.3-107.5c-12.3,0-22.2-10-22.2-22.3c0-12.3,10-22.3,22.3-22.3c12.3,0,22.2,10,22.2,22.3
		C72.6-117.4,62.6-107.4,50.3-107.5z"/>
	<path d="M63.4-123c-2.8,4.1-6.6,6.4-11.4,7c-6.2,0.7-11.8-2.6-14.6-7c0.8-0.5,1.5-1,2.2-1.4c5.5,8.1,16.7,7.4,21.6,0
		C61.9-124,62.6-123.5,63.4-123z"/>
	<path d="M44.9-135.3c0,1.5-1.2,2.7-2.7,2.7c-1.5,0-2.7-1.2-2.7-2.7s1.2-2.7,2.7-2.7C43.7-138,44.9-136.8,44.9-135.3z"/>
	<path d="M61.6-135.3c0,1.5-1.2,2.7-2.7,2.7c-1.5,0-2.7-1.2-2.7-2.7c0-1.5,1.2-2.7,2.7-2.7C60.3-138,61.6-136.8,61.6-135.3z"/>
</g>
<g>
	<path d="M-36.6-53.6c-0.9-4.2-3.6-6.9-7.8-7.7c-4.8-1-8.4,1-11,5.1c-14.5-3.9-27.8,9.3-23.9,23.9c-4.1,2.6-6.1,6.3-5.1,11.1
		c0.9,4.2,3.6,6.9,7.8,7.8c4.8,1,8.5-1,11.1-5c7.2,1.6,13.6,0.1,18.8-5.1c5.2-5.2,6.7-11.7,5.1-18.8C-37.5-45.1-35.5-48.8-36.6-53.6
		z M-74.3-48.9c5-6,12.6-7.4,18.2-5.8c-0.1,0.5-0.3,1-0.4,1.4c-6-1.3-11.3,0-15.6,4.3c-4.3,4.3-5.6,9.6-4.4,15.6
		c-0.2,0-0.5,0.1-0.7,0.2c-0.2,0.1-0.5,0.1-0.7,0.2C-79.1-37-78.6-43.7-74.3-48.9z M-74.5-14.8c-4.8,0-8.6-3.8-8.6-8.5
		c0-4.8,3.8-8.6,8.6-8.6c4.7,0,8.5,3.8,8.5,8.6C-65.9-18.7-69.8-14.8-74.5-14.8z M-67.3-30.6c-2-2-4.5-3-7.5-3c-0.2-1-0.3-2-0.5-3.1
		h3.1v-1.6h-3c0.2-3.5,1.5-6.5,3.8-9.1c0.6,0.7,1.2,1.3,1.8,1.9c0.4-0.4,0.8-0.8,1.2-1.2c-0.6-0.6-1.2-1.2-1.8-1.8
		c1.3-1.9,6.4-4,9.1-3.8v3h1.6v-3.1c1.1,0.2,2.1,0.3,3.1,0.5c-0.1,5.6,4.4,10.5,10.4,10.5c0.1,0.5,0.2,1,0.3,1.5s0.1,1,0.2,1.6h-3.1
		v1.5h3c-0.2,3.5-1.5,6.5-3.8,9.1c-0.6-0.6-1.2-1.2-1.8-1.8c-0.4,0.4-0.7,0.8-1,1.2c0.5,0.5,1.1,1.1,1.8,1.8
		c-2.7,2.3-5.7,3.6-9.2,3.8v-3h-1.6v3.1c-1.1-0.2-2.1-0.3-3.1-0.5C-64.4-26-65.3-28.5-67.3-30.6z M-47.3-25.2
		c-5.1,5.5-12.5,6.6-17.6,5.1c0.1-0.5,0.3-1,0.4-1.4c6,1.3,11.3,0,15.6-4.3c4.3-4.3,5.6-9.6,4.3-15.6c0.5-0.1,0.9-0.3,1.4-0.4
		C-41.8-37.5-42.4-30.5-47.3-25.2z M-46.5-42.9c-4.7,0-8.6-3.9-8.6-8.5c0-4.8,3.9-8.6,8.7-8.6c4.7,0,8.5,3.9,8.5,8.6
		C-37.9-46.7-41.8-42.9-46.5-42.9z"/>
	<path d="M-54.4-32.6c-0.5,0.4-0.8,0.7-1.2,1.1c0,0-0.1-0.1-0.2-0.2c-1.6-1.7-3.3-3.3-4.9-5c-0.2-0.2-0.4-0.5-0.4-0.8
		c0-2.7,0-5.5,0-8.2c0-0.1,0-0.1,0-0.2h1.5v0.5c0,2.4,0,4.9,0,7.3c0,0.2,0.1,0.5,0.3,0.7c1.5,1.5,3,3,4.5,4.6
		C-54.7-32.8-54.6-32.7-54.4-32.6z"/>
	<path d="M-43.7-50.7h3.5v1.5c-0.1,0-0.3,0-0.4,0h-4.8c-0.4,0-0.8-0.1-1-0.5c-0.2-0.4,0.1-0.7,0.4-1c1-1,2-2,3.2-3.1h-3.5v-1.6h1.8
		c1.1,0,2.3,0,3.4,0c0.4,0,0.7,0.1,0.9,0.5c0.2,0.4,0,0.7-0.3,1c-0.9,0.9-1.9,1.9-2.8,2.8C-43.5-51-43.6-50.9-43.7-50.7z"/>
	<path d="M-48-49.1v1.6c-1.3,0-2.7,0-4,0c-0.2,0-0.5-0.3-0.6-0.5c-0.1-0.2,0-0.6,0.2-0.8c0.4-0.5,0.9-0.9,1.3-1.4
		c0.1-0.1,0.2-0.2,0.4-0.4h-1.9v-1.6c1.3,0,2.7,0,4,0c0.2,0,0.5,0.3,0.6,0.5c0.1,0.3,0,0.6-0.2,0.8c-0.4,0.5-0.9,0.9-1.3,1.4
		c-0.1,0.1-0.2,0.2-0.4,0.4H-48z"/>
	<path d="M-68.4-21.5c-0.2-0.4-0.6-0.4-1-0.3c-1.9,0.1-3.7-1.1-4.3-2.9c-0.4-1.2-0.3-2.4,0.4-3.6c0.4-0.7,0-1.3-0.8-1.3
		c-0.1,0-0.3,0-0.4,0c-3.2,0.3-5.7,3-5.7,6.2c0,2.9,1.9,5.4,4.7,6.1c2.8,0.7,5.6-0.6,6.9-3.1C-68.3-20.8-68.1-21.1-68.4-21.5z
		 M-75.2-18.9c-2.1-0.6-3.4-2.6-3.2-4.8c0.1-1.9,1.6-3.8,3.2-4c-0.9,3.9,1.5,6.9,4.7,7.5C-71.3-19.1-73.5-18.4-75.2-18.9z"/>
</g>
<g>
	<path d="M-39.7-127.1c1.4,0.4,2.8-0.5,3.2-1.9c0.4-1.4-0.5-2.8-1.9-3.2c-1.4-0.4-2.8,0.5-3.2,1.9c-0.2,0.9,0,1.7,0.5,2.4
		c-0.7,0.7-1.4,1.5-2.1,2.2c-0.7,0.7-1.4,1.4-2.1,2.1c-2.4-2.4-6.1-2.5-8.6,0c-1.5-1.5-3-2.9-4.5-4.3c0.8-1.7,0.6-3-0.5-3.8
		c-1-0.8-2.3-0.7-3.3,0.1c-1.1,0.9-1.2,2.1-0.3,3.8c-0.7,0.7-1.4,1.4-2.1,2.1c-0.7,0.7-1.4,1.4-2.1,2.1c-2.5-2.5-6.2-2.5-8.6-0.1
		c-1.4-1.4-2.8-2.9-4.3-4.3c0,0,0.1-0.1,0.1-0.1c0.8-1.2,0.6-2.5-0.3-3.4c-0.9-0.9-2.3-1-3.3-0.3c-1,0.7-1.4,2.1-0.9,3.2
		c0.5,1.2,1.8,1.8,3.1,1.5c0.2,0,0.4,0,0.6,0.2c1.4,1.3,2.7,2.7,4.1,4c0.1,0.1,0.1,0.2,0.2,0.2c-1.2,2.1-1.2,4.1,0,6.2
		c-0.1,0.1-0.2,0.3-0.4,0.4c-1.2,1.2-2.5,2.5-3.7,3.7c-0.3,0.3-0.5,0.4-1,0.3c-1.4-0.3-2.8,0.6-3.1,2.1c-0.3,1.3,0.6,2.7,1.9,3.1
		c1.4,0.4,2.8-0.5,3.2-1.9c0.2-0.9,0-1.7-0.5-2.4c1.4-1.5,2.8-2.9,4.2-4.3c2.4,2.4,6.1,2.6,8.7,0.1c1.4,1.4,2.8,2.9,4.3,4.3
		c0,0.1-0.1,0.2-0.2,0.4c-0.5,0.9-0.4,1.8,0.2,2.7c0.6,0.8,1.4,1.3,2.4,1.1c0.7-0.2,1.1,0.1,1.6,0.6c0.2,0.2,0.5,0.5,0.7,0.7
		c1,1,2.1,2.1,3.1,3.1c-1.2,2.1-1.2,4.2,0,6.2c-1.5,1.5-2.9,2.9-4.3,4.3c-0.1,0.1-0.4,0.1-0.6,0.1c-1.4-0.3-2.8,0.5-3.2,2
		c-0.3,1.4,0.5,2.8,1.9,3.2c1.4,0.4,2.9-0.5,3.2-1.9c0.2-0.9,0-1.7-0.5-2.3c1.4-1.5,2.8-2.9,4.2-4.3c2.3,2.3,6,2.5,8.6,0
		c1.4,1.4,2.8,2.8,4.3,4.3c-0.6,0.9-0.7,1.6-0.5,2.5c0.4,1.4,1.9,2.2,3.3,1.8c1.4-0.4,2.2-1.8,1.8-3.2c-0.3-1.4-1.8-2.3-3.2-1.9
		c-0.3,0.1-0.4,0.1-0.6-0.2c-1.3-1.3-2.7-2.7-4-4c-0.2-0.2-0.2-0.3-0.1-0.6c1-1.8,1-3.7,0-5.5c-0.2-0.3-0.1-0.4,0.1-0.7
		c1.3-1.2,2.5-2.5,3.7-3.7c0.3-0.3,0.6-0.6,1.2-0.4c0.2,0.1,0.5,0,0.7,0c1.5-0.2,2.5-1.6,2.3-3.1c-0.3-1.4-1.7-2.4-3.1-2.1
		c-0.1,0-0.4,0-0.4,0c-1.4-1.5-2.8-2.9-4.2-4.4c1.1-1.9,1.1-4-0.1-6c1.4-1.4,2.8-2.8,4.2-4.3C-40.2-127.1-40-127.2-39.7-127.1z
		 M-81.8-128.2c-0.8,0-1.4-0.7-1.4-1.5c0-0.8,0.7-1.5,1.5-1.4c0.8,0,1.5,0.7,1.4,1.5C-80.4-128.9-81-128.2-81.8-128.2z M-81.8-108.1
		c-0.8,0-1.4-0.7-1.4-1.5c0-0.8,0.7-1.4,1.5-1.4c0.8,0,1.4,0.7,1.4,1.5C-80.4-108.7-81-108-81.8-108.1z M-60.5-88
		c-0.8,0-1.5-0.6-1.5-1.4c0-0.8,0.7-1.5,1.5-1.5c0.8,0,1.5,0.6,1.5,1.4C-59.1-88.6-59.7-88-60.5-88z M-39.4-90.9
		c0.8,0,1.5,0.6,1.5,1.4c0,0.8-0.6,1.5-1.4,1.5c-0.8,0-1.5-0.6-1.5-1.4C-40.8-90.2-40.2-90.9-39.4-90.9z M-39.4-111
		c0.8,0,1.5,0.6,1.5,1.4c0,0.8-0.6,1.5-1.4,1.5c-0.8,0-1.5-0.6-1.5-1.4C-40.8-110.3-40.2-111-39.4-111z M-49.7-124.3
		c2.6,0,4.7,2.1,4.7,4.7c0,2.6-2.1,4.7-4.7,4.8c-2.6,0-4.8-2.1-4.8-4.7C-54.5-122.1-52.3-124.2-49.7-124.3z M-60.6-131.1
		c0.8,0,1.5,0.6,1.5,1.5c0,0.8-0.6,1.5-1.5,1.5s-1.5-0.6-1.5-1.4C-62.1-130.5-61.4-131.1-60.6-131.1z M-71.2-114.9
		c-2.6,0-4.7-2.1-4.7-4.7c0-2.6,2.1-4.7,4.7-4.7c2.6,0,4.7,2.1,4.8,4.7C-66.5-117-68.6-114.9-71.2-114.9z M-60.5-108.1
		c-0.8,0-1.5-0.7-1.5-1.5c0-0.8,0.6-1.5,1.5-1.5c0.8,0,1.5,0.6,1.5,1.4C-59.1-108.8-59.7-108.1-60.5-108.1z M-59.1-112.1
		c-0.1,0.1-0.3,0.1-0.5,0.1c-0.6,0-1.2,0-1.8-0.1c-0.2,0-0.4,0-0.5-0.1c-1.4-1.3-2.7-2.7-4-4c-0.1-0.1-0.2-0.4-0.1-0.5
		c1-2,1-4-0.1-6c1.5-1.5,2.9-2.9,4.4-4.4c0.1-0.1,0.3-0.1,0.5-0.1c0.5,0,1.1-0.1,1.7-0.1c0.2,0,0.4,0,0.5,0c1.5,1.5,2.9,3,4.4,4.4
		c0,0,0,0.1,0.1,0.1c-0.7,1.1-1,2.4-0.8,3.7c0.1,0.7,0.4,1.5,0.7,2.2c0.1,0.3,0.1,0.4-0.1,0.6C-56.4-114.8-57.7-113.5-59.1-112.1z
		 M-50-94.7c-2.6,0-4.7-2.2-4.7-4.8c0-2.6,2.2-4.7,4.8-4.7c2.6,0,4.7,2.2,4.6,4.7C-45.3-96.8-47.4-94.7-50-94.7z M-41.4-111.3
		c-0.8,1.1-0.9,2.3,0,3.5c-1.4,1.4-2.8,2.8-4.3,4.3c-1.2-1.2-2.6-1.8-4.3-1.8c-1.7,0-3.1,0.6-4.3,1.8c-1.4-1.4-2.8-2.9-4.3-4.3
		c0.7-1.2,0.8-1.8,0.1-3.1c1.5-1.5,2.9-2.9,4.3-4.4c2.7,2.6,6.4,2.2,8.7-0.1C-44-114.1-42.7-112.7-41.4-111.3z M-39.1-131.1
		c0.8,0,1.5,0.7,1.5,1.4c0,0.8-0.7,1.5-1.5,1.5c-0.8,0-1.5-0.7-1.5-1.5C-40.6-130.4-39.9-131.1-39.1-131.1z"/>
	<path d="M-71-122.9c-0.1,0.1-0.2,0.3-0.4,0.4c-1,0.5-1.7,1.2-2.2,2.2c-0.2,0.4-0.5,0.5-0.8,0.3c-0.4-0.2-0.4-0.5-0.2-0.9
		c0.6-1.2,1.5-2.1,2.7-2.7C-71.4-123.8-71-123.5-71-122.9z"/>
	<path d="M-74-118.8c0,0.6-0.3,0.9-0.7,0.9c-0.3,0-0.6-0.3-0.5-0.7c0-0.6,0.3-1,0.7-0.9C-74.2-119.5-74-119.2-74-118.8z"/>
	<path d="M-49.5-102.8c-0.1,0.1-0.2,0.3-0.4,0.4c-1,0.4-1.8,1.1-2.4,2.1c-0.2,0.3-0.5,0.4-0.8,0.3c-0.3-0.2-0.4-0.5-0.2-0.8
		c0.7-1.2,1.6-2.1,2.9-2.6C-50-103.6-49.5-103.3-49.5-102.8z"/>
	<path d="M-52.9-98.9c0,0.6-0.3,1-0.7,0.9c-0.4,0-0.5-0.3-0.5-0.7c0-0.6,0.3-1,0.7-0.9C-53-99.5-52.8-99.3-52.9-98.9z"/>
	<path d="M-49.5-123c-0.1,0.1-0.2,0.3-0.4,0.4c-1,0.5-1.7,1.3-2.2,2.3c-0.2,0.3-0.4,0.5-0.8,0.3c-0.4-0.2-0.4-0.5-0.3-0.9
		c0.6-1.2,1.5-2.2,2.7-2.8C-50-123.8-49.5-123.6-49.5-123z"/>
	<path d="M-52.6-118.7c0,0.6-0.2,0.8-0.6,0.8s-0.6-0.3-0.6-0.8c0-0.5,0.2-0.8,0.6-0.8C-52.7-119.5-52.5-119.3-52.6-118.7z"/>
</g>
<g>
	<path d="M57-46.4c-0.1-0.2-0.1-0.5-0.1-0.7c0.1-1.6,0.1-3.3-0.5-4.8c-1.1-2.9-3.4-4.5-6.3-5.4c-0.2-0.1-0.4-0.1-0.5-0.2
		c-1.1-1-2.4-1.4-3.8-1.1c-1.1,0.2-2-0.2-2.7-1c-1.1-1.2-2.3-2.3-3.4-3.4c-0.4-0.4-0.9-0.4-1.2,0c-0.3,0.4-0.1,0.7,0.2,1
		c1.1,1.1,2.3,2.2,3.3,3.4c1.2,1.2,2.5,1.7,4.2,1.5c1.7-0.2,3.2,0.9,3.5,2.6c0.3,1.7-0.7,3.3-2.4,3.7c-0.6,0.1-0.9,0.4-1,1
		c-0.3,1.4-1.5,2.3-2.9,2.4c-1.4,0.1-2.8-0.7-3.2-2.1c-0.2-0.6-0.2-1.3-0.1-1.9c0.1-1.4-0.3-2.6-1.2-3.5c-4-4-7.9-7.9-11.9-11.8
		c-0.6-0.6-1-0.5-1.5,0.2v0.3c0.2,0.2,0.3,0.5,0.5,0.6c3.8,3.8,7.6,7.6,11.5,11.4c0.9,0.9,1.3,1.8,1.1,3.1c-0.3,2.1,0.9,4,2.8,4.8
		c0.7,0.3,1.5,0.3,2.3,0.5c0,0,0,0,0,0.1c-0.5,2.1,0.1,3.8,1.8,5.1c0.8,0.6,1.2,1.4,1.1,2.4c0,5.2,0,10.3,0,15.5
		c0,0.5,0.1,0.8,0.5,1h0.5c0.4-0.2,0.5-0.6,0.5-1c0-3.8,0-7.6,0-11.5v-0.5c0.9,0.2,1.5,0.9,1.7,1.8c0,0.3,0,0.5,0,0.8
		c0,3.1,0,6.2,0,9.3c0,0.5,0.1,0.8,0.4,1.1h0.6c0.4-0.3,0.4-0.7,0.4-1.1c0-3.2,0-6.3,0-9.5c0-1.6-0.6-2.8-2-3.5
		c-0.8-0.5-1.2-1.2-1.2-2.1c0-0.9,0-1.8-0.6-2.6c-0.4-0.5-0.8-1-1.3-1.4c-1-0.9-1.5-1.9-1.2-3.2c0.3-1.3,1.1-2.2,2.5-2.5
		c0.9-0.2,1.7-0.1,2.4,0.5c0.4,0.3,0.8,0.3,1.2,0c1.5-1,3.4-0.6,4.4,0.8c1,1.4,0.7,3.3-0.7,4.4c-1.3,1-1.9,2.2-1.9,3.8
		c0,5.1,0,10.2,0,15.3c0,0.4,0.1,0.8,0.5,1h0.5c0.4-0.3,0.5-0.6,0.5-1.1c0-5.1,0-10.2,0-15.3c0-1.1,0.4-2,1.3-2.7
		C57.3-42.1,57.8-44.4,57-46.4z M53.8-49c-1.1-0.3-2.1-0.2-3.1,0.3c-0.1,0.1-0.4,0.1-0.5,0.1c-0.8-0.4-1.7-0.6-2.8-0.5
		c0.2-0.2,0.3-0.3,0.4-0.4c2.7-1.2,3.6-2.8,3.1-5.6v-0.2c3.1,1.2,4.7,4,4.5,7C54.9-48.6,54.4-48.9,53.8-49z"/>
	<path d="M44.3-21.8h-0.5c-0.2-0.2-0.5-0.5-0.6-0.7c-1.7-3.3-2.9-6.8-3.3-10.5c-0.3-3-0.4-6-0.3-9c0-1.2,0-1.2-1.1-1.6
		c-2.7-1-5.1-2.6-7.2-4.6c-0.4-0.3-0.4-0.8-0.1-1.1c0.3-0.3,0.7-0.3,1.2,0.1c1.9,1.8,4,3.2,6.5,4.2c0.5,0.2,1,0.3,1.5,0.5
		c0.6,0.2,0.7,0.4,0.7,1c0,2.8,0,5.7,0.1,8.5c0.1,4.2,1.4,8.2,3.4,11.9C44.9-22.4,44.9-22.3,44.3-21.8z"/>
	<path d="M29.9-50.7c-0.3,0.2-0.8,0.2-1-0.2c-0.5-0.7-1.1-1.3-1.5-2.1c-0.7-1-1.3-2.1-1.9-3.1v-0.5c0.5-0.7,1-0.6,1.5,0.1
		c0.9,1.4,1.9,2.8,2.8,4.3c0.1,0.1,0.2,0.3,0.3,0.4C30.3-51.4,30.2-51,29.9-50.7z"/>
	<path d="M59.8-22.5c0,0.3-0.3,0.5-0.5,0.8h-0.5c-0.4-0.3-0.5-0.6-0.5-1c0-0.9,0-1.9,0-2.8c0-0.7,0.6-1,1.1-0.7
		c0.2,0.1,0.4,0.4,0.4,0.6C59.9-24.7,59.9-23.6,59.8-22.5z"/>
	<path d="M60.2-46.1c0,2.4-0.1,4.8-0.2,7.2h-0.1v9.4c0,0.8-0.2,1.1-0.7,1.1c-0.5,0-0.7-0.4-0.8-1.1c-0.1-4.8,0.1-9.7,0.3-14.5
		c0.1-2.4,0-4.7-0.3-7.1c-0.4-2.7-1.6-4.9-3.2-7c-2.4-3.1-5.3-5.8-8.3-8.2c-1.6-1.3-3.3-2.5-5-3.8c-0.4-0.3-0.6-0.7-0.4-1
		c0.2-0.4,0.7-0.5,1.2-0.2c1.3,1,2.7,1.9,4,2.9c3.4,2.7,6.6,5.6,9.3,9c1.7,2.1,3.1,4.4,3.7,7.1C60-50.4,60.2-48.2,60.2-46.1z"/>
	<path d="M71.4-49.6c-0.9-0.4-1.8-0.9-2.6-1.4c-1.5-0.8-1.3-0.9-2.5,0.4c-0.2,0.2-0.4,0.3-0.7,0.2c-1-0.4-2-0.7-3-1.1
		c-0.4-0.1-0.7-0.1-1,0.2c-0.2,0.4-0.1,0.7,0.1,1c1.4,1.7,2.9,3.5,4.3,5.2c0.5,0.5,0.9,0.5,1.3,0c0.2-0.2,0.4-0.5,0.6-0.7
		c0.9,0.8,1.8,1.6,2.6,2.4c0.3,0.2,0.5,0.4,0.9,0.3c0.4-0.2,0.5-0.5,0.5-0.9c0-1.5,0-3.1,0-4.6C72.1-49,71.9-49.3,71.4-49.6z
		 M69.8-46.1c-0.4-0.4-0.8-0.8-1.2-1.1c-0.5-0.4-0.9-0.4-1.3,0.1c-0.2,0.2-0.3,0.4-0.5,0.6c-0.1-0.1-0.1-0.1-0.2-0.2
		c-0.6-0.8-1.3-1.6-1.9-2.4c0.4,0.1,0.7,0.2,1.1,0.4c0.4,0.2,0.8,0.1,1.1-0.3c0.3-0.3,0.5-0.6,0.8-0.9c0.9,0.5,1.8,0.9,2.7,1.4
		c0.1,0,0.2,0.2,0.2,0.3c0,0.9,0,1.8,0,2.8C70.3-45.7,70-45.9,69.8-46.1z"/>
	<path d="M75-57c-1.1-1.1-2.2-2.2-3.3-3.3c-0.3-0.3-0.7-0.4-1.1-0.3c-1,0.3-1.9,0.6-2.9,0.9c-1.4,0.5-1.6,0.3-1.4,2
		c0,0.3-0.1,0.5-0.4,0.6c-1,0.4-1.9,0.9-2.8,1.3c-0.4,0.2-0.6,0.4-0.5,0.8c0.1,0.4,0.4,0.6,0.8,0.6c2.3,0.2,4.5,0.5,6.8,0.7
		c0.5,0,0.9-0.3,0.9-0.8c0-0.4-0.1-0.7-0.1-1.1c0.2,0,0.3,0,0.5,0c1,0,2.1-0.1,3.1-0.1c0.4,0,0.7-0.1,0.8-0.5
		C75.4-56.4,75.2-56.7,75-57z M70.3-56.9c-0.8,0-1.1,0.3-1,1.2c0,0.2,0,0.4,0,0.7c-1.1-0.1-2.2-0.2-3.2-0.3c0,0,0-0.1,0-0.1
		c0.3-0.1,0.6-0.3,0.9-0.4c0.6-0.2,0.8-0.6,0.7-1.2c-0.1-1,0-1,0.9-1.3c0.6-0.2,1.2-0.4,1.8-0.6c0.1,0,0.3-0.1,0.4,0
		c0.7,0.6,1.3,1.3,2,2C71.9-56.9,71.1-56.9,70.3-56.9z"/>
	<path d="M68.3-66.4c-0.2-0.3-0.5-0.4-0.8-0.4c-1.6,0-3.2,0-4.7,0c-0.5,0-0.8,0.2-1,0.6c-0.4,0.9-0.9,1.8-1.4,2.7
		c-0.8,1.5-0.9,1.3,0.4,2.5c0.3,0.2,0.3,0.4,0.2,0.7c-0.4,1-0.7,2-1.1,3c-0.1,0.4-0.1,0.7,0.2,0.9c0.3,0.2,0.6,0.2,0.9-0.1
		c1.8-1.5,3.6-2.9,5.3-4.4c0.5-0.4,0.4-0.8,0-1.2c-0.3-0.2-0.5-0.4-0.8-0.7c0.8-0.9,1.6-1.8,2.5-2.7C68.4-65.8,68.5-66.1,68.3-66.4z
		 M64.4-63.5c-0.7,0.8-0.7,1,0.1,1.6c0.1,0.1,0.3,0.2,0.4,0.4c-0.4,0.4-0.9,0.7-1.3,1.1c-0.4,0.4-0.8,0.7-1.3,1c0,0,0,0-0.1-0.1
		c0.1-0.4,0.3-0.7,0.4-1.1c0.2-0.4,0.1-0.8-0.3-1.1c-0.3-0.2-0.5-0.5-0.9-0.8c0.5-0.9,1-1.8,1.5-2.8c0-0.1,0.2-0.1,0.3-0.1
		c0.9,0,1.8,0,2.7,0C65.4-64.7,64.9-64.1,64.4-63.5z"/>
	<path d="M37.1-64.7c-0.1,0.2-0.4,0.3-0.6,0.5c-0.3-0.2-0.5-0.3-0.6-0.4c-1.9-1.9-3.8-3.8-5.7-5.7c-0.4-0.4-0.4-0.8-0.1-1.1
		c0.3-0.3,0.8-0.3,1.2,0.1c1.9,1.9,3.8,3.8,5.7,5.7C37.2-65.4,37.3-65.1,37.1-64.7z"/>
</g>
<g>
	<path d="M109.1,11.3c-0.1-0.2-0.2-0.4-0.2-0.7c0-1.4,0-2.8,0-4.2c0-1.5-0.8-2.5-2.1-3.1c-0.2-0.1-0.3-0.2-0.4-0.4
		c-0.6-1.4-1.6-2.1-3.1-2.1c-2,0-4,0-5.9,0c-3.2,0-5.6,2.4-5.6,5.6c0,1.4,0,2.8,0,4.1c0,0.2-0.1,0.5-0.2,0.7
		c-1.2,1.6-0.4,3.9,1.6,4.3c0.5,0.1,1,0.1,1.5,0.1c0.1,0,0.3,0,0.4,0.1c0.5,0.6,1,1.2,1.5,1.8c-0.4,0.1-0.9,0.3-1.4,0.4
		c-2,0.6-3.4,2.4-3.4,4.4c0,3.5,0,7,0,10.5c0,1,0.7,1.9,1.7,2.1c0.4,0.1,0.9,0.1,1.4,0.1c0,0,0,0.1,0,0.2c0,3,0,6.1,0,9.1
		c0,0.3-0.1,0.4-0.3,0.5c-1.2,0.7-1.9,1.8-2,3.2c-0.1,0.7,0.3,1,1,1c4.6,0,9.1,0,13.7,0c0.7,0,1-0.3,0.9-1c-0.1-1.4-0.8-2.5-2-3.2
		c-0.3-0.2-0.4-0.3-0.4-0.7c0-2.9,0-5.8,0-8.8v-0.5c0.1,0,0.2,0,0.2,0c1.7,0.3,2.9-0.7,2.9-2.4c0-3.3,0-6.7,0-10
		c0-2.2-1.4-4-3.5-4.7c-0.4-0.1-0.9-0.3-1.3-0.4c0.3-0.3,0.7-0.7,0.9-1c0.4-0.8,1-1,1.9-0.9c1.1,0.1,1.9-0.5,2.4-1.5
		C109.9,13.2,109.8,12.2,109.1,11.3z M92.8,13.6c-0.3-0.4-0.3-0.8,0-1.2c0.3-0.5,0.8-0.7,1.3-0.6c0.1,0.8,0.1,1.5,0.2,2.3
		C93.7,14.2,93.2,14.1,92.8,13.6z M94.3,33.6c-0.5,0.2-1-0.2-1-0.8c0-2.3,0-4.6,0-7h1.5c0,0.1,0,0.2,0,0.3c0,2.2,0,4.4,0,6.6
		C94.9,33.1,94.8,33.4,94.3,33.6z M99.6,47.6h-5.2c0.1-0.7,0.9-1.5,1.6-1.5c1.2,0,2.4,0,3.7,0V47.6z M99.6,35.2v9.3h-3.1V32.9h7.7
		v11.6h-3.1v-9.3H99.6z M106.4,47.6h-5.2v-1.5c1.2,0,2.5,0,3.7,0C105.5,46.1,106.2,46.9,106.4,47.6z M107.4,32.8
		c0,0.5-0.3,0.8-0.8,0.8c-0.4,0-0.8-0.3-0.8-0.8c0-2.3,0-4.6,0-7h1.5C107.4,28.2,107.4,30.5,107.4,32.8z M107.3,24.3
		c-0.4,0-0.7,0-1.1,0c-2,0-2,0-2,2c0,1.5,0,3,0,4.5v0.5h-7.8v-6c0-0.8-0.3-1-1-1c-0.7,0-1.4,0-2,0c-0.4-3,0.4-4.6,4-5.2
		c0.6,1.3,1.5,2.1,2.9,2.1c1.4,0,2.4-0.8,3-2.1C106.2,19.6,107.7,20.6,107.3,24.3z M99,18.7h2.7c-0.3,0.5-0.8,0.8-1.4,0.8
		C99.7,19.6,99.3,19.3,99,18.7z M104.9,13.6c-0.5,2.3-2.7,3.8-5,3.6c-2.4-0.3-4.2-2.2-4.2-4.6c0-0.5,0-1,0-1.6c0.7,0,1.3,0,1.9,0
		c2.4,0.1,4.4-0.6,6-2.5c0.5,0.7,0.9,1.3,1.4,1.9c0,0.1,0.1,0.1,0.1,0.2C105,11.6,105.1,12.7,104.9,13.6z M104,6.6
		c-0.3-0.4-0.9-0.3-1.3,0.2c-0.2,0.3-0.4,0.7-0.7,1c-1,1.1-2.2,1.7-3.6,1.7c-1.1,0-2.2,0-3.3,0c-0.7,0-0.8,0.1-1.1,0.8h-0.7
		c0-0.3,0-0.6,0-0.9c0-1.2-0.1-2.5,0.1-3.7c0.3-1.8,1.9-3.2,3.7-3.2c2.1,0,4.2,0,6.2,0c0.9,0,1.5,0.6,1.6,1.5
		c0.1,0.6,0.3,0.8,0.9,0.9c0.8,0.1,1.4,0.6,1.5,1.4c0,1.3,0,2.7,0,4.1h-0.6C105.8,9,105,7.8,104,6.6z M107.9,13.6
		c-0.4,0.6-0.9,0.6-1.5,0.5c0.1-0.8,0.1-1.5,0.2-2.3c0.6-0.1,1,0,1.3,0.5C108.2,12.8,108.2,13.2,107.9,13.6z"/>
	<path d="M119.3,35.9c-0.8,0.2-1.6,0.5-2.3,0.7c-1,0.3-2,0.6-3,0.9c-0.5,0.1-0.8,0-1-0.4c-0.3-0.5-0.7-1-1-1.5
		c-1.1,0.9-2.2,1.7-3.2,2.6c-0.3-0.4-0.6-0.8-1-1.2c1.3-1.1,2.6-2.1,3.9-3.1c0.4-0.3,0.8-0.2,1.1,0.2c0.3,0.5,0.7,1,1,1.5
		c0.2,0.3,0.4,0.4,0.7,0.3c1.5-0.4,2.9-0.8,4.5-1.3C119,35,119.1,35.4,119.3,35.9z"/>
	<path d="M90.9,27.1c-0.5,0.2-0.9,0.4-1.4,0.6c-0.4-1-0.8-2-1.2-3c-0.5,0.3-0.9,0.6-1.4,0.9c-0.6,0.4-0.9,0.3-1.3-0.2
		c-1-1.2-2-2.5-3-3.8c0.4-0.3,0.8-0.7,1.2-1c0.9,1.1,1.8,2.2,2.7,3.3c0.5-0.4,1.1-0.7,1.6-1.1c0.6-0.4,1.1-0.3,1.4,0.4
		C89.9,24.6,90.4,25.8,90.9,27.1z"/>
	<path d="M116.5,42.4c-0.4,0.3-0.7,0.7-1.2,1.1c-0.3-0.3-0.6-0.7-0.9-1c-0.5-0.5-0.9-0.9-1.4-1.4c-0.2-0.2-0.3-0.2-0.6,0
		c-0.5,0.3-0.9,0.7-1.4,0.9c-0.3,0.1-0.6,0.2-0.9,0.1c-1-0.5-2-1-3.1-1.5c0.2-0.5,0.4-0.9,0.7-1.4c0.8,0.4,1.6,0.8,2.3,1.2
		c0.3,0.1,0.5,0.1,0.7,0c0.5-0.4,1-0.7,1.6-1.1c0.3-0.2,0.7-0.3,1,0C114.4,40.3,115.4,41.4,116.5,42.4z"/>
	<path d="M90.2,28.9v1.6c-0.8,0-1.6,0-2.3,0c-0.2,0-0.5,0.1-0.6,0.3c-0.6,0.8-1.2,1.6-1.8,2.4c-0.4,0.5-0.7,0.6-1.2,0.3
		c-1-0.5-1.9-1-3-1.5c0.2-0.5,0.4-0.9,0.7-1.4c0.9,0.4,1.7,0.8,2.5,1.3c0.6-0.8,1.2-1.6,1.8-2.4c0.3-0.4,0.6-0.5,1.1-0.5
		C88.3,29,89.2,28.9,90.2,28.9z"/>
</g>
<g>
	<path d="M-35.7,22.5c-0.5-5.3-2.5-10-6.1-13.9c-4.7-5.3-10.6-8.1-17.7-8.5C-64.3-0.1-69,1-73.2,3.6c-6.5,4-10.5,9.7-11.8,17.2
		c-0.2,0.9-0.3,1.9-0.4,2.8v2.9c0.1,1,0.2,1.9,0.4,2.8c1.4,7.5,5.4,13.2,11.8,17.2c3.3,2,7,3.2,10.9,3.4c0.1,0,0.3,0,0.4,0.1h2.9
		c0.8-0.1,1.7-0.2,2.5-0.3c5.2-0.9,9.8-3.1,13.5-6.8C-37.4,37.2-34.9,30.4-35.7,22.5z M-60.5,47.3c-12.3,0-22.2-10-22.2-22.3
		c0-12.3,10-22.2,22.3-22.2c12.3,0,22.2,10,22.2,22.3C-38.3,37.4-48.2,47.3-60.5,47.3z"/>
	<path d="M-48.2,34.8c-0.7,0.5-1.4,1.1-2.1,1.6c-2.6-3.2-6-4.9-10.1-4.9c-4.1,0-7.5,1.7-10.2,4.9c-0.7-0.5-1.4-1.1-2.1-1.6
		C-66.8,27.1-54.7,26.5-48.2,34.8z"/>
	<path d="M-66.1,19.5c0,1.5-1.2,2.7-2.7,2.7c-1.5,0-2.7-1.2-2.7-2.7c0-1.5,1.2-2.7,2.7-2.7C-67.3,16.8-66.1,18-66.1,19.5z"/>
	<path d="M-49.4,19.5c0,1.5-1.2,2.7-2.7,2.7c-1.5,0-2.7-1.2-2.7-2.7c0-1.5,1.2-2.7,2.7-2.7C-50.6,16.8-49.4,18-49.4,19.5z"/>
</g>
<g>
	<path d="M200.1-115c-2.1-9.7-10.2-17.4-20-19.1c-0.9-0.2-1.8-0.3-2.7-0.4h-3.1c-0.9,0.1-1.9,0.2-2.8,0.4
		c-10,1.6-18.3,9.8-20.1,19.7c-0.2,1.1-0.3,2.2-0.5,3.3v3.1c0.2,1.1,0.3,2.2,0.5,3.3c3.1,16.1,21,24.9,35.7,17.5
		C197.2-92.4,202.6-103.8,200.1-115z M175.7-86c-13,0-23.5-10.6-23.5-23.5c0-13,10.6-23.5,23.5-23.5c13,0,23.5,10.6,23.5,23.5
		C199.2-96.5,188.7-86,175.7-86z"/>
	<path d="M175.8-131.6c-12.2,0-22.1,9.8-22.1,22c0,12.2,9.8,22,22,22c12.2,0,22.1-9.8,22.1-22C197.8-121.7,188-131.5,175.8-131.6z
		 M175.7-89c-11.4,0-20.6-9.3-20.6-20.6c0-11.4,9.3-20.6,20.6-20.6c11.4,0,20.6,9.2,20.6,20.6C196.3-98.2,187.1-88.9,175.7-89z"/>
	<path d="M183-100.8c-0.1-0.8-0.8-1.4-1.5-1.5c-2-0.1-4,0-5.6,1.3c-0.6-0.3-1.2-0.6-1.7-0.9c-1.2-0.5-2.4-0.5-3.7-0.5
		c-1.2,0-1.9,0.7-2,1.9c0,0.9,0,1.8,0.2,2.6c0.4,2.3,1.7,3.8,4,4.4c2,0.5,4.1,0.5,6.1,0c1.4-0.3,2.6-1.1,3.3-2.4
		C183-97.3,183.2-99.1,183-100.8z M175.6-94.6c-0.2,0-0.5,0-0.7,0c-1,0-2-0.2-2.9-0.6c-1.3-0.7-1.8-1.8-2-3.1
		c-0.1-0.7-0.1-1.4-0.1-2.1c0-0.2,0.2-0.5,0.4-0.5c1.2-0.1,2.3,0,3.4,0.4c1.5,0.6,2.2,1.8,2.4,3.3c0.1,0.6,0.1,1.2,0.1,1.8
		C176.2-94.7,176.2-94.6,175.6-94.6z M181-96.9c-0.6,1.3-1.9,2.1-3.4,2.2c0.1-1.8-0.1-3.5-1-5.1c0.8-0.7,1.8-0.9,2.8-1
		c0.5-0.1,1.1,0,1.6,0c0.3,0,0.5,0.2,0.5,0.5C181.6-99.2,181.5-98,181-96.9z"/>
	<path d="M176-121.1c-1.4,0-2.5,1.1-2.5,2.5c0,1,0,2,0,3c0,1.4,1.2,2.5,2.6,2.5c1.4,0,2.5-1.1,2.5-2.5c0-0.5,0-1,0-1.5
		c0-0.5,0-1,0-1.5C178.5-120,177.4-121.1,176-121.1z M177.1-117.1c0,0.5,0,1,0,1.5c0,0.6-0.5,1-1,1.1c-0.6,0-1.1-0.4-1.1-1.1
		c0-1,0-2,0-2.9c0-0.6,0.5-1.1,1.1-1.1c0.6,0,1,0.5,1,1.1V-117.1z"/>
	<path d="M172.4-117.1c0-0.5,0-1,0-1.6c-0.1-1.4-1.2-2.5-2.6-2.5c-1.4,0-2.5,1.1-2.5,2.5c0,1,0,2,0,3c0,1.3,1.1,2.3,2.3,2.4
		c1.3,0.1,2.5-0.8,2.7-2.1C172.5-115.8,172.4-116.5,172.4-117.1L172.4-117.1z M171-117.1c0,0.5,0,0.9,0,1.4c0,0.7-0.5,1.2-1.1,1.2
		c-0.6,0-1-0.5-1-1.2c0-0.9,0-1.8,0-2.7c0-0.7,0.4-1.2,1-1.2c0.6,0,1.1,0.5,1.1,1.2C171-118,171-117.6,171-117.1z"/>
	<path d="M163.2-105.7c0,0.4-0.1,0.8-0.6,0.9c-0.4,0.1-0.7-0.1-1-0.4c-0.5-0.8-1.1-1.6-1.8-2.4v1.8c0,0.8-0.2,1.2-0.7,1.2
		s-0.7-0.4-0.7-1.2v-4c0-0.4,0-0.8,0.5-0.9c0.5-0.1,0.7,0.1,1,0.5c0.6,0.8,1.1,1.7,1.8,2.6c0-0.8,0-1.5,0-2.2c0-0.6,0.3-0.9,0.7-0.9
		c0.4,0,0.7,0.3,0.7,0.9C163.2-108.6,163.2-107.1,163.2-105.7z"/>
	<path d="M183.3-106c-0.3-0.4-0.6-0.7-1-1.1c0.1-0.1,0.2-0.1,0.3-0.2c0.7-0.5,1.1-1.3,0.9-2c-0.2-0.8-0.8-1.5-1.7-1.6
		c-0.5-0.1-1,0-1.5,0c-0.5,0-0.8,0.3-0.8,0.8c0,1.5,0,3,0,4.5c0,0.5,0.3,0.8,0.7,0.8c0.4,0,0.7-0.3,0.7-0.8c0-0.3,0-0.5,0-0.9
		c0.5,0.5,0.8,1,1.2,1.3c0.4,0.4,0.8,0.4,1.1,0.1C183.6-105.2,183.6-105.6,183.3-106z M182-108.7c-0.3,0.1-0.6,0.2-0.9,0.4v-1.2
		c0.4,0.1,0.7,0.2,0.9,0.4C182-109.1,182-108.7,182-108.7z"/>
	<path d="M169.2-105.8c-0.6-1.5-1.1-3-1.7-4.5c-0.1-0.4-0.4-0.6-0.8-0.6c-0.4,0-0.7,0.2-0.8,0.6c-0.2,0.6-0.4,1.1-0.6,1.7
		c-0.4,1-0.7,1.9-1.1,2.9c-0.2,0.4-0.1,0.7,0.3,0.9c0.4,0.2,0.8,0.1,0.9-0.3c0.2-0.6,0.6-0.5,1-0.5c0.2,0,0.5,0,0.7,0
		c0.4,0,0.7,0,0.8,0.5c0.1,0.3,0.4,0.5,0.8,0.4c0.4-0.1,0.5-0.4,0.5-0.8C169.2-105.5,169.2-105.7,169.2-105.8z M166.2-107
		c0.2-0.4,0.3-0.7,0.5-1.2c0.2,0.5,0.3,0.8,0.5,1.2H166.2z"/>
	<path d="M178.5-106.6c-0.1,1.1-1.3,1.9-2.4,1.9c-1.2,0-2.2-1-2.3-2c0-0.6,0-1.1,0-1.7c0-0.5,0-1.1,0-1.7c0-0.5,0.3-0.8,0.7-0.8
		c0.4,0,0.8,0.3,0.8,0.8c0,1,0,2,0,3c0,0.5,0.3,0.9,0.8,0.9c0.6,0,1-0.3,1-0.9c0-0.9,0-1.8,0-2.7c0-0.2,0-0.3,0-0.4
		c0.1-0.4,0.3-0.6,0.7-0.6c0.4,0,0.7,0.3,0.7,0.7C178.5-109,178.5-107.8,178.5-106.6z"/>
	<path d="M189.2-105.8c-0.6-1.5-1.1-3-1.7-4.5c-0.1-0.4-0.4-0.6-0.8-0.6c-0.4,0-0.7,0.2-0.8,0.6c-0.2,0.5-0.4,1.1-0.6,1.6
		c-0.4,1-0.7,1.9-1.1,2.9c-0.2,0.4-0.1,0.8,0.3,1c0.4,0.2,0.8,0.1,0.9-0.3c0.2-0.6,0.6-0.5,1-0.5c0.2,0,0.4,0,0.7,0
		c0.4,0,0.7,0,0.8,0.5c0.1,0.3,0.4,0.5,0.8,0.4c0.3-0.1,0.5-0.3,0.5-0.8C189.3-105.5,189.3-105.6,189.2-105.8z M186.3-107
		c0.1-0.4,0.3-0.8,0.5-1.2c0.2,0.5,0.3,0.8,0.5,1.2H186.3z"/>
	<path d="M166.4-120.2c0,2.1,0,4.1,0,6.1c0,0.5-0.3,0.8-0.7,0.8c-0.4,0-0.7-0.3-0.7-0.8c0-1.6,0-3.3,0-4.9c0-0.2,0-0.3,0-0.6
		c-0.3,0-0.5,0-0.7,0c-0.4,0-0.6-0.3-0.6-0.6c0-0.4,0.2-0.7,0.5-0.7c0.6-0.1,1.1-0.1,1.7,0C166.2-120.9,166.4-120.6,166.4-120.2z"/>
	<path d="M172.9-110.1c0,0.4-0.3,0.6-0.6,0.7c-0.2,0-0.4,0-0.6,0v1.3c0,0.9,0,1.8,0,2.6c0,0.5-0.3,0.8-0.7,0.8
		c-0.4,0-0.7-0.3-0.7-0.8c0-1.3,0-2.6,0-3.9c-0.3,0-0.4,0-0.6,0c-0.4,0-0.6-0.3-0.7-0.7c0-0.4,0.2-0.7,0.6-0.7c1,0,2,0,2.9,0
		C172.8-110.8,173-110.5,172.9-110.1z"/>
	<path d="M187.3-120.2c0,0.1-0.1,0.2-0.1,0.4c-0.8,1.9-1.6,3.8-2.4,5.6c-0.2,0.4-0.4,0.6-0.8,0.6c-0.5,0-0.8-0.5-0.6-1
		c0.8-2,1.7-4,2.5-6c0.2-0.4,0.5-0.5,0.8-0.4C187.1-120.8,187.3-120.6,187.3-120.2z"/>
	<path d="M182-121.2c-1,0-1.8,0.9-1.8,2c0,1.1,0.8,2,1.8,2c1,0,1.8-0.9,1.8-2C183.8-120.3,183-121.2,182-121.2z M182-118.7
		c-0.1-0.2-0.3-0.4-0.3-0.5c0-0.2,0.2-0.4,0.4-0.5c0.1,0.2,0.3,0.3,0.5,0.6C182.3-119,182.2-118.8,182-118.7z"/>
	<path d="M188.6-117.2c-1,0-1.8,0.8-1.9,2c0,1.1,0.8,2,1.8,2c1,0,1.9-0.9,1.9-2C190.4-116.2,189.6-117.1,188.6-117.2z M188.5-114.6
		c-0.1-0.2-0.3-0.4-0.3-0.6c0-0.2,0.2-0.3,0.3-0.5c0.2,0.2,0.3,0.3,0.5,0.6C188.8-114.9,188.7-114.8,188.5-114.6z"/>
	<path d="M193-105.4c0,0.4-0.3,0.7-0.7,0.8c-0.5,0-1.1,0-1.6,0c-0.5,0-0.8-0.3-0.8-0.7c0-1.6,0-3.2,0-4.7c0-0.4,0.3-0.7,0.7-0.7
		c0.4,0,0.7,0.3,0.7,0.8c0,1.1,0,2.2,0,3.3v0.6c0.3,0,0.6,0,0.9,0C192.8-106.1,193-105.9,193-105.4z"/>
</g>
<g>
	<path class="st0" d="M150.8-39c0-7.8,0-15.7,0-23.5c16.7,0,33.3,0,50,0c0,16.7,0,33.3,0,50c-7.8,0-15.7,0-23.5,0
		c0.1,0,0.3-0.1,0.4-0.1c2.1-0.2,4.1-0.6,6.1-1.2c11.2-3.9,18.1-14.7,16.7-26.5c-0.8-6.7-3.8-12.3-9.1-16.5
		c-7.7-6-16.2-7.3-25.2-3.6c-8.3,3.4-13.3,9.8-15,18.6C151-40.9,150.9-39.9,150.8-39z"/>
	<path d="M200.5-40.4c-0.8-6.7-3.8-12.3-9.1-16.5c-0.6-0.5-1.2-0.9-1.8-1.3c-0.3-0.2-0.7-0.4-1-0.6c-0.3-0.2-0.6-0.4-0.9-0.5
		c0,0,0,0,0,0c-0.2-0.1-0.4-0.2-0.6-0.3c-0.2-0.1-0.4-0.2-0.6-0.3c0,0,0,0,0,0c-0.2-0.1-0.5-0.2-0.7-0.3c-0.6-0.3-1.2-0.5-1.8-0.7
		c-0.2-0.1-0.4-0.2-0.6-0.2c-0.4-0.1-0.8-0.3-1.1-0.4c-0.1,0-0.2-0.1-0.3-0.1c-0.1,0-0.2-0.1-0.3-0.1c0,0,0,0-0.1,0
		c-0.2,0-0.4-0.1-0.6-0.1c-0.3-0.1-0.5-0.1-0.8-0.1c0,0,0,0,0,0c-0.1,0-0.2,0-0.3-0.1c-0.2,0-0.4-0.1-0.6-0.1c-0.1,0-0.2,0-0.4,0
		c-0.2,0-0.4-0.1-0.7-0.1c-0.3,0-0.5,0-0.8,0c-0.3,0-0.6,0-0.9,0h-0.9c-0.4,0-0.8,0-1.2,0c0,0-0.1,0-0.1,0c-0.2,0-0.5,0-0.7,0
		c-0.1,0-0.3,0-0.4,0c-0.4,0-0.7,0.1-1.1,0.2c-0.1,0-0.3,0-0.4,0.1c-0.1,0-0.1,0-0.2,0c-0.2,0-0.4,0.1-0.7,0.1c0,0,0,0-0.1,0
		c-0.3,0.1-0.5,0.1-0.8,0.2c-0.1,0-0.2,0-0.2,0.1c0,0-0.1,0-0.1,0c-0.4,0.1-0.7,0.2-1.1,0.3c-0.4,0.1-0.8,0.3-1.3,0.4
		c-0.4,0.1-0.8,0.3-1.3,0.5c-8.3,3.4-13.3,9.8-15,18.6c-0.2,0.9-0.3,1.9-0.4,2.8v3.1c0.1,1,0.2,1.9,0.4,2.8c1.6,9.7,9.6,18,19.3,20
		c1.1,0.2,2.3,0.3,3.4,0.5c0.1,0,0.2,0,0.3,0.1h3.1c0.1,0,0.3-0.1,0.4-0.1c2.1-0.2,4.1-0.6,6.1-1.2C195-17.7,201.9-28.6,200.5-40.4z
		 M175.7-14.4c-12.7,0-23-10.4-23-23.1c0-12.6,10.4-22.9,23-22.9c12.7,0,23,10.4,23,23S188.4-14.4,175.7-14.4z"/>
	<path class="st0" d="M150.8-35.9c0.1,0.9,0.2,1.9,0.4,2.8c1.6,9.7,9.6,18,19.3,20c1.1,0.2,2.3,0.3,3.4,0.5c0.1,0,0.2,0.1,0.3,0.1
		c-7.8,0-15.6,0-23.4,0C150.8-20.3,150.8-28.1,150.8-35.9z"/>
	<path d="M175.7-58.1c-11.4,0-20.7,9.3-20.6,20.7c0,11.4,9.3,20.7,20.7,20.6c11.4,0,20.6-9.3,20.6-20.6
		C196.4-48.8,187.1-58.1,175.7-58.1z M162.4-50.5c7.4-7.6,19-7.2,25.8-0.9c-3.8,3.8-7.6,7.6-11.4,11.4c0-0.2,0-0.4,0-0.6
		c-0.1-1.4,0-2.8-0.3-4.2c-0.8-3.6-4.2-6-8-5.8c-3.5,0.2-6.5,3.1-6.9,6.6c0,0.4-0.1,0.8-0.1,1.2c0,3.2,0,6.4,0,9.5
		c0,2.4,0.4,4.5,2.1,6.3l-1.8,1.8C155.8-31.4,154.9-42.9,162.4-50.5z M174.2-29.4c-1.3,2.6-4.4,3.8-7.1,2.8
		c-0.1-0.1-0.3-0.1-0.4-0.2c2.7-2.7,5.4-5.4,8.1-8C174.7-33.1,175.1-31.2,174.2-29.4z M163.7-44.3c0.5-2.8,3.3-4.6,6.1-4.3
		c2.8,0.3,4.9,2.6,5,5.4c0,1.6,0,3.1,0,4.7h-11.2c0,0-0.1-0.1-0.1-0.1C163.5-40.4,163.4-42.4,163.7-44.3z M173.2-36.4
		c-2.7,2.7-5.5,5.5-8.3,8.3c-0.9-0.9-1.4-2.1-1.5-3.4c-0.1-1.6,0-3.2,0-4.9H173.2z M189.1-24.3c-7.4,7.5-18.9,7.2-25.8,0.8
		c0.6-0.6,1.3-1.3,1.9-1.9c1.7,1,3.7,1.3,5.7,0.8c2-0.5,3.6-1.7,4.7-3.5c2.5,4.2,7.7,4.7,10.9,2.2c3.2-2.5,3.8-7,1.3-10.2
		c-2.5-3.3-7.6-4-11-0.6c0,0-0.1,0-0.1-0.1c0.1-0.2,0.2-0.4,0.3-0.6c3-3,6-6,9-9c1.2-1.2,2.4-2.4,3.6-3.6
		C195.8-43.4,196.6-32,189.1-24.3z M176.8-31.6c0-2.9,2.4-5.3,5.3-5.3c2.9,0,5.3,2.4,5.3,5.3c0,3-2.4,5.4-5.4,5.3
		C179.2-26.3,176.8-28.7,176.8-31.6z"/>
</g>
<g>
	<path d="M50,21.4V23c-0.1,0.3-0.2,0.7-0.2,1c-0.3,1.3-1,2.4-2,3.3c-5.2,5.1-10.3,10.3-15.5,15.5c-1.6,1.6-3.2,3.2-4.8,4.8
		c-1.2,1.2-2.6,2-4.3,2.3c0,0-0.1,0-0.1,0.1h-1.7c-0.3-0.1-0.7-0.1-1-0.2c-1.2-0.3-2.2-0.9-3.1-1.8c-1.6-1.6-3.1-3.1-4.7-4.7
		c-0.5-0.5-0.5-1-0.1-1.5c0.4-0.4,1-0.4,1.5,0.1c1.5,1.5,2.9,2.9,4.4,4.4c2.3,2.3,5.3,2.3,7.5,0c6.8-6.8,13.6-13.6,20.4-20.4
		c2.2-2.2,2.3-5.2,0-7.5c-5-4.9-9.9-9.9-14.8-14.8c-2.2-2.2-5.2-2.2-7.5,0c-6.8,6.8-13.7,13.6-20.5,20.4c-2.2,2.2-2.2,5.2,0,7.4
		c1.3,1.3,2.7,2.7,4,4c0.2,0.2,0.4,0.6,0.4,0.9c0,0.3-0.2,0.7-0.5,0.8c-0.2,0.1-0.6,0-1,0c-0.1,0-0.1-0.1-0.2-0.1
		c-1.6-1.6-3.3-3.2-4.8-4.9c-0.9-0.9-1.3-2.1-1.5-3.3c0-0.1-0.1-0.2-0.1-0.3v-1.6c0.1-0.3,0.1-0.7,0.2-1c0.4-1.3,1-2.4,2-3.3
		c4.1-4.1,8.3-8.2,12.4-12.4c2.7-2.7,5.4-5.3,8-8c2.9-3,7.5-3,10.4,0c4.9,5,9.8,9.9,14.8,14.8c1.2,1.2,1.9,2.5,2.1,4.1
		C49.9,21.3,50,21.4,50,21.4z"/>
	<path d="M34.2,11.4c-0.2,0.3-0.3,0.6-0.5,0.8c-1.7,1.7-3.4,3.5-5.2,5.2C23,22.8,17.6,28.2,12.2,33.6c-0.2,0.2-0.5,0.4-0.8,0.5
		c-0.4,0.1-0.7-0.1-0.9-0.5c-0.2-0.4-0.2-0.7,0.1-1.1c0.1-0.1,0.2-0.2,0.3-0.3c7.1-7.1,14.3-14.3,21.5-21.4c0.3-0.3,0.7-0.6,1.2-0.5
		C33.8,10.5,34.1,10.9,34.2,11.4z"/>
	<path d="M20.7,11.6c-1.7,0-3.1,1.4-3.1,3.1c0,1.7,1.4,3,3.1,3c1.7,0,3-1.4,3-3.1C23.7,13,22.4,11.6,20.7,11.6z M20.6,15.8
		c-0.6,0-1.1-0.5-1.1-1.1c0-0.6,0.5-1.1,1.1-1.1c0.6,0,1.1,0.5,1.1,1.2C21.8,15.4,21.3,15.8,20.6,15.8z"/>
	<path d="M26.7,5.6c-1.7,0-3.1,1.3-3,3.1c0,1.7,1.4,3.1,3.1,3.1c1.7,0,3.1-1.4,3.1-3.1C29.8,7,28.4,5.6,26.7,5.6z M26.7,9.8
		c-0.6,0-1.1-0.5-1.1-1.1c0-0.6,0.5-1.1,1.1-1.1c0.6,0,1.1,0.5,1.2,1.1S27.3,9.8,26.7,9.8z"/>
	<path d="M35.5,26.5c-1.7,0-3.1,1.4-3.1,3c0,1.7,1.4,3.1,3.1,3.1c1.7,0,3.1-1.4,3.1-3.1S37.2,26.5,35.5,26.5z M35.5,30.7
		c-0.6,0-1.1-0.5-1.1-1.1c0-0.6,0.5-1.1,1.1-1.1s1.1,0.5,1.1,1.1C36.6,30.2,36.2,30.7,35.5,30.7z"/>
	<path d="M23.5,38.5c-1.7,0-3.1,1.4-3.1,3.1c0,1.7,1.4,3.1,3.1,3.1c1.7,0,3.1-1.4,3.1-3.1C26.5,39.9,25.2,38.5,23.5,38.5z
		 M23.5,42.7c-0.6,0-1.1-0.5-1.1-1.1c0-0.6,0.5-1.2,1.1-1.2c0.6,0,1.1,0.5,1.1,1.1C24.6,42.2,24.1,42.7,23.5,42.7z"/>
	<path d="M8.6,23.7c-1.7,0-3,1.3-3,3.1s1.4,3.1,3,3.1c1.7,0,3.1-1.4,3.1-3C11.7,25,10.3,23.7,8.6,23.7z M8.6,27.9
		c-0.6,0-1.1-0.5-1.1-1.1c0-0.6,0.5-1.1,1.1-1.1c0.6,0,1.1,0.5,1.1,1.1C9.7,27.4,9.2,27.9,8.6,27.9z"/>
	<path d="M14.7,17.6c-1.7,0-3.1,1.3-3.1,3s1.3,3.1,3,3.1c1.7,0,3.1-1.3,3.1-3C17.7,19,16.4,17.7,14.7,17.6z M14.7,21.8
		c-0.6,0-1.1-0.5-1.1-1.1c0-0.6,0.5-1.1,1.1-1.2c0.6,0,1.2,0.5,1.2,1.1C15.8,21.3,15.3,21.8,14.7,21.8z"/>
	<path d="M23.8,26.7c-1.7,0-3.1,1.4-3.1,3.1c0,1.7,1.4,3.1,3,3.1c1.7,0,3.1-1.4,3.1-3C26.8,28.2,25.4,26.7,23.8,26.7z M23.7,30.9
		c-0.6,0-1.1-0.5-1.1-1.1c0-0.6,0.5-1.1,1.1-1.1c0.6,0,1.1,0.5,1.1,1.1C24.8,30.5,24.3,30.9,23.7,30.9z"/>
	<path d="M35.8,14.7c-1.7,0-3.1,1.4-3.1,3.1c0,1.7,1.4,3.1,3.1,3c1.7,0,3.1-1.4,3-3.1C38.8,16,37.5,14.7,35.8,14.7z M35.8,18.9
		c-0.6,0-1.1-0.5-1.1-1.2c0-0.6,0.5-1.1,1.1-1.1c0.6,0,1.1,0.5,1.1,1.1C36.9,18.4,36.4,18.9,35.8,18.9z"/>
	<path d="M29.5,32.5c-1.6,0-3.1,1.3-3.1,3c0,1.7,1.3,3.1,3,3.1c1.7,0,3.1-1.3,3.2-3C32.6,33.9,31.2,32.5,29.5,32.5z M29.5,36.7
		c-0.6,0-1.1-0.5-1.1-1.1s0.5-1.1,1.1-1.1c0.6,0,1.2,0.5,1.1,1.1C30.6,36.2,30.1,36.7,29.5,36.7z"/>
	<path d="M17.7,32.8c-1.7,0-3.1,1.3-3.1,3c0,1.7,1.3,3.1,3,3.1c1.7,0,3.1-1.4,3.1-3.1C20.8,34.1,19.4,32.8,17.7,32.8z M17.7,36.9
		c-0.6,0-1.1-0.5-1.1-1.1c0-0.6,0.5-1.1,1.1-1.1s1.1,0.5,1.1,1.1C18.8,36.5,18.3,36.9,17.7,36.9z"/>
	<path d="M41.6,20.5c-1.7,0-3.1,1.4-3.1,3.1c0,1.7,1.4,3.1,3.1,3.1c1.7,0,3.1-1.4,3.1-3.1C44.6,21.8,43.3,20.5,41.6,20.5z
		 M41.5,24.6c-0.6,0-1.1-0.5-1.1-1.1c0-0.6,0.5-1.1,1.1-1.1s1.1,0.5,1.1,1.1C42.7,24.2,42.2,24.7,41.5,24.6z"/>
	<path d="M29.8,20.7c-1.7,0-3.1,1.3-3.1,3.1c0,1.7,1.4,3,3.1,3c1.7,0,3-1.3,3-3.1C32.8,22.1,31.5,20.7,29.8,20.7z M29.8,24.9
		c-0.6,0-1.1-0.5-1.1-1.1c0-0.6,0.5-1.1,1.1-1.1c0.6,0,1.1,0.5,1.1,1.1C30.9,24.4,30.4,24.9,29.8,24.9z"/>
	<path d="M11.2,39.5c0,0.5-0.5,1-1,0.9c-0.5,0-1-0.5-1-1c0-0.5,0.5-1,1-1C10.8,38.5,11.3,39,11.2,39.5z"/>
</g>
<g>
	<path d="M197.1,46.9c-0.2-1.4-1.3-2.3-2.7-2.4c-0.3,0-0.6,0-0.8,0c-0.1-0.8-0.1-1.5-0.2-2.2c-1-4.4-5.8-6.4-9.6-4
		c-0.1,0.1-0.3,0.2-0.3,0.2c-0.4-0.2-0.8-0.4-1.1-0.6c-0.1-0.1-0.1-0.5-0.1-0.7v-21c0-3-1.3-5.3-3.9-6.8c-0.6-0.4-0.6-0.5-0.4-1.2
		c0.1,0,0.2,0,0.3,0c1.2,0,1.6-0.4,1.6-1.6v-5c0-1.1-0.4-1.5-1.5-1.5h-20c-0.9,0-1.4,0.4-1.4,1.2c0,1.9,0,3.8,0,5.7
		c0,0.7,0.5,1.2,1.3,1.2c0.2,0,0.4,0,0.7,0c-0.1,0.4,0.2,0.8-0.3,1.1c-2.8,1.6-4.1,4-4.1,7.2c0,4.2,0,8.4,0,12.6
		c0,0.2,0,0.4,0.1,0.6c0.1,0.4,0.4,0.5,0.7,0.5c0.4,0,0.6-0.2,0.7-0.6c0-0.1,0-0.3,0-0.4c0-1.8,0-3.5,0-5.3v-0.5h8.3
		c0,0.1,0,0.2,0,0.3c0,0.8,0.2,1,1,1h1.1c0,0.5,0,0.9,0,1.3c0,0.6,0.3,0.8,0.8,0.8c0.8,0,1.7,0,2.5,0c0.6,0,0.8-0.3,0.8-0.9
		c0-0.4,0-0.8,0-1.2c0.3,0,0.5,0,0.8,0c0.9,0.1,1.3,0,1.3-1.2c0,0,0-0.1,0.1-0.1h8.2v14.2c-1.3-0.2-2.5,0-3.7,0.5
		c-0.1-0.1-0.1-0.1-0.1-0.2c-0.8-1.3-1.9-2.3-3.2-3.1c-0.2-0.1-0.3-0.4-0.3-0.5c-0.2-2.9-2.4-5.4-5.3-5.8c-0.5-0.1-1,0.1-1.3,0.5
		c-0.3,0.4-0.4,0.9-0.1,1.4c0.1,0.3,0.3,0.5,0.4,0.7c0.3,0.7,0.5,1.5,0.4,2.3c-2.9,0.3-5.4,1.5-7.2,3.8c-0.5,0.7-1.1,0.9-1.9,0.9
		c-0.8-0.1-1.7,0-2.6,0v-0.6c0-1.4,0-2.8,0-4.2c0-0.5-0.3-0.9-0.7-0.9c-0.5,0-0.8,0.3-0.8,0.9c0,4.8,0,9.5,0,14.3
		c0,1.3,0.8,2.3,2,2.6c0.1,0,0.1,0.1,0.2,0.1h23.8c1-0.2,2-0.5,2.9-1.1c0.1,0,0.2,0,0.3,0c0.9,0.6,1.9,0.9,2.9,1.1h8.4
		c0.1,0,0.2-0.1,0.3-0.1C196.5,49.4,197.3,48.2,197.1,46.9z M176.2,1.6h2V4h-2V1.6z M172.7,1.6h2.1V4h-2.1V1.6z M169.1,1.6h2.1V4
		h-2.1V1.6z M165.5,1.6h2V4h-2V1.6z M161.9,1.6h2.1V4h-2.1V1.6z M158.3,1.6h2.1V4h-2.1V1.6z M158.3,6.7V5.5h19.9v1.2H158.3z M171,23
		c-0.4,0-0.8,0-1.1,0c-0.7,0-0.9,0.3-0.9,0.9c0,0.3,0,0.7,0,1c0,0,0,0.1,0,0.1h-1.2c0-0.4,0-0.8,0-1.2c0-0.6-0.3-0.9-0.9-0.9
		c-0.4,0-0.8,0-1.2,0v-1.2c0.4,0,0.8,0,1.2,0c0.6,0,0.8-0.3,0.9-0.8c0-0.4,0-0.8,0-1.2h1.2c0,0.4,0,0.8,0,1.2c0,0.6,0.3,0.8,0.8,0.8
		c0.4,0,0.8,0,1.2,0V23z M172.5,21.6c-0.2-1.3-0.2-1.3-1.6-1.3h-0.5v-1.2c0-0.6-0.3-0.9-0.9-0.9c-0.8,0-1.6,0-2.4,0
		c-0.6,0-0.8,0.3-0.8,0.9c0,0.4,0,0.7,0,1.1c0,0,0,0.1-0.1,0.1h-1c-0.8,0-1,0.2-1,1c0,0.1,0,0.2,0,0.3h-8.2v-4.8c0.2,0,0.4,0,0.6,0
		c4.5,0,8.9,0,13.4,0c0.2,0,0.4,0,0.6,0c0.4-0.1,0.5-0.3,0.5-0.7s-0.2-0.6-0.6-0.7c-0.2,0-0.4,0-0.6,0h-14c0-0.3,0.1-0.5,0.1-0.7
		c0.4-1.8,1.5-3.2,3.1-4.1c0.8-0.4,1.2-0.9,1.1-1.8c0-0.2,0-0.4,0-0.5h16.1c0,0.3,0,0.5,0,0.8c0,0.7,0.3,1.1,0.9,1.5
		c1.9,1,3,2.5,3.4,4.6c0,0.1,0,0.1,0,0.3h-6.5c-0.2,0-0.3,0-0.5,0c-0.4,0.1-0.6,0.3-0.6,0.7c0,0.4,0.2,0.6,0.5,0.7
		c0.2,0,0.4,0,0.6,0c2,0,3.9,0,5.9,0h0.6v4.8H172.5z M167.2,34.7c-0.5,1.2-1.4,2.1-2.5,2.7c-0.2,0.1-0.5,0.2-0.7,0.3
		c-0.5,0.2-0.8,0.6-0.8,1.1c0,0.5,0.2,0.9,0.6,1.2c1.3,0.7,2.6,1,4,0.9c0.5-0.1,0.8-0.4,0.7-0.9c-0.1-0.4-0.4-0.6-0.9-0.6
		c-0.9,0.1-1.8-0.1-2.7-0.5c3.6-1.4,5.2-5.6,3.3-9.1c0.9,0.2,1.6,0.6,2.2,1.2c2,1.9,2.1,5,0.2,7c-0.1,0.1-0.3,0.3-0.4,0.5
		c-0.1,0.3-0.1,0.6,0.2,0.9c0.3,0.2,0.7,0.2,0.9-0.1c0.8-0.7,1.3-1.6,1.7-2.6c0-0.1,0.1-0.3,0.2-0.4c1,0.7,1.9,1.5,2.5,2.6
		c-1.1,0.9-1.8,2-2.2,3.3c-0.2,0.7-0.2,0.7-1,0.7h-13C159.7,38.6,163.4,34.9,167.2,34.7z M155.9,39.3h3c-0.1,0.2-0.2,0.4-0.2,0.6
		c-0.2,0.8-0.4,1.5-0.5,2.3c0,0.3-0.1,0.4-0.4,0.4c-0.6,0-1.2,0-1.8,0V39.3z M175,48.5h-17.6c-1.1,0-1.5-0.5-1.5-1.5
		c0-0.9,0-1.8,0-2.7c0,0,0-0.1,0.1-0.2h0.5c5.4,0,10.8,0,16.3,0c0.4,0,0.6,0.1,0.7,0.6c0.2,1.3,0.8,2.4,1.7,3.4
		c0.1,0.1,0.3,0.3,0.4,0.4c0,0,0,0,0,0.1C175.3,48.5,175.2,48.5,175,48.5z M184.4,47.4c0,0,0,0.1,0,0.1c-0.1,0-0.1,0.1-0.2,0.1
		c-0.4-0.5-0.9-1-1.3-1.6c-0.4-0.5-0.7-0.7-1.1-0.4c-0.4,0.2-0.4,0.7-0.1,1.2c0.2,0.3,0.4,0.6,0.6,0.9c-1.2,1.1-4,1.3-5.9-0.5
		c-1.9-1.8-2.1-4.7-0.4-6.7c1.6-1.9,4.5-2.3,6.3-1c-0.6,0.8-1.1,1.7-1.3,2.7c0,0.2-0.1,0.4-0.1,0.6c0,0.4,0.2,0.7,0.6,0.8
		c0.4,0.1,0.7-0.1,0.8-0.5c0.1-0.3,0.1-0.6,0.2-1c0.7-2.4,3.1-3.8,5.6-3.3c2.4,0.4,4.1,2.7,3.9,5.1c0,0.4-0.1,0.6-0.6,0.6
		c-1.4,0-2.7,0-4.1,0C185.5,44.5,184.5,45.6,184.4,47.4z M194.1,48.5h-6.9c-0.7,0-1.2-0.4-1.3-0.9c-0.1-0.5,0.1-1.2,0.6-1.4
		c0.3-0.1,0.6-0.2,0.9-0.2c1.1,0,2.2,0,3.4,0h3.4c0.9,0,1.5,0.5,1.5,1.3C195.6,48,195,48.5,194.1,48.5z"/>
	<path class="st0" d="M180.4,50c1-0.2,2-0.5,2.9-1.1c0.1,0,0.2,0,0.3,0c0.9,0.6,1.9,0.9,2.9,1.1C184.5,50,182.5,50,180.4,50z"/>
	<path d="M163.2,25.3c0,0.4-0.3,0.7-0.9,0.7c-1.4,0-2.7,0-4.1,0c-0.5,0-0.9-0.3-0.9-0.7c0-0.4,0.3-0.7,0.9-0.7c0.7,0,1.3,0,2,0
		c0.7,0,1.4,0,2,0C162.8,24.6,163.2,24.9,163.2,25.3z"/>
	<path d="M179.2,25.3c0,0.4-0.3,0.7-0.8,0.8c-1.4,0-2.8,0-4.1,0c-0.5,0-0.8-0.3-0.8-0.8c0-0.4,0.3-0.7,0.8-0.7c0.7,0,1.4,0,2.1,0
		c0.7,0,1.3,0,2,0C178.9,24.6,179.2,24.9,179.2,25.3z"/>
	<path d="M163.2,28.3c0,0.4-0.3,0.7-0.9,0.7c-1.4,0-2.7,0-4.1,0c-0.5,0-0.9-0.3-0.9-0.7c0-0.5,0.3-0.7,0.9-0.7c0.7,0,1.3,0,2,0
		c0.7,0,1.4,0,2,0C162.8,27.5,163.2,27.8,163.2,28.3z"/>
	<path d="M179.2,28.2c0,0.4-0.3,0.7-0.8,0.7c-1.4,0-2.8,0-4.1,0c-0.5,0-0.8-0.3-0.8-0.7c0-0.4,0.3-0.7,0.8-0.7c0.7,0,1.4,0,2,0
		s1.4,0,2,0C178.9,27.5,179.2,27.8,179.2,28.2z"/>
</g>
</svg>
