<svg id="Camada_1" data-name="Camada 1" xmlns="http://www.w3.org/2000/svg" viewBox="0 0 50 50"><title>icon</title><path d="M48.85,8.87A9.42,9.42,0,0,0,41,1.13c-4.79-1-8.44,1-11,5.07A19.52,19.52,0,0,0,6.11,30.1C2,32.71,0,36.38,1,41.21A9.42,9.42,0,0,0,8.79,49c4.83,1,8.5-1,11.09-5.05,7.18,1.62,13.59.14,18.84-5.1S45.44,27.15,43.81,20C47.9,17.38,49.87,13.71,48.85,8.87ZM11.17,13.55A17.86,17.86,0,0,1,29.39,7.71c-.13.5-.25,1-.38,1.43-6-1.26-11.28,0-15.61,4.34S7.79,23.12,9.05,29.11l-.69.17-.7.2C6.34,25.51,6.81,18.77,11.17,13.55ZM11,47.66a8.58,8.58,0,1,1,8.53-8.59A8.59,8.59,0,0,1,11,47.66Zm7.11-15.74a10.14,10.14,0,0,0-7.46-3l-.49-3.07h3.1V24.28h-3A14.78,14.78,0,0,1,14,15.13l1.76,1.94,1.15-1.16-1.81-1.76c1.31-1.86,6.44-4,9.08-3.82v3h1.56V10.21l3.09.49A10.28,10.28,0,0,0,39.25,21.17c.1.49.23,1,.31,1.5s.12,1,.18,1.59H36.68V25.8h3A14.75,14.75,0,0,1,35.94,35L34.13,33.1c-.36.4-.68.77-1,1.15L34.89,36a14.88,14.88,0,0,1-9.15,3.82v-3H24.18v3.11l-3.11-.49A10.15,10.15,0,0,0,18.07,31.92Zm20,5.37a17.79,17.79,0,0,1-17.57,5.08c.14-.5.26-1,.39-1.42,6,1.26,11.29,0,15.62-4.35S42.12,27,40.85,21l1.4-.37A17.64,17.64,0,0,1,38.08,37.29ZM39,19.59a8.58,8.58,0,1,1,8.59-8.53A8.59,8.59,0,0,1,39,19.59Z"/><path d="M31,29.87,29.78,31a2.26,2.26,0,0,1-.24-.21c-1.65-1.65-3.31-3.3-4.95-5a1.33,1.33,0,0,1-.4-.83c0-2.74,0-5.49,0-8.23,0-.06,0-.12,0-.23h1.53V17c0,2.43,0,4.86,0,7.3A1.17,1.17,0,0,0,26,25c1.5,1.53,3,3,4.53,4.55C30.69,29.67,30.83,29.75,31,29.87Z"/><path d="M41.7,11.77h3.49v1.55c-.13,0-.27,0-.41,0H40c-.42,0-.78-.06-1-.49s.06-.74.35-1c1-1,2-2,3.16-3.15H39V7.11h5.25a.81.81,0,0,1,.6,1.47l-2.79,2.79Z"/><path d="M37.39,13.34V14.9c-1.33,0-2.65,0-4,0a.88.88,0,0,1-.6-.53,1,1,0,0,1,.2-.79c.4-.48.88-.9,1.33-1.35l.37-.4H32.78V10.24c1.33,0,2.66,0,4,0a.8.8,0,0,1,.58.49,1.12,1.12,0,0,1-.18.83,18.81,18.81,0,0,1-1.33,1.35c-.11.11-.21.23-.37.41Z"/><path d="M17,41c-.24-.38-.6-.37-1-.34a4.18,4.18,0,0,1-4.25-2.91,4.38,4.38,0,0,1,.38-3.57.81.81,0,0,0-.78-1.3H11a6.24,6.24,0,0,0-1,12.26A6.08,6.08,0,0,0,16.92,42,1,1,0,0,0,17,41Zm-6.77,2.58A4.65,4.65,0,0,1,7,38.72a4.51,4.51,0,0,1,3.17-4,6,6,0,0,0,4.67,7.48C14.13,43.43,12,44.08,10.26,43.55Z"/></svg>