<svg id="Camada_1" data-name="Camada 1" xmlns="http://www.w3.org/2000/svg" viewBox="0 0 50 50"><title>icon</title><path d="M49.76,22.54A23.77,23.77,0,0,0,43.67,8.6,24.44,24.44,0,0,0,26,.13,23.71,23.71,0,0,0,12.24,3.61,24.58,24.58,0,0,0,.39,20.76c-.18.93-.26,1.88-.39,2.83v2.92c.13.95.21,1.9.39,2.83A24.61,24.61,0,0,0,12.23,46.49a23.68,23.68,0,0,0,10.88,3.43,2.57,2.57,0,0,1,.38.08h2.92c.84-.1,1.68-.18,2.51-.32a24.32,24.32,0,0,0,13.49-6.84A24.38,24.38,0,0,0,49.76,22.54ZM24.92,47.29A22.24,22.24,0,1,1,47.19,25.08,22.24,22.24,0,0,1,24.92,47.29Z"/><path d="M37.18,34.77,35.09,36.4a12.9,12.9,0,0,0-20.27,0l-2.09-1.62A15.47,15.47,0,0,1,37.18,34.77Z"/><path d="M19.32,19.49a2.68,2.68,0,0,1-2.69,2.69,2.7,2.7,0,1,1,2.69-2.69Z"/><path d="M36,19.49a2.7,2.7,0,1,1-2.69-2.7A2.71,2.71,0,0,1,36,19.49Z"/></svg>