<svg id="Camada_1" data-name="Camada 1" xmlns="http://www.w3.org/2000/svg" viewBox="0 0 50 50"><defs><style>.cls-1{fill:#fff;}</style></defs><title>icon</title><path d="M46.26,46.92a2.71,2.71,0,0,0-2.69-2.4h-.82a18,18,0,0,0-.21-2.17,6.31,6.31,0,0,0-9.6-4c-.11.06-.27.18-.34.15a4.91,4.91,0,0,1-1.09-.63c-.13-.11-.1-.45-.1-.68v-21A7.51,7.51,0,0,0,27.55,9.4C27,9,26.9,8.92,27.1,8.2l.29,0c1.2,0,1.58-.4,1.58-1.57v-5c0-1.08-.42-1.5-1.51-1.5h-20c-.85,0-1.39.44-1.4,1.22,0,1.89,0,3.77,0,5.66A1.2,1.2,0,0,0,7.33,8.18H8c-.13.41.19.82-.28,1.08a7.65,7.65,0,0,0-4.14,7.19c0,4.19,0,8.38,0,12.57a2.2,2.2,0,0,0,.06.58.64.64,0,0,0,.74.5.67.67,0,0,0,.65-.61,3.2,3.2,0,0,0,0-.44c0-1.77,0-3.54,0-5.31v-.55h8.27c0,.12,0,.2,0,.28,0,.79.23,1,1,1h1.07c0,.45,0,.85,0,1.25,0,.56.25.82.8.83.83,0,1.66,0,2.49,0,.56,0,.81-.29.83-.86,0-.4,0-.8,0-1.23h.79c.91.05,1.34,0,1.29-1.18,0,0,0-.06.07-.11h8.17V37.42a6.4,6.4,0,0,0-3.65.47l-.14-.16a10.71,10.71,0,0,0-3.22-3.14.79.79,0,0,1-.27-.55,6.41,6.41,0,0,0-5.28-5.84,1.26,1.26,0,0,0-1.28.52,1.23,1.23,0,0,0-.14,1.37c.12.25.27.48.39.73a4.21,4.21,0,0,1,.42,2.29,9.92,9.92,0,0,0-7.19,3.81,2,2,0,0,1-1.9.87c-.84-.06-1.68,0-2.57,0v-.59c0-1.41,0-2.82,0-4.24,0-.54-.27-.86-.7-.87s-.75.32-.76.88q0,7.17,0,14.33a2.66,2.66,0,0,0,2,2.63l.22.09H29.64a7.62,7.62,0,0,0,2.86-1.13.3.3,0,0,1,.26,0A7.57,7.57,0,0,0,35.68,50h8.39l.3-.13A2.75,2.75,0,0,0,46.26,46.92ZM25.44,1.58h2V4h-2Zm-3.58,0h2.06V4H21.86Zm-3.59,0h2.08V4H18.27Zm-3.56,0h2V4h-2Zm-3.57,0H13.2V4H11.14Zm-3.6,0H9.61V4H7.54Zm0,5.11V5.54H27.47V6.69ZM20.16,23c-.4,0-.75,0-1.11,0-.67,0-.91.25-.92.91,0,.34,0,.68,0,1a.79.79,0,0,1,0,.13H16.93c0-.4,0-.79,0-1.17,0-.63-.28-.88-.9-.89-.37,0-.75,0-1.16,0V21.82h1.2a.76.76,0,0,0,.86-.84c0-.38,0-.77,0-1.2h1.2c0,.4,0,.8,0,1.2a.75.75,0,0,0,.84.84h1.19Zm1.55-1.36c-.21-1.29-.21-1.29-1.57-1.29h-.55V19.18c0-.63-.25-.89-.88-.9-.8,0-1.59,0-2.39,0-.61,0-.83.25-.85.87,0,.36,0,.72,0,1.07,0,0,0,.06-.06.14h-1c-.8,0-1,.2-1,1,0,.09,0,.19,0,.3H5.12V16.84l.62,0h13.4a3.28,3.28,0,0,0,.63,0,.71.71,0,0,0,0-1.39,3.76,3.76,0,0,0-.58,0h-14c0-.26.06-.48.11-.69A5.84,5.84,0,0,1,8.39,10.6,1.67,1.67,0,0,0,9.48,8.76a3.3,3.3,0,0,1,0-.55H25.56c0,.29,0,.55,0,.8a1.43,1.43,0,0,0,.9,1.47,6.07,6.07,0,0,1,3.42,4.62,2,2,0,0,1,0,.25H23.35a2.53,2.53,0,0,0-.48,0,.71.71,0,0,0,0,1.39,2.83,2.83,0,0,0,.58,0h6.51v4.83Zm-5.29,13a4.92,4.92,0,0,1-2.54,2.65c-.22.1-.46.17-.68.26a1.29,1.29,0,0,0-.79,1.14A1.23,1.23,0,0,0,13,39.92a6.17,6.17,0,0,0,4,.85c.52-.08.78-.4.7-.86s-.4-.64-.91-.58a4.84,4.84,0,0,1-2.71-.48,6.47,6.47,0,0,0,3.31-9.12,4.45,4.45,0,0,1,2.17,1.16,4.89,4.89,0,0,1,.18,7,1.7,1.7,0,0,0-.36.45.67.67,0,0,0,.24.86.7.7,0,0,0,.94-.07,6.4,6.4,0,0,0,1.7-2.63c.05-.13.09-.26.15-.43A8.6,8.6,0,0,1,25,38.67,6.45,6.45,0,0,0,22.79,42c-.19.7-.2.7-1,.7h-13A8.59,8.59,0,0,1,16.42,34.68ZM5.11,39.27h3a5,5,0,0,0-.23.64c-.18.77-.37,1.54-.52,2.32,0,.29-.1.44-.43.42-.58,0-1.16,0-1.77,0Zm19.14,9.27H6.61c-1.08,0-1.52-.45-1.52-1.55,0-.91,0-1.82,0-2.72,0,0,0-.06.07-.16H5.7c5.43,0,10.85,0,16.28,0,.43,0,.6.09.66.56a6,6,0,0,0,1.68,3.39l.37.38s0,0,0,.09Zm9.37-1.09a.68.68,0,0,1,0,.14l-.15.1c-.44-.54-.9-1-1.3-1.61s-.73-.66-1.13-.41-.44.65-.14,1.15c.18.31.39.6.58.9a4.68,4.68,0,0,1-5.88-.48,4.87,4.87,0,0,1-.44-6.69,4.8,4.8,0,0,1,6.35-.95,6.49,6.49,0,0,0-1.31,2.67,4.22,4.22,0,0,0-.1.62.72.72,0,0,0,1.41.26c.09-.31.12-.64.22-.95A4.88,4.88,0,0,1,41.23,44c0,.39-.13.56-.57.55-1.36,0-2.73,0-4.09,0A2.73,2.73,0,0,0,33.62,47.45Zm9.7,1.09H36.45a1.3,1.3,0,0,1-1.33-.94,1.24,1.24,0,0,1,.57-1.43,2.22,2.22,0,0,1,.89-.19c1.12,0,2.24,0,3.36,0h3.41c.89,0,1.47.51,1.47,1.27A1.33,1.33,0,0,1,43.32,48.54Z"/><path class="cls-1" d="M29.64,50a7.79,7.79,0,0,0,2.86-1.13.32.32,0,0,1,.27,0A7.46,7.46,0,0,0,35.68,50Z"/><path d="M12.36,25.33a.76.76,0,0,1-.86.74H7.42c-.53,0-.86-.3-.86-.73s.33-.72.9-.72h4C12,24.62,12.35,24.91,12.36,25.33Z"/><path d="M28.44,25.32a.75.75,0,0,1-.83.75H23.47a.73.73,0,1,1,0-1.45h4.08C28.1,24.62,28.43,24.89,28.44,25.32Z"/><path d="M12.36,28.26c0,.43-.33.73-.86.73-1.36,0-2.72,0-4.09,0-.53,0-.85-.3-.85-.72s.33-.72.9-.73h4C12,27.55,12.36,27.83,12.36,28.26Z"/><path d="M28.44,28.25a.74.74,0,0,1-.84.74q-2.07,0-4.14,0a.74.74,0,0,1-.82-.71c0-.43.33-.73.85-.74h4.08C28.11,27.55,28.44,27.83,28.44,28.25Z"/></svg>