<svg version="1.1" id="Camada_1" xmlns="http://www.w3.org/2000/svg" xmlns:xlink="http://www.w3.org/1999/xlink" x="0px" y="0px"
	 viewBox="0 0 50 50" style="enable-background:new 0 0 50 50;" xml:space="preserve">
<style type="text/css">
	.st0{fill:#FFFFFF;}
</style>
<g>
	<path d="M-173.5-60.6c-3.7-4.8-8.6-7.9-14.6-9.2c-1.1-0.2-2.2-0.3-3.3-0.5c-0.2,0-0.3-0.1-0.5-0.1h-2.9c-1,0.1-1.9,0.2-2.8,0.4
		c-5.7,1-10.4,3.7-14.3,7.9c-3.6,4-5.7,8.8-6.3,14.1c0,0.4-0.1,0.7-0.1,1.1v2.9c0.1,0.9,0.2,1.9,0.4,2.8c1.4,7.5,5.4,13.2,11.8,17.2
		c3.3,2.1,7,3.2,10.9,3.4c0.1,0,0.3,0,0.4,0.1h2.9c1-0.1,1.9-0.2,2.8-0.4c5.8-1,10.6-3.8,14.5-8.2c3.5-4,5.5-8.7,6.1-13.9
		C-167.9-49.4-169.5-55.4-173.5-60.6z M-193.3-23.1c-12.3,0-22.2-10-22.2-22.3c0-12.3,10-22.3,22.3-22.3c12.3,0,22.2,10,22.2,22.3
		C-171.1-33.1-181.1-23.1-193.3-23.1z"/>
	<path d="M-180.3-38.6c-2.8,4.1-6.6,6.4-11.4,7c-6.2,0.7-11.8-2.6-14.6-7c0.8-0.5,1.5-1,2.2-1.4c5.5,8.1,16.7,7.4,21.6,0
		C-181.8-39.6-181.1-39.2-180.3-38.6z"/>
	<path d="M-198.8-51c0,1.5-1.2,2.7-2.7,2.7c-1.5,0-2.7-1.2-2.7-2.7s1.2-2.7,2.7-2.7C-200-53.7-198.8-52.5-198.8-51z"/>
	<path d="M-182.1-51c0,1.5-1.2,2.7-2.7,2.7c-1.5,0-2.7-1.2-2.7-2.7c0-1.5,1.2-2.7,2.7-2.7C-183.3-53.7-182.1-52.5-182.1-51z"/>
</g>
<g>
	<path d="M-255.6,10.5c-0.9-4.2-3.6-6.9-7.8-7.7c-4.8-1-8.4,1-11,5.1c-14.5-3.9-27.8,9.3-23.9,23.9c-4.1,2.6-6.1,6.3-5.1,11.1
		c0.9,4.2,3.6,6.9,7.8,7.8c4.8,1,8.5-1,11.1-5c7.2,1.6,13.6,0.1,18.8-5.1c5.2-5.2,6.7-11.7,5.1-18.8
		C-256.6,19-254.6,15.3-255.6,10.5z M-293.3,15.2c5-6,12.6-7.4,18.2-5.8c-0.1,0.5-0.3,1-0.4,1.4c-6-1.3-11.3,0-15.6,4.3
		c-4.3,4.3-5.6,9.6-4.4,15.6c-0.2,0-0.5,0.1-0.7,0.2c-0.2,0.1-0.5,0.1-0.7,0.2C-298.1,27.1-297.7,20.4-293.3,15.2z M-293.5,49.3
		c-4.8,0-8.6-3.8-8.6-8.5c0-4.8,3.8-8.6,8.6-8.6c4.7,0,8.5,3.8,8.5,8.6C-285,45.4-288.8,49.3-293.5,49.3z M-286.4,33.5
		c-2-2-4.5-3-7.5-3c-0.2-1-0.3-2-0.5-3.1h3.1v-1.6h-3c0.2-3.5,1.5-6.5,3.8-9.1c0.6,0.7,1.2,1.3,1.8,1.9c0.4-0.4,0.8-0.8,1.2-1.2
		c-0.6-0.6-1.2-1.2-1.8-1.8c1.3-1.9,6.4-4,9.1-3.8v3h1.6v-3.1c1.1,0.2,2.1,0.3,3.1,0.5c-0.1,5.6,4.4,10.5,10.4,10.5
		c0.1,0.5,0.2,1,0.3,1.5s0.1,1,0.2,1.6h-3.1v1.5h3c-0.2,3.5-1.5,6.5-3.8,9.1c-0.6-0.6-1.2-1.2-1.8-1.8c-0.4,0.4-0.7,0.8-1,1.2
		c0.5,0.5,1.1,1.1,1.8,1.8c-2.7,2.3-5.7,3.6-9.2,3.8v-3h-1.6v3.1c-1.1-0.2-2.1-0.3-3.1-0.5C-283.4,38.1-284.4,35.6-286.4,33.5z
		 M-266.4,38.9c-5.1,5.5-12.5,6.6-17.6,5.1c0.1-0.5,0.3-1,0.4-1.4c6,1.3,11.3,0,15.6-4.3c4.3-4.3,5.6-9.6,4.3-15.6
		c0.5-0.1,0.9-0.3,1.4-0.4C-260.9,26.6-261.5,33.6-266.4,38.9z M-265.5,21.2c-4.7,0-8.6-3.9-8.6-8.5c0-4.8,3.9-8.6,8.7-8.6
		c4.7,0,8.5,3.9,8.5,8.6C-256.9,17.4-260.8,21.2-265.5,21.2z"/>
	<path d="M-273.5,31.5c-0.5,0.4-0.8,0.7-1.2,1.1c0,0-0.1-0.1-0.2-0.2c-1.6-1.7-3.3-3.3-4.9-5c-0.2-0.2-0.4-0.5-0.4-0.8
		c0-2.7,0-5.5,0-8.2c0-0.1,0-0.1,0-0.2h1.5v0.5c0,2.4,0,4.9,0,7.3c0,0.2,0.1,0.5,0.3,0.7c1.5,1.5,3,3,4.5,4.6
		C-273.8,31.3-273.7,31.4-273.5,31.5z"/>
	<path d="M-262.8,13.4h3.5v1.5c-0.1,0-0.3,0-0.4,0h-4.8c-0.4,0-0.8-0.1-1-0.5c-0.2-0.4,0.1-0.7,0.4-1c1-1,2-2,3.2-3.1h-3.5V8.7h1.8
		c1.1,0,2.3,0,3.4,0c0.4,0,0.7,0.1,0.9,0.5c0.2,0.4,0,0.7-0.3,1c-0.9,0.9-1.9,1.9-2.8,2.8C-262.5,13.1-262.6,13.2-262.8,13.4z"/>
	<path d="M-267.1,15v1.6c-1.3,0-2.7,0-4,0c-0.2,0-0.5-0.3-0.6-0.5c-0.1-0.2,0-0.6,0.2-0.8c0.4-0.5,0.9-0.9,1.3-1.4
		c0.1-0.1,0.2-0.2,0.4-0.4h-1.9v-1.6c1.3,0,2.7,0,4,0c0.2,0,0.5,0.3,0.6,0.5c0.1,0.3,0,0.6-0.2,0.8c-0.4,0.5-0.9,0.9-1.3,1.4
		c-0.1,0.1-0.2,0.2-0.4,0.4H-267.1z"/>
	<path d="M-287.5,42.6c-0.2-0.4-0.6-0.4-1-0.3c-1.9,0.1-3.7-1.1-4.3-2.9c-0.4-1.2-0.3-2.4,0.4-3.6c0.4-0.7,0-1.3-0.8-1.3
		c-0.1,0-0.3,0-0.4,0c-3.2,0.3-5.7,3-5.7,6.2c0,2.9,1.9,5.4,4.7,6.1c2.8,0.7,5.6-0.6,6.9-3.1C-287.4,43.3-287.2,43-287.5,42.6z
		 M-294.2,45.2c-2.1-0.6-3.4-2.6-3.2-4.8c0.1-1.9,1.6-3.8,3.2-4c-0.9,3.9,1.5,6.9,4.7,7.5C-290.4,45-292.5,45.7-294.2,45.2z"/>
</g>
<g>
	<path d="M-258.8-63c1.4,0.4,2.8-0.5,3.2-1.9c0.4-1.4-0.5-2.8-1.9-3.2c-1.4-0.4-2.8,0.5-3.2,1.9c-0.2,0.9,0,1.7,0.5,2.4
		c-0.7,0.7-1.4,1.5-2.1,2.2c-0.7,0.7-1.4,1.4-2.1,2.1c-2.4-2.4-6.1-2.5-8.6,0c-1.5-1.5-3-2.9-4.5-4.3c0.8-1.7,0.6-3-0.5-3.8
		c-1-0.8-2.3-0.7-3.3,0.1c-1.1,0.9-1.2,2.1-0.3,3.8c-0.7,0.7-1.4,1.4-2.1,2.1c-0.7,0.7-1.4,1.4-2.1,2.1c-2.5-2.5-6.2-2.5-8.6-0.1
		c-1.4-1.4-2.8-2.9-4.3-4.3c0,0,0.1-0.1,0.1-0.1c0.8-1.2,0.6-2.5-0.3-3.4c-0.9-0.9-2.3-1-3.3-0.3c-1,0.7-1.4,2.1-0.9,3.2
		c0.5,1.2,1.8,1.8,3.1,1.5c0.2,0,0.4,0,0.6,0.2c1.4,1.3,2.7,2.7,4.1,4c0.1,0.1,0.1,0.2,0.2,0.2c-1.2,2.1-1.2,4.1,0,6.2
		c-0.1,0.1-0.2,0.3-0.4,0.4c-1.2,1.2-2.5,2.5-3.7,3.7c-0.3,0.3-0.5,0.4-1,0.3c-1.4-0.3-2.8,0.6-3.1,2.1c-0.3,1.3,0.6,2.7,1.9,3.1
		c1.4,0.4,2.8-0.5,3.2-1.9c0.2-0.9,0-1.7-0.5-2.4c1.4-1.5,2.8-2.9,4.2-4.3c2.4,2.4,6.1,2.6,8.7,0.1c1.4,1.4,2.8,2.9,4.3,4.3
		c0,0.1-0.1,0.2-0.2,0.4c-0.5,0.9-0.4,1.8,0.2,2.7c0.6,0.8,1.4,1.3,2.4,1.1c0.7-0.2,1.1,0.1,1.6,0.6c0.2,0.2,0.5,0.5,0.7,0.7
		c1,1,2.1,2.1,3.1,3.1c-1.2,2.1-1.2,4.2,0,6.2c-1.5,1.5-2.9,2.9-4.3,4.3c-0.1,0.1-0.4,0.1-0.6,0.1c-1.4-0.3-2.8,0.5-3.2,2
		c-0.3,1.4,0.5,2.8,1.9,3.2c1.4,0.4,2.9-0.5,3.2-1.9c0.2-0.9,0-1.7-0.5-2.3c1.4-1.5,2.8-2.9,4.2-4.3c2.3,2.3,6,2.5,8.6,0
		c1.4,1.4,2.8,2.8,4.3,4.3c-0.6,0.9-0.7,1.6-0.5,2.5c0.4,1.4,1.9,2.2,3.3,1.8c1.4-0.4,2.2-1.8,1.8-3.2c-0.3-1.4-1.8-2.3-3.2-1.9
		c-0.3,0.1-0.4,0.1-0.6-0.2c-1.3-1.3-2.7-2.7-4-4c-0.2-0.2-0.2-0.3-0.1-0.6c1-1.8,1-3.7,0-5.5c-0.2-0.3-0.1-0.4,0.1-0.7
		c1.3-1.2,2.5-2.5,3.7-3.7c0.3-0.3,0.6-0.6,1.2-0.4c0.2,0.1,0.5,0,0.7,0c1.5-0.2,2.5-1.6,2.3-3.1c-0.3-1.4-1.7-2.4-3.1-2.1
		c-0.1,0-0.4,0-0.4,0c-1.4-1.5-2.8-2.9-4.2-4.4c1.1-1.9,1.1-4-0.1-6c1.4-1.4,2.8-2.8,4.2-4.3C-259.3-63-259.1-63.1-258.8-63z
		 M-300.9-64.1c-0.8,0-1.4-0.7-1.4-1.5c0-0.8,0.7-1.5,1.5-1.4c0.8,0,1.5,0.7,1.4,1.5C-299.4-64.8-300.1-64.1-300.9-64.1z M-300.9-44
		c-0.8,0-1.4-0.7-1.4-1.5c0-0.8,0.7-1.4,1.5-1.4c0.8,0,1.4,0.7,1.4,1.5C-299.4-44.6-300.1-43.9-300.9-44z M-279.6-23.9
		c-0.8,0-1.5-0.6-1.5-1.4c0-0.8,0.7-1.5,1.5-1.5c0.8,0,1.5,0.6,1.5,1.4C-278.1-24.5-278.8-23.9-279.6-23.9z M-258.5-26.8
		c0.8,0,1.5,0.6,1.5,1.4c0,0.8-0.6,1.5-1.4,1.5c-0.8,0-1.5-0.6-1.5-1.4C-259.9-26.1-259.2-26.8-258.5-26.8z M-258.4-46.9
		c0.8,0,1.5,0.6,1.5,1.4c0,0.8-0.6,1.5-1.4,1.5c-0.8,0-1.5-0.6-1.5-1.4C-259.9-46.2-259.2-46.9-258.4-46.9z M-268.8-60.2
		c2.6,0,4.7,2.1,4.7,4.7c0,2.6-2.1,4.7-4.7,4.8c-2.6,0-4.8-2.1-4.8-4.7C-273.5-58-271.4-60.1-268.8-60.2z M-279.7-67
		c0.8,0,1.5,0.6,1.5,1.5c0,0.8-0.6,1.5-1.5,1.5s-1.5-0.6-1.5-1.4C-281.2-66.4-280.5-67-279.7-67z M-290.3-50.8
		c-2.6,0-4.7-2.1-4.7-4.7c0-2.6,2.1-4.7,4.7-4.7c2.6,0,4.7,2.1,4.8,4.7C-285.5-52.9-287.6-50.8-290.3-50.8z M-279.6-44
		c-0.8,0-1.5-0.7-1.5-1.5c0-0.8,0.6-1.5,1.5-1.5c0.8,0,1.5,0.6,1.5,1.4C-278.1-44.7-278.8-44-279.6-44z M-278.1-48
		c-0.1,0.1-0.3,0.1-0.5,0.1c-0.6,0-1.2,0-1.8-0.1c-0.2,0-0.4,0-0.5-0.1c-1.4-1.3-2.7-2.7-4-4c-0.1-0.1-0.2-0.4-0.1-0.5
		c1-2,1-4-0.1-6c1.5-1.5,2.9-2.9,4.4-4.4c0.1-0.1,0.3-0.1,0.5-0.1c0.5,0,1.1-0.1,1.7-0.1c0.2,0,0.4,0,0.5,0c1.5,1.5,2.9,3,4.4,4.4
		c0,0,0,0.1,0.1,0.1c-0.7,1.1-1,2.4-0.8,3.7c0.1,0.7,0.4,1.5,0.7,2.2c0.1,0.3,0.1,0.4-0.1,0.6C-275.4-50.7-276.8-49.4-278.1-48z
		 M-269.1-30.6c-2.6,0-4.7-2.2-4.7-4.8c0-2.6,2.2-4.7,4.8-4.7c2.6,0,4.7,2.2,4.6,4.7C-264.3-32.7-266.4-30.6-269.1-30.6z
		 M-260.4-47.2c-0.8,1.1-0.9,2.3,0,3.5c-1.4,1.4-2.8,2.8-4.3,4.3c-1.2-1.2-2.6-1.8-4.3-1.8c-1.7,0-3.1,0.6-4.3,1.8
		c-1.4-1.4-2.8-2.9-4.3-4.3c0.7-1.2,0.8-1.8,0.1-3.1c1.5-1.5,2.9-2.9,4.3-4.4c2.7,2.6,6.4,2.2,8.7-0.1
		C-263.1-50-261.8-48.6-260.4-47.2z M-258.2-67c0.8,0,1.5,0.7,1.5,1.4c0,0.8-0.7,1.5-1.5,1.5c-0.8,0-1.5-0.7-1.5-1.5
		C-259.6-66.3-259-67-258.2-67z"/>
	<path d="M-290-58.8c-0.1,0.1-0.2,0.3-0.4,0.4c-1,0.5-1.7,1.2-2.2,2.2c-0.2,0.4-0.5,0.5-0.8,0.3c-0.4-0.2-0.4-0.5-0.2-0.9
		c0.6-1.2,1.5-2.1,2.7-2.7C-290.5-59.7-290-59.4-290-58.8z"/>
	<path d="M-293.1-54.7c0,0.6-0.3,0.9-0.7,0.9c-0.3,0-0.6-0.3-0.5-0.7c0-0.6,0.3-1,0.7-0.9C-293.2-55.4-293.1-55.1-293.1-54.7z"/>
	<path d="M-268.6-38.7c-0.1,0.1-0.2,0.3-0.4,0.4c-1,0.4-1.8,1.1-2.4,2.1c-0.2,0.3-0.5,0.4-0.8,0.3c-0.3-0.2-0.4-0.5-0.2-0.8
		c0.7-1.2,1.6-2.1,2.9-2.6C-269-39.5-268.6-39.2-268.6-38.7z"/>
	<path d="M-271.9-34.8c0,0.6-0.3,1-0.7,0.9c-0.4,0-0.5-0.3-0.5-0.7c0-0.6,0.3-1,0.7-0.9C-272.1-35.4-271.9-35.2-271.9-34.8z"/>
	<path d="M-268.6-58.9c-0.1,0.1-0.2,0.3-0.4,0.4c-1,0.5-1.7,1.3-2.2,2.3c-0.2,0.3-0.4,0.5-0.8,0.3c-0.4-0.2-0.4-0.5-0.3-0.9
		c0.6-1.2,1.5-2.2,2.7-2.8C-269-59.7-268.6-59.5-268.6-58.9z"/>
	<path d="M-271.6-54.6c0,0.6-0.2,0.8-0.6,0.8s-0.6-0.3-0.6-0.8c0-0.5,0.2-0.8,0.6-0.8C-271.8-55.4-271.6-55.2-271.6-54.6z"/>
</g>
<g>
	<path d="M-187.1,27c-0.1-0.2-0.1-0.5-0.1-0.7c0.1-1.6,0.1-3.3-0.5-4.8c-1.1-2.9-3.4-4.5-6.3-5.4c-0.2-0.1-0.4-0.1-0.5-0.2
		c-1.1-1-2.4-1.4-3.8-1.1c-1.1,0.2-2-0.2-2.7-1c-1.1-1.2-2.3-2.3-3.4-3.4c-0.4-0.4-0.9-0.4-1.2,0c-0.3,0.4-0.1,0.7,0.2,1
		c1.1,1.1,2.3,2.2,3.3,3.4c1.2,1.2,2.5,1.7,4.2,1.5c1.7-0.2,3.2,0.9,3.5,2.6c0.3,1.7-0.7,3.3-2.4,3.7c-0.6,0.1-0.9,0.4-1,1
		c-0.3,1.4-1.5,2.3-2.9,2.4c-1.4,0.1-2.8-0.7-3.2-2.1c-0.2-0.6-0.2-1.3-0.1-1.9c0.1-1.4-0.3-2.6-1.2-3.5c-4-4-7.9-7.9-11.9-11.8
		c-0.6-0.6-1-0.5-1.5,0.2v0.3c0.2,0.2,0.3,0.5,0.5,0.6c3.8,3.8,7.6,7.6,11.5,11.4c0.9,0.9,1.3,1.8,1.1,3.1c-0.3,2.1,0.9,4,2.8,4.8
		c0.7,0.3,1.5,0.3,2.3,0.5c0,0,0,0,0,0.1c-0.5,2.1,0.1,3.8,1.8,5.1c0.8,0.6,1.2,1.4,1.1,2.4c0,5.2,0,10.3,0,15.5
		c0,0.5,0.1,0.8,0.5,1h0.5c0.4-0.2,0.5-0.6,0.5-1c0-3.8,0-7.6,0-11.5v-0.5c0.9,0.2,1.5,0.9,1.7,1.8c0,0.3,0,0.5,0,0.8
		c0,3.1,0,6.2,0,9.3c0,0.5,0.1,0.8,0.4,1.1h0.6c0.4-0.3,0.4-0.7,0.4-1.1c0-3.2,0-6.3,0-9.5c0-1.6-0.6-2.8-2-3.5
		c-0.8-0.5-1.2-1.2-1.2-2.1c0-0.9,0-1.8-0.6-2.6c-0.4-0.5-0.8-1-1.3-1.4c-1-0.9-1.5-1.9-1.2-3.2c0.3-1.3,1.1-2.2,2.5-2.5
		c0.9-0.2,1.7-0.1,2.4,0.5c0.4,0.3,0.8,0.3,1.2,0c1.5-1,3.4-0.6,4.4,0.8c1,1.4,0.7,3.3-0.7,4.4c-1.3,1-1.9,2.2-1.9,3.8
		c0,5.1,0,10.2,0,15.3c0,0.4,0.1,0.8,0.5,1h0.5c0.4-0.3,0.5-0.6,0.5-1.1c0-5.1,0-10.2,0-15.3c0-1.1,0.4-2,1.3-2.7
		C-186.8,31.3-186.2,29-187.1,27z M-190.3,24.4c-1.1-0.3-2.1-0.2-3.1,0.3c-0.1,0.1-0.4,0.1-0.5,0.1c-0.8-0.4-1.7-0.6-2.8-0.5
		c0.2-0.2,0.3-0.3,0.4-0.4c2.7-1.2,3.6-2.8,3.1-5.6V18c3.1,1.2,4.7,4,4.5,7C-189.2,24.8-189.7,24.5-190.3,24.4z"/>
	<path d="M-199.8,51.6h-0.5c-0.2-0.2-0.5-0.5-0.6-0.7c-1.7-3.3-2.9-6.8-3.3-10.5c-0.3-3-0.4-6-0.3-9c0-1.2,0-1.2-1.1-1.6
		c-2.7-1-5.1-2.6-7.2-4.6c-0.4-0.3-0.4-0.8-0.1-1.1c0.3-0.3,0.7-0.3,1.2,0.1c1.9,1.8,4,3.2,6.5,4.2c0.5,0.2,1,0.3,1.5,0.5
		c0.6,0.2,0.7,0.4,0.7,1c0,2.8,0,5.7,0.1,8.5c0.1,4.2,1.4,8.2,3.4,11.9C-199.2,51-199.2,51.1-199.8,51.6z"/>
	<path d="M-214.2,22.7c-0.3,0.2-0.8,0.2-1-0.2c-0.5-0.7-1.1-1.3-1.5-2.1c-0.7-1-1.3-2.1-1.9-3.1v-0.5c0.5-0.7,1-0.6,1.5,0.1
		c0.9,1.4,1.9,2.8,2.8,4.3c0.1,0.1,0.2,0.3,0.3,0.4C-213.8,22-213.8,22.4-214.2,22.7z"/>
	<path d="M-184.3,50.9c0,0.3-0.3,0.5-0.5,0.8h-0.5c-0.4-0.3-0.5-0.6-0.5-1c0-0.9,0-1.9,0-2.8c0-0.7,0.6-1,1.1-0.7
		c0.2,0.1,0.4,0.4,0.4,0.6C-184.2,48.7-184.2,49.8-184.3,50.9z"/>
	<path d="M-183.9,27.3c0,2.4-0.1,4.8-0.2,7.2h-0.1v9.4c0,0.8-0.2,1.1-0.7,1.1c-0.5,0-0.7-0.4-0.8-1.1c-0.1-4.8,0.1-9.7,0.3-14.5
		c0.1-2.4,0-4.7-0.3-7.1c-0.4-2.7-1.6-4.9-3.2-7c-2.4-3.1-5.3-5.8-8.3-8.2c-1.6-1.3-3.3-2.5-5-3.8c-0.4-0.3-0.6-0.7-0.4-1
		c0.2-0.4,0.7-0.5,1.2-0.2c1.3,1,2.7,1.9,4,2.9c3.4,2.7,6.6,5.6,9.3,9c1.7,2.1,3.1,4.4,3.7,7.1C-184.1,23-183.9,25.2-183.9,27.3z"/>
	<path d="M-172.6,23.8c-0.9-0.4-1.8-0.9-2.6-1.4c-1.5-0.8-1.3-0.9-2.5,0.4c-0.2,0.2-0.4,0.3-0.7,0.2c-1-0.4-2-0.7-3-1.1
		c-0.4-0.1-0.7-0.1-1,0.2c-0.2,0.4-0.1,0.7,0.1,1c1.4,1.7,2.9,3.5,4.3,5.2c0.5,0.5,0.9,0.5,1.3,0c0.2-0.2,0.4-0.5,0.6-0.7
		c0.9,0.8,1.8,1.6,2.6,2.4c0.3,0.2,0.5,0.4,0.9,0.3c0.4-0.2,0.5-0.5,0.5-0.9c0-1.5,0-3.1,0-4.6C-172,24.4-172.2,24-172.6,23.8z
		 M-174.3,27.3c-0.4-0.4-0.8-0.8-1.2-1.1c-0.5-0.4-0.9-0.4-1.3,0.1c-0.2,0.2-0.3,0.4-0.5,0.6c-0.1-0.1-0.1-0.1-0.2-0.2
		c-0.6-0.8-1.3-1.6-1.9-2.4c0.4,0.1,0.7,0.2,1.1,0.4c0.4,0.2,0.8,0.1,1.1-0.3c0.3-0.3,0.5-0.6,0.8-0.9c0.9,0.5,1.8,0.9,2.7,1.4
		c0.1,0,0.2,0.2,0.2,0.3c0,0.9,0,1.8,0,2.8C-173.8,27.7-174,27.5-174.3,27.3z"/>
	<path d="M-169.1,16.4c-1.1-1.1-2.2-2.2-3.3-3.3c-0.3-0.3-0.7-0.4-1.1-0.3c-1,0.3-1.9,0.6-2.9,0.9c-1.4,0.5-1.6,0.3-1.4,2
		c0,0.3-0.1,0.5-0.4,0.6c-1,0.4-1.9,0.9-2.8,1.3c-0.4,0.2-0.6,0.4-0.5,0.8c0.1,0.4,0.4,0.6,0.8,0.6c2.3,0.2,4.5,0.5,6.8,0.7
		c0.5,0,0.9-0.3,0.9-0.8c0-0.4-0.1-0.7-0.1-1.1c0.2,0,0.3,0,0.5,0c1,0,2.1-0.1,3.1-0.1c0.4,0,0.7-0.1,0.8-0.5
		C-168.7,17-168.9,16.7-169.1,16.4z M-173.8,16.5c-0.8,0-1.1,0.3-1,1.2c0,0.2,0,0.4,0,0.7c-1.1-0.1-2.2-0.2-3.2-0.3c0,0,0-0.1,0-0.1
		c0.3-0.1,0.6-0.3,0.9-0.4c0.6-0.2,0.8-0.6,0.7-1.2c-0.1-1,0-1,0.9-1.3c0.6-0.2,1.2-0.4,1.8-0.6c0.1,0,0.3-0.1,0.4,0
		c0.7,0.6,1.3,1.3,2,2C-172.1,16.5-172.9,16.5-173.8,16.5z"/>
	<path d="M-175.7,7c-0.2-0.3-0.5-0.4-0.8-0.4c-1.6,0-3.2,0-4.7,0c-0.5,0-0.8,0.2-1,0.6c-0.4,0.9-0.9,1.8-1.4,2.7
		c-0.8,1.5-0.9,1.3,0.4,2.5c0.3,0.2,0.3,0.4,0.2,0.7c-0.4,1-0.7,2-1.1,3c-0.1,0.4-0.1,0.7,0.2,0.9c0.3,0.2,0.6,0.2,0.9-0.1
		c1.8-1.5,3.6-2.9,5.3-4.4c0.5-0.4,0.4-0.8,0-1.2c-0.3-0.2-0.5-0.4-0.8-0.7c0.8-0.9,1.6-1.8,2.5-2.7C-175.7,7.6-175.6,7.3-175.7,7z
		 M-179.7,9.9c-0.7,0.8-0.7,1,0.1,1.6c0.1,0.1,0.3,0.2,0.4,0.4c-0.4,0.4-0.9,0.7-1.3,1.1c-0.4,0.4-0.8,0.7-1.3,1c0,0,0,0-0.1-0.1
		c0.1-0.4,0.3-0.7,0.4-1.1c0.2-0.4,0.1-0.8-0.3-1.1c-0.3-0.2-0.5-0.5-0.9-0.8c0.5-0.9,1-1.8,1.5-2.8c0-0.1,0.2-0.1,0.3-0.1
		c0.9,0,1.8,0,2.7,0C-178.7,8.7-179.2,9.3-179.7,9.9z"/>
	<path d="M-206.9,8.7c-0.1,0.2-0.4,0.3-0.6,0.5c-0.3-0.2-0.5-0.3-0.6-0.4c-1.9-1.9-3.8-3.8-5.7-5.7c-0.4-0.4-0.4-0.8-0.1-1.1
		c0.3-0.3,0.8-0.3,1.2,0.1c1.9,1.9,3.8,3.8,5.7,5.7C-206.9,8-206.7,8.3-206.9,8.7z"/>
</g>
<g>
	<path d="M-114.7,75.4c-0.1-0.2-0.2-0.4-0.2-0.7c0-1.4,0-2.8,0-4.2c0-1.5-0.8-2.5-2.1-3.1c-0.2-0.1-0.3-0.2-0.4-0.4
		c-0.6-1.4-1.6-2.1-3.1-2.1c-2,0-4,0-5.9,0c-3.2,0-5.6,2.4-5.6,5.6c0,1.4,0,2.8,0,4.1c0,0.2-0.1,0.5-0.2,0.7
		c-1.2,1.6-0.4,3.9,1.6,4.3c0.5,0.1,1,0.1,1.5,0.1c0.1,0,0.3,0,0.4,0.1c0.5,0.6,1,1.2,1.5,1.8c-0.4,0.1-0.9,0.3-1.4,0.4
		c-2,0.6-3.4,2.4-3.4,4.4c0,3.5,0,7,0,10.5c0,1,0.7,1.9,1.7,2.1c0.4,0.1,0.9,0.1,1.4,0.1c0,0,0,0.1,0,0.2c0,3,0,6.1,0,9.1
		c0,0.3-0.1,0.4-0.3,0.5c-1.2,0.7-1.9,1.8-2,3.2c-0.1,0.7,0.3,1,1,1c4.6,0,9.1,0,13.7,0c0.7,0,1-0.3,0.9-1c-0.1-1.4-0.8-2.5-2-3.2
		c-0.3-0.2-0.4-0.3-0.4-0.7c0-2.9,0-5.8,0-8.8v-0.5c0.1,0,0.2,0,0.2,0c1.7,0.3,2.9-0.7,2.9-2.4c0-3.3,0-6.7,0-10
		c0-2.2-1.4-4-3.5-4.7c-0.4-0.1-0.9-0.3-1.3-0.4c0.3-0.3,0.7-0.7,0.9-1c0.4-0.8,1-1,1.9-0.9c1.1,0.1,1.9-0.5,2.4-1.5
		C-113.9,77.3-114,76.3-114.7,75.4z M-131,77.7c-0.3-0.4-0.3-0.8,0-1.2c0.3-0.5,0.8-0.7,1.3-0.6c0.1,0.8,0.1,1.5,0.2,2.3
		C-130.1,78.3-130.6,78.2-131,77.7z M-129.4,97.7c-0.5,0.2-1-0.2-1-0.8c0-2.3,0-4.6,0-7h1.5c0,0.1,0,0.2,0,0.3c0,2.2,0,4.4,0,6.6
		C-128.9,97.2-129,97.5-129.4,97.7z M-124.2,111.7h-5.2c0.1-0.7,0.9-1.5,1.6-1.5c1.2,0,2.4,0,3.7,0V111.7z M-124.2,99.3v9.3h-3.1V97
		h7.7v11.6h-3.1v-9.3H-124.2z M-117.4,111.7h-5.2v-1.5c1.2,0,2.5,0,3.7,0C-118.3,110.2-117.6,111-117.4,111.7z M-116.4,96.9
		c0,0.5-0.3,0.8-0.8,0.8c-0.4,0-0.8-0.3-0.8-0.8c0-2.3,0-4.6,0-7h1.5C-116.4,92.3-116.4,94.6-116.4,96.9z M-116.5,88.4
		c-0.4,0-0.7,0-1.1,0c-2,0-2,0-2,2c0,1.5,0,3,0,4.5v0.5h-7.8v-6c0-0.8-0.3-1-1-1c-0.7,0-1.4,0-2,0c-0.4-3,0.4-4.6,4-5.2
		c0.6,1.3,1.5,2.1,2.9,2.1c1.4,0,2.4-0.8,3-2.1C-117.6,83.7-116.1,84.7-116.5,88.4z M-124.8,82.8h2.7c-0.3,0.5-0.8,0.8-1.4,0.8
		C-124.1,83.7-124.5,83.4-124.8,82.8z M-118.9,77.7c-0.5,2.3-2.7,3.8-5,3.6c-2.4-0.3-4.2-2.2-4.2-4.6c0-0.5,0-1,0-1.6
		c0.7,0,1.3,0,1.9,0c2.4,0.1,4.4-0.6,6-2.5c0.5,0.7,0.9,1.3,1.4,1.9c0,0.1,0.1,0.1,0.1,0.2C-118.8,75.7-118.7,76.8-118.9,77.7z
		 M-119.8,70.7c-0.3-0.4-0.9-0.3-1.3,0.2c-0.2,0.3-0.4,0.7-0.7,1c-1,1.1-2.2,1.7-3.6,1.7c-1.1,0-2.2,0-3.3,0c-0.7,0-0.8,0.1-1.1,0.8
		h-0.7c0-0.3,0-0.6,0-0.9c0-1.2-0.1-2.5,0.1-3.7c0.3-1.8,1.9-3.2,3.7-3.2c2.1,0,4.2,0,6.2,0c0.9,0,1.5,0.6,1.6,1.5
		c0.1,0.6,0.3,0.8,0.9,0.9c0.8,0.1,1.4,0.6,1.5,1.4c0,1.3,0,2.7,0,4.1h-0.6C-118,73.1-118.8,71.9-119.8,70.7z M-115.9,77.7
		c-0.4,0.6-0.9,0.6-1.5,0.5c0.1-0.8,0.1-1.5,0.2-2.3c0.6-0.1,1,0,1.3,0.5C-115.6,76.9-115.6,77.3-115.9,77.7z"/>
	<path d="M-104.5,100c-0.8,0.2-1.6,0.5-2.3,0.7c-1,0.3-2,0.6-3,0.9c-0.5,0.1-0.8,0-1-0.4c-0.3-0.5-0.7-1-1-1.5
		c-1.1,0.9-2.2,1.7-3.2,2.6c-0.3-0.4-0.6-0.8-1-1.2c1.3-1.1,2.6-2.1,3.9-3.1c0.4-0.3,0.8-0.2,1.1,0.2c0.3,0.5,0.7,1,1,1.5
		c0.2,0.3,0.4,0.4,0.7,0.3c1.5-0.4,2.9-0.8,4.5-1.3C-104.8,99.1-104.7,99.5-104.5,100z"/>
	<path d="M-132.9,91.2c-0.5,0.2-0.9,0.4-1.4,0.6c-0.4-1-0.8-2-1.2-3c-0.5,0.3-0.9,0.6-1.4,0.9c-0.6,0.4-0.9,0.3-1.3-0.2
		c-1-1.2-2-2.5-3-3.8c0.4-0.3,0.8-0.7,1.2-1c0.9,1.1,1.8,2.2,2.7,3.3c0.5-0.4,1.1-0.7,1.6-1.1c0.6-0.4,1.1-0.3,1.4,0.4
		C-133.9,88.7-133.4,89.9-132.9,91.2z"/>
	<path d="M-107.3,106.5c-0.4,0.3-0.7,0.7-1.2,1.1c-0.3-0.3-0.6-0.7-0.9-1c-0.5-0.5-0.9-0.9-1.4-1.4c-0.2-0.2-0.3-0.2-0.6,0
		c-0.5,0.3-0.9,0.7-1.4,0.9c-0.3,0.1-0.6,0.2-0.9,0.1c-1-0.5-2-1-3.1-1.5c0.2-0.5,0.4-0.9,0.7-1.4c0.8,0.4,1.6,0.8,2.3,1.2
		c0.3,0.1,0.5,0.1,0.7,0c0.5-0.4,1-0.7,1.6-1.1c0.3-0.2,0.7-0.3,1,0C-109.4,104.4-108.4,105.5-107.3,106.5z"/>
	<path d="M-133.6,93v1.6c-0.8,0-1.6,0-2.3,0c-0.2,0-0.5,0.1-0.6,0.3c-0.6,0.8-1.2,1.6-1.8,2.4c-0.4,0.5-0.7,0.6-1.2,0.3
		c-1-0.5-1.9-1-3-1.5c0.2-0.5,0.4-0.9,0.7-1.4c0.9,0.4,1.7,0.8,2.5,1.3c0.6-0.8,1.2-1.6,1.8-2.4c0.3-0.4,0.6-0.5,1.1-0.5
		C-135.5,93.1-134.6,93-133.6,93z"/>
</g>
<g>
	<path d="M-254.7,86.6c-0.5-5.3-2.5-10-6.1-13.9c-4.7-5.3-10.6-8.1-17.7-8.5c-4.9-0.2-9.5,0.9-13.8,3.5c-6.5,4-10.5,9.7-11.8,17.2
		c-0.2,0.9-0.3,1.9-0.4,2.8v2.9c0.1,1,0.2,1.9,0.4,2.8c1.4,7.5,5.4,13.2,11.8,17.2c3.3,2,7,3.2,10.9,3.4c0.1,0,0.3,0,0.4,0.1h2.9
		c0.8-0.1,1.7-0.2,2.5-0.3c5.2-0.9,9.8-3.1,13.5-6.8C-256.5,101.3-254,94.5-254.7,86.6z M-279.6,111.4c-12.3,0-22.2-10-22.2-22.3
		c0-12.3,10-22.2,22.3-22.2c12.3,0,22.2,10,22.2,22.3C-257.3,101.5-267.3,111.4-279.6,111.4z"/>
	<path d="M-267.3,98.9c-0.7,0.5-1.4,1.1-2.1,1.6c-2.6-3.2-6-4.9-10.1-4.9c-4.1,0-7.5,1.7-10.2,4.9c-0.7-0.5-1.4-1.1-2.1-1.6
		C-285.9,91.2-273.8,90.6-267.3,98.9z"/>
	<path d="M-285.2,83.6c0,1.5-1.2,2.7-2.7,2.7c-1.5,0-2.7-1.2-2.7-2.7c0-1.5,1.2-2.7,2.7-2.7C-286.4,80.9-285.2,82.1-285.2,83.6z"/>
	<path d="M-268.5,83.6c0,1.5-1.2,2.7-2.7,2.7c-1.5,0-2.7-1.2-2.7-2.7c0-1.5,1.2-2.7,2.7-2.7C-269.7,80.9-268.5,82.1-268.5,83.6z"/>
</g>
<g>
	<path d="M-99.1-50.9c-2.1-9.7-10.2-17.4-20-19.1c-0.9-0.2-1.8-0.3-2.7-0.4h-3.1c-0.9,0.1-1.9,0.2-2.8,0.4
		c-10,1.6-18.3,9.8-20.1,19.7c-0.2,1.1-0.3,2.2-0.5,3.3v3.1c0.2,1.1,0.3,2.2,0.5,3.3c3.1,16.1,21,24.9,35.7,17.5
		C-102-28.3-96.6-39.7-99.1-50.9z M-123.5-21.9c-13,0-23.5-10.6-23.5-23.5c0-13,10.6-23.5,23.5-23.5c13,0,23.5,10.6,23.5,23.5
		C-100-32.4-110.5-21.9-123.5-21.9z"/>
	<path d="M-123.4-67.5c-12.2,0-22.1,9.8-22.1,22c0,12.2,9.8,22,22,22c12.2,0,22.1-9.8,22.1-22C-101.4-57.6-111.2-67.4-123.4-67.5z
		 M-123.5-24.9c-11.4,0-20.6-9.2-20.6-20.6c0-11.4,9.3-20.6,20.6-20.6c11.4,0,20.6,9.3,20.6,20.6C-102.9-34.1-112.1-24.8-123.5-24.9
		z"/>
	<path d="M-116.2-36.7c-0.1-0.8-0.8-1.4-1.5-1.5c-2-0.1-4,0-5.6,1.3c-0.6-0.3-1.2-0.6-1.7-0.9c-1.2-0.5-2.4-0.5-3.7-0.5
		c-1.2,0-1.9,0.7-2,1.9c0,0.9,0,1.8,0.2,2.6c0.4,2.3,1.7,3.8,4,4.4c2,0.5,4.1,0.5,6.1,0c1.4-0.3,2.6-1.1,3.3-2.4
		C-116.2-33.2-116-35-116.2-36.7z M-123.6-30.5c-0.2,0-0.5,0-0.7,0c-1,0-2-0.2-2.9-0.6c-1.2-0.7-1.8-1.8-2-3.1
		c-0.1-0.7-0.1-1.4-0.1-2.1c0-0.2,0.2-0.5,0.4-0.5c1.2-0.1,2.3,0,3.4,0.4c1.5,0.6,2.2,1.8,2.4,3.3c0.1,0.6,0.1,1.2,0.1,1.8
		C-123-30.6-123-30.5-123.6-30.5z M-118.2-32.8c-0.6,1.3-1.9,2.1-3.4,2.2c0.1-1.8-0.1-3.5-1-5.1c0.8-0.7,1.8-0.9,2.8-1
		c0.5-0.1,1.1,0,1.6,0c0.3,0,0.5,0.2,0.5,0.5C-117.6-35.1-117.6-33.9-118.2-32.8z"/>
	<path d="M-123.1-57c-1.4,0-2.5,1.1-2.5,2.5c0,1,0,2,0,3c0,1.4,1.2,2.5,2.6,2.5c1.4,0,2.5-1.1,2.5-2.5c0-0.5,0-1,0-1.5
		c0-0.5,0-1,0-1.5C-120.6-55.9-121.8-57-123.1-57z M-122.1-53c0,0.5,0,1,0,1.5c0,0.6-0.5,1-1,1.1c-0.6,0-1.1-0.4-1.1-1.1
		c0-1,0-2,0-2.9c0-0.6,0.5-1.1,1.1-1.1c0.6,0,1,0.5,1,1.1V-53z"/>
	<path d="M-126.8-53c0-0.5,0-1,0-1.6c-0.1-1.4-1.2-2.5-2.6-2.5c-1.4,0-2.5,1.1-2.5,2.5c0,1,0,2,0,3c0,1.3,1.1,2.3,2.3,2.4
		c1.3,0.1,2.5-0.8,2.7-2.1C-126.7-51.7-126.8-52.4-126.8-53L-126.8-53z M-128.2-53c0,0.5,0,0.9,0,1.4c0,0.7-0.5,1.2-1.1,1.2
		c-0.6,0-1-0.5-1-1.2c0-0.9,0-1.8,0-2.7c0-0.7,0.4-1.2,1-1.2c0.6,0,1.1,0.5,1.1,1.2C-128.2-53.9-128.2-53.5-128.2-53z"/>
	<path d="M-136-41.6c0,0.4-0.1,0.8-0.6,0.9c-0.4,0.1-0.7-0.1-1-0.4c-0.5-0.8-1.1-1.6-1.8-2.4v1.8c0,0.8-0.2,1.2-0.7,1.2
		s-0.7-0.4-0.7-1.2v-4c0-0.4,0-0.8,0.5-0.9c0.5-0.1,0.7,0.1,1,0.5c0.6,0.8,1.1,1.7,1.8,2.6c0-0.8,0-1.5,0-2.2c0-0.6,0.3-0.9,0.7-0.9
		c0.4,0,0.7,0.3,0.7,0.9C-136-44.5-136-43-136-41.6z"/>
	<path d="M-115.9-41.9c-0.3-0.4-0.6-0.7-1-1.1c0.1-0.1,0.2-0.1,0.3-0.2c0.7-0.5,1.1-1.3,0.9-2c-0.2-0.8-0.8-1.5-1.7-1.6
		c-0.5-0.1-1,0-1.5,0c-0.5,0-0.8,0.3-0.8,0.8c0,1.5,0,3,0,4.5c0,0.5,0.3,0.8,0.7,0.8c0.4,0,0.7-0.3,0.7-0.8c0-0.3,0-0.5,0-0.9
		c0.5,0.5,0.8,1,1.2,1.3c0.4,0.4,0.8,0.4,1.1,0.1C-115.6-41.1-115.6-41.5-115.9-41.9z M-117.2-44.6c-0.3,0.1-0.6,0.2-0.9,0.4v-1.2
		c0.4,0.1,0.7,0.2,0.9,0.4C-117.2-45-117.1-44.6-117.2-44.6z"/>
	<path d="M-130-41.7c-0.6-1.5-1.1-3-1.7-4.5c-0.1-0.4-0.4-0.6-0.8-0.6c-0.4,0-0.7,0.2-0.8,0.6c-0.2,0.6-0.4,1.1-0.6,1.7
		c-0.4,1-0.7,1.9-1.1,2.9c-0.2,0.4-0.1,0.7,0.3,0.9c0.4,0.2,0.8,0.1,0.9-0.3c0.2-0.6,0.6-0.5,1-0.5c0.2,0,0.5,0,0.7,0
		c0.4,0,0.7,0,0.8,0.5c0.1,0.3,0.4,0.5,0.8,0.4c0.4-0.1,0.5-0.4,0.5-0.8C-130-41.4-130-41.6-130-41.7z M-133-42.9
		c0.2-0.4,0.3-0.7,0.5-1.2c0.2,0.5,0.3,0.8,0.5,1.2H-133z"/>
	<path d="M-120.7-42.5c-0.1,1.1-1.3,1.9-2.4,1.9c-1.2,0-2.2-1-2.3-2c0-0.6,0-1.1,0-1.7c0-0.5,0-1.1,0-1.7c0-0.5,0.3-0.8,0.7-0.8
		c0.4,0,0.8,0.3,0.8,0.8c0,1,0,2,0,3c0,0.5,0.3,0.9,0.8,0.9c0.6,0,1-0.3,1-0.9c0-0.9,0-1.8,0-2.7c0-0.2,0-0.3,0-0.4
		c0.1-0.4,0.3-0.6,0.7-0.6c0.4,0,0.7,0.3,0.7,0.7C-120.7-44.9-120.7-43.7-120.7-42.5z"/>
	<path d="M-110-41.7c-0.6-1.5-1.1-3-1.7-4.5c-0.1-0.4-0.4-0.6-0.8-0.6c-0.4,0-0.7,0.2-0.8,0.6c-0.2,0.5-0.4,1.1-0.6,1.6
		c-0.4,1-0.7,1.9-1.1,2.9c-0.2,0.4-0.1,0.8,0.3,1c0.4,0.2,0.8,0.1,0.9-0.3c0.2-0.6,0.6-0.5,1-0.5c0.2,0,0.4,0,0.7,0
		c0.4,0,0.7,0,0.8,0.5c0.1,0.3,0.4,0.5,0.8,0.4c0.3-0.1,0.5-0.3,0.5-0.8C-109.9-41.4-109.9-41.5-110-41.7z M-112.9-42.9
		c0.1-0.4,0.3-0.8,0.5-1.2c0.2,0.5,0.3,0.8,0.5,1.2H-112.9z"/>
	<path d="M-132.8-56.1c0,2.1,0,4.1,0,6.1c0,0.5-0.3,0.8-0.7,0.8c-0.4,0-0.7-0.3-0.7-0.8c0-1.6,0-3.3,0-4.9c0-0.2,0-0.3,0-0.6
		c-0.3,0-0.5,0-0.7,0c-0.4,0-0.6-0.3-0.6-0.6c0-0.4,0.2-0.7,0.5-0.7c0.6-0.1,1.1-0.1,1.7,0C-133-56.8-132.8-56.5-132.8-56.1z"/>
	<path d="M-126.3-46c0,0.4-0.3,0.6-0.6,0.7c-0.2,0-0.4,0-0.6,0v1.3c0,0.9,0,1.8,0,2.6c0,0.5-0.3,0.8-0.7,0.8c-0.4,0-0.7-0.3-0.7-0.8
		c0-1.3,0-2.6,0-3.9c-0.3,0-0.4,0-0.6,0c-0.4,0-0.6-0.3-0.7-0.7c0-0.4,0.2-0.7,0.6-0.7c1,0,2,0,2.9,0
		C-126.4-46.7-126.2-46.4-126.3-46z"/>
	<path d="M-111.9-56.1c0,0.1-0.1,0.2-0.1,0.4c-0.8,1.9-1.6,3.8-2.4,5.6c-0.2,0.4-0.4,0.6-0.8,0.6c-0.5,0-0.8-0.5-0.6-1
		c0.8-2,1.7-4,2.5-6c0.2-0.4,0.5-0.5,0.8-0.4C-112.1-56.7-111.9-56.5-111.9-56.1z"/>
	<path d="M-117.2-57.1c-1,0-1.8,0.9-1.8,2c0,1.1,0.8,2,1.8,2c1,0,1.8-0.9,1.8-2C-115.4-56.2-116.2-57.1-117.2-57.1z M-117.2-54.6
		c-0.1-0.2-0.3-0.4-0.3-0.5c0-0.2,0.2-0.4,0.4-0.5c0.1,0.2,0.3,0.3,0.5,0.6C-116.9-54.9-117-54.7-117.2-54.6z"/>
	<path d="M-110.6-53.1c-1,0-1.8,0.8-1.9,2c0,1.1,0.8,2,1.8,2c1,0,1.9-0.9,1.9-2C-108.8-52.1-109.6-53-110.6-53.1z M-110.7-50.5
		c-0.1-0.2-0.3-0.4-0.3-0.6c0-0.2,0.2-0.3,0.3-0.5c0.2,0.2,0.3,0.3,0.5,0.6C-110.4-50.8-110.5-50.7-110.7-50.5z"/>
	<path d="M-106.2-41.3c0,0.4-0.3,0.7-0.7,0.8c-0.5,0-1.1,0-1.6,0c-0.5,0-0.8-0.3-0.8-0.7c0-1.6,0-3.2,0-4.7c0-0.4,0.3-0.7,0.7-0.7
		c0.4,0,0.7,0.3,0.7,0.8c0,1.1,0,2.2,0,3.3v0.6c0.3,0,0.6,0,0.9,0C-106.4-42-106.2-41.8-106.2-41.3z"/>
</g>
<g>
	<path d="M-98.7,23.7c-0.8-6.7-3.8-12.3-9.1-16.5c-0.6-0.5-1.2-0.9-1.8-1.3c-0.3-0.2-0.7-0.4-1-0.6c-0.3-0.2-0.6-0.4-0.9-0.5
		c0,0,0,0,0,0c-0.2-0.1-0.4-0.2-0.6-0.3c-0.2-0.1-0.4-0.2-0.6-0.3c0,0,0,0,0,0c-0.2-0.1-0.5-0.2-0.7-0.3c-0.6-0.3-1.2-0.5-1.8-0.7
		c-0.2-0.1-0.4-0.2-0.6-0.2c-0.4-0.1-0.8-0.3-1.1-0.4c-0.1,0-0.2-0.1-0.3-0.1c-0.1,0-0.2-0.1-0.3-0.1c0,0,0,0-0.1,0
		c-0.2,0-0.4-0.1-0.6-0.1c-0.3-0.1-0.5-0.1-0.8-0.1c0,0,0,0,0,0c-0.1,0-0.2,0-0.3-0.1c-0.2,0-0.4-0.1-0.6-0.1c-0.1,0-0.2,0-0.4,0
		c-0.2,0-0.4-0.1-0.7-0.1c-0.3,0-0.5,0-0.8,0c-0.3,0-0.6,0-0.9,0h-0.9c-0.4,0-0.8,0-1.2,0c0,0-0.1,0-0.1,0c-0.2,0-0.5,0-0.7,0
		c-0.1,0-0.3,0-0.4,0c-0.4,0-0.7,0.1-1.1,0.2c-0.1,0-0.3,0-0.4,0.1c-0.1,0-0.1,0-0.2,0c-0.2,0-0.4,0.1-0.7,0.1c0,0,0,0-0.1,0
		c-0.3,0.1-0.5,0.1-0.8,0.2c-0.1,0-0.2,0-0.2,0.1c0,0-0.1,0-0.1,0c-0.4,0.1-0.7,0.2-1.1,0.3c-0.4,0.1-0.8,0.3-1.3,0.4
		c-0.4,0.1-0.8,0.3-1.3,0.5c-8.3,3.4-13.3,9.8-15,18.6c-0.2,0.9-0.3,1.9-0.4,2.8v3.1c0.1,1,0.2,1.9,0.4,2.8c1.6,9.7,9.6,18,19.3,20
		c1.1,0.2,2.3,0.3,3.4,0.5c0.1,0,0.2,0,0.3,0.1h3.1c0.1,0,0.3-0.1,0.4-0.1c2.1-0.2,4.1-0.6,6.1-1.2C-104.2,46.4-97.3,35.5-98.7,23.7
		z M-123.5,49.7c-12.7,0-23-10.4-23-23.1c0-12.6,10.4-22.9,23-22.9c12.7,0,23,10.4,23,23S-110.8,49.7-123.5,49.7z"/>
	<path d="M-123.5,6c-11.4,0-20.7,9.3-20.6,20.7c0,11.4,9.3,20.7,20.7,20.6c11.4,0,20.6-9.3,20.6-20.6C-102.8,15.3-112.1,6-123.5,6z
		 M-136.8,13.6c7.4-7.6,19-7.2,25.8-0.9c-3.8,3.8-7.6,7.6-11.4,11.4c0-0.2,0-0.4,0-0.6c-0.1-1.4,0-2.8-0.3-4.2c-0.8-3.6-4.2-6-8-5.8
		c-3.5,0.2-6.5,3.1-6.9,6.6c0,0.4-0.1,0.8-0.1,1.2c0,3.2,0,6.4,0,9.5c0,2.4,0.4,4.5,2.1,6.3l-1.8,1.8
		C-143.4,32.7-144.3,21.2-136.8,13.6z M-125,34.7c-1.3,2.6-4.4,3.8-7.1,2.8c-0.1-0.1-0.3-0.1-0.4-0.2c2.7-2.7,5.4-5.4,8.1-8
		C-124.5,31-124.1,32.9-125,34.7z M-135.5,19.8c0.5-2.8,3.3-4.6,6.1-4.3c2.8,0.3,4.9,2.6,5,5.4c0,1.6,0,3.1,0,4.7h-11.2
		c0,0-0.1-0.1-0.1-0.1C-135.6,23.7-135.8,21.7-135.5,19.8z M-126,27.7c-2.7,2.7-5.5,5.5-8.3,8.3c-0.9-0.9-1.4-2.1-1.5-3.4
		c-0.1-1.6,0-3.2,0-4.9H-126z M-110.1,39.8c-7.4,7.5-18.9,7.2-25.8,0.8c0.6-0.6,1.3-1.3,1.9-1.9c1.7,1,3.7,1.3,5.7,0.8
		c2-0.5,3.6-1.7,4.7-3.5c2.5,4.2,7.7,4.7,10.9,2.2c3.2-2.5,3.8-7,1.3-10.2c-2.5-3.3-7.6-4-11-0.6c0,0-0.1,0-0.1-0.1
		c0.1-0.2,0.2-0.4,0.3-0.6c3-3,6-6,9-9c1.2-1.2,2.4-2.4,3.6-3.6C-103.4,20.7-102.6,32.1-110.1,39.8z M-122.4,32.5
		c0-2.9,2.4-5.3,5.3-5.3c2.9,0,5.3,2.4,5.3,5.3c0,3-2.4,5.4-5.4,5.3C-120,37.8-122.4,35.4-122.4,32.5z"/>
</g>
<g>
	<path d="M-169.1,85.5v1.6c-0.1,0.3-0.2,0.7-0.2,1c-0.3,1.3-1,2.4-2,3.3c-5.2,5.1-10.3,10.3-15.5,15.5c-1.6,1.6-3.2,3.2-4.8,4.8
		c-1.2,1.2-2.6,2-4.3,2.3c0,0-0.1,0-0.1,0.1h-1.7c-0.3-0.1-0.7-0.1-1-0.2c-1.2-0.3-2.2-0.9-3.1-1.8c-1.6-1.6-3.1-3.1-4.7-4.7
		c-0.5-0.5-0.5-1-0.1-1.5c0.4-0.4,1-0.4,1.5,0.1c1.5,1.5,2.9,2.9,4.4,4.4c2.3,2.3,5.3,2.3,7.5,0c6.8-6.8,13.6-13.6,20.4-20.4
		c2.2-2.2,2.3-5.2,0-7.5c-5-4.9-9.9-9.9-14.8-14.8c-2.2-2.2-5.2-2.2-7.5,0c-6.8,6.8-13.7,13.6-20.5,20.4c-2.2,2.2-2.2,5.2,0,7.4
		c1.3,1.3,2.7,2.7,4,4c0.2,0.2,0.4,0.6,0.4,0.9c0,0.3-0.2,0.7-0.5,0.8c-0.2,0.1-0.6,0-1,0c-0.1,0-0.1-0.1-0.2-0.1
		c-1.6-1.6-3.3-3.2-4.8-4.9c-0.9-0.9-1.3-2.1-1.5-3.3c0-0.1-0.1-0.2-0.1-0.3v-1.6c0.1-0.3,0.1-0.7,0.2-1c0.4-1.3,1-2.4,2-3.3
		c4.1-4.1,8.3-8.2,12.4-12.4c2.7-2.7,5.4-5.3,8-8c2.9-3,7.5-3,10.4,0c4.9,5,9.8,9.9,14.8,14.8c1.2,1.2,1.9,2.5,2.1,4.1
		C-169.1,85.4-169.1,85.5-169.1,85.5z"/>
	<path d="M-184.9,75.5c-0.2,0.3-0.3,0.6-0.5,0.8c-1.7,1.7-3.4,3.5-5.2,5.2c-5.4,5.4-10.8,10.8-16.3,16.3c-0.2,0.2-0.5,0.4-0.8,0.5
		c-0.4,0.1-0.7-0.1-0.9-0.5c-0.2-0.4-0.2-0.7,0.1-1.1c0.1-0.1,0.2-0.2,0.3-0.3c7.1-7.1,14.3-14.3,21.5-21.4c0.3-0.3,0.7-0.6,1.2-0.5
		C-185.2,74.6-185,75-184.9,75.5z"/>
	<path d="M-198.4,75.7c-1.7,0-3.1,1.4-3.1,3.1c0,1.7,1.4,3,3.1,3c1.7,0,3-1.4,3-3.1C-195.3,77.1-196.7,75.7-198.4,75.7z
		 M-198.4,79.9c-0.6,0-1.1-0.5-1.1-1.1c0-0.6,0.5-1.1,1.1-1.1c0.6,0,1.1,0.5,1.1,1.2C-197.3,79.5-197.8,79.9-198.4,79.9z"/>
	<path d="M-192.4,69.7c-1.7,0-3.1,1.3-3,3.1c0,1.7,1.4,3.1,3.1,3.1c1.7,0,3.1-1.4,3.1-3.1C-189.3,71.1-190.7,69.7-192.4,69.7z
		 M-192.4,73.9c-0.6,0-1.1-0.5-1.1-1.1c0-0.6,0.5-1.1,1.1-1.1c0.6,0,1.1,0.5,1.2,1.1S-191.7,73.9-192.4,73.9z"/>
	<path d="M-183.5,90.6c-1.7,0-3.1,1.4-3.1,3c0,1.7,1.4,3.1,3.1,3.1c1.7,0,3.1-1.4,3.1-3.1S-181.8,90.6-183.5,90.6z M-183.5,94.8
		c-0.6,0-1.1-0.5-1.1-1.1c0-0.6,0.5-1.1,1.1-1.1s1.1,0.5,1.1,1.1C-182.4,94.3-182.9,94.8-183.5,94.8z"/>
	<path d="M-195.6,102.6c-1.7,0-3.1,1.4-3.1,3.1c0,1.7,1.4,3.1,3.1,3.1c1.7,0,3.1-1.4,3.1-3.1C-192.5,104-193.9,102.6-195.6,102.6z
		 M-195.6,106.8c-0.6,0-1.1-0.5-1.1-1.1c0-0.6,0.5-1.2,1.1-1.2c0.6,0,1.1,0.5,1.1,1.1C-194.5,106.3-194.9,106.8-195.6,106.8z"/>
	<path d="M-210.5,87.8c-1.7,0-3,1.3-3,3.1s1.4,3.1,3,3.1c1.7,0,3.1-1.4,3.1-3C-207.4,89.1-208.7,87.8-210.5,87.8z M-210.5,92
		c-0.6,0-1.1-0.5-1.1-1.1c0-0.6,0.5-1.1,1.1-1.1c0.6,0,1.1,0.5,1.1,1.1C-209.3,91.5-209.9,92-210.5,92z"/>
	<path d="M-204.4,81.7c-1.7,0-3.1,1.3-3.1,3s1.3,3.1,3,3.1c1.7,0,3.1-1.3,3.1-3C-201.4,83.1-202.7,81.8-204.4,81.7z M-204.4,85.9
		c-0.6,0-1.1-0.5-1.1-1.1c0-0.6,0.5-1.1,1.1-1.2c0.6,0,1.2,0.5,1.2,1.1C-203.3,85.4-203.8,85.9-204.4,85.9z"/>
	<path d="M-195.3,90.8c-1.7,0-3.1,1.4-3.1,3.1c0,1.7,1.4,3.1,3,3.1c1.7,0,3.1-1.4,3.1-3C-192.2,92.3-193.6,90.8-195.3,90.8z
		 M-195.3,95c-0.6,0-1.1-0.5-1.1-1.1c0-0.6,0.5-1.1,1.1-1.1c0.6,0,1.1,0.5,1.1,1.1C-194.2,94.6-194.7,95-195.3,95z"/>
	<path d="M-183.3,78.8c-1.7,0-3.1,1.4-3.1,3.1c0,1.7,1.4,3.1,3.1,3c1.7,0,3.1-1.4,3-3.1C-180.2,80.1-181.6,78.8-183.3,78.8z
		 M-183.3,83c-0.6,0-1.1-0.5-1.1-1.2c0-0.6,0.5-1.1,1.1-1.1c0.6,0,1.1,0.5,1.1,1.1C-182.1,82.5-182.6,83-183.3,83z"/>
	<path d="M-189.5,96.6c-1.6,0-3.1,1.3-3.1,3c0,1.7,1.3,3.1,3,3.1c1.7,0,3.1-1.3,3.2-3C-186.4,98-187.9,96.6-189.5,96.6z
		 M-189.6,100.8c-0.6,0-1.1-0.5-1.1-1.1s0.5-1.1,1.1-1.1c0.6,0,1.2,0.5,1.1,1.1C-188.4,100.3-188.9,100.8-189.6,100.8z"/>
	<path d="M-201.3,96.9c-1.7,0-3.1,1.3-3.1,3c0,1.7,1.3,3.1,3,3.1c1.7,0,3.1-1.4,3.1-3.1C-198.3,98.2-199.6,96.9-201.3,96.9z
		 M-201.4,101c-0.6,0-1.1-0.5-1.1-1.1c0-0.6,0.5-1.1,1.1-1.1s1.1,0.5,1.1,1.1C-200.3,100.6-200.8,101-201.4,101z"/>
	<path d="M-177.5,84.6c-1.7,0-3.1,1.4-3.1,3.1c0,1.7,1.4,3.1,3.1,3.1c1.7,0,3.1-1.4,3.1-3.1C-174.4,85.9-175.8,84.6-177.5,84.6z
		 M-177.5,88.7c-0.6,0-1.1-0.5-1.1-1.1c0-0.6,0.5-1.1,1.1-1.1s1.1,0.5,1.1,1.1C-176.4,88.3-176.9,88.8-177.5,88.7z"/>
	<path d="M-189.3,84.8c-1.7,0-3.1,1.3-3.1,3.1c0,1.7,1.4,3,3.1,3c1.7,0,3-1.3,3-3.1C-186.2,86.2-187.6,84.8-189.3,84.8z M-189.3,89
		c-0.6,0-1.1-0.5-1.1-1.1c0-0.6,0.5-1.1,1.1-1.1c0.6,0,1.1,0.5,1.1,1.1C-188.2,88.5-188.7,89-189.3,89z"/>
	<path d="M-207.8,103.6c0,0.5-0.5,1-1,0.9c-0.5,0-1-0.5-1-1c0-0.5,0.5-1,1-1C-208.3,102.6-207.8,103.1-207.8,103.6z"/>
</g>
<g>
	<path d="M-31.7-23.5c-0.2-1.4-1.3-2.3-2.7-2.4c-0.3,0-0.6,0-0.8,0c-0.1-0.8-0.1-1.5-0.2-2.2c-1-4.4-5.8-6.4-9.6-4
		c-0.1,0.1-0.3,0.2-0.3,0.2c-0.4-0.2-0.8-0.4-1.1-0.6c-0.1-0.1-0.1-0.5-0.1-0.7v-21c0-3-1.3-5.3-3.9-6.8c-0.6-0.4-0.6-0.5-0.4-1.2
		c0.1,0,0.2,0,0.3,0c1.2,0,1.6-0.4,1.6-1.6v-5c0-1.1-0.4-1.5-1.5-1.5h-20c-0.9,0-1.4,0.4-1.4,1.2c0,1.9,0,3.8,0,5.7
		c0,0.7,0.5,1.2,1.3,1.2c0.2,0,0.4,0,0.7,0c-0.1,0.4,0.2,0.8-0.3,1.1c-2.8,1.6-4.1,4-4.1,7.2c0,4.2,0,8.4,0,12.6
		c0,0.2,0,0.4,0.1,0.6c0.1,0.4,0.4,0.5,0.7,0.5c0.4,0,0.6-0.2,0.7-0.6c0-0.1,0-0.3,0-0.4c0-1.8,0-3.5,0-5.3v-0.5h8.3
		c0,0.1,0,0.2,0,0.3c0,0.8,0.2,1,1,1h1.1c0,0.5,0,0.9,0,1.3c0,0.6,0.3,0.8,0.8,0.8c0.8,0,1.7,0,2.5,0c0.6,0,0.8-0.3,0.8-0.9
		c0-0.4,0-0.8,0-1.2c0.3,0,0.5,0,0.8,0c0.9,0.1,1.3,0,1.3-1.2c0,0,0-0.1,0.1-0.1h8.2V-33c-1.3-0.2-2.5,0-3.7,0.5
		c-0.1-0.1-0.1-0.1-0.1-0.2c-0.8-1.3-1.9-2.3-3.2-3.1c-0.2-0.1-0.3-0.4-0.3-0.5c-0.2-2.9-2.4-5.4-5.3-5.8c-0.5-0.1-1,0.1-1.3,0.5
		c-0.3,0.4-0.4,0.9-0.1,1.4c0.1,0.3,0.3,0.5,0.4,0.7c0.3,0.7,0.5,1.5,0.4,2.3c-2.9,0.3-5.4,1.5-7.2,3.8c-0.5,0.7-1.1,0.9-1.9,0.9
		c-0.8-0.1-1.7,0-2.6,0v-0.6c0-1.4,0-2.8,0-4.2c0-0.5-0.3-0.9-0.7-0.9c-0.5,0-0.8,0.3-0.8,0.9c0,4.8,0,9.5,0,14.3
		c0,1.3,0.8,2.3,2,2.6c0.1,0,0.1,0.1,0.2,0.1h23.8c1-0.2,2-0.5,2.9-1.1c0.1,0,0.2,0,0.3,0c0.9,0.6,1.9,0.9,2.9,1.1h8.4
		c0.1,0,0.2-0.1,0.3-0.1C-32.3-21-31.5-22.2-31.7-23.5z M-52.5-68.8h2v2.4h-2V-68.8z M-56.1-68.8h2.1v2.4h-2.1V-68.8z M-59.7-68.8
		h2.1v2.4h-2.1V-68.8z M-63.2-68.8h2v2.4h-2V-68.8z M-66.8-68.8h2.1v2.4h-2.1V-68.8z M-70.4-68.8h2.1v2.4h-2.1V-68.8z M-70.4-63.7
		v-1.2h19.9v1.2H-70.4z M-57.8-47.4c-0.4,0-0.8,0-1.1,0c-0.7,0-0.9,0.3-0.9,0.9c0,0.3,0,0.7,0,1c0,0,0,0.1,0,0.1H-61
		c0-0.4,0-0.8,0-1.2c0-0.6-0.3-0.9-0.9-0.9c-0.4,0-0.8,0-1.2,0v-1.2c0.4,0,0.8,0,1.2,0c0.6,0,0.8-0.3,0.9-0.8c0-0.4,0-0.8,0-1.2h1.2
		c0,0.4,0,0.8,0,1.2c0,0.6,0.3,0.8,0.8,0.8c0.4,0,0.8,0,1.2,0V-47.4z M-56.2-48.7c-0.2-1.3-0.2-1.3-1.6-1.3h-0.5v-1.2
		c0-0.6-0.3-0.9-0.9-0.9c-0.8,0-1.6,0-2.4,0c-0.6,0-0.8,0.3-0.8,0.9c0,0.4,0,0.7,0,1.1c0,0,0,0.1-0.1,0.1h-1c-0.8,0-1,0.2-1,1
		c0,0.1,0,0.2,0,0.3h-8.2v-4.8c0.2,0,0.4,0,0.6,0c4.5,0,8.9,0,13.4,0c0.2,0,0.4,0,0.6,0c0.4-0.1,0.5-0.3,0.5-0.7s-0.2-0.6-0.6-0.7
		c-0.2,0-0.4,0-0.6,0h-14c0-0.3,0.1-0.5,0.1-0.7c0.4-1.8,1.5-3.2,3.1-4.1c0.8-0.4,1.2-0.9,1.1-1.8c0-0.2,0-0.4,0-0.5h16.1
		c0,0.3,0,0.5,0,0.8c0,0.7,0.3,1.1,0.9,1.5c1.9,1,3,2.5,3.4,4.6c0,0.1,0,0.1,0,0.3h-6.5c-0.2,0-0.3,0-0.5,0
		c-0.4,0.1-0.6,0.3-0.6,0.7c0,0.4,0.2,0.6,0.5,0.7c0.2,0,0.4,0,0.6,0c2,0,3.9,0,5.9,0h0.6v4.8H-56.2z M-61.5-35.7
		c-0.5,1.2-1.4,2.1-2.5,2.7c-0.2,0.1-0.5,0.2-0.7,0.3c-0.5,0.2-0.8,0.6-0.8,1.1c0,0.5,0.2,0.9,0.6,1.2c1.3,0.7,2.6,1,4,0.9
		c0.5-0.1,0.8-0.4,0.7-0.9c-0.1-0.4-0.4-0.6-0.9-0.6c-0.9,0.1-1.8-0.1-2.7-0.5c3.6-1.4,5.2-5.6,3.3-9.1c0.9,0.2,1.6,0.6,2.2,1.2
		c2,1.9,2.1,5,0.2,7c-0.1,0.1-0.3,0.3-0.4,0.5c-0.1,0.3-0.1,0.6,0.2,0.9c0.3,0.2,0.7,0.2,0.9-0.1c0.8-0.7,1.3-1.6,1.7-2.6
		c0-0.1,0.1-0.3,0.2-0.4c1,0.7,1.9,1.5,2.5,2.6c-1.1,0.9-1.8,2-2.2,3.3c-0.2,0.7-0.2,0.7-1,0.7h-13C-69.1-31.8-65.4-35.5-61.5-35.7z
		 M-72.8-31.1h3c-0.1,0.2-0.2,0.4-0.2,0.6c-0.2,0.8-0.4,1.5-0.5,2.3c0,0.3-0.1,0.4-0.4,0.4c-0.6,0-1.2,0-1.8,0V-31.1z M-53.7-21.8
		h-17.6c-1.1,0-1.5-0.5-1.5-1.5c0-0.9,0-1.8,0-2.7c0,0,0-0.1,0.1-0.2h0.5c5.4,0,10.8,0,16.3,0c0.4,0,0.6,0.1,0.7,0.6
		c0.2,1.3,0.8,2.4,1.7,3.4c0.1,0.1,0.3,0.3,0.4,0.4c0,0,0,0,0,0.1C-53.4-21.9-53.5-21.8-53.7-21.8z M-44.3-22.9c0,0,0,0.1,0,0.1
		c-0.1,0-0.1,0.1-0.2,0.1c-0.4-0.5-0.9-1-1.3-1.6c-0.4-0.5-0.7-0.7-1.1-0.4c-0.4,0.2-0.4,0.7-0.1,1.2c0.2,0.3,0.4,0.6,0.6,0.9
		c-1.2,1.1-4,1.3-5.9-0.5c-1.9-1.8-2.1-4.7-0.4-6.7c1.6-1.9,4.5-2.3,6.3-1c-0.6,0.8-1.1,1.7-1.3,2.7c0,0.2-0.1,0.4-0.1,0.6
		c0,0.4,0.2,0.7,0.6,0.8c0.4,0.1,0.7-0.1,0.8-0.5c0.1-0.3,0.1-0.6,0.2-1c0.7-2.4,3.1-3.8,5.6-3.3c2.4,0.4,4.1,2.7,3.9,5.1
		c0,0.4-0.1,0.6-0.6,0.6c-1.4,0-2.7,0-4.1,0C-43.2-25.9-44.3-24.8-44.3-22.9z M-34.6-21.8h-6.9c-0.7,0-1.2-0.4-1.3-0.9
		c-0.1-0.5,0.1-1.2,0.6-1.4c0.3-0.1,0.6-0.2,0.9-0.2c1.1,0,2.2,0,3.4,0h3.4c0.9,0,1.5,0.5,1.5,1.3C-33.1-22.4-33.7-21.8-34.6-21.8z"
		/>
	<path class="st0" d="M-48.3-20.4c1-0.2,2-0.5,2.9-1.1c0.1,0,0.2,0,0.3,0c0.9,0.6,1.9,0.9,2.9,1.1C-44.3-20.4-46.3-20.4-48.3-20.4z"
		/>
	<path d="M-65.6-45.1c0,0.4-0.3,0.7-0.9,0.7c-1.4,0-2.7,0-4.1,0c-0.5,0-0.9-0.3-0.9-0.7c0-0.4,0.3-0.7,0.9-0.7c0.7,0,1.3,0,2,0
		c0.7,0,1.4,0,2,0C-65.9-45.8-65.6-45.5-65.6-45.1z"/>
	<path d="M-49.5-45.1c0,0.4-0.3,0.7-0.8,0.8c-1.4,0-2.8,0-4.1,0c-0.5,0-0.8-0.3-0.8-0.8c0-0.4,0.3-0.7,0.8-0.7c0.7,0,1.4,0,2.1,0
		c0.7,0,1.3,0,2,0C-49.8-45.8-49.5-45.5-49.5-45.1z"/>
	<path d="M-65.6-42.1c0,0.4-0.3,0.7-0.9,0.7c-1.4,0-2.7,0-4.1,0c-0.5,0-0.9-0.3-0.9-0.7c0-0.5,0.3-0.7,0.9-0.7c0.7,0,1.3,0,2,0
		c0.7,0,1.4,0,2,0C-65.9-42.8-65.6-42.6-65.6-42.1z"/>
	<path d="M-49.5-42.1c0,0.4-0.3,0.7-0.8,0.7c-1.4,0-2.8,0-4.1,0c-0.5,0-0.8-0.3-0.8-0.7c0-0.4,0.3-0.7,0.8-0.7c0.7,0,1.4,0,2,0
		s1.4,0,2,0C-49.8-42.8-49.5-42.6-49.5-42.1z"/>
</g>
<g>
	<path d="M46.4,45c-2.4,1.4-4.9,2.6-7.5,3.4c-7.5,2.3-14.8,1.9-22-0.9c-2-0.8-4-1.8-6.1-2.5c-1.6-0.6-3.4-0.9-5.1-1.4
		c-1.2-0.3-2.4-0.8-3.4-1.5c-1.2-0.9-2-2.2-2.3-3.7c0-0.1-0.1-0.1-0.1-0.2v-1.7c0.1-0.4,0.1-0.8,0.3-1.2c0.7-2,1.3-4,2.1-5.9
		c3.7-9,8.9-17.2,14.5-25.1c1.2-1.7,2.9-2.8,4.9-3.2c1.8-0.4,3.6-0.5,5.4-0.8C28.1,0.3,29,0.1,29.9,0h1.4c0.5,0.2,1.1,0.3,1.6,0.6
		c1.4,0.7,2.3,1.8,2.6,3.4c0.3,1.3,0.5,2.6,0.7,3.9c0.4,3.2-2.3,5.6-5.4,4.9c-1.5-0.3-3-0.7-4.5-1c-0.1,0-0.3,0-0.5-0.1
		c-0.3,1.2-0.6,2.3-0.9,3.4c-0.6,2.5-1.3,5-2,7.5c-0.2,0.7-0.7,1.1-1.3,1.1c-0.6,0-1.1-0.5-1.2-1c0-0.3,0-0.6,0.1-0.9
		c1-3.9,2-7.7,3-11.6c0-0.1,0-0.3,0.1-0.4c0.2-0.8,0.9-1.2,1.7-1c2.1,0.5,4.1,1,6.2,1.5c1.2,0.3,2.4-0.8,2.2-2.1
		c-0.2-1.2-0.4-2.4-0.6-3.6c-0.2-1.3-1.4-2.1-2.7-2c-1.4,0.2-2.7,0.3-4.1,0.5c-1.1,0.1-2.2,0.3-3.3,0.4c-1.7,0.3-3.2,1.1-4.1,2.6
		c-5,7.1-9.6,14.4-13.1,22.3c-1.1,2.5-2,5.1-2.9,7.7c-0.2,0.6-0.2,1.3-0.1,1.9c0.1,1.3,1,2.2,2.2,2.7c1.2,0.5,2.5,0.8,3.7,1.1
		c2.2,0.5,4.3,1.3,6.4,2.2c3.4,1.6,7,2.8,10.8,3.2c4.8,0.6,9.5,0.1,14.1-1.7c1.8-0.7,3.6-1.7,5.4-2.6c0.5-0.2,0.9-0.4,1.4-0.1
		C47.4,43.3,47.4,44.5,46.4,45z"/>
	<path d="M49.9,24.7c0,0.7-0.5,1.3-1.4,1.3c-2.6,0.1-4.9,1-7,2.6c-0.2,0.2-0.4,0.3-0.6,0.5c-0.6,0.6-1.3,0.6-1.9,0.1
		c-1.9-1.6-4-2.7-6.4-3.2c-3.5-0.8-6.5,0.1-9.2,2.4c-1.8,1.5-3.2,3.4-4.5,5.5c-0.4,0.6-0.9,0.9-1.5,0.7c-0.8-0.2-1.2-1-0.8-1.7
		c2.3-3.9,5.1-7.4,9.5-9c3.5-1.3,6.9-0.8,10.2,0.7c1.2,0.6,2.3,1.3,3.6,2c1.9-1.5,4-2.5,6.4-2.9c0.7-0.1,1.4-0.2,2-0.2
		C49.3,23.4,49.9,23.9,49.9,24.7z"/>
	<path d="M43,38.4c-0.1,0.3-0.3,0.6-0.5,0.9c-1.9,2-4.2,3.2-6.9,3.7c-0.9,0.2-1.8,0.2-2.7,0.3c-1.7-0.1-3.4-0.4-5-0.9
		c-1.1-0.4-1.6-1-1.3-1.8c0.3-0.8,1-1,2-0.6c1.7,0.5,3.4,0.8,5.2,0.7c2.7-0.2,5-1.3,6.9-3.2c0.5-0.5,1-0.6,1.5-0.3
		C42.8,37.4,43.1,37.9,43,38.4z"/>
</g>
<g>
	<path d="M-31.7,97c-0.1-0.1-0.1-0.2-0.2-0.3c-1.8-2.7-3.7-5.5-5.5-8.2c-0.3-0.5-0.7-0.7-1.3-0.7c-9.5,0-19.1,0-28.6,0
		c-0.6,0-1,0.2-1.3,0.7c-1.4,2.2-2.9,4.3-4.3,6.4c-0.4,0.7-0.9,1.3-1.3,2c-0.2,0.3-0.3,0.7-0.1,1.1c0.2,0.4,0.5,0.5,1,0.5
		c0.8,0,1.6,0,2.3,0h2.4v12.4c0,1,0.3,1.3,1.3,1.3h28.7c0.9,0,1.3-0.3,1.3-1.3V98.5h0.6c1.4,0,2.8,0,4.2,0
		C-31.7,98.5-31.3,97.8-31.7,97z M-71.4,96.6c-0.1,0-0.1,0-0.2,0c0.1-0.1,0.1-0.3,0.2-0.3c1.4-2,2.7-4.1,4.1-6.1
		c0.1-0.2,0.3-0.3,0.6-0.3c3.8,0,7.6,0,11.4,0c0.1,0,0.2,0,0.3,0c-1.3,1.6-2.5,3.2-3.7,4.7c-0.5,0.6-0.9,1.2-1.4,1.8
		c-0.1,0.1-0.3,0.3-0.5,0.3C-64.2,96.6-67.8,96.6-71.4,96.6z M-54,91.7v13.7h-12.6v-6.8h0.5c1.9,0,3.9,0,5.8,0
		c0.7,0,1.1-0.2,1.5-0.8C-57.2,95.8-55.6,93.8-54,91.7z M-54,110.2h-12.6v-2.9H-54V110.2z M-39.4,110.2H-52v-2.9h12.6V110.2z
		 M-39.4,105.3H-52V92.1c0.2,0.2,0.3,0.4,0.3,0.5c1.2,1.7,2.3,3.5,3.5,5.2c0.4,0.5,0.8,0.8,1.4,0.8c2.3,0,4.5,0,6.8,0h0.5V105.3z
		 M-34.9,96.6c-3.8,0-7.5,0-11.3,0c-0.3,0-0.5-0.1-0.7-0.4c-1.4-2.1-2.8-4.3-4.3-6.4c0.1,0,0.2-0.1,0.3-0.1c3.8,0,7.7,0,11.5,0
		c0.2,0,0.4,0.1,0.5,0.2c1.5,2.2,2.9,4.3,4.4,6.6H-34.9z"/>
	<path d="M-45.5,68.1c-1-0.8-2-0.9-3.3-0.6c-0.1-0.2-0.2-0.4-0.3-0.6c-0.9-1.4-2.8-2-4.3-1.3c-1.5,0.7-2.4,2.5-1.8,4.1
		c0.6,1.9,1.4,3.8,2.1,5.7c0.2,0.5,0.7,0.8,1.2,0.6c1.9-0.7,3.9-1.4,5.8-2.2C-43.9,72.8-43.6,69.7-45.5,68.1z M-47.2,72.2
		c-1.5,0.6-3,1.1-4.5,1.7c-0.6-1.6-1.2-3.1-1.7-4.7c-0.3-0.7,0.2-1.5,0.9-1.7c0.7-0.3,1.5,0,1.9,0.7c0.2,0.3,0.3,0.6,0.4,1
		c0.3,0.6,0.7,0.8,1.3,0.6c0.3-0.1,0.5-0.2,0.8-0.3c0.8-0.3,1.6,0.1,1.9,0.9C-46,71.1-46.3,71.9-47.2,72.2z"/>
	<path d="M-57.2,72.9c-1.4-0.6-3.4,0.1-3.8,2.2c-0.2,0-0.4,0.1-0.6,0.1c-1.3,0.3-2.3,1.6-2.1,3c0.1,1.4,1.3,2.5,2.6,2.6
		c1.4,0.1,2.9,0.1,4.3,0.2c0.8,0,1.1-0.3,1.2-1.1c0.1-1.5,0.2-2.9,0.2-4.4C-55.4,74.3-56.1,73.3-57.2,72.9z M-57.5,79
		c-1.2-0.1-2.3-0.1-3.5-0.2c-0.5,0-0.8-0.5-0.8-0.9c0-0.5,0.4-0.8,0.9-0.8c0.3,0,0.5,0,0.8,0c0.6,0,0.9-0.4,1-0.9
		c0-0.3,0-0.5,0.1-0.8c0.1-0.5,0.5-0.8,0.9-0.7c0.4,0,0.8,0.4,0.8,0.8C-57.4,76.6-57.4,77.8-57.5,79z"/>
	<path d="M-47.9,81c-0.2-0.1-0.4-0.2-0.5-0.4c-0.5-1.1-1.6-1.8-2.7-1.5c-1.2,0.3-2,1.2-2,2.5c0,0.5,0,1,0,1.5h0.1c0,0.6,0,1.2,0,1.8
		c0,0.6,0.4,1,0.9,1c1.3,0,2.5-0.1,3.7-0.2c1.2-0.1,2-1.1,2-2.2C-46.1,82.3-46.8,81.3-47.9,81z M-48.6,83.8
		c-0.8,0.1-1.6,0.1-2.4,0.1c0-0.8-0.1-1.6-0.1-2.4c0-0.2,0.3-0.4,0.4-0.4c0.2,0,0.4,0.2,0.5,0.4c0.2,0.4,0.1,0.9,0.4,1.2
		c0.3,0.3,0.8,0.2,1.2,0.3c0.2,0.1,0.4,0.3,0.5,0.5C-48.1,83.4-48.4,83.7-48.6,83.8z"/>
	<path d="M-41.3,66.3c0,0.5-0.4,1-1,1s-1-0.4-1-1c0-0.5,0.4-1,1-1C-41.8,65.4-41.3,65.8-41.3,66.3z"/>
	<path d="M-59.8,69.3c0,0.5-0.5,1-1,1c-0.5,0-0.9-0.5-0.9-1c0-0.5,0.5-1,1-1C-60.3,68.3-59.8,68.8-59.8,69.3z"/>
	<path d="M-42.3,77.1c0,0.5-0.5,0.9-1,0.9c-0.5,0-1-0.5-1-1c0-0.5,0.5-0.9,1-0.9C-42.7,76.1-42.3,76.6-42.3,77.1z"/>
	<path d="M-56.9,83.9c0,0.5-0.5,1-1,1c-0.5,0-0.9-0.5-0.9-1c0-0.5,0.5-1,1-1C-57.3,82.9-56.9,83.4-56.9,83.9z"/>
</g>
<g>
	<path d="M-38,32.5c0.1-0.4,0.2-0.6,0.5-0.8c1.7-1.3,2.7-2.9,2.8-5c0.1-3.6,0-7.3,0-10.9c0-0.5-0.1-1-0.2-1.5
		c-0.5,0.1-1,0.2-1.3,0.2v8.7h-1.4c0-0.2,0-0.4,0-0.6c-0.2-1.4-0.2-2.8-0.6-4.1c-0.9-3.9-2.9-7-6.3-9.2c-2.9-1.8-6.1-2.4-9.5-2.2
		c-0.3,0-0.6,0-0.8-0.2c-1.3-1-1.3-3,0-4c0.2-0.1,0.4-0.2,0.7-0.2c1.4,0,2.8,0,4.1,0c4.5,0.1,8.2,1.9,11,5.5c0.6,0.7,1,1.5,1.5,2.3
		c0.4-0.2,0.8-0.4,1.2-0.6c-0.1-0.2-0.1-0.3-0.2-0.5c-3-5.1-7.5-7.9-13.4-8.1c-0.8,0-1.6-0.1-2.3-0.1h-1.8c-0.9,0.1-1.8,0.1-2.6,0.2
		c-3.2,0.3-6.1,1.3-8.6,3.3c0,0-0.1,0.1-0.2,0.1c-0.7-1.2-1.3-2.4-1.9-3.7h-0.1c-0.1,0.1-0.1,0.3-0.2,0.4c-0.6,1.1-1.2,2.3-1.8,3.4
		c-0.1,0.2-0.3,0.4-0.6,0.6c-1.2,0.7-2.5,1.4-3.8,2.1c1.5,0.8,2.8,1.6,4.2,2.4c0,0.1,0,0.1,0,0.2c-1.1,2.1-1.4,4.4-1.4,6.7
		c-0.1,3.1,0,6.2,0,9.4c0,2.3,1,4.2,2.9,5.6c0.2,0.1,0.3,0.4,0.4,0.6c0.8,5.4,3.3,9.8,7.5,13.3c0.1,0.1,0.3,0.4,0.3,0.6
		c0,1.4,0,2.8,0,4.2V51h1.5v-4c0.2,0.1,0.3,0.2,0.4,0.3c1.6,1,3.3,1.7,5.1,2.1c0.2,0,0.5,0,0.7,0c1.8-0.5,3.5-1.2,5-2.1
		c0.1-0.1,0.3-0.2,0.5-0.3v4h1.4c0-1.6,0-3.1,0-4.7c0-0.2,0-0.4,0.1-0.5c0.8-0.7,1.6-1.4,2.4-2.2c0.6,1.1,1.2,2.2,1.8,3.3
		c0.1-0.2,0.2-0.3,0.3-0.5c0.6-1.1,1.1-2.2,1.8-3.2c0.1-0.3,0.4-0.5,0.7-0.7c1-0.6,2.1-1.2,3.2-1.8c0.2-0.1,0.3-0.2,0.5-0.3
		c-0.2-0.1-0.4-0.2-0.6-0.3c-1.1-0.6-2.2-1.2-3.3-1.8c-0.5-0.3-0.6-0.7-0.5-1.2C-38.8,35.7-38.4,34.1-38,32.5z M-37.7,24.7h1.4
		c0.1,1.9,0.1,3.7-1.4,5.3V24.7z M-71,7.6c0.6-0.3,1-0.6,1.5-0.8c0.5-0.2,0.8-0.5,1-1c0.2-0.5,0.5-1,0.8-1.5c0.3,0.6,0.6,1.2,1,1.7
		c0.2,0.2,0.4,0.5,0.6,0.6c0.5,0.3,1.1,0.6,1.8,1c-0.5,0.3-1,0.6-1.5,0.8c-0.5,0.2-0.8,0.6-1.1,1.1c-0.2,0.5-0.5,0.9-0.8,1.5
		c-0.3-0.6-0.6-1.2-1-1.7c-0.2-0.3-0.4-0.5-0.7-0.7C-69.8,8.2-70.4,7.9-71,7.6z M-68.4,30c-1.5-1.6-1.5-3.4-1.4-5.3h1.4V30z
		 M-68.4,22.8c0,0.1,0,0.2,0,0.4h-1.4c0-0.1,0-0.2,0-0.3c0-2.1,0-4.3,0-6.4c0-1.5,0.3-2.9,0.8-4.3c0-0.1,0.1-0.2,0.2-0.4
		c0.4,0.8,0.8,1.4,1.2,2.2c0.3-0.5,0.5-0.9,0.7-1.3c0.5-0.9,0.9-2,1.6-2.7c0.7-0.7,1.8-1.1,2.7-1.6c0.4-0.2,0.9-0.5,1.4-0.8
		c-1.1-0.6-2.1-1.2-3.2-1.8c2.3-1.8,4.8-2.8,7.7-3c-0.8,2.2-0.8,2.8,0.3,4.7C-57,7.5-57.5,7.6-58,7.8c-4.6,1.3-7.6,4.4-9.3,8.8
		C-68,18.6-68.3,20.7-68.4,22.8z M-38,40.6c-0.5,0.3-1,0.6-1.4,0.8c-0.5,0.3-0.9,0.6-1.2,1.2c-0.2,0.5-0.5,0.9-0.8,1.4
		c-0.7-1.5-1.6-2.8-3.3-3.2c0-0.1,0-0.1,0.1-0.2c0.6-0.3,1.1-0.6,1.7-0.9c0.3-0.2,0.5-0.4,0.6-0.6c0.3-0.5,0.6-1.1,1-1.8
		c0.3,0.5,0.6,1,0.8,1.5c0.2,0.5,0.6,0.8,1.1,1.1C-39,40-38.5,40.3-38,40.6z M-40.2,35.7c0,0.1-0.1,0.2-0.1,0.3
		c-0.3-0.6-0.6-1.1-1-1.8c-0.5,1-1.1,1.8-1.5,2.8c-0.4,1-1.1,1.7-2.1,2.1c-0.9,0.4-1.8,1-2.8,1.5c1.2,0.7,2.3,1.3,3.6,2
		c-0.8,0.8-1.6,1.5-2.5,2.2c-1.7,1.4-3.7,2.4-5.8,3.1c-0.4,0.1-0.8,0.1-1.2,0c-4-1.2-7.3-3.3-9.7-6.8c-1.7-2.5-2.7-5.3-3.2-8.3
		c-0.5-3-0.6-5.9-0.4-8.9c0-0.2,0.1-0.5,0.3-0.7c0.4-0.5,0.9-0.9,1.3-1.4c1.4-1.6,3.2-2.3,5.2-2.4c1.7-0.1,3.2-0.5,4.6-1.5
		c0.2-0.1,0.3-0.3,0.5-0.4c-0.3-0.4-0.6-0.7-1-1.1c-1,0.9-2.2,1.4-3.5,1.5c-0.6,0.1-1.2,0.1-1.8,0.2c-1.9,0.2-3.4,1.1-4.7,2.3
		c-0.2,0.2-0.4,0.5-0.7,0.7c0.3-2.7,1.1-5.2,2.6-7.5c1.5-2.2,3.6-3.6,6.1-4.3c3.5-1.1,6.9-1,10.3,0.1c3.9,1.3,6.3,4,7.6,7.9
		c0.1,0.4,0.2,0.8,0.3,1.2c-3.3-4-7.4-6.4-12.5-7.1V10h-1.5c0.1,1.9,0,3.8-1.3,5.4c0.4,0.3,0.8,0.6,1.2,0.9c0.3-0.6,0.7-1.1,0.9-1.7
		c0.2-0.6,0.4-1.1,0.6-1.8c1.2,0.1,2.4,0.4,3.5,0.8c4.3,1.6,7.4,4.4,9.4,8.5c0.1,0.2,0.2,0.5,0.2,0.7c0,2.3,0,4.6,0,6.9
		C-39.3,31.8-39.5,33.8-40.2,35.7z"/>
	<path d="M-73.5,13v1.5H-75v1.4h-1.5v-1.4c-0.5,0-1-0.1-1.5-0.1v-1.4c0.5,0,1-0.1,1.5-0.1v-1.4h1.5V13H-73.5z"/>
	<polygon points="-31.1,34.9 -31.1,36.3 -32.5,36.3 -32.5,37.8 -34,37.8 -34,36.4 -35.4,36.4 -35.4,34.9 -34,34.9 -34,33.5 
		-32.6,33.5 -32.6,34.9 	"/>
	<rect x="-53.8" y="4.2" width="1.4" height="1.4"/>
	<rect x="-29.5" y="30.5" width="1.4" height="1.4"/>
	<rect x="-29.5" y="39.3" width="1.4" height="1.4"/>
	<path d="M-35.3,12.7c-0.5,0.1-0.9,0.3-1.4,0.4c-0.2-0.4-0.3-0.8-0.5-1.3c0.4-0.2,0.9-0.3,1.4-0.5C-35.6,11.8-35.5,12.2-35.3,12.7z"
		/>
	<path d="M-55.2,21.8v1.4h-5.4c-1.3,0-2.5,0.4-3.6,1.4c-0.3-0.4-0.7-0.7-1-1.1c1.1-1,2.4-1.7,3.9-1.7
		C-59.3,21.7-57.3,21.8-55.2,21.8z"/>
	<path d="M-40.8,23.5c-0.3,0.3-0.6,0.7-1,1c-1.2-1.1-2.7-1.4-4.3-1.4c-1.5,0-3,0-4.6,0v-1.4c0.2,0,0.3,0,0.5,0h4.9
		c1.5,0,2.9,0.4,4.1,1.3c0.1,0.1,0.2,0.2,0.3,0.3C-41,23.4-40.9,23.4-40.8,23.5z"/>
	<path d="M-48.3,38.3c-1.9,2-7,2.3-9.5,0c0.3-0.4,0.5-0.7,0.8-1.1c2.7,1.6,5.3,1.5,8,0C-48.8,37.6-48.5,38-48.3,38.3z"/>
	<path d="M-55.6,27.7c-0.3,1.5-2,2.7-3.8,2.8c-2.2,0.1-3.8-1.3-4.2-2.7c0.4-0.2,0.8-0.4,1.3-0.5c1.2,2.4,4.5,2.2,5.5-0.1
		C-56.4,27.4-56,27.5-55.6,27.7z"/>
	<path d="M-42.6,27.8c-0.2,1.3-1.9,2.5-3.7,2.7c-1.9,0.1-3.7-1-4.3-2.7c0.5-0.2,0.9-0.4,1.3-0.5c1.1,2.1,4.1,2.5,5.5,0
		C-43.4,27.5-43,27.6-42.6,27.8z"/>
	<rect x="-62.5" y="14.5" width="1.4" height="1.4"/>
	<rect x="-59.6" y="14.5" width="1.4" height="1.4"/>
</g>
</svg>
